<svg width="140" height="57" viewBox="0 0 140 57" fill="none" xmlns="http://www.w3.org/2000/svg">
<path d="M86.1621 21.5633L90.8675 7.89467L95.4651 21.5633H86.1621ZM35.4059 15.5657H32.8627V2.50177H34.9751C38.7195 2.50177 41.2296 4.90414 41.2296 9.36095C41.2296 11.813 39.316 15.574 35.4059 15.574M6.87574 21.5633L11.5811 7.89467L16.1787 21.5633H6.87574ZM139.983 2.49349V1.36687H124.153V2.49349H126.613V24.0734L111.859 1.36687H104.992V2.49349H107.444V31.4296H103.194L92.4994 0L81.4485 31.4296H77.3562V2.49349H79.8166V1.36687H73.3302L65.1456 25.0757L56.5633 1.36687H50.1929V2.49349H52.645V31.4296H47.774C46.3988 31.4296 45.1893 30.1953 45.1893 28.1077V23.5432C45.1893 20.0473 44.0544 17.1148 40.5503 16.1207C43.5988 15.2012 45.7278 12.2852 45.7278 9.17041C45.7278 4.73846 42.4225 1.36687 36.0272 1.36687H26.4178V2.49349H28.8698V31.4296H23.916L13.2213 0L2.1787 31.4296H0V32.5562H6.1716V31.4296H3.44615L6.52781 22.6568H16.5598L19.4923 31.4296H15.7231V32.5562H36.6817V31.4296H32.8876V16.684H35.4308C39.142 16.684 41.0142 18.2083 41.0142 21.8118V24.4876C41.0142 30.8414 45.2059 32.5479 47.484 32.5479H56.4556V31.4213H53.7799V5.79882L63.845 32.8793L73.355 4.98698V31.4213H70.8947V32.5479H85.4497V31.4213H82.7243L85.8059 22.6485H95.8379L98.7787 31.4213H95.0095V32.5479H111.039V31.4213H108.579V4.08402L127.748 33.5669V2.48521H133.53V31.4213H131.07V32.5479H140V31.4213H137.54V2.48521H140L139.983 2.49349Z" fill="#010101"/>
<path d="M61.9233 50.5908H57.3919V56.373H56.3564V44.7754H57.3919V49.7127H61.9233V44.7754H62.9671V56.373H61.9233V50.5908Z" fill="#010101"/>
<path d="M67.3333 55.752C68.4268 55.752 69.2635 54.8076 69.2635 52.049C69.2635 49.2904 68.4185 48.3626 67.3333 48.3626C66.2481 48.3626 65.4032 49.307 65.4032 52.049C65.4032 54.791 66.2481 55.752 67.3333 55.752ZM67.3333 47.5508C69.2387 47.5508 70.3073 49.0585 70.3073 52.049C70.3073 55.0395 69.2387 56.5638 67.3333 56.5638C65.428 56.5638 64.3594 55.0561 64.3594 52.049C64.3594 49.0419 65.428 47.5508 67.3333 47.5508Z" fill="#010101"/>
<path d="M72.0967 48.5614H70.9121V47.7496H72.0967V45.3555H73.0742V47.7496H74.5985V48.5614H73.0742V54.7496C73.0742 55.4371 73.3642 55.6608 74.0021 55.6608C74.2009 55.6608 74.3914 55.6277 74.6068 55.5614V56.3732C74.4908 56.4395 74.2506 56.4726 73.9275 56.4726C72.6103 56.4726 72.105 56.1164 72.105 54.9649V48.5614H72.0967Z" fill="#010101"/>
<path d="M80.0071 51.2864C79.974 49.1408 79.3692 48.3621 78.168 48.3621C76.9669 48.3621 76.3704 49.1408 76.3373 51.2864H80.0071ZM80.968 53.5148C80.8189 55.3456 79.8166 56.5716 78.1929 56.5716C76.3704 56.5716 75.3018 55.3042 75.3018 52.0568C75.3018 49.0663 76.3704 47.5586 78.2757 47.5586C80.181 47.5586 81.0509 48.8758 81.0509 51.7503V52.1065H76.3373V52.5124C76.3373 54.9977 77.2154 55.7598 78.168 55.7598C79.1953 55.7598 79.8248 55.0308 79.9905 53.5148H80.968Z" fill="#010101"/>
<path d="M83.6103 44.7754H82.6328V56.373H83.6103V44.7754Z" fill="#010101"/>
</svg>
