<svg width="132" height="132" viewBox="0 0 132 132" fill="none" xmlns="http://www.w3.org/2000/svg">
<path d="M120.04 1.88583L119.244 3.20921C119.103 3.45735 119.003 3.56487 118.389 3.60623H94.1864C94.4603 3.15131 94.6926 2.73776 94.8835 2.37383C94.8918 2.36556 95.7467 0.835389 97.2822 0.835389H119.451C119.684 0.835389 119.991 0.868475 120.14 1.13315C120.165 1.17451 120.206 1.24067 120.206 1.37301C120.206 1.48881 120.165 1.65424 120.049 1.88583M117.077 4.49952L116.231 5.98005C116.115 6.20337 115.932 6.54249 115.376 6.73273C114.903 6.84852 113.965 6.77408 113.641 6.73273L93.0493 5.36799C93.3232 4.97097 93.5639 4.59877 93.788 4.23484H117.26C117.202 4.31755 117.136 4.40026 117.077 4.49124M113.575 7.75835C113.575 7.75835 112.761 9.181 112.604 9.47876C112.562 9.53666 112.322 9.79306 111.575 9.69381L91.8458 7.05531C92.1114 6.69965 92.377 6.35226 92.6094 6.01314L113.567 7.40269C113.567 7.40269 113.683 7.41923 113.816 7.42751C113.733 7.52676 113.65 7.63428 113.583 7.76662M106.786 11.5796C106.047 11.7781 104.594 11.5548 104.088 11.4473C104.088 11.4473 94.8088 9.54492 90.5344 8.66818C90.8332 8.32079 91.1154 7.9734 91.381 7.63428L111.193 10.2811L106.786 11.5714V11.5796ZM100.071 13.5399C99.1165 13.7963 97.8715 13.3827 97.8632 13.3827H97.8466L88.7748 10.5954C89.223 10.1404 89.6546 9.68554 90.053 9.23889L103.964 12.0842C103.964 12.0842 104.279 12.1503 104.686 12.2082L100.079 13.5564L100.071 13.5399ZM92.9829 15.616C92.3355 15.7897 91.381 15.4175 91.0739 15.2603C91.0739 15.2603 88.642 14.1272 86.1521 12.9609C86.8991 12.3489 87.6045 11.7285 88.2519 11.0916L97.664 13.9865C97.664 13.9865 97.8549 14.0444 98.1122 14.1106L92.9829 15.616ZM91.5304 17.0303C91.2565 17.7334 90.9743 18.453 89.0404 19.1726C88.2436 19.4207 87.2974 18.7176 87.2891 18.7094C87.2891 18.7094 85.1395 17.1709 82.691 15.4257C83.6787 14.8137 84.6581 14.1437 85.596 13.4076L90.8 15.831C90.8 15.831 91.3644 16.1205 92.0118 16.2363C91.6964 16.592 91.5636 16.9559 91.5304 17.0221M84.2597 20.529L83.5376 20.7275C82.9234 20.8681 82.1764 20.2726 81.9357 20.0245C81.9357 20.0245 80.7737 18.8086 79.2632 17.2454C80.226 16.807 81.1638 16.3273 82.0851 15.7897L86.9074 19.2305C86.9074 19.2305 87.2062 19.4538 87.6045 19.6275C86.5339 19.917 84.2597 20.5373 84.2597 20.5373M77.8854 22.266C77.3791 22.3487 76.7815 21.5133 76.6155 21.199L75.163 18.7507C76.3499 18.4116 77.5119 18.0063 78.6407 17.5183L81.4792 20.4711C81.4792 20.4711 81.8195 20.8185 82.2677 21.0749L77.8937 22.266H77.8854ZM73.0632 23.5811C72.7229 23.6555 72.4324 23.6225 72.1834 23.4736C71.6522 23.151 71.4779 22.4066 71.4696 22.357L70.7309 19.6854C72.0257 19.5117 73.2956 19.2553 74.5322 18.9244L76.076 21.5133C76.1258 21.6126 76.4329 22.1502 76.906 22.5224L73.0715 23.5645L73.0632 23.5811ZM69.9341 22.6134C69.9341 22.6134 67.8757 20.6531 67.1703 19.9914C68.1579 19.9583 69.1207 19.8839 70.0752 19.7681L70.8388 22.4893C70.8637 22.5886 71.0048 23.1841 71.4281 23.6555C70.8471 23.4901 70.6728 23.3164 69.9341 22.6051M66.3237 19.3628V11.0585H67.6516L69.9009 19.1477C68.7306 19.2801 67.5354 19.3545 66.3237 19.3628ZM62.099 19.1477L64.3566 11.0585H65.6846V19.3628C64.4645 19.3545 63.2693 19.2801 62.099 19.1477ZM61.5097 23.1427C61.2192 23.4239 60.8872 23.5811 60.5719 23.6638C60.9951 23.1841 61.1445 22.5886 61.1694 22.4976L61.9247 19.7764C62.8709 19.8922 63.842 19.9583 64.8214 19.9914C64.0412 20.7358 61.5097 23.1427 61.5097 23.1427ZM60.5386 22.3487C60.5386 22.3487 60.3644 23.1427 59.8166 23.4736C59.5676 23.6225 59.2771 23.6555 58.9451 23.5811L55.1105 22.5389C55.5836 22.1585 55.899 21.6126 55.9488 21.5216C55.9488 21.5216 56.5962 20.4298 57.476 18.941C58.7127 19.2718 59.9826 19.5199 61.2773 19.7019L60.5386 22.3652V22.3487ZM54.1062 22.266L49.7322 21.0749C50.1887 20.8185 50.4958 20.4877 50.5207 20.4711C50.5207 20.4711 51.774 19.1643 53.3593 17.5183C54.488 17.9981 55.65 18.4116 56.8369 18.7507L55.3927 21.1907C55.2184 21.505 54.6208 22.3404 54.1145 22.2577M48.4623 20.7275L44.3871 19.6192C44.7938 19.4455 45.076 19.2387 45.0926 19.2222C45.0926 19.2222 47.3667 17.601 49.9065 15.7897C50.8195 16.3273 51.7657 16.807 52.7285 17.2454L50.0559 20.0245C49.8152 20.2726 49.0682 20.8764 48.4623 20.7275ZM42.9512 19.1808C41.0339 18.4612 40.7434 17.7334 40.4695 17.0386C40.4446 16.9724 40.3118 16.6002 39.9964 16.2446C40.6438 16.1288 41.1833 15.8558 41.2165 15.831C41.2165 15.831 43.8144 14.6151 46.4123 13.4158C47.3501 14.1437 48.3212 14.8219 49.3172 15.434L44.7274 18.7094C44.7274 18.7094 43.7563 19.429 42.9595 19.1808M39.0171 15.616C38.8262 15.5581 36.6682 14.9295 33.8877 14.1106C34.1533 14.0527 34.3276 13.9948 34.3442 13.9865C34.3442 13.9865 41.9718 11.6458 43.748 11.0916C44.4037 11.7285 45.1009 12.3571 45.8479 12.9609L40.9426 15.252C40.6189 15.4175 39.6645 15.7897 39.0254 15.616M31.9373 13.5482C30.4267 13.1015 28.8248 12.6383 27.3225 12.2C27.7209 12.1421 28.0114 12.0842 28.0363 12.0759C28.0363 12.0759 37.8634 10.066 41.9469 9.23062C42.3536 9.67726 42.7769 10.1322 43.2251 10.5871L34.145 13.3827C34.145 13.3827 32.8834 13.7963 31.9373 13.5482ZM25.2144 11.5796C23.1726 10.9841 21.5043 10.4961 20.7988 10.2893L40.6106 7.64256C40.8845 7.98168 41.1667 8.32906 41.4572 8.67645L27.9035 11.4556C27.3972 11.5631 25.9531 11.7864 25.2061 11.5879M20.4336 9.69381C19.6783 9.79306 19.4459 9.54493 19.4044 9.48703L18.4168 7.75835C18.3504 7.63429 18.2757 7.51849 18.1927 7.42751C18.3172 7.41923 39.3989 6.02141 39.3989 6.02141C39.6395 6.36053 39.8886 6.70792 40.1624 7.06358L20.4336 9.70208V9.69381ZM16.624 6.73273C16.0596 6.54249 15.877 6.20337 15.7691 5.98005C15.4288 5.40107 14.964 4.51606 14.7482 4.24311H38.2203C38.4444 4.60704 38.6851 4.97924 38.959 5.37626L18.367 6.741C18.0433 6.78236 17.1054 6.8568 16.6323 6.741M13.6194 3.59796C13.055 3.5566 12.9305 3.49043 12.7562 3.20094C12.7562 3.20094 12.0093 1.96854 11.9512 1.87755C11.835 1.65423 11.7852 1.48881 11.7935 1.36474C11.8101 1.06698 12.0093 0.835388 12.5487 0.827116H34.726C36.2283 0.827116 37.1164 2.36555 37.1164 2.36555C37.3073 2.72948 37.5397 3.14304 37.8136 3.59796H13.6111H13.6194ZM57.0278 0.835389C58.057 0.835389 58.8787 1.13315 59.4763 1.72867C59.8996 2.1505 60.1983 2.72122 60.356 3.40772C60.356 3.40772 60.3892 3.52352 60.4307 3.60623H38.5772C38.2369 3.06033 37.6891 2.06779 37.6891 2.06779C37.6642 2.01816 37.2907 1.35647 36.5935 0.835389H57.0278ZM88.6835 5.08677V4.24311H93.0244C92.8086 4.5905 92.5679 4.94616 92.3023 5.32663L88.6752 5.08677H88.6835ZM88.6835 6.63347V5.75673L91.8624 5.96351C91.63 6.28609 91.381 6.61693 91.1154 6.95605L88.6918 6.63347H88.6835ZM88.6835 8.28771V7.27863L90.6506 7.53503C90.3933 7.85761 90.1111 8.18846 89.8206 8.5193C89.3143 8.41178 88.9242 8.33733 88.6835 8.28771ZM88.6835 8.9494L89.3226 9.08174C89.1151 9.30506 88.8993 9.53666 88.6835 9.75998V8.9494ZM82.0602 11.0585H87.3639C86.8244 11.5962 85.5462 12.6301 85.5047 12.6632C84.2099 12.0676 82.9566 11.4721 82.0602 11.0585ZM76.5574 11.0585H80.533L84.932 13.1098C84.019 13.8046 83.0811 14.4415 82.11 15.0287C79.9853 13.5151 77.7526 11.9188 76.5491 11.0585M73.3122 11.0585H75.4535L81.5207 15.3844C80.6326 15.8889 79.728 16.3438 78.7984 16.7574C76.8064 14.6813 74.3994 12.1834 73.3205 11.0585M70.5981 11.0585H72.4158L78.1593 17.0221C77.0803 17.4687 75.9681 17.8574 74.8227 18.18L70.5981 11.0585ZM69.8594 11.0585L74.1836 18.3537C73.0051 18.6598 71.785 18.8913 70.5483 19.0568L68.3239 11.0503H69.8594V11.0585ZM62.1405 11.0585H63.676L61.4516 19.065C60.215 18.8996 59.0032 18.668 57.8163 18.362C59.4348 15.6325 61.601 11.9849 62.1405 11.0668M59.5842 11.0585H61.3935L57.1772 18.18C56.0318 17.8657 54.9279 17.477 53.8406 17.0221C56.148 14.6317 58.9119 11.7533 59.5842 11.0585ZM56.5464 11.0585H58.6795L53.2016 16.7574C52.272 16.3438 51.3673 15.8889 50.4792 15.3844C53.1103 13.5068 55.8492 11.5548 56.5381 11.0585M46.4953 12.6632C46.4538 12.6218 45.1839 11.5631 44.6361 11.0585H49.9397L46.4869 12.6632H46.4953ZM51.4586 11.0585H55.4342L49.8733 15.0287C48.9022 14.4415 47.9643 13.8046 47.0513 13.1098C49.1429 12.1338 51.0685 11.2322 51.4503 11.0585M43.3164 8.9494V9.75998C43.1006 9.53666 42.8848 9.30506 42.6773 9.08174C42.9346 9.02384 43.1421 8.98248 43.3164 8.9494ZM43.3164 7.27863V8.28771L42.1876 8.5193C41.8971 8.18846 41.6232 7.86588 41.3576 7.53503L43.3164 7.27863ZM43.3164 5.75673V6.63347L40.8928 6.95605C40.6355 6.61693 40.3782 6.28609 40.1458 5.96351L43.3081 5.75673H43.3164ZM43.3164 5.08677L39.706 5.32663C39.4487 4.95443 39.208 4.5905 38.9839 4.24311H43.3164V5.08677ZM43.9638 10.4217V10.4134V4.25138H88.0361V10.4217H43.9721H43.9638ZM71.6439 3.39945C71.8016 2.71294 72.0921 2.1505 72.5237 1.7204C73.113 1.13315 73.9429 0.827116 74.9721 0.827116H95.4064C94.7092 1.3482 94.3357 2.01817 94.3108 2.05952C94.0702 2.49789 93.7797 3.01898 93.4228 3.59796H71.5692C71.619 3.52352 71.6439 3.39945 71.6439 3.39945ZM120.837 0.711321C120.447 0.0661698 119.758 0.0248153 119.451 0.00827293H74.9638C73.7023 0.00827293 72.6897 0.397017 71.9344 1.14142C71.4032 1.67905 71.0297 2.37382 70.8388 3.21748C70.8388 3.25057 70.7724 3.41599 70.3989 3.41599H61.6093C61.2275 3.41599 61.1777 3.2423 61.1694 3.21748C60.9702 2.37382 60.605 1.67078 60.0656 1.13315C59.3103 0.380476 58.2894 0 57.0278 0H12.5404C12.2583 0.00827116 11.5445 0.0579001 11.1627 0.703051C10.9801 1.00908 10.839 1.53844 11.2374 2.27457L12.0508 3.62277C12.3828 4.16867 12.7645 4.36718 13.5613 4.4168C13.5696 4.4168 13.9431 4.45816 14.2087 4.9048L15.0304 6.36053C15.213 6.69137 15.6197 7.47713 17.0224 7.6591C17.0473 7.6591 17.454 7.70873 17.6864 8.13883L18.7073 9.93367C19.0061 10.5044 19.4211 10.7277 20.1846 10.9593L38.793 16.4017C39.4238 16.5837 39.6894 17.3033 39.6894 17.3033C40.1292 18.4447 40.7019 19.3876 43.6152 20.2561L58.8372 24.3999C59.0198 24.4578 60.771 24.9872 62.0824 23.7217L65.6514 20.3223C65.6514 20.3223 65.8008 20.1734 66 20.1734C66.1992 20.1734 66.3486 20.3223 66.3486 20.3223L69.9258 23.7134C71.2372 24.9789 72.9885 24.4413 73.1711 24.3834C73.1711 24.3834 88.3764 20.2561 88.393 20.2478C91.298 19.3793 91.8873 18.4199 92.3106 17.295C92.3272 17.2454 92.5845 16.5754 93.207 16.3934C93.207 16.3934 96.0206 15.5663 111.807 10.951C112.579 10.7112 112.994 10.4961 113.293 9.9254L114.314 8.13883C114.546 7.70045 114.953 7.65083 114.969 7.65083C116.389 7.46059 116.804 6.67483 116.978 6.35225L117.808 4.89653C118.065 4.44989 118.439 4.40853 118.455 4.40853C119.244 4.35891 119.634 4.1604 119.966 3.6145L120.779 2.2663C120.953 1.952 121.045 1.64596 121.045 1.36474C121.045 1.12488 120.987 0.901559 120.862 0.703051" fill="#010101"/>
<path d="M46.056 7.51963C46.0975 7.42865 46.5872 6.27068 46.6453 6.13835C46.7117 6.27068 47.2097 7.42865 47.2512 7.51963H46.056ZM46.8943 5.22852H46.7034L44.8193 9.43027H45.3256V9.40546C45.4833 8.89264 45.6825 8.40464 45.8734 7.93319C45.8734 7.93319 45.8983 7.86702 45.9149 7.83393H47.3674C47.5666 8.28058 47.7658 8.79339 47.9816 9.40546L47.9982 9.43027H48.7037L46.8943 5.22852Z" fill="#010101"/>
<path d="M48.9199 9.14813C49.144 9.39627 49.6503 9.50379 49.9159 9.50379C50.7957 9.50379 51.4182 8.93308 51.4182 8.12251C51.4182 7.44427 50.9119 7.24576 50.4056 7.05553C49.9657 6.88183 49.5507 6.71641 49.5507 6.22014C49.5507 5.83966 49.8495 5.56672 50.2645 5.56672C50.5965 5.56672 50.8372 5.74041 50.9617 6.05471V6.07953H51.0862L51.2605 5.55018L51.2439 5.53363C51.0032 5.31858 50.638 5.24414 50.3724 5.24414C49.5507 5.24414 49.0195 5.69905 49.0195 6.41037C49.0195 7.12169 49.559 7.34502 50.0404 7.53525C50.472 7.70895 50.8787 7.8661 50.8787 8.36237C50.8787 8.82555 50.5301 9.18949 50.0902 9.18949C49.6918 9.18949 49.4179 9.01579 49.1606 8.59396V8.57742H49.0444L48.9199 9.14813Z" fill="#010101"/>
<path d="M54.7462 5.32031H51.6504V5.75041H51.6919C52.0488 5.70906 52.3974 5.67597 52.9535 5.67597V9.44762H53.5511V5.67597C53.9744 5.67597 54.3727 5.70079 54.7545 5.75041H54.796V5.32031H54.7545H54.7462Z" fill="#010101"/>
<path d="M57.9747 8.76903C57.6842 9.07507 57.319 9.23222 56.8791 9.23222C55.9164 9.23222 55.3022 8.52917 55.3022 7.44565C55.3022 6.24633 55.9247 5.49365 56.9372 5.49365C57.4186 5.49365 57.8668 5.70043 58.1407 6.05609C58.4478 6.44483 58.5142 6.85012 58.5142 7.33812C58.5142 7.36294 58.5142 7.39602 58.5142 7.42083C58.5142 7.80958 58.3565 8.37202 57.983 8.76903M56.8791 5.22897C55.5595 5.22897 54.6465 6.11399 54.6465 7.3712C54.6465 8.62842 55.5429 9.49689 56.8708 9.49689C58.1988 9.49689 59.1616 8.61188 59.1616 7.28022C59.1616 5.85758 58.0162 5.2207 56.8791 5.2207" fill="#010101"/>
<path d="M63.2857 5.31686H62.9206V8.36065L60.0986 5.31686H59.8164V9.42763H60.2231V6.24324H60.2314L62.7795 9.05543L63.0949 9.41936H63.1115H63.3273V5.30859H63.2857V5.31686Z" fill="#010101"/>
<path d="M69.959 5.32031H69.8179L68.8136 7.12343C68.8136 7.12343 68.1828 8.27312 68.1247 8.37237C67.5105 7.34675 66.9545 6.2715 66.4814 5.33686V5.32031H66.2573V5.3534C66.1992 5.96546 65.8423 8.43854 65.6846 9.38973V9.43108H66.1826V9.398C66.1826 8.81902 66.2822 7.95054 66.3901 7.04072C66.3901 7.04072 66.4399 6.63543 66.4648 6.47828C66.5312 6.61062 67.3113 8.08288 67.6018 8.68668L67.9338 9.37318H68.0583V9.34837C68.4069 8.56261 68.8966 7.65278 69.5606 6.47C69.6519 7.17305 69.7847 8.5957 69.8511 9.40627V9.43935H70.4902V9.398C70.3408 8.39719 70.1831 7.08207 70.0005 5.36167V5.32859H69.959V5.32031Z" fill="#010101"/>
<path d="M71.9593 7.51963C71.9925 7.42865 72.4905 6.27068 72.5486 6.13835C72.6067 6.27068 73.113 7.42865 73.1545 7.51963H71.9593ZM72.7893 5.22852H72.6067L70.7227 9.43027H71.2289V9.40546C71.3949 8.89264 71.5858 8.40464 71.7767 7.92492C71.7767 7.92492 71.8016 7.86702 71.8182 7.83393H73.279C73.4782 8.28885 73.6857 8.8182 73.8932 9.40546V9.43027H74.607L72.7893 5.22852Z" fill="#010101"/>
<path d="M75.5532 7.16478V5.60981C75.8021 5.60153 76.1756 5.58499 76.3831 5.60981C76.7981 5.67597 77.0139 5.91584 77.0139 6.32112C77.0139 6.72641 76.7317 7.03245 76.2835 7.1317C76.0262 7.18133 75.7109 7.17305 75.5615 7.16478M76.4163 7.40465C77.1633 7.25577 77.6115 6.82567 77.6115 6.25495C77.6115 5.62635 77.1633 5.32031 76.2586 5.32031H74.9639V9.43108H75.5532V7.45427H75.7275L76.184 8.00017L76.8811 8.90173L77.2712 9.43108H77.2878H78.0514C78.0514 9.43108 76.4827 7.48736 76.4163 7.39638" fill="#010101"/>
<path d="M81.0387 5.32031H77.9346V5.75041H77.9761C78.333 5.70906 78.6733 5.67597 79.2376 5.67597V9.44762H79.8352V5.67597C80.2502 5.67597 80.6569 5.70079 81.0304 5.75041H81.0719V5.32031H81.0387Z" fill="#010101"/>
<path d="M82.1269 5.32031H81.5625V9.43108H82.1269V5.32031Z" fill="#010101"/>
<path d="M86.1188 5.31686V8.36065H86.1105L83.2968 5.31686H83.0146V9.42763H83.4213V6.24324L85.9777 9.05543L86.2931 9.41936H86.5255V5.30859H86.1188V5.31686Z" fill="#010101"/>
<path d="M3.23695 45.037C3.52744 45.037 3.83454 45.037 4.15823 45.0535C4.47363 45.0535 4.78073 45.0618 5.07952 45.0618C5.39492 45.0618 5.71031 45.0618 6.03401 45.0618C6.3494 45.0618 6.6648 45.0452 6.98849 45.037L5.10442 40.736L3.25355 45.037H3.23695ZM10.7649 50.2974C10.6072 50.2809 10.4578 50.2644 10.3167 50.2644H9.41206C9.27096 50.2644 9.11326 50.2809 8.96386 50.2974C8.88086 50.041 8.78127 49.7267 8.64017 49.3628C8.50737 48.9989 8.35797 48.6184 8.19197 48.2131C8.02598 47.8161 7.85998 47.4108 7.68568 46.9972C7.51968 46.5837 7.36199 46.1949 7.21259 45.8227C6.84739 45.8062 6.4822 45.7979 6.1087 45.7979C5.73521 45.7979 5.35342 45.7979 4.97993 45.7979C4.63133 45.7979 4.28274 45.7979 3.94244 45.7979C3.60215 45.7979 3.26185 45.8145 2.90496 45.8227C2.53976 46.6912 2.21607 47.5349 1.91727 48.3372C1.61847 49.1312 1.40267 49.7846 1.25328 50.3057C1.06238 50.2892 0.854883 50.2726 0.630786 50.2726C0.406689 50.2726 0.190897 50.2892 0 50.3057C0.921286 48.3372 1.81767 46.3686 2.68916 44.4166C3.56065 42.4646 4.44043 40.4796 5.32852 38.4531H5.65221C5.92611 39.1065 6.2166 39.8179 6.532 40.5788C6.84739 41.3398 7.17109 42.109 7.49479 42.8947C7.82678 43.6722 8.15877 44.4497 8.48247 45.2189C8.81446 45.9799 9.12156 46.6995 9.41206 47.3612C9.70255 48.0146 9.95985 48.6101 10.2005 49.1229C10.4329 49.644 10.6155 50.041 10.7649 50.3057" fill="#010101"/>
<path d="M12.8891 48.7181C13.0385 48.9249 13.2294 49.1151 13.4535 49.2805C13.6693 49.446 13.9265 49.5866 14.2253 49.6941C14.5158 49.8099 14.8478 49.8595 15.2047 49.8595C15.5865 49.8595 15.9185 49.8016 16.2173 49.661C16.5161 49.5287 16.7734 49.355 16.9809 49.1399C17.1884 48.9249 17.3461 48.6602 17.4623 48.3624C17.5785 48.0647 17.6283 47.7421 17.6283 47.403C17.6283 46.8819 17.4872 46.4766 17.2299 46.1706C16.9643 45.8645 16.6323 45.6081 16.2422 45.4096C15.8438 45.2029 15.4122 45.0209 14.9557 44.8472C14.4992 44.6818 14.0676 44.4667 13.6775 44.2103C13.2792 43.9539 12.9472 43.6313 12.6816 43.2343C12.416 42.8456 12.2749 42.3079 12.2749 41.6462C12.2749 41.1665 12.3579 40.7364 12.5322 40.3477C12.7065 39.9589 12.9472 39.6198 13.2709 39.3386C13.5946 39.0574 13.9846 38.8423 14.4328 38.6852C14.8893 38.528 15.3956 38.4453 15.9683 38.4453C16.541 38.4453 16.9809 38.5115 17.3793 38.6438C17.7694 38.7762 18.1429 38.9747 18.4832 39.2393C18.3753 39.4296 18.3006 39.6364 18.2259 39.8514C18.1595 40.0665 18.0931 40.3311 18.0184 40.662H17.8192C17.7611 40.5048 17.6864 40.3394 17.5951 40.1492C17.4955 39.9672 17.371 39.7852 17.1967 39.6281C17.0307 39.4709 16.8398 39.3386 16.6157 39.2311C16.3916 39.1153 16.1177 39.0656 15.8023 39.0656C15.4869 39.0656 15.1881 39.1153 14.9308 39.2228C14.6569 39.3221 14.4245 39.4709 14.2336 39.6529C14.0344 39.8431 13.885 40.0665 13.7771 40.3229C13.6693 40.5793 13.6111 40.8605 13.6111 41.1665C13.6111 41.6959 13.7439 42.1177 14.0095 42.4237C14.2751 42.7298 14.6071 42.9862 15.0055 43.193C15.4039 43.3997 15.8355 43.59 16.292 43.7554C16.7485 43.9208 17.1801 44.1193 17.5785 44.3509C17.9769 44.5908 18.3089 44.8968 18.5745 45.269C18.8401 45.633 18.9729 46.1375 18.9729 46.7578C18.9729 47.2706 18.8816 47.7669 18.6907 48.2301C18.5081 48.6933 18.2342 49.0903 17.8773 49.4377C17.5204 49.7851 17.0888 50.0498 16.5659 50.2317C16.0513 50.422 15.4703 50.5129 14.8063 50.5129C14.1008 50.5129 13.5282 50.422 13.0966 50.2317C12.6567 50.0498 12.2998 49.8347 12.001 49.5948C12.1006 49.3384 12.1753 49.0986 12.2168 48.8918C12.25 48.685 12.2915 48.4203 12.333 48.0812H12.5322C12.6235 48.288 12.748 48.4948 12.8974 48.7016" fill="#010101"/>
<path d="M23.879 39.5442C23.5802 39.5442 23.2731 39.5443 22.9494 39.5608C22.6257 39.5608 22.302 39.5773 21.9783 39.5939C21.6546 39.6104 21.3392 39.627 21.0487 39.6518C20.7499 39.6683 20.4843 39.7014 20.2354 39.7345C20.2935 39.536 20.3183 39.354 20.3183 39.1969C20.3183 39.0728 20.2935 38.8908 20.2354 38.6758C20.9823 38.6923 21.7127 38.7171 22.4265 38.7254C23.1403 38.7502 23.8707 38.7502 24.6177 38.7502C25.3647 38.7502 26.0951 38.7502 26.8089 38.7254C27.5226 38.7089 28.253 38.6923 29 38.6758C28.9502 38.8991 28.917 39.0728 28.917 39.2134C28.917 39.354 28.9502 39.536 29 39.7345C28.7593 39.7014 28.4937 39.6683 28.1949 39.6518C27.8961 39.627 27.5807 39.6104 27.257 39.5939C26.9334 39.5773 26.618 39.5691 26.2943 39.5608C25.9789 39.5525 25.6635 39.5442 25.373 39.5442C25.3398 40.7105 25.3149 41.8767 25.3149 43.0512V45.9709C25.3149 46.7154 25.3315 47.4515 25.3564 48.1711C25.3896 48.8989 25.4145 49.602 25.4477 50.305C25.1904 50.2885 24.9082 50.272 24.6177 50.272C24.3272 50.272 24.045 50.2885 23.7794 50.305C23.8126 49.6103 23.8458 48.8989 23.8707 48.1711C23.9039 47.4515 23.9122 46.7154 23.9122 45.9709V43.0512C23.9122 41.8767 23.8956 40.7105 23.8624 39.5442" fill="#010101"/>
<path d="M40.3118 42.0764C40.0794 41.3981 39.7474 40.8357 39.3241 40.389C38.9008 39.9424 38.4028 39.6115 37.8302 39.3882C37.2658 39.1814 36.6433 39.0739 35.971 39.0739C35.2987 39.0739 34.7011 39.1814 34.1284 39.3882C33.5557 39.6115 33.0577 39.9424 32.6344 40.389C32.2111 40.8357 31.8791 41.3981 31.6468 42.0764C31.4061 42.7629 31.2899 43.5734 31.2899 44.5081C31.2899 45.4427 31.4061 46.2533 31.6468 46.9398C31.8791 47.6263 32.2111 48.1887 32.6344 48.6354C33.0577 49.082 33.564 49.4129 34.1284 49.6279C34.7011 49.8512 35.3153 49.9505 35.971 49.9505C36.6267 49.9505 37.2658 49.843 37.8302 49.6279C38.4028 49.4129 38.9008 49.082 39.3241 48.6354C39.7474 48.1887 40.0794 47.6263 40.3118 46.9398C40.5525 46.2616 40.677 45.451 40.677 44.5081C40.677 43.5652 40.5608 42.7629 40.3118 42.0764ZM30.0698 41.944C30.3769 41.1913 30.8168 40.5545 31.3729 40.0416C31.9372 39.5206 32.6095 39.1235 33.3897 38.8589C34.1699 38.5942 35.0248 38.4453 35.9544 38.4453C36.884 38.4453 37.7555 38.5859 38.5357 38.8589C39.3158 39.1318 39.9881 39.5206 40.5525 40.0416C41.1169 40.5627 41.5485 41.1913 41.8639 41.944C42.171 42.6967 42.3287 43.5569 42.3287 44.5081C42.3287 45.4593 42.171 46.3195 41.8639 47.0721C41.5485 47.8248 41.1169 48.4617 40.5525 48.9828C39.9881 49.5039 39.3158 49.8926 38.5357 50.1407C37.7555 50.3889 36.8923 50.5212 35.9544 50.5212C35.0165 50.5212 34.1699 50.3971 33.3897 50.1407C32.6095 49.8843 31.9372 49.4956 31.3729 48.9828C30.8168 48.4617 30.3769 47.8248 30.0698 47.0721C29.7544 46.3195 29.5967 45.4675 29.5967 44.5081C29.5967 43.5486 29.7544 42.6967 30.0698 41.944Z" fill="#010101"/>
<path d="M50.2963 45.9044C48.8189 44.3329 47.3498 42.7614 45.8724 41.1981C45.8558 41.5124 45.8475 41.9342 45.8392 42.4719C45.8226 43.0012 45.8143 43.7208 45.8143 44.6389C45.8143 44.8788 45.8143 45.1683 45.8143 45.5239C45.8143 45.8713 45.8309 46.2353 45.8309 46.6157C45.8309 47.0045 45.8475 47.3932 45.8641 47.7902C45.8724 48.1872 45.889 48.5512 45.8973 48.8903C45.9139 49.2377 45.9139 49.5272 45.9305 49.7836C45.9305 50.0317 45.9554 50.2054 45.9637 50.2964C45.7811 50.2799 45.5736 50.2633 45.3661 50.2633C45.142 50.2633 44.9262 50.2799 44.7354 50.2964C44.7603 50.1889 44.7852 49.9821 44.8101 49.6678C44.835 49.37 44.8681 49.0061 44.8847 48.5843C44.9096 48.1542 44.9346 47.6992 44.9595 47.1947C44.9844 46.7067 45.0093 46.2022 45.0259 45.7059C45.0425 45.2096 45.059 44.7216 45.0673 44.2502C45.0756 43.7704 45.084 43.3486 45.084 42.9764C45.084 41.8929 45.084 40.9583 45.084 40.1808C45.084 39.4033 45.0673 38.8243 45.0341 38.4355H45.308C46.0052 39.1882 46.7356 39.9823 47.5241 40.8342C48.3126 41.6861 49.0928 42.5298 49.873 43.3569C50.6532 44.1923 51.3836 44.978 52.0807 45.7142C52.7779 46.4503 53.3838 47.0789 53.9067 47.6V45.3006C53.9067 44.1178 53.9067 42.9599 53.8818 41.835C53.8652 40.7101 53.8237 39.6514 53.7739 38.6671C53.998 38.7168 54.1889 38.7498 54.3549 38.7498C54.4877 38.7498 54.6703 38.725 54.8944 38.6671C54.8695 38.9153 54.8446 39.2792 54.8197 39.7837C54.7865 40.28 54.7616 40.8094 54.7367 41.3801C54.7035 41.9425 54.6786 42.4967 54.662 43.0343C54.6371 43.5719 54.6288 44.0103 54.6288 44.3412V45.3502C54.6288 45.739 54.6288 46.136 54.6288 46.5578C54.6288 46.9797 54.6288 47.4015 54.6454 47.8233C54.6454 48.2451 54.6537 48.6422 54.662 49.0061C54.662 49.37 54.6703 49.6843 54.6703 49.9656V50.528H54.4296C53.1265 49.0226 51.7405 47.4842 50.2714 45.9127" fill="#010101"/>
<path d="M69.1953 43.1088C69.9921 44.6224 70.8304 46.1774 71.7019 47.7737C71.8181 47.5586 71.9841 47.2443 72.1916 46.8473C72.4074 46.4503 72.6564 45.9871 72.9386 45.466C73.2208 44.9532 73.5279 44.3825 73.8516 43.787C74.1753 43.1749 74.499 42.5711 74.8393 41.9425C75.1712 41.3222 75.5032 40.7184 75.8269 40.1146C76.1589 39.5191 76.466 38.9566 76.7399 38.4355H76.964C77.0885 39.5273 77.2047 40.5695 77.3126 41.5786C77.4205 42.5877 77.5284 43.5885 77.6446 44.5562C77.7608 45.5405 77.8687 46.4999 77.9849 47.4594C78.1011 48.4106 78.2256 49.3535 78.3584 50.2881C78.2256 50.2716 78.0928 50.255 77.96 50.255H77.1632C77.0304 50.255 76.9059 50.2716 76.7648 50.2881C76.632 48.791 76.5158 47.3353 76.3913 45.921C76.2668 44.5066 76.1174 43.0757 75.9348 41.6034H75.9016C75.1214 43.026 74.3496 44.4404 73.6026 45.8465C72.8473 47.2443 72.1252 48.7249 71.4446 50.255H71.2952C70.6146 48.8407 69.9091 47.4098 69.1621 45.9871C68.4234 44.5562 67.6765 43.0922 66.9295 41.6034H66.8963C66.8133 42.3065 66.7303 43.0674 66.639 43.8862C66.5477 44.6968 66.4564 45.5074 66.3734 46.3097C66.2987 47.1037 66.2323 47.8564 66.1742 48.5677C66.1161 49.2708 66.0912 49.8498 66.0912 50.2964C65.9086 50.2799 65.7094 50.2633 65.4936 50.2633C65.2778 50.2633 65.0786 50.2799 64.9043 50.2964C65.0537 49.3783 65.2031 48.4188 65.3608 47.4015C65.5185 46.3841 65.6679 45.3585 65.8173 44.3412C65.9584 43.3155 66.0995 42.2982 66.224 41.2974C66.3485 40.2966 66.4564 39.3454 66.5477 38.4355H66.8382C67.6184 40.0402 68.4151 41.6034 69.2119 43.1088" fill="#010101"/>
<path d="M83.7951 45.037C84.0939 45.037 84.4009 45.037 84.7163 45.0535C85.04 45.0535 85.3388 45.0618 85.6376 45.0618C85.953 45.0618 86.2684 45.0618 86.5921 45.0618C86.9158 45.0618 87.2312 45.0452 87.5466 45.037L85.6625 40.736L83.8117 45.037H83.7951ZM91.3313 50.2974C91.1737 50.2809 91.0242 50.2644 90.8831 50.2644H89.9868C89.8457 50.2644 89.6963 50.2809 89.5303 50.2974C89.4556 50.041 89.3477 49.7267 89.2066 49.3628C89.0738 48.9989 88.9244 48.6184 88.7584 48.2131C88.5924 47.8161 88.4264 47.4108 88.2604 46.9972C88.0944 46.5837 87.9367 46.1949 87.779 45.8227C87.4138 45.8062 87.0486 45.7979 86.6751 45.7979C86.3016 45.7979 85.9281 45.7979 85.5463 45.7979C85.1977 45.7979 84.8574 45.7979 84.5088 45.7979C84.1686 45.7979 83.8283 45.8145 83.4714 45.8227C83.1062 46.6912 82.7742 47.5349 82.4837 48.3372C82.1932 49.1312 81.9691 49.7846 81.8197 50.3057C81.6288 50.2892 81.413 50.2726 81.1972 50.2726C80.9814 50.2726 80.7573 50.2892 80.5664 50.3057C81.4877 48.3372 82.3841 46.3686 83.2556 44.4166C84.127 42.4646 85.0068 40.4796 85.8866 38.4531H86.2103C86.4759 39.1065 86.7747 39.8179 87.0901 40.5788C87.4055 41.3398 87.7292 42.109 88.0612 42.8947C88.3932 43.6722 88.7169 44.4497 89.0489 45.2189C89.3809 45.9799 89.688 46.6995 89.9785 47.3612C90.2607 48.0146 90.5263 48.6101 90.7587 49.1229C90.9911 49.644 91.182 50.041 91.3313 50.3057" fill="#010101"/>
<path d="M96.303 44.086C96.4856 44.0943 96.7014 44.1026 96.9255 44.1026C97.2824 44.1026 97.6393 44.0612 98.0211 43.9868C98.4029 43.9041 98.7515 43.7635 99.0669 43.5732C99.3823 43.3665 99.6479 43.11 99.8553 42.7709C100.063 42.4318 100.171 42.0183 100.171 41.5054C100.171 41.0671 100.088 40.7031 99.9217 40.4136C99.7558 40.1324 99.5483 39.9008 99.291 39.7271C99.0254 39.5617 98.7432 39.4376 98.4444 39.3797C98.1373 39.3219 97.8302 39.2888 97.5397 39.2888C97.1413 39.2888 96.8176 39.2888 96.552 39.3136C96.2947 39.3301 96.0706 39.3467 95.888 39.3715C95.8631 39.9918 95.8465 40.6039 95.8216 41.2159C95.7967 41.828 95.7884 42.4401 95.7884 43.0521V44.0199C95.9461 44.053 96.1204 44.0778 96.303 44.086ZM94.3442 40.852C94.3193 40.1407 94.2861 39.4046 94.2529 38.6602C94.5849 38.685 94.9003 38.7015 95.224 38.7181C95.5394 38.7346 95.8631 38.7429 96.1951 38.7429C96.5271 38.7429 96.8425 38.7346 97.1662 38.7098C97.4816 38.6767 97.8053 38.6684 98.1373 38.6684C98.6104 38.6684 99.0669 38.7098 99.4985 38.8008C99.9218 38.8918 100.304 39.0406 100.627 39.2557C100.951 39.4625 101.2 39.7354 101.391 40.0745C101.582 40.4136 101.673 40.8355 101.673 41.3483C101.673 41.8859 101.549 42.3574 101.308 42.7461C101.059 43.1349 100.768 43.4574 100.411 43.7138C100.063 43.9702 99.6811 44.1688 99.2827 44.3094C98.8843 44.45 98.5191 44.541 98.1871 44.5906C98.3199 44.756 98.5108 45.0041 98.7515 45.3019C98.9922 45.6079 99.2578 45.9471 99.5483 46.311C99.8471 46.6749 100.146 47.0637 100.47 47.4607C100.785 47.8577 101.092 48.2382 101.391 48.6104C101.69 48.9826 101.964 49.3134 102.221 49.6194C102.478 49.9255 102.694 50.1571 102.843 50.3142C102.677 50.2977 102.503 50.2811 102.329 50.2811H101.333C101.158 50.2811 100.992 50.2977 100.843 50.3142C100.669 50.0826 100.411 49.727 100.071 49.2555C99.7226 48.7758 99.3408 48.2713 98.9258 47.7254C98.5025 47.1795 98.0792 46.6418 97.6393 46.1125C97.1994 45.5749 96.801 45.1199 96.4441 44.7477H95.7967V45.9884C95.7967 46.7328 95.805 47.4689 95.8382 48.1885C95.8631 48.9164 95.8963 49.6195 95.9295 50.3225C95.6639 50.306 95.39 50.2894 95.0912 50.2894C94.7924 50.2894 94.5185 50.306 94.2612 50.3225C94.2944 49.6277 94.3276 48.9164 94.3525 48.1885C94.3774 47.4689 94.394 46.7328 94.394 45.9884V43.0687C94.394 42.316 94.3774 41.5882 94.3525 40.8686" fill="#010101"/>
<path d="M107.889 39.5442C107.59 39.5442 107.283 39.5443 106.96 39.5608C106.636 39.5608 106.312 39.5773 105.989 39.5939C105.673 39.6104 105.358 39.627 105.059 39.6518C104.76 39.6683 104.495 39.7014 104.254 39.7345C104.312 39.536 104.345 39.354 104.345 39.1969C104.345 39.0728 104.312 38.8908 104.254 38.6758C105.001 38.6923 105.731 38.7171 106.453 38.7254C107.167 38.7502 107.898 38.7502 108.645 38.7502C109.392 38.7502 110.122 38.7502 110.836 38.7254C111.55 38.7089 112.28 38.6923 113.035 38.6758C112.977 38.8991 112.952 39.0728 112.952 39.2134C112.952 39.354 112.977 39.536 113.035 39.7345C112.794 39.7014 112.529 39.6683 112.23 39.6518C111.931 39.627 111.616 39.6104 111.292 39.5939C110.969 39.5773 110.645 39.5691 110.321 39.5608C109.997 39.5525 109.69 39.5442 109.4 39.5442C109.367 40.7105 109.342 41.8767 109.342 43.0512V45.9709C109.342 46.7154 109.358 47.4515 109.383 48.1711C109.408 48.8989 109.441 49.602 109.475 50.305C109.217 50.2885 108.935 50.272 108.645 50.272C108.354 50.272 108.072 50.2885 107.815 50.305C107.848 49.6103 107.881 48.8989 107.906 48.1711C107.931 47.4515 107.947 46.7154 107.947 45.9709V43.0512C107.947 41.8767 107.931 40.7105 107.898 39.5442" fill="#010101"/>
<path d="M116.09 40.8516C116.057 40.1402 116.032 39.4041 115.999 38.668C116.14 38.6845 116.29 38.7093 116.422 38.7259C116.563 38.7424 116.696 38.7507 116.829 38.7507C116.962 38.7507 117.103 38.7507 117.236 38.7259C117.368 38.7093 117.518 38.6928 117.659 38.668C117.626 39.4041 117.593 40.1402 117.568 40.8516C117.535 41.5711 117.526 42.299 117.526 43.0434V45.9631C117.526 46.7075 117.535 47.4437 117.568 48.1633C117.593 48.8911 117.626 49.5942 117.659 50.2972C117.402 50.2807 117.128 50.2641 116.829 50.2641C116.53 50.2641 116.256 50.2807 115.999 50.2972C116.032 49.6024 116.057 48.8911 116.09 48.1633C116.115 47.4437 116.132 46.7075 116.132 45.9631V43.0434C116.132 42.2907 116.124 41.5711 116.09 40.8516Z" fill="#010101"/>
<path d="M127.369 45.9044C125.892 44.3329 124.414 42.7614 122.953 41.1981C122.945 41.5124 122.929 41.9342 122.92 42.4719C122.904 43.0012 122.904 43.7208 122.904 44.6389C122.904 44.8788 122.904 45.1683 122.904 45.5239C122.904 45.8713 122.912 46.2353 122.929 46.6157C122.929 47.0045 122.945 47.3932 122.953 47.7902C122.962 48.1872 122.978 48.5512 122.987 48.8903C123.003 49.2377 123.012 49.5272 123.02 49.7836C123.028 50.0317 123.045 50.2054 123.053 50.2964C122.87 50.2799 122.671 50.2633 122.464 50.2633C122.24 50.2633 122.024 50.2799 121.833 50.2964C121.85 50.1889 121.875 49.9821 121.908 49.6678C121.933 49.37 121.957 49.0061 121.982 48.5843C122.007 48.1542 122.032 47.6992 122.065 47.1947C122.09 46.7067 122.115 46.2022 122.132 45.7059C122.148 45.2096 122.165 44.7216 122.173 44.2502C122.182 43.7704 122.19 43.3486 122.19 42.9764C122.19 41.8929 122.19 40.9583 122.19 40.1808C122.19 39.4033 122.173 38.8243 122.148 38.4355H122.414C123.103 39.1882 123.85 39.9823 124.638 40.8342C125.427 41.6861 126.207 42.5298 126.987 43.3569C127.759 44.1923 128.498 44.978 129.195 45.7142C129.892 46.4503 130.498 47.0789 131.021 47.6V45.3006C131.021 44.1178 131.021 42.9599 130.996 41.835C130.979 40.7101 130.946 39.6514 130.888 38.6671C131.112 38.7168 131.303 38.7498 131.461 38.7498C131.602 38.7498 131.776 38.725 132 38.6671C131.975 38.9153 131.951 39.2792 131.926 39.7837C131.901 40.28 131.868 40.8094 131.843 41.3801C131.818 41.9425 131.785 42.4967 131.768 43.0343C131.743 43.5719 131.735 44.0103 131.735 44.3412V45.3502C131.735 45.739 131.735 46.136 131.735 46.5578C131.735 46.9797 131.743 47.4015 131.751 47.8233C131.751 48.2451 131.768 48.6422 131.768 49.0061C131.768 49.37 131.768 49.6843 131.768 49.9656V50.528H131.527C130.224 49.0226 128.838 47.4842 127.361 45.9127" fill="#010101"/>
<path d="M24.2098 83.7042C24.2762 83.7124 24.3509 83.7207 24.4256 83.7207C24.5003 83.7207 24.6082 83.7207 24.7327 83.7207C25.9445 83.7207 26.8492 83.5222 27.4468 83.1335C28.0443 82.7364 28.3431 82.1492 28.3431 81.3469C28.3431 80.6273 28.1107 80.0814 27.646 79.7092C27.1812 79.3453 26.484 79.155 25.5627 79.155C25.3967 79.155 25.0647 79.1716 24.5667 79.2047C24.4505 79.2047 24.3592 79.2129 24.3011 79.2212C24.2679 79.4611 24.243 79.7175 24.2264 79.9821C24.2098 80.2468 24.2015 80.5446 24.2015 80.8589V83.6876L24.2098 83.7042ZM22.7905 89.585C22.8237 89.0225 22.8486 88.3691 22.8652 87.6412C22.8818 86.9134 22.8901 85.7306 22.8901 84.0929C22.8901 82.7034 22.8901 81.5868 22.8652 80.7514C22.8486 79.9077 22.8237 79.1881 22.7822 78.5843C22.8237 78.5843 22.8735 78.5843 22.9399 78.5843C23.2304 78.6009 23.4296 78.6091 23.5292 78.6091C23.7284 78.6091 24.1185 78.6009 24.6912 78.576C25.2639 78.5512 25.737 78.543 26.1105 78.543C27.3306 78.543 28.2435 78.758 28.8411 79.1881C29.447 79.6182 29.7458 80.2716 29.7458 81.1484C29.7458 81.9093 29.4636 82.5462 28.9075 83.0673C28.3431 83.5884 27.5464 83.944 26.5089 84.1343C27.2725 85.1516 28.6419 86.8638 30.5924 89.2707C30.7003 89.403 30.7833 89.5105 30.8331 89.5767C30.6588 89.5519 30.4845 89.5271 30.3268 89.5188C30.1691 89.5105 30.0114 89.5023 29.862 89.5023C29.7126 89.5023 29.5632 89.5023 29.4138 89.5271C29.2644 89.5436 29.0984 89.5602 28.9241 89.585C28.5091 88.9812 28.1356 88.4518 27.8119 88.0052C27.4883 87.5585 27.1895 87.1533 26.9073 86.7893L25.1394 84.5313C25.0481 84.4072 24.9568 84.3162 24.8572 84.2583C24.7576 84.2004 24.6414 84.1756 24.5003 84.1756C24.4339 84.1756 24.3509 84.1756 24.2347 84.2004C24.2098 84.2004 24.2015 84.2004 24.1932 84.2004V87.1532C24.1932 87.5172 24.1932 87.8976 24.2181 88.3029C24.2347 88.7082 24.2513 89.1383 24.2845 89.585C24.1434 89.5602 24.0106 89.5353 23.8861 89.5271C23.7616 89.5188 23.6454 89.5105 23.5292 89.5105C23.413 89.5105 23.2885 89.5105 23.164 89.5271C23.0395 89.5436 22.9067 89.5602 22.7656 89.585" fill="#010101"/>
<path d="M32.3608 89.5851C32.4106 88.9069 32.4438 88.1211 32.4687 87.2113C32.4936 86.3097 32.5019 85.2262 32.5019 83.9607C32.5019 82.7945 32.4936 81.7771 32.4687 80.9086C32.4438 80.0402 32.4106 79.2627 32.3608 78.5762C32.5849 78.5844 32.8339 78.5927 33.0995 78.601C33.3651 78.601 33.7801 78.601 34.3528 78.601C35.0915 78.601 35.7472 78.601 36.3199 78.601C36.8926 78.601 37.4736 78.5844 38.0629 78.5762C38.0629 78.6258 38.0629 78.7002 38.0629 78.8078C38.0629 78.9153 38.0629 78.9897 38.0629 79.0476C38.0629 79.0973 38.0629 79.1717 38.0629 79.2792C38.0629 79.3868 38.0629 79.4612 38.0629 79.5108C37.4487 79.4612 36.8262 79.4198 36.1788 79.395C35.5397 79.3702 34.884 79.3537 34.2283 79.3537H33.8382C33.8382 79.974 33.8299 80.5695 33.8299 81.1402C33.8299 81.7027 33.8299 82.2403 33.8299 82.7531V83.3983H34.1121C34.6018 83.3983 35.1413 83.39 35.7389 83.3652C36.3282 83.3404 36.9673 83.3073 37.6313 83.2742C37.623 83.39 37.6147 83.481 37.6064 83.5554C37.6064 83.6299 37.6064 83.696 37.6064 83.7705C37.6064 83.8284 37.6064 83.8863 37.6064 83.9607C37.6064 84.0269 37.623 84.1179 37.6313 84.2171C37.374 84.1675 37.0503 84.1344 36.6602 84.1178C36.2701 84.1013 35.5729 84.093 34.5686 84.093H33.8216V84.8623C33.8216 85.7804 33.8216 86.5248 33.8216 87.1037C33.8216 87.6745 33.8216 88.2452 33.8299 88.7993H34.2283C34.6931 88.7993 35.2575 88.7828 35.9298 88.7497C36.6021 88.7166 37.3242 88.6753 38.1127 88.6174C38.1127 88.667 38.1127 88.7497 38.1127 88.8572C38.1127 88.9648 38.1127 89.0475 38.1127 89.1054C38.1127 89.155 38.1127 89.2377 38.1127 89.3452C38.1127 89.4528 38.1127 89.5355 38.1127 89.5851C37.8056 89.5768 37.4653 89.5685 37.0918 89.5603C36.7183 89.5603 36.1373 89.5603 35.3488 89.5603C34.5603 89.5603 33.9378 89.5603 33.5228 89.5603C33.1078 89.5603 32.7177 89.5768 32.3525 89.5851" fill="#010101"/>
<path d="M39.6152 88.9422C39.7065 88.661 39.7895 88.3715 39.8476 88.0903C39.9057 87.8091 39.9472 87.5196 39.9721 87.2384C40.2045 87.8422 40.5614 88.3136 41.0345 88.6527C41.5076 88.9919 42.0388 89.1573 42.6364 89.1573C43.3336 89.1573 43.898 88.9422 44.313 88.5121C44.7363 88.082 44.9437 87.5113 44.9437 86.7917C44.9437 86.2955 44.8193 85.8902 44.5786 85.5841C44.3379 85.2781 43.9146 85.0051 43.3087 84.7653L41.9973 84.2111C41.2503 83.9051 40.7025 83.5329 40.3622 83.1028C40.0219 82.6727 39.8476 82.1433 39.8476 81.5065C39.8476 80.5966 40.163 79.8522 40.7938 79.265C41.4246 78.686 42.2463 78.3965 43.2506 78.3965C43.6905 78.3965 44.1055 78.4461 44.5039 78.5454C44.9023 78.6446 45.3006 78.7935 45.699 78.992C45.616 79.1657 45.5413 79.3559 45.4666 79.5545C45.3919 79.753 45.3172 79.9845 45.2508 80.2327C44.9687 79.8191 44.6367 79.5048 44.2632 79.298C43.8897 79.0913 43.4747 78.992 43.0182 78.992C42.4206 78.992 41.9475 79.174 41.5989 79.5296C41.2503 79.8853 41.076 80.3733 41.076 80.9854C41.076 81.432 41.2005 81.8125 41.4495 82.1102C41.6985 82.4163 42.1218 82.6892 42.7111 82.9456L44.0225 83.5081C44.7944 83.8306 45.3421 84.2111 45.6658 84.6495C45.9978 85.0879 46.1555 85.6338 46.1555 86.3037C46.1555 87.3459 45.7986 88.1895 45.1014 88.8264C44.396 89.4633 43.4664 89.7859 42.3127 89.7859C41.7815 89.7859 41.2835 89.7114 40.827 89.5626C40.3705 89.4137 39.9555 89.1986 39.5986 88.9257" fill="#010101"/>
<path d="M48.3384 89.5851C48.3716 89.064 48.4048 88.4768 48.4214 87.8399C48.438 87.1947 48.4463 86.3924 48.4463 85.433V84.093C48.4463 82.3809 48.4463 81.165 48.4214 80.4455C48.4048 79.7259 48.3799 79.1055 48.3384 78.5762C48.4463 78.601 48.5625 78.6093 48.6787 78.6258C48.7949 78.6341 48.9277 78.6423 49.0688 78.6423C49.2099 78.6423 49.3427 78.6423 49.4672 78.6258C49.5917 78.6175 49.7162 78.601 49.8407 78.5762C49.8075 78.9401 49.7826 79.3619 49.766 79.8417C49.7494 80.3214 49.7494 80.9583 49.7494 81.7358V86.7398C49.7494 87.5917 49.7494 88.2038 49.766 88.576C49.7826 88.9482 49.8075 89.2791 49.8407 89.5686C49.7245 89.5437 49.6083 89.5355 49.4838 89.5189C49.3593 89.5106 49.2348 89.5024 49.0937 89.5024C48.9526 89.5024 48.8198 89.5024 48.6953 89.5189C48.5708 89.5272 48.4463 89.5437 48.3301 89.5686" fill="#010101"/>
<path d="M54.1971 88.8907C54.5457 88.9155 54.8528 88.932 55.1267 88.9486C55.4006 88.9651 55.6579 88.9651 55.8903 88.9651C57.6748 88.9651 59.0027 88.5598 59.8742 87.7492C60.7457 86.9387 61.1856 85.7063 61.1856 84.0603C61.1856 82.4143 60.8287 81.0909 60.1149 80.3217C59.4011 79.5525 58.2308 79.172 56.6207 79.172C56.1725 79.172 55.7492 79.172 55.3508 79.1969C54.9524 79.2134 54.5706 79.2299 54.1971 79.2548C54.1722 79.933 54.1556 80.6278 54.139 81.3556C54.1307 82.0835 54.1224 82.8527 54.1224 83.6716C54.1224 84.6724 54.1224 85.5987 54.139 86.4507C54.1473 87.3026 54.1639 88.1214 54.1971 88.8907ZM52.7363 89.5854C52.7612 88.9734 52.7778 88.3034 52.7861 87.559C52.7944 86.8146 52.8027 85.6566 52.8027 84.1017C52.8027 82.5467 52.8027 81.306 52.7861 80.5699C52.7861 79.8337 52.7612 79.172 52.7446 78.5931C53.0019 78.6013 53.226 78.6096 53.4086 78.6179C53.5995 78.6179 53.7738 78.6179 53.9481 78.6179C54.1639 78.6179 54.6204 78.6096 55.3176 78.5765C56.0148 78.5517 56.6041 78.5352 57.0855 78.5352C58.0067 78.5352 58.7371 78.5931 59.2683 78.7171C59.8078 78.8329 60.2809 79.0314 60.6876 79.3044C61.3599 79.751 61.8662 80.3631 62.2231 81.124C62.58 81.885 62.7543 82.7617 62.7543 83.7625C62.7543 85.6732 62.2148 87.1206 61.1275 88.1214C60.0402 89.1223 58.4632 89.6185 56.3883 89.6185C56.1393 89.6185 55.7575 89.6102 55.2263 89.5854C54.7034 89.5606 54.2967 89.5524 54.0311 89.5524C53.9481 89.5524 53.7572 89.5523 53.4584 89.5606C53.1596 89.5606 52.9189 89.5772 52.7363 89.5772" fill="#010101"/>
<path d="M64.9297 89.5851C64.9795 88.9069 65.0127 88.1211 65.0376 87.2113C65.0625 86.3097 65.0708 85.2262 65.0708 83.9607C65.0708 82.7945 65.0625 81.7771 65.0376 80.9086C65.0127 80.0402 64.9795 79.2627 64.9297 78.5762C65.1538 78.5844 65.4028 78.5927 65.6684 78.601C65.934 78.601 66.349 78.601 66.9217 78.601C67.6603 78.601 68.316 78.601 68.8887 78.601C69.4614 78.601 70.0424 78.5844 70.6317 78.5762C70.6317 78.6258 70.6317 78.7002 70.6317 78.8078C70.6317 78.9153 70.6317 78.9897 70.6317 79.0476C70.6317 79.0973 70.6317 79.1717 70.6317 79.2792C70.6317 79.3868 70.6317 79.4612 70.6317 79.5108C70.0175 79.4612 69.395 79.4198 68.7476 79.395C68.1085 79.3702 67.4529 79.3537 66.7972 79.3537H66.4071C66.4071 79.974 66.4071 80.5695 66.3988 81.1402C66.3988 81.7027 66.3988 82.2403 66.3988 82.7531V83.3983H66.681C67.1707 83.3983 67.7101 83.39 68.3077 83.3652C68.897 83.3404 69.5361 83.3073 70.2001 83.2742C70.1918 83.39 70.1835 83.481 70.1752 83.5554C70.1752 83.6299 70.1752 83.696 70.1752 83.7705C70.1752 83.8284 70.1752 83.8863 70.1752 83.9607C70.1752 84.0269 70.1918 84.1179 70.2001 84.2171C69.9428 84.1675 69.6191 84.1344 69.229 84.1178C68.8389 84.1013 68.1417 84.093 67.1374 84.093H66.3905V84.8623C66.3905 85.7804 66.3905 86.5248 66.3905 87.1037C66.3905 87.6745 66.3905 88.2452 66.3988 88.7993H66.8055C67.2702 88.7993 67.8346 88.7828 68.5069 88.7497C69.1792 88.7166 69.9013 88.6753 70.6898 88.6174C70.6898 88.667 70.6898 88.7497 70.6898 88.8572C70.6898 88.9648 70.6898 89.0475 70.6898 89.1054C70.6898 89.155 70.6898 89.2377 70.6898 89.3452C70.6898 89.4528 70.6898 89.5355 70.6898 89.5851C70.3827 89.5768 70.0424 89.5685 69.6689 89.5603C69.2954 89.5603 68.7144 89.5603 67.9259 89.5603C67.1375 89.5603 66.515 89.5603 66.1 89.5603C65.685 89.5603 65.2949 89.5768 64.9297 89.5851Z" fill="#010101"/>
<path d="M72.8232 89.5776C72.8896 88.1301 72.9477 86.6165 72.9809 85.0367C73.0141 83.4569 73.039 81.811 73.039 80.0906V78.3867H73.3378C74.4915 79.7184 75.7033 81.0583 76.9649 82.4065C78.2265 83.7547 79.6623 85.2435 81.2725 86.8564C81.2725 86.8068 81.2725 86.724 81.2725 86.6165C81.2891 86.0624 81.2974 85.6736 81.2974 85.442C81.2974 84.1517 81.2891 82.9193 81.2642 81.7531C81.2393 80.5868 81.2061 79.5364 81.1563 78.6018C81.2974 78.6266 81.4136 78.6349 81.48 78.6431C81.5547 78.6431 81.6211 78.6514 81.6792 78.6514C81.7456 78.6514 81.812 78.6514 81.8867 78.6431C81.9614 78.6349 82.061 78.6183 82.1938 78.6018C82.144 79.8259 82.1108 81.0666 82.0859 82.3155C82.061 83.5645 82.0527 84.8465 82.0527 86.1533C82.0527 86.6248 82.0527 87.1293 82.0527 87.667C82.0527 88.2046 82.0693 88.9159 82.0776 89.8009H81.8701C81.3721 89.1889 80.7911 88.5023 80.1188 87.7497C79.4382 86.997 78.6498 86.1451 77.7368 85.1939L73.8275 81.0914C73.8275 81.2072 73.8109 81.5132 73.7943 82.0095C73.7777 82.4975 73.7694 82.8945 73.7694 83.1923C73.7694 83.8457 73.7777 84.6811 73.8026 85.6984C73.8275 86.7158 73.8607 88.0061 73.9105 89.5776C73.8109 89.5528 73.7196 89.5362 73.6283 89.5197C73.537 89.5114 73.4457 89.5032 73.3627 89.5032C73.2797 89.5032 73.1884 89.5032 73.1054 89.5197C73.0224 89.5362 72.9145 89.5528 72.8066 89.5693" fill="#010101"/>
<path d="M93.4731 88.8916C93.0664 89.1893 92.5601 89.4127 91.9542 89.5698C91.3484 89.7187 90.6512 89.8014 89.8627 89.8014C88.0699 89.8014 86.6755 89.3051 85.6961 88.3043C84.7084 87.3118 84.2188 85.9057 84.2188 84.0943C84.2188 82.2829 84.7582 80.9678 85.8455 79.9339C86.9328 78.9 88.3853 78.3789 90.2113 78.3789C90.8504 78.3789 91.4562 78.4451 92.0455 78.5692C92.6265 78.7015 93.1743 78.8917 93.6889 79.1481C93.6059 79.4294 93.5395 79.694 93.498 79.9504C93.4565 80.2068 93.4316 80.455 93.4316 80.7031C93.0498 80.1076 92.5933 79.6692 92.0704 79.388C91.5475 79.1068 90.9168 78.9744 90.1781 78.9744C88.8252 78.9744 87.7711 79.4211 87.0158 80.3226C86.2688 81.2242 85.887 82.4814 85.887 84.1191C85.887 85.7568 86.2605 86.9313 87.0075 87.8329C87.7545 88.7344 88.7671 89.1893 90.0536 89.1893C90.6595 89.1893 91.2654 89.0735 91.8629 88.8419C92.4605 88.6103 93.0332 88.2795 93.581 87.8329L93.4814 88.8916H93.4731Z" fill="#010101"/>
<path d="M95.5806 89.5851C95.6304 88.9069 95.6636 88.1211 95.6885 87.2113C95.7134 86.3097 95.7217 85.2262 95.7217 83.9607C95.7217 82.7945 95.7134 81.7771 95.6885 80.9086C95.6636 80.0402 95.6304 79.2627 95.5806 78.5762C95.8047 78.5844 96.0537 78.5927 96.3192 78.601C96.5848 78.601 96.9998 78.601 97.5725 78.601C98.3112 78.601 98.9669 78.601 99.5396 78.601C100.112 78.601 100.693 78.5844 101.283 78.5762C101.283 78.6258 101.283 78.7002 101.283 78.8078C101.283 78.9153 101.283 78.9897 101.283 79.0476C101.283 79.0973 101.283 79.1717 101.283 79.2792C101.283 79.3868 101.283 79.4612 101.283 79.5108C100.668 79.4612 100.046 79.4198 99.3985 79.395C98.7594 79.3702 98.1037 79.3537 97.448 79.3537H97.0579C97.0579 79.974 97.0496 80.5695 97.0496 81.1402C97.0496 81.7027 97.0496 82.2403 97.0496 82.7531V83.3983H97.3318C97.8215 83.3983 98.361 83.39 98.9586 83.3652C99.5479 83.3404 100.187 83.3073 100.851 83.2742C100.843 83.39 100.834 83.481 100.826 83.5554C100.826 83.6299 100.826 83.696 100.826 83.7705C100.826 83.8284 100.826 83.8863 100.826 83.9607C100.826 84.0269 100.843 84.1179 100.851 84.2171C100.594 84.1675 100.27 84.1344 99.8799 84.1178C99.4898 84.1013 98.7926 84.093 97.7883 84.093H97.0413V84.8623C97.0413 85.7804 97.0413 86.5248 97.0413 87.1037C97.0413 87.6745 97.0413 88.2452 97.0496 88.7993H97.448C97.9128 88.7993 98.4772 88.7828 99.1495 88.7497C99.8218 88.7166 100.544 88.6753 101.332 88.6174C101.332 88.667 101.332 88.7497 101.332 88.8572C101.332 88.9648 101.332 89.0475 101.332 89.1054C101.332 89.155 101.332 89.2377 101.332 89.3452C101.332 89.4528 101.332 89.5355 101.332 89.5851C101.025 89.5768 100.685 89.5685 100.311 89.5603C99.938 89.5603 99.357 89.5603 98.5685 89.5603C97.78 89.5603 97.1575 89.5603 96.7425 89.5603C96.3275 89.5603 95.9375 89.5768 95.5723 89.5851" fill="#010101"/>
<path d="M102.836 88.9422C102.927 88.661 103.01 88.3715 103.068 88.0903C103.126 87.8091 103.168 87.5196 103.193 87.2384C103.425 87.8422 103.782 88.3136 104.255 88.6527C104.728 88.9919 105.26 89.1573 105.857 89.1573C106.554 89.1573 107.119 88.9422 107.534 88.5121C107.957 88.082 108.164 87.5113 108.164 86.7917C108.164 86.2955 108.04 85.8902 107.799 85.5841C107.559 85.2781 107.135 85.0051 106.529 84.7653L105.218 84.2111C104.471 83.9051 103.923 83.5329 103.583 83.1028C103.243 82.6727 103.068 82.1433 103.068 81.5065C103.068 80.5966 103.384 79.8522 104.015 79.265C104.645 78.686 105.467 78.3965 106.48 78.3965C106.919 78.3965 107.334 78.4461 107.733 78.5454C108.131 78.6446 108.53 78.7935 108.928 78.992C108.845 79.1657 108.77 79.3559 108.696 79.5545C108.621 79.753 108.546 79.9845 108.48 80.2327C108.198 79.8191 107.866 79.5048 107.492 79.298C107.119 79.0913 106.704 78.992 106.247 78.992C105.65 78.992 105.176 79.174 104.828 79.5296C104.479 79.8853 104.305 80.3733 104.305 80.9854C104.305 81.432 104.43 81.8125 104.679 82.1102C104.928 82.4163 105.351 82.6892 105.94 82.9456L107.251 83.5081C108.023 83.8306 108.571 84.2111 108.895 84.6495C109.227 85.0879 109.385 85.6338 109.385 86.3037C109.385 87.3459 109.036 88.1895 108.33 88.8264C107.625 89.4633 106.695 89.7859 105.533 89.7859C105.002 89.7859 104.513 89.7114 104.048 89.5626C103.591 89.4137 103.176 89.1986 102.819 88.9257" fill="#010101"/>
<path d="M0.796875 121.123C0.830075 121.007 0.863273 120.891 0.879873 120.767C0.904772 120.643 0.92137 120.519 0.92967 120.403C1.04587 120.627 1.22017 120.792 1.44426 120.924C1.66836 121.057 1.92565 121.115 2.19955 121.115C2.63114 121.115 2.95484 120.982 3.18724 120.717C3.41963 120.453 3.52754 120.072 3.52754 119.568C3.52754 119.187 3.42794 118.898 3.22874 118.683C3.02954 118.468 2.75564 118.36 2.40705 118.36C2.33235 118.36 2.25765 118.36 2.17465 118.368C2.09165 118.377 2.00035 118.393 1.90075 118.41C1.90075 118.41 1.90075 118.393 1.90075 118.385C1.90075 118.319 1.91736 118.269 1.91736 118.236C1.91736 118.211 1.91736 118.187 1.91736 118.162C1.91736 118.137 1.91736 118.096 1.90906 118.046C1.93396 118.046 1.95886 118.046 1.98376 118.046C2.00866 118.046 2.05015 118.046 2.10825 118.046C2.50664 118.046 2.79714 117.938 2.99634 117.723C3.19553 117.508 3.28684 117.194 3.28684 116.764C3.28684 116.408 3.20384 116.127 3.02954 115.92C2.86354 115.713 2.63115 115.614 2.33235 115.614C2.10825 115.614 1.90075 115.68 1.72646 115.821C1.54386 115.962 1.41936 116.152 1.33636 116.392C1.26996 116.284 1.20357 116.193 1.15377 116.11C1.09567 116.028 1.03757 115.962 0.987769 115.895C1.18697 115.705 1.40277 115.556 1.65176 115.465C1.90076 115.366 2.16635 115.316 2.46515 115.316C2.95484 115.316 3.34493 115.44 3.62713 115.689C3.90933 115.937 4.05043 116.276 4.05043 116.723C4.05043 117.053 3.95082 117.335 3.74333 117.574C3.54413 117.814 3.22874 118.013 2.80544 118.162C3.30344 118.178 3.68523 118.311 3.95082 118.55C4.21642 118.79 4.34922 119.138 4.34922 119.584C4.34922 120.13 4.15002 120.569 3.74333 120.908C3.34493 121.239 2.81374 121.412 2.15805 121.412C1.89246 121.412 1.64346 121.387 1.41106 121.338C1.17867 121.288 0.979472 121.205 0.796875 121.115" fill="#010101"/>
<path d="M6.26652 118.379C6.26652 119.355 6.37442 120.058 6.58192 120.488C6.78942 120.919 7.13801 121.134 7.6111 121.134C8.0842 121.134 8.44109 120.927 8.64029 120.513C8.83948 120.1 8.93908 119.355 8.93908 118.272C8.93908 117.362 8.83118 116.692 8.61539 116.27C8.39959 115.848 8.0676 115.633 7.6028 115.633C7.13801 115.633 6.78942 115.848 6.57362 116.27C6.36612 116.692 6.25822 117.395 6.25822 118.379M5.51953 118.388C5.51953 117.387 5.69383 116.626 6.05072 116.113C6.39932 115.6 6.92221 115.344 7.6028 115.344C8.28339 115.344 8.83119 115.6 9.17978 116.105C9.52837 116.609 9.70267 117.37 9.70267 118.388C9.70267 119.405 9.52837 120.133 9.17148 120.654C8.81458 121.167 8.29169 121.431 7.6111 121.431C6.93051 121.431 6.40762 121.175 6.05902 120.662C5.70213 120.149 5.52783 119.397 5.52783 118.396" fill="#010101"/>
<path d="M11.1879 118.379C11.1879 119.355 11.2958 120.058 11.5033 120.488C11.7108 120.919 12.0594 121.134 12.5325 121.134C13.0056 121.134 13.3625 120.927 13.5617 120.513C13.7609 120.1 13.8605 119.355 13.8605 118.272C13.8605 117.362 13.7526 116.692 13.5368 116.27C13.321 115.848 12.989 115.633 12.5242 115.633C12.0594 115.633 11.7108 115.848 11.495 116.27C11.2875 116.692 11.1796 117.395 11.1796 118.379M10.4326 118.388C10.4326 117.387 10.6069 116.626 10.9638 116.113C11.3124 115.6 11.8353 115.344 12.5159 115.344C13.1965 115.344 13.7443 115.6 14.0929 116.105C14.4415 116.609 14.6157 117.37 14.6157 118.388C14.6157 119.405 14.4332 120.133 14.0846 120.654C13.7277 121.167 13.2048 121.431 12.5242 121.431C11.8436 121.431 11.3207 121.175 10.9721 120.662C10.6152 120.149 10.4409 119.397 10.4409 118.396" fill="#010101"/>
<path d="M19.039 117.873C19.1303 117.881 19.2133 117.889 19.2963 117.889C19.3793 117.889 19.4623 117.889 19.537 117.889C20.0848 117.889 20.4915 117.782 20.7737 117.558C21.0558 117.335 21.1969 117.021 21.1969 116.591C21.1969 116.227 21.0724 115.945 20.8151 115.755C20.5662 115.565 20.1927 115.466 19.7196 115.466C19.6283 115.466 19.537 115.466 19.4291 115.474C19.3295 115.474 19.2133 115.491 19.0805 115.507C19.0639 115.673 19.0556 115.846 19.0473 116.036C19.0473 116.218 19.039 116.433 19.039 116.657V117.856V117.873ZM19.0058 118.245V119.122C19.0058 119.56 19.0058 119.916 19.0224 120.189C19.0224 120.462 19.0473 120.693 19.0639 120.9C19.1801 120.925 19.2797 120.95 19.3793 120.958C19.4789 120.974 19.5785 120.983 19.6698 120.983C20.1927 120.983 20.6077 120.859 20.9064 120.61C21.2052 120.362 21.3546 120.023 21.3546 119.585C21.3546 119.122 21.2135 118.774 20.9313 118.543C20.6492 118.319 20.2176 118.203 19.6283 118.203C19.5287 118.203 19.3461 118.212 19.0888 118.237C19.0556 118.237 19.0224 118.237 18.9975 118.237M18.2422 121.305C18.2671 121.007 18.292 120.677 18.3003 120.304C18.3086 119.94 18.3169 119.452 18.3169 118.84C18.3169 117.997 18.3169 117.277 18.3003 116.673C18.292 116.07 18.2671 115.573 18.2422 115.193C18.2837 115.193 18.3335 115.193 18.4082 115.201C18.5493 115.201 18.6406 115.201 18.6821 115.201C18.7402 115.201 18.8896 115.201 19.1303 115.185C19.371 115.176 19.5868 115.168 19.7777 115.168C20.5496 115.168 21.1139 115.284 21.4791 115.499C21.8443 115.722 22.0186 116.07 22.0186 116.541C22.0186 116.93 21.8941 117.244 21.6451 117.492C21.3961 117.732 21.0143 117.906 20.5164 118.005C21.089 118.063 21.5123 118.22 21.7862 118.452C22.0601 118.691 22.1929 119.031 22.1929 119.469C22.1929 120.064 21.9854 120.519 21.5787 120.825C21.172 121.131 20.5662 121.289 19.7777 121.289C19.6283 121.289 19.4374 121.289 19.205 121.272C18.9726 121.264 18.8149 121.256 18.7236 121.256C18.6655 121.256 18.6074 121.256 18.541 121.256C18.4746 121.256 18.3833 121.272 18.2505 121.28" fill="#010101"/>
<path d="M23.5879 121.289C23.6045 121 23.6211 120.677 23.6294 120.321C23.6294 119.966 23.6377 119.519 23.6377 118.99V118.245C23.6377 117.294 23.6377 116.624 23.6294 116.227C23.6211 115.83 23.6045 115.483 23.5879 115.193C23.646 115.202 23.7124 115.218 23.7788 115.218C23.8452 115.218 23.9199 115.218 23.9946 115.218C24.0693 115.218 24.144 115.218 24.2187 115.218C24.2851 115.218 24.3598 115.202 24.4262 115.193C24.4013 115.392 24.393 115.632 24.3847 115.896C24.3847 116.161 24.3764 116.517 24.3764 116.947V119.726C24.3764 120.197 24.3764 120.537 24.3847 120.743C24.3847 120.95 24.4013 121.132 24.4262 121.297C24.3598 121.289 24.2934 121.273 24.227 121.273C24.1606 121.273 24.0859 121.273 24.0112 121.273C23.9365 121.273 23.8618 121.273 23.7871 121.273C23.7207 121.273 23.646 121.289 23.5879 121.297" fill="#010101"/>
<path d="M25.6045 120.933C25.6543 120.776 25.6958 120.618 25.7373 120.461C25.7705 120.304 25.7954 120.147 25.8037 119.99C25.9365 120.321 26.1274 120.585 26.393 120.776C26.6503 120.966 26.9491 121.057 27.2811 121.057C27.6712 121.057 27.9783 120.941 28.2107 120.701C28.4431 120.461 28.5592 120.147 28.5592 119.75C28.5592 119.477 28.4929 119.254 28.3601 119.08C28.2273 118.915 27.9949 118.757 27.6546 118.625L26.9242 118.319C26.5092 118.145 26.2104 117.947 26.0195 117.707C25.8286 117.467 25.7373 117.169 25.7373 116.822C25.7373 116.317 25.9116 115.904 26.2602 115.581C26.6088 115.259 27.0653 115.102 27.6214 115.102C27.8621 115.102 28.0945 115.126 28.3186 115.184C28.5426 115.242 28.7584 115.325 28.9825 115.432C28.941 115.532 28.8995 115.631 28.8497 115.747C28.8082 115.863 28.7667 115.987 28.7335 116.119C28.5758 115.887 28.3933 115.722 28.1858 115.606C27.9783 115.49 27.7459 115.432 27.4969 115.432C27.1649 115.432 26.9076 115.532 26.7084 115.73C26.5092 115.929 26.4179 116.202 26.4179 116.541C26.4179 116.789 26.4843 116.996 26.6254 117.161C26.7665 117.326 26.9989 117.484 27.3226 117.624L28.0447 117.939C28.4679 118.121 28.775 118.327 28.9576 118.567C29.1402 118.807 29.2315 119.113 29.2315 119.485C29.2315 120.064 29.0323 120.527 28.6422 120.883C28.2522 121.239 27.7376 121.412 27.0902 121.412C26.7997 121.412 26.5258 121.371 26.2685 121.288C26.0112 121.206 25.7871 121.09 25.5879 120.933" fill="#010101"/>
<path d="M35.1161 120.9C34.892 121.065 34.6098 121.189 34.2779 121.272C33.9376 121.354 33.5558 121.396 33.1159 121.396C32.1199 121.396 31.3563 121.123 30.8085 120.569C30.2607 120.015 29.9951 119.245 29.9951 118.236C29.9951 117.227 30.2939 116.499 30.8998 115.929C31.4974 115.358 32.3108 115.068 33.3234 115.068C33.672 115.068 34.0123 115.101 34.3359 115.176C34.6596 115.25 34.9584 115.35 35.2406 115.498C35.1908 115.656 35.1576 115.805 35.1327 115.945C35.1078 116.086 35.0995 116.226 35.0995 116.359C34.8837 116.028 34.6347 115.788 34.3443 115.631C34.0538 115.474 33.7052 115.399 33.2985 115.399C32.5432 115.399 31.9622 115.647 31.5472 116.144C31.1322 116.64 30.9247 117.343 30.9247 118.244C30.9247 119.146 31.1322 119.799 31.5472 120.304C31.9622 120.809 32.5266 121.057 33.2404 121.057C33.5807 121.057 33.9127 120.991 34.2447 120.866C34.5766 120.742 34.892 120.552 35.1991 120.312L35.141 120.9H35.1161Z" fill="#010101"/>
<path d="M37.1243 118.51C37.1243 118.51 37.2488 118.51 37.3982 118.51C37.5476 118.51 37.6804 118.51 37.7966 118.51C37.8879 118.51 38.0705 118.51 38.3361 118.51C38.6017 118.51 38.8258 118.51 39.0001 118.51L38.8424 118.121C38.8175 118.055 38.7594 117.906 38.6598 117.667C38.5602 117.427 38.3693 116.972 38.0788 116.302L37.1243 118.518V118.51ZM35.4561 121.289C36.0204 120.073 36.5184 118.957 36.9666 117.948C37.4148 116.939 37.8298 115.979 38.2199 115.086H38.3859C38.8009 116.128 39.2325 117.17 39.6558 118.204C40.0874 119.238 40.5273 120.272 40.9755 121.298C40.9008 121.281 40.8261 121.273 40.7514 121.264C40.6767 121.256 40.6103 121.248 40.5356 121.248C40.4609 121.248 40.3945 121.248 40.3198 121.256C40.2451 121.256 40.1704 121.273 40.0791 121.289C39.9712 120.967 39.855 120.636 39.7305 120.297C39.606 119.958 39.4649 119.619 39.3238 119.263L39.1661 118.907C39.0333 118.907 38.8922 118.899 38.7428 118.891C38.5934 118.891 38.3693 118.891 38.0622 118.891C37.7551 118.891 37.5227 118.891 37.3733 118.891C37.2239 118.891 37.0828 118.891 36.95 118.907C36.8089 119.238 36.6595 119.585 36.5184 119.966C36.369 120.346 36.2113 120.785 36.0287 121.289C35.9789 121.273 35.9291 121.265 35.8793 121.256C35.8295 121.256 35.7797 121.248 35.7299 121.248C35.6884 121.248 35.6387 121.248 35.5889 121.256C35.5391 121.256 35.4893 121.273 35.4395 121.289" fill="#010101"/>
<path d="M42.761 121.288C42.7776 121.04 42.7859 120.808 42.7942 120.601C42.7942 120.394 42.8025 120.196 42.8025 120.006C42.8025 119.815 42.8025 119.625 42.7942 119.427C42.7859 119.228 42.7776 119.013 42.761 118.79C42.3377 118.062 41.9559 117.409 41.6156 116.83C41.267 116.242 40.9433 115.696 40.6445 115.192C40.7192 115.2 40.7939 115.217 40.8769 115.217C40.9599 115.217 41.0429 115.217 41.1342 115.217C41.2255 115.217 41.3168 115.217 41.3998 115.217C41.4828 115.217 41.5575 115.2 41.6322 115.192C41.8646 115.729 42.1219 116.242 42.4041 116.747C42.6863 117.251 42.9851 117.739 43.3088 118.211C43.6159 117.715 43.9064 117.21 44.172 116.705C44.4376 116.201 44.6866 115.696 44.9107 115.184C44.9688 115.192 45.0186 115.208 45.0767 115.208C45.1348 115.208 45.1846 115.208 45.2427 115.208C45.3091 115.208 45.3672 115.208 45.417 115.208C45.4668 115.208 45.5249 115.192 45.5747 115.184C45.2012 115.796 44.8443 116.383 44.504 116.962C44.1637 117.533 43.8483 118.095 43.5412 118.641C43.5412 118.897 43.5329 119.088 43.5246 119.22C43.5246 119.352 43.5246 119.476 43.5246 119.584C43.5246 119.84 43.5246 120.105 43.5329 120.386C43.5412 120.667 43.5495 120.965 43.5661 121.279C43.4997 121.263 43.4333 121.255 43.3669 121.246C43.3005 121.238 43.2341 121.238 43.1677 121.238C43.1013 121.238 43.0349 121.238 42.9685 121.246C42.9021 121.246 42.8274 121.263 42.7527 121.279" fill="#010101"/>
<path d="M46.2466 121.281C46.2798 120.479 46.313 119.643 46.3296 118.767C46.3545 117.89 46.3628 116.98 46.3628 116.029V115.086H46.5288C47.1679 115.822 47.8402 116.566 48.5373 117.311C49.2345 118.055 50.0313 118.882 50.9194 119.776C50.9194 119.751 50.9194 119.701 50.9194 119.643C50.9277 119.337 50.936 119.122 50.936 118.998C50.936 118.279 50.936 117.6 50.9111 116.955C50.9028 116.31 50.8779 115.723 50.853 115.21C50.936 115.218 50.9941 115.227 51.0356 115.235C51.0771 115.235 51.1103 115.235 51.1435 115.235C51.1767 115.235 51.2182 115.235 51.2597 115.235C51.3012 115.235 51.3593 115.227 51.4257 115.21C51.4008 115.888 51.3842 116.575 51.3676 117.27C51.351 117.964 51.3427 118.667 51.3427 119.395C51.3427 119.66 51.3427 119.941 51.3427 120.239C51.3427 120.537 51.3427 120.934 51.3593 121.422H51.2431C50.9692 121.083 50.6455 120.702 50.272 120.289C49.8985 119.875 49.4586 119.395 48.9523 118.874L46.7861 116.6C46.7861 116.666 46.7778 116.839 46.7695 117.104C46.7612 117.377 46.7529 117.6 46.7529 117.758C46.7529 118.121 46.7529 118.585 46.7778 119.147C46.7861 119.71 46.811 120.429 46.8359 121.298C46.7778 121.281 46.728 121.273 46.6782 121.273C46.6284 121.273 46.5786 121.264 46.5288 121.264C46.479 121.264 46.4292 121.264 46.3877 121.273C46.3379 121.273 46.2798 121.289 46.2217 121.298" fill="#010101"/>
<path d="M52.9863 121.289C53.0112 120.917 53.0361 120.479 53.0444 119.974C53.0527 119.47 53.061 118.874 53.061 118.171C53.061 117.526 53.061 116.963 53.0444 116.484C53.0361 116.004 53.0112 115.574 52.9863 115.193C53.1108 115.193 53.2519 115.202 53.393 115.21C53.5424 115.21 53.7748 115.21 54.0902 115.21C54.4969 115.21 54.8621 115.21 55.1775 115.21C55.4929 115.21 55.8166 115.21 56.1486 115.193C56.1486 115.218 56.1486 115.26 56.1486 115.317C56.1486 115.375 56.1486 115.417 56.1486 115.45C56.1486 115.475 56.1486 115.516 56.1486 115.574C56.1486 115.632 56.1486 115.673 56.1486 115.706C55.8083 115.673 55.4597 115.657 55.1028 115.64C54.7459 115.623 54.389 115.615 54.0238 115.615H53.808C53.808 115.963 53.808 116.293 53.808 116.608C53.808 116.922 53.808 117.22 53.808 117.501V117.857H53.9657C54.2396 117.857 54.5384 117.857 54.8704 117.84C55.2024 117.824 55.551 117.807 55.9162 117.791C55.9162 117.857 55.9079 117.906 55.8996 117.948C55.8996 117.989 55.8996 118.03 55.8996 118.063C55.8996 118.097 55.8996 118.13 55.8996 118.171C55.8996 118.204 55.8996 118.254 55.9162 118.312C55.7751 118.287 55.5925 118.27 55.3767 118.254C55.1609 118.245 54.7791 118.237 54.223 118.237H53.808V118.667C53.808 119.172 53.808 119.585 53.808 119.908C53.808 120.222 53.808 120.537 53.808 120.851H54.0321C54.2894 120.851 54.6048 120.843 54.97 120.826C55.3352 120.809 55.7419 120.785 56.1818 120.752C56.1818 120.776 56.1818 120.826 56.1818 120.884C56.1818 120.942 56.1818 120.991 56.1818 121.025C56.1818 121.049 56.1818 121.099 56.1818 121.157C56.1818 121.215 56.1818 121.264 56.1818 121.289C56.0158 121.289 55.8249 121.281 55.6174 121.273C55.4099 121.273 55.0862 121.273 54.6546 121.273C54.223 121.273 53.8744 121.273 53.642 121.273C53.4096 121.273 53.1938 121.273 52.9946 121.289" fill="#010101"/>
<path d="M60.6874 117.873C60.7787 117.881 60.8617 117.889 60.9447 117.889C61.0277 117.889 61.1107 117.889 61.1854 117.889C61.7332 117.889 62.1399 117.782 62.4221 117.558C62.7043 117.335 62.8454 117.021 62.8454 116.591C62.8454 116.227 62.7209 115.945 62.4636 115.755C62.2146 115.565 61.8411 115.466 61.368 115.466C61.2767 115.466 61.1854 115.466 61.0775 115.474C60.9779 115.474 60.8617 115.491 60.7289 115.507C60.7123 115.673 60.704 115.846 60.6957 116.036C60.6957 116.218 60.6874 116.433 60.6874 116.657V117.856V117.873ZM60.6542 118.245V119.122C60.6542 119.56 60.6542 119.916 60.6708 120.189C60.6708 120.462 60.6957 120.693 60.7123 120.9C60.8285 120.925 60.9281 120.95 61.0277 120.958C61.1273 120.974 61.2269 120.983 61.3182 120.983C61.8411 120.983 62.2561 120.859 62.5549 120.61C62.8537 120.362 63.0031 120.023 63.0031 119.585C63.0031 119.122 62.862 118.774 62.5798 118.543C62.2976 118.319 61.866 118.203 61.2767 118.203C61.1771 118.203 60.9945 118.212 60.7372 118.237C60.704 118.237 60.6708 118.237 60.6459 118.237M59.8906 121.305C59.9155 121.007 59.9404 120.677 59.9487 120.304C59.957 119.94 59.9653 119.452 59.9653 118.84C59.9653 117.997 59.9653 117.277 59.9487 116.673C59.9404 116.07 59.9155 115.573 59.8906 115.193C59.9321 115.193 59.9819 115.193 60.0566 115.201C60.1977 115.201 60.289 115.201 60.3305 115.201C60.3886 115.201 60.538 115.201 60.7787 115.185C61.0194 115.176 61.2352 115.168 61.4261 115.168C62.198 115.168 62.7707 115.284 63.1276 115.499C63.4928 115.722 63.6671 116.07 63.6671 116.541C63.6671 116.93 63.5426 117.244 63.2936 117.492C63.0446 117.732 62.6628 117.906 62.1648 118.005C62.7375 118.063 63.1525 118.22 63.4264 118.452C63.7003 118.691 63.8331 119.031 63.8331 119.469C63.8331 120.064 63.6256 120.519 63.2189 120.825C62.8122 121.131 62.2063 121.289 61.4178 121.289C61.2684 121.289 61.0775 121.289 60.8451 121.272C60.6127 121.264 60.455 121.256 60.3637 121.256C60.3056 121.256 60.2475 121.256 60.1811 121.256C60.1147 121.256 60.0234 121.272 59.8906 121.28" fill="#010101"/>
<path d="M68.0919 121.074C68.8638 121.074 69.4531 120.826 69.8681 120.338C70.2831 119.85 70.4906 119.147 70.4906 118.245C70.4906 117.344 70.2831 116.616 69.8764 116.136C69.4697 115.656 68.8721 115.416 68.0919 115.416C67.3117 115.416 66.7224 115.664 66.3074 116.161C65.8925 116.657 65.685 117.36 65.685 118.278C65.685 119.196 65.8925 119.866 66.3074 120.346C66.7224 120.826 67.32 121.066 68.0919 121.066M68.0919 121.413C67.071 121.413 66.266 121.132 65.6684 120.569C65.0791 120.007 64.7803 119.238 64.7803 118.262C64.7803 117.286 65.0791 116.533 65.685 115.954C66.2825 115.383 67.0876 115.094 68.0919 115.094C69.0962 115.094 69.9096 115.375 70.4989 115.946C71.0882 116.516 71.3787 117.286 71.3787 118.262C71.3787 119.238 71.0799 119.965 70.474 120.544C69.8681 121.123 69.0713 121.413 68.0836 121.413" fill="#010101"/>
<path d="M72.5732 115.193C72.6313 115.202 72.6977 115.218 72.7641 115.218C72.8305 115.218 72.8969 115.218 72.9716 115.218C73.0546 115.218 73.1376 115.218 73.204 115.21C73.2704 115.21 73.3368 115.193 73.3949 115.185C73.3866 115.946 73.37 116.624 73.37 117.22C73.37 117.815 73.37 118.22 73.37 118.427C73.37 118.973 73.4032 119.387 73.4696 119.668C73.536 119.949 73.6522 120.181 73.8099 120.379C73.9759 120.578 74.1834 120.727 74.4324 120.826C74.6814 120.925 74.9636 120.983 75.279 120.983C75.5944 120.983 75.8766 120.925 76.1339 120.818C76.3912 120.71 76.5987 120.561 76.7564 120.354C76.9141 120.156 77.0303 119.9 77.0967 119.585C77.1631 119.279 77.1963 118.733 77.1963 117.972C77.1963 117.468 77.1963 116.98 77.1963 116.517C77.1963 116.053 77.1797 115.607 77.1714 115.177C77.2129 115.185 77.2627 115.202 77.3042 115.202C77.354 115.202 77.3955 115.202 77.4453 115.202C77.5034 115.202 77.5532 115.202 77.603 115.193C77.6528 115.193 77.6943 115.177 77.7441 115.168C77.7275 115.524 77.7192 115.847 77.7109 116.144C77.7109 116.442 77.7026 116.657 77.7026 116.79V117.021C77.7026 118.154 77.6777 118.932 77.6196 119.345C77.5615 119.759 77.4702 120.082 77.3374 120.321C77.1299 120.677 76.8477 120.942 76.4825 121.115C76.1173 121.297 75.6691 121.38 75.1545 121.38C74.2664 121.38 73.619 121.165 73.2123 120.735C72.8056 120.305 72.5981 119.627 72.5981 118.692C72.5981 118.659 72.5981 118.436 72.6147 118.022C72.6313 117.608 72.6313 117.22 72.6313 116.847C72.6313 116.566 72.623 116.087 72.5981 115.408C72.5981 115.301 72.5981 115.218 72.5981 115.16" fill="#010101"/>
<path d="M79.2793 121.288C79.2959 120.767 79.3042 120.254 79.3125 119.749C79.3208 119.245 79.3291 118.74 79.3291 118.244C79.3291 117.69 79.3291 117.16 79.3208 116.664C79.3125 116.168 79.2959 115.68 79.2793 115.184C79.3457 115.192 79.4121 115.208 79.4785 115.208C79.5449 115.208 79.6196 115.208 79.7026 115.208C79.7856 115.208 79.852 115.208 79.9184 115.208C79.9848 115.208 80.0512 115.192 80.1176 115.184C80.0927 115.763 80.0761 116.325 80.0595 116.854C80.0429 117.392 80.0346 117.888 80.0346 118.351C80.0346 118.815 80.0346 119.278 80.0429 119.683C80.0512 120.088 80.0678 120.485 80.0844 120.866C80.1508 120.866 80.2172 120.866 80.3002 120.866C80.3832 120.866 80.5077 120.866 80.6903 120.866C81.0804 120.866 81.429 120.858 81.7278 120.833C82.0266 120.808 82.2921 120.775 82.5162 120.734C82.5162 120.758 82.5162 120.8 82.5162 120.866C82.5162 120.932 82.5162 120.973 82.5162 121.007C82.5162 121.031 82.5162 121.081 82.5162 121.139C82.5162 121.197 82.5162 121.246 82.5162 121.279C81.9851 121.279 81.5535 121.263 81.2132 121.263C80.8729 121.263 80.6156 121.263 80.4496 121.263C80.2338 121.263 80.0346 121.263 79.8354 121.263C79.6445 121.263 79.4619 121.271 79.2793 121.279" fill="#010101"/>
<path d="M83.6621 121.289C83.687 120.917 83.7119 120.479 83.7202 119.974C83.7285 119.47 83.7368 118.874 83.7368 118.171C83.7368 117.526 83.7368 116.963 83.7202 116.484C83.7119 116.004 83.687 115.574 83.6621 115.193C83.7866 115.193 83.9277 115.202 84.0688 115.21C84.2182 115.21 84.4506 115.21 84.766 115.21C85.1727 115.21 85.5379 115.21 85.8533 115.21C86.1687 115.21 86.4924 115.21 86.8244 115.193C86.8244 115.218 86.8244 115.26 86.8244 115.317C86.8244 115.375 86.8244 115.417 86.8244 115.45C86.8244 115.475 86.8244 115.516 86.8244 115.574C86.8244 115.632 86.8244 115.673 86.8244 115.706C86.4841 115.673 86.1355 115.657 85.7786 115.64C85.4217 115.623 85.0648 115.615 84.6996 115.615H84.4838C84.4838 115.963 84.4838 116.293 84.4838 116.608C84.4838 116.922 84.4838 117.22 84.4838 117.501V117.857H84.6415C84.9154 117.857 85.2142 117.857 85.5462 117.84C85.8782 117.824 86.2268 117.807 86.592 117.791C86.592 117.857 86.5837 117.906 86.5754 117.948C86.5754 117.989 86.5754 118.03 86.5754 118.063C86.5754 118.097 86.5754 118.13 86.5754 118.171C86.5754 118.204 86.5754 118.254 86.592 118.312C86.4509 118.287 86.2683 118.27 86.0525 118.254C85.8367 118.245 85.4549 118.237 84.8988 118.237H84.4838V118.667C84.4838 119.172 84.4838 119.585 84.4838 119.908C84.4838 120.222 84.4838 120.537 84.4838 120.851H84.7079C84.9652 120.851 85.2806 120.843 85.6458 120.826C86.011 120.809 86.4177 120.785 86.8576 120.752C86.8576 120.776 86.8576 120.826 86.8576 120.884C86.8576 120.942 86.8576 120.991 86.8576 121.025C86.8576 121.049 86.8576 121.099 86.8576 121.157C86.8576 121.215 86.8576 121.264 86.8576 121.289C86.6916 121.289 86.5007 121.281 86.2932 121.273C86.0857 121.273 85.762 121.273 85.3221 121.273C84.8822 121.273 84.5419 121.273 84.3095 121.273C84.0771 121.273 83.8613 121.273 83.6621 121.289Z" fill="#010101"/>
<path d="M89.7966 121.279C89.3401 120.088 88.9085 118.988 88.5101 117.988C88.1117 116.987 87.7299 116.052 87.3564 115.184C87.4228 115.2 87.4976 115.208 87.5723 115.208C87.6469 115.208 87.7216 115.217 87.7963 115.217C87.871 115.217 87.954 115.217 88.0287 115.208C88.1034 115.208 88.1698 115.192 88.2362 115.184C88.535 116.019 88.8587 116.871 89.1907 117.739C89.531 118.608 89.8879 119.493 90.2614 120.403C90.6266 119.518 90.9752 118.633 91.3072 117.764C91.6392 116.896 91.9546 116.036 92.2451 115.192C92.2949 115.208 92.3364 115.217 92.3862 115.217C92.436 115.217 92.4858 115.225 92.5439 115.225C92.602 115.225 92.6601 115.225 92.7099 115.217C92.7597 115.217 92.8095 115.2 92.851 115.192C92.436 116.176 92.021 117.169 91.6143 118.178C91.2076 119.187 90.8009 120.221 90.3942 121.279C90.3361 121.271 90.2863 121.255 90.2365 121.255C90.1867 121.255 90.1452 121.246 90.0954 121.246C90.0456 121.246 90.0041 121.246 89.9543 121.255C89.9045 121.255 89.8547 121.271 89.7966 121.279Z" fill="#010101"/>
<path d="M94.1619 118.51C94.1619 118.51 94.2864 118.51 94.4358 118.51C94.5852 118.51 94.718 118.51 94.8342 118.51C94.9255 118.51 95.0998 118.51 95.3737 118.51C95.6393 118.51 95.8634 118.51 96.0377 118.51L95.88 118.121C95.8551 118.055 95.797 117.906 95.6974 117.667C95.5978 117.427 95.4069 116.972 95.1164 116.302L94.1619 118.518V118.51ZM92.4936 121.289C93.0497 120.073 93.556 118.957 94.0042 117.948C94.4524 116.939 94.8757 115.979 95.2575 115.086H95.4235C95.8385 116.128 96.2701 117.17 96.7017 118.204C97.1333 119.238 97.5732 120.272 98.0214 121.298C97.9384 121.281 97.8637 121.273 97.7973 121.264C97.7309 121.256 97.6562 121.248 97.5815 121.248C97.5068 121.248 97.4404 121.248 97.3657 121.256C97.291 121.256 97.2163 121.273 97.125 121.289C97.0171 120.967 96.9009 120.636 96.7764 120.297C96.6519 119.958 96.5108 119.619 96.3697 119.263L96.212 118.907C96.0792 118.907 95.9381 118.899 95.7887 118.891C95.6393 118.891 95.4152 118.891 95.1081 118.891C94.801 118.891 94.5686 118.891 94.4192 118.891C94.2698 118.891 94.1287 118.891 93.9959 118.907C93.8548 119.238 93.7054 119.585 93.5643 119.966C93.4149 120.346 93.2572 120.785 93.0746 121.289C93.0248 121.273 92.975 121.265 92.9252 121.256C92.8754 121.256 92.8256 121.248 92.7758 121.248C92.7343 121.248 92.6845 121.248 92.6347 121.256C92.5849 121.256 92.5352 121.273 92.4854 121.289" fill="#010101"/>
<path d="M99.6811 118.03C99.6811 118.03 99.7558 118.038 99.7973 118.038C99.8388 118.038 99.8969 118.038 99.9716 118.038C100.644 118.038 101.142 117.931 101.474 117.707C101.806 117.492 101.972 117.161 101.972 116.723C101.972 116.326 101.847 116.02 101.582 115.813C101.324 115.615 100.943 115.507 100.428 115.507C100.337 115.507 100.154 115.507 99.8803 115.532C99.8139 115.532 99.7641 115.532 99.7309 115.54C99.7143 115.673 99.6977 115.813 99.6894 115.962C99.6811 116.111 99.6728 116.276 99.6728 116.45V118.022L99.6811 118.03ZM98.8926 121.289C98.9092 120.974 98.9258 120.619 98.9341 120.213C98.9424 119.808 98.9507 119.155 98.9507 118.245C98.9507 117.476 98.9507 116.855 98.9341 116.392C98.9341 115.929 98.9092 115.524 98.8926 115.193C98.9175 115.193 98.9424 115.193 98.9756 115.193C99.1416 115.193 99.2495 115.201 99.3076 115.201C99.4155 115.201 99.6313 115.201 99.9467 115.185C100.262 115.176 100.528 115.168 100.735 115.168C101.416 115.168 101.914 115.284 102.254 115.532C102.586 115.772 102.752 116.136 102.752 116.615C102.752 117.037 102.594 117.393 102.287 117.682C101.98 117.972 101.532 118.162 100.959 118.27C101.383 118.832 102.138 119.783 103.225 121.115C103.283 121.189 103.333 121.247 103.366 121.28C103.267 121.264 103.175 121.256 103.084 121.247C102.993 121.247 102.91 121.239 102.827 121.239C102.744 121.239 102.661 121.239 102.578 121.247C102.495 121.247 102.403 121.264 102.304 121.28C102.071 120.941 101.872 120.652 101.69 120.404C101.515 120.155 101.341 119.932 101.192 119.725L100.212 118.476C100.162 118.41 100.113 118.361 100.055 118.328C99.9965 118.294 99.9301 118.278 99.8554 118.278C99.8222 118.278 99.7724 118.278 99.706 118.294C99.6977 118.294 99.6894 118.294 99.6811 118.294V119.924C99.6811 120.122 99.6811 120.337 99.6977 120.561C99.6977 120.784 99.7143 121.024 99.7309 121.272C99.6479 121.256 99.5815 121.247 99.5151 121.239C99.4487 121.239 99.3823 121.231 99.3159 121.231C99.2495 121.231 99.1831 121.231 99.1167 121.239C99.0503 121.239 98.9756 121.256 98.9009 121.272" fill="#010101"/>
<path d="M105.01 120.9C105.201 120.917 105.375 120.925 105.524 120.933C105.674 120.933 105.815 120.942 105.948 120.942C106.935 120.942 107.674 120.718 108.155 120.263C108.637 119.817 108.886 119.13 108.886 118.22C108.886 117.311 108.687 116.575 108.288 116.153C107.89 115.731 107.242 115.516 106.354 115.516C106.105 115.516 105.873 115.516 105.649 115.524C105.425 115.532 105.217 115.541 105.01 115.557C104.993 115.929 104.985 116.318 104.976 116.723C104.976 117.12 104.976 117.551 104.976 118.005C104.976 118.56 104.976 119.072 104.976 119.544C104.976 120.015 104.993 120.47 105.01 120.892M104.196 121.289C104.213 120.95 104.221 120.578 104.221 120.164C104.221 119.751 104.221 119.114 104.221 118.245C104.221 117.377 104.221 116.699 104.221 116.285C104.221 115.88 104.205 115.516 104.196 115.193C104.337 115.193 104.462 115.202 104.561 115.21C104.669 115.21 104.769 115.21 104.86 115.21C104.976 115.21 105.234 115.21 105.624 115.185C106.006 115.168 106.338 115.16 106.603 115.16C107.11 115.16 107.516 115.193 107.815 115.259C108.114 115.326 108.371 115.433 108.604 115.582C108.977 115.83 109.259 116.169 109.45 116.591C109.649 117.013 109.749 117.501 109.749 118.055C109.749 119.114 109.45 119.916 108.844 120.47C108.247 121.024 107.367 121.297 106.213 121.297C106.072 121.297 105.865 121.297 105.574 121.281C105.284 121.273 105.059 121.264 104.91 121.264C104.86 121.264 104.761 121.264 104.595 121.264C104.429 121.264 104.296 121.273 104.196 121.273" fill="#010101"/>
<path d="M114.687 121.289C114.446 120.503 114.172 119.627 113.882 118.684C113.583 117.733 113.209 116.575 112.77 115.193C112.836 115.202 112.902 115.218 112.969 115.218C113.035 115.218 113.118 115.218 113.193 115.218C113.276 115.218 113.351 115.218 113.417 115.218C113.492 115.218 113.558 115.202 113.616 115.193C113.865 116.103 114.114 116.988 114.371 117.865C114.629 118.733 114.894 119.594 115.168 120.446C115.475 119.602 115.774 118.742 116.056 117.865C116.338 116.988 116.604 116.103 116.853 115.193C116.895 115.202 116.944 115.218 116.986 115.218C117.036 115.218 117.085 115.218 117.135 115.218C117.193 115.218 117.243 115.218 117.293 115.218C117.343 115.218 117.384 115.202 117.434 115.193C117.7 116.054 117.974 116.905 118.256 117.774C118.538 118.634 118.837 119.494 119.152 120.355C119.451 119.511 119.725 118.659 119.982 117.799C120.239 116.939 120.48 116.07 120.704 115.193C120.746 115.202 120.796 115.21 120.837 115.218C120.887 115.218 120.937 115.226 120.995 115.226C121.053 115.226 121.111 115.226 121.161 115.226C121.211 115.226 121.26 115.21 121.302 115.202C120.895 116.393 120.306 118.146 119.534 120.462L119.26 121.297C119.21 121.289 119.16 121.273 119.111 121.273C119.061 121.273 119.003 121.273 118.945 121.273C118.887 121.273 118.828 121.273 118.779 121.273C118.729 121.273 118.671 121.289 118.621 121.297C118.397 120.528 118.148 119.734 117.874 118.907C117.6 118.08 117.301 117.22 116.969 116.31C116.504 117.724 116.139 118.824 115.874 119.61C115.608 120.396 115.417 120.958 115.293 121.297C115.235 121.281 115.176 121.273 115.127 121.264C115.077 121.264 115.027 121.256 114.986 121.256C114.944 121.256 114.886 121.256 114.836 121.264C114.786 121.264 114.728 121.281 114.67 121.297" fill="#010101"/>
<path d="M122.763 118.51C122.763 118.51 122.888 118.51 123.037 118.51C123.187 118.51 123.32 118.51 123.436 118.51C123.527 118.51 123.701 118.51 123.975 118.51C124.241 118.51 124.465 118.51 124.639 118.51L124.482 118.121C124.457 118.055 124.399 117.906 124.299 117.667C124.199 117.427 124.008 116.972 123.718 116.302L122.763 118.518V118.51ZM121.095 121.289C121.66 120.073 122.158 118.957 122.606 117.948C123.054 116.939 123.469 115.979 123.859 115.086H124.025C124.44 116.128 124.872 117.17 125.303 118.204C125.735 119.238 126.175 120.272 126.623 121.298C126.548 121.281 126.474 121.273 126.399 121.264C126.324 121.264 126.258 121.248 126.183 121.248C126.108 121.248 126.042 121.248 125.967 121.256C125.893 121.256 125.818 121.273 125.727 121.289C125.619 120.967 125.502 120.636 125.378 120.297C125.253 119.958 125.112 119.619 124.971 119.263L124.814 118.907C124.681 118.907 124.54 118.899 124.39 118.891C124.241 118.891 124.017 118.891 123.71 118.891C123.403 118.891 123.17 118.891 123.021 118.891C122.871 118.891 122.73 118.891 122.597 118.907C122.456 119.238 122.307 119.585 122.166 119.966C122.017 120.346 121.859 120.785 121.676 121.289C121.626 121.273 121.577 121.265 121.527 121.256C121.477 121.256 121.427 121.248 121.377 121.248C121.336 121.248 121.286 121.248 121.236 121.256C121.187 121.256 121.137 121.273 121.087 121.289" fill="#010101"/>
<path d="M128.399 121.288C128.415 121.04 128.424 120.808 128.432 120.601C128.432 120.394 128.44 120.196 128.44 120.006C128.44 119.815 128.44 119.625 128.432 119.427C128.424 119.228 128.415 119.013 128.399 118.79C127.975 118.062 127.594 117.409 127.253 116.83C126.913 116.242 126.581 115.696 126.282 115.192C126.357 115.2 126.432 115.217 126.515 115.217C126.598 115.217 126.681 115.217 126.772 115.217C126.863 115.217 126.955 115.217 127.038 115.217C127.121 115.217 127.195 115.2 127.27 115.192C127.502 115.729 127.76 116.242 128.042 116.747C128.324 117.251 128.623 117.739 128.946 118.211C129.254 117.715 129.544 117.21 129.81 116.705C130.075 116.201 130.324 115.696 130.557 115.184C130.615 115.192 130.665 115.208 130.723 115.208C130.772 115.208 130.831 115.208 130.889 115.208C130.955 115.208 131.013 115.208 131.063 115.208C131.121 115.208 131.171 115.192 131.221 115.184C130.847 115.796 130.49 116.383 130.15 116.962C129.81 117.533 129.494 118.095 129.187 118.641C129.187 118.897 129.179 119.088 129.179 119.22C129.179 119.352 129.179 119.476 129.179 119.584C129.179 119.84 129.179 120.105 129.187 120.386C129.187 120.667 129.204 120.965 129.22 121.279C129.154 121.263 129.088 121.255 129.021 121.246C128.955 121.238 128.888 121.238 128.83 121.238C128.772 121.238 128.697 121.238 128.631 121.246C128.565 121.255 128.49 121.263 128.415 121.279" fill="#010101"/>
<path d="M47.5488 131.991C47.6567 131.503 47.7812 130.783 47.9223 129.857C48.0634 128.922 48.246 127.566 48.4701 125.788H48.6195C49.1507 126.846 49.6155 127.756 50.0139 128.517C50.4123 129.278 50.7858 129.981 51.1427 130.626C51.5328 129.94 51.9478 129.195 52.3794 128.41C52.811 127.624 53.284 126.747 53.7986 125.779H53.9148C53.9978 126.565 54.0891 127.434 54.197 128.393C54.3049 129.352 54.446 130.552 54.612 131.983C54.5373 131.966 54.4709 131.958 54.4045 131.95C54.3381 131.95 54.2717 131.941 54.2053 131.941C54.1389 131.941 54.0808 131.941 54.0144 131.95C53.948 131.958 53.8816 131.966 53.8069 131.983C53.7322 130.941 53.6492 130.022 53.5662 129.228C53.4832 128.443 53.4085 127.872 53.3339 127.533C52.7778 128.459 52.2964 129.319 51.898 130.105C51.4913 130.891 51.2091 131.519 51.0431 131.974H50.9186C50.8522 131.743 50.7526 131.486 50.6281 131.197C50.4953 130.916 50.3127 130.552 50.072 130.105L48.6776 127.533C48.5365 128.492 48.4369 129.352 48.3539 130.122C48.2792 130.891 48.2377 131.511 48.2294 131.974C48.1713 131.958 48.1132 131.95 48.0634 131.941C48.0136 131.933 47.9555 131.933 47.9057 131.933C47.8559 131.933 47.7978 131.933 47.7397 131.941C47.6816 131.941 47.6152 131.958 47.5488 131.974" fill="#010101"/>
<path d="M58.5967 131.992C58.6133 131.703 58.6299 131.38 58.6382 131.025C58.6382 130.669 58.6465 130.222 58.6465 129.693V128.949C58.6465 127.997 58.6465 127.327 58.6382 126.93C58.6299 126.533 58.6133 126.186 58.5967 125.896C58.6548 125.905 58.7212 125.921 58.7876 125.921C58.854 125.921 58.9287 125.921 59.0034 125.921C59.0781 125.921 59.1528 125.921 59.2275 125.921C59.2939 125.921 59.3686 125.905 59.435 125.896C59.4184 126.095 59.4018 126.335 59.3935 126.6C59.3935 126.864 59.3852 127.22 59.3852 127.65V130.429C59.3852 130.901 59.3852 131.24 59.3935 131.446C59.3935 131.653 59.4184 131.835 59.435 132.001C59.3686 131.992 59.3022 131.976 59.2358 131.976C59.1694 131.976 59.0947 131.976 59.02 131.976C58.9453 131.976 58.8706 131.976 58.7959 131.976C58.7295 131.976 58.6548 131.992 58.5967 132.001" fill="#010101"/>
<path d="M64.5564 129.22C64.5564 129.22 64.6809 129.22 64.8303 129.22C64.9797 129.22 65.1126 129.22 65.2287 129.22C65.32 129.22 65.5026 129.22 65.7682 129.22C66.0338 129.22 66.2579 129.22 66.4322 129.22L66.2745 128.831C66.2496 128.765 66.1915 128.616 66.0919 128.376C65.9923 128.137 65.8014 127.682 65.5109 127.012L64.5564 129.228V129.22ZM62.8882 131.991C63.4443 130.767 63.9506 129.658 64.3988 128.649C64.847 127.64 65.2619 126.681 65.652 125.779H65.818C66.233 126.821 66.6646 127.864 67.0962 128.898C67.5278 129.931 67.9677 130.965 68.4159 131.991C68.3412 131.974 68.2665 131.966 68.1918 131.958C68.1171 131.95 68.0507 131.941 67.976 131.941C67.9013 131.941 67.8349 131.941 67.7602 131.95C67.6855 131.95 67.6108 131.966 67.5195 131.983C67.4116 131.66 67.2954 131.329 67.1709 130.99C67.0464 130.651 66.9053 130.312 66.7559 129.956L66.6065 129.601C66.4737 129.601 66.3326 129.592 66.1832 129.584C66.0338 129.584 65.8097 129.584 65.5026 129.584C65.1955 129.584 64.9632 129.584 64.8138 129.584C64.6644 129.584 64.5233 129.584 64.3905 129.601C64.2494 129.931 64.1 130.279 63.9589 130.659C63.8095 131.04 63.6518 131.478 63.4692 131.983C63.4194 131.966 63.3696 131.958 63.3198 131.95C63.27 131.95 63.2202 131.941 63.1704 131.941C63.1289 131.941 63.0791 131.941 63.0293 131.95C62.9795 131.95 62.9297 131.966 62.8799 131.983" fill="#010101"/>
<path d="M71.4697 131.991C71.5776 131.503 71.7021 130.783 71.8432 129.857C71.9843 128.922 72.1669 127.566 72.391 125.788H72.5404C73.0716 126.846 73.5364 127.756 73.9348 128.517C74.3332 129.278 74.7067 129.981 75.0636 130.626C75.4537 129.94 75.8687 129.195 76.3003 128.41C76.7319 127.624 77.2049 126.747 77.7195 125.779H77.8357C77.9187 126.565 78.01 127.434 78.1179 128.393C78.2258 129.352 78.3669 130.552 78.5329 131.983C78.4582 131.966 78.3918 131.958 78.3254 131.95C78.259 131.95 78.1926 131.941 78.1262 131.941C78.0598 131.941 78.0017 131.941 77.9353 131.95C77.8689 131.95 77.8025 131.966 77.7278 131.983C77.6531 130.941 77.5701 130.022 77.4871 129.228C77.4041 128.443 77.3294 127.872 77.2547 127.533C76.6987 128.459 76.2173 129.319 75.8189 130.105C75.4122 130.891 75.13 131.519 74.964 131.974H74.8395C74.7731 131.743 74.6735 131.486 74.549 131.197C74.4162 130.916 74.2336 130.552 73.9929 130.105L72.5985 127.533C72.4657 128.492 72.3578 129.352 72.2831 130.122C72.2084 130.891 72.1669 131.511 72.1586 131.974C72.1005 131.958 72.0424 131.95 71.9926 131.941C71.9428 131.933 71.8847 131.933 71.8349 131.933C71.7851 131.933 71.727 131.933 71.6689 131.941C71.6108 131.941 71.5444 131.958 71.478 131.974" fill="#010101"/>
<path d="M82.5176 131.992C82.5342 131.703 82.5508 131.38 82.5591 131.025C82.5591 130.669 82.5674 130.222 82.5674 129.693V128.949C82.5674 127.997 82.5674 127.327 82.5591 126.93C82.5508 126.533 82.5342 126.186 82.5176 125.896C82.5757 125.905 82.6421 125.921 82.7085 125.921C82.7749 125.921 82.8496 125.921 82.9243 125.921C82.999 125.921 83.0737 125.921 83.1484 125.921C83.2148 125.921 83.2895 125.905 83.3559 125.896C83.331 126.095 83.3227 126.335 83.3144 126.6C83.3144 126.864 83.3061 127.22 83.3061 127.65V130.429C83.3061 130.901 83.3061 131.24 83.3144 131.446C83.3144 131.653 83.331 131.835 83.3559 132.001C83.2895 131.992 83.2231 131.976 83.1567 131.976C83.0903 131.976 83.0156 131.976 82.9409 131.976C82.8662 131.976 82.7915 131.976 82.7168 131.976C82.6504 131.976 82.5757 131.992 82.5176 132.001" fill="#010101"/>
<path d="M64.821 103.663C64.8459 103.44 64.8791 103.216 64.904 103.01C64.9372 102.795 64.9787 102.588 65.0202 102.381C64.1819 102.546 63.6258 102.72 63.3602 102.894C63.0946 103.076 62.9618 103.324 62.9618 103.646C62.9618 103.862 63.0282 104.027 63.161 104.151C63.2938 104.275 63.4764 104.341 63.6922 104.341C63.908 104.341 64.1155 104.283 64.323 104.159C64.5222 104.035 64.6882 103.87 64.8127 103.663M64.7878 104.068C64.6052 104.292 64.406 104.465 64.1736 104.573C63.9495 104.689 63.7005 104.747 63.4266 104.747C63.0863 104.747 62.8207 104.656 62.6298 104.465C62.439 104.283 62.3477 104.019 62.3477 103.696C62.3477 103.473 62.4057 103.274 62.5219 103.092C62.6381 102.91 62.8124 102.753 63.0448 102.621C63.2523 102.505 63.6258 102.398 64.1736 102.29C64.3313 102.265 64.4475 102.24 64.5222 102.224C64.8293 102.166 65.0036 102.1 65.0617 102.025C65.1198 101.951 65.1447 101.769 65.1447 101.496C65.1447 101.24 65.07 101.049 64.9206 100.909C64.7712 100.768 64.5637 100.702 64.2898 100.702C64.0823 100.702 63.8914 100.752 63.7005 100.851C63.5096 100.95 63.327 101.107 63.1444 101.306H63.0531C63.078 101.19 63.1029 101.091 63.1195 101.025C63.1361 100.958 63.1444 100.892 63.1527 100.843C63.3685 100.677 63.5843 100.561 63.7918 100.479C64.0076 100.404 64.24 100.371 64.489 100.371C64.8957 100.371 65.2111 100.462 65.4269 100.644C65.6427 100.826 65.7589 101.091 65.7589 101.43C65.7589 101.546 65.7257 101.827 65.651 102.273C65.6344 102.373 65.6261 102.455 65.6178 102.513L65.485 103.374V103.398C65.4352 103.688 65.4186 103.845 65.4186 103.878C65.4186 104.019 65.4435 104.118 65.5016 104.184C65.5597 104.25 65.6427 104.283 65.7506 104.283C65.7755 104.283 65.8253 104.283 65.8834 104.267C65.9415 104.25 65.9913 104.242 66.0162 104.242L66.0328 104.432C65.9166 104.515 65.8087 104.581 65.6842 104.622C65.568 104.664 65.4518 104.689 65.3273 104.689C65.1779 104.689 65.0534 104.631 64.9621 104.523C64.8708 104.407 64.8127 104.259 64.7961 104.068" fill="#010101"/>
<path d="M66.8638 100.868L66.9219 100.521C67.0132 100.521 67.1128 100.537 67.2041 100.537C67.2954 100.537 67.3867 100.537 67.478 100.537C67.5029 100.372 67.5278 100.215 67.5527 100.057C67.5693 99.9002 67.5859 99.7513 67.6025 99.5942L68.3246 99.3047C68.2831 99.5032 68.2415 99.7017 68.2 99.9085C68.1585 100.107 68.1254 100.322 68.0922 100.529C68.2748 100.529 68.4408 100.529 68.5984 100.529C68.7478 100.529 68.8806 100.521 68.9968 100.512L68.9719 100.851C68.8723 100.851 68.781 100.835 68.6897 100.835C68.5984 100.835 68.5071 100.835 68.4241 100.835C68.3743 100.835 68.3079 100.835 68.2249 100.835C68.1419 100.835 68.0755 100.835 68.034 100.835C67.8764 101.612 67.7685 102.241 67.6855 102.704C67.6108 103.176 67.5693 103.49 67.5693 103.655C67.5693 103.903 67.6274 104.085 67.7353 104.218C67.8432 104.35 68.0092 104.416 68.2166 104.416C68.3079 104.416 68.4076 104.4 68.5071 104.367C68.6067 104.334 68.7146 104.292 68.8225 104.234V104.482C68.6897 104.565 68.5403 104.64 68.391 104.681C68.2416 104.722 68.0839 104.747 67.9262 104.747C67.6191 104.747 67.3784 104.664 67.2041 104.491C67.0215 104.317 66.9385 104.085 66.9385 103.788C66.9385 103.606 67.0132 103.101 67.1709 102.266C67.2788 101.679 67.3618 101.199 67.4282 100.835C67.2788 100.835 67.1626 100.835 67.0796 100.835C66.9966 100.835 66.9219 100.835 66.8555 100.851" fill="#010101"/>
<path d="M52.3308 102.125H0.498047V102.621H52.3308V102.125Z" fill="#010101"/>
<path d="M131.503 102.363H79.6787V102.86H131.503V102.363Z" fill="#010101"/>
</svg>
