<svg width="178" height="89" viewBox="0 0 178 89" fill="none" xmlns="http://www.w3.org/2000/svg">
<path fill-rule="evenodd" clip-rule="evenodd" d="M26.446 73.9009C27.98 74.0015 28.6841 74.7811 28.6841 75.9295C28.6841 76.9437 28.1308 77.8742 26.6891 77.958C25.2389 78.0334 21.8692 78.0418 20.3603 77.958C20.3016 76.6252 20.3016 75.2672 20.3603 73.9009C22.0619 73.8422 25.0126 73.8171 26.446 73.9009ZM26.7142 81.0511C28.8434 81.1182 29.9079 82.0151 29.9079 83.4066C29.9079 84.7981 28.9691 85.6196 26.798 85.7202C24.803 85.8124 22.5397 85.8124 20.3855 85.7202C20.3016 84.1359 20.3016 82.6689 20.3855 81.0511C22.4559 80.9925 24.8449 80.9925 26.7226 81.0511M16.8648 88.7378C16.9822 82.8953 16.9822 76.9773 16.8648 70.9922C19.8741 71.0676 23.3277 71.0676 26.4879 70.9922C30.1259 70.9922 32.0119 73.2051 32.0119 75.4265C32.0119 77.0695 31.2407 78.5699 30.0504 79.2489C32.0874 79.8524 33.2609 81.6211 33.2609 83.7251C33.2609 87.1116 30.7965 88.7378 27.7117 88.7378H16.8564H16.8648Z" fill="#231F20"/>
<path fill-rule="evenodd" clip-rule="evenodd" d="M116.541 85.6349C116.499 86.6576 116.499 87.6887 116.541 88.7281C111.654 88.6443 106.775 88.6443 101.896 88.7281C101.997 82.8101 101.997 76.9004 101.896 70.9824C103.028 71.0243 104.151 71.0243 105.275 70.9824C105.174 75.8694 105.174 80.748 105.275 85.6349C109.03 85.7104 112.785 85.7104 116.541 85.6349Z" fill="#231F20"/>
<path fill-rule="evenodd" clip-rule="evenodd" d="M62.289 70.9824C65.6085 74.9473 69.0453 78.9122 72.5994 82.8771C72.6833 78.9206 72.6833 74.9557 72.5994 70.9992C73.5969 71.0411 74.6028 71.0411 75.6255 70.9992C75.5417 76.8418 75.5417 82.7598 75.6255 88.7448C74.7621 88.7029 73.9071 88.7029 73.0437 88.7448C69.5817 84.6039 65.9689 80.4043 62.2136 76.1712C62.1381 80.3624 62.1381 84.5536 62.2136 88.7448C61.2412 88.7029 60.2353 88.7029 59.1875 88.7448C59.2629 82.8352 59.2629 76.9172 59.1875 71.0076C60.2185 71.0411 61.258 71.0411 62.289 70.9908" fill="#231F20"/>
<path fill-rule="evenodd" clip-rule="evenodd" d="M53.6638 74.0839C49.8079 74.0001 45.9185 74.0001 41.9787 74.0839C41.8949 75.4167 41.8949 76.7579 41.9787 78.0991C44.6108 78.1746 47.2848 78.1746 49.9756 78.0991C49.9337 79.1302 49.9337 80.1612 49.9756 81.1923C47.3435 81.1084 44.6779 81.1084 41.9787 81.1923C41.9033 82.676 41.9033 84.1596 41.9787 85.6349C45.9436 85.7104 49.9085 85.7104 53.865 85.6349C53.8231 86.666 53.8231 87.697 53.865 88.7281C48.7769 88.6443 43.6887 88.6443 38.6006 88.7281C38.6928 82.8184 38.6928 76.9004 38.6006 70.9824C43.6804 71.0662 48.7014 71.0662 53.6638 70.9824C53.6219 72.0135 53.6219 73.0445 53.6638 74.0755" fill="#231F20"/>
<path fill-rule="evenodd" clip-rule="evenodd" d="M149.543 88.7295C149.627 86.2231 149.627 83.6748 149.543 81.1014C146.936 77.7317 144.22 74.3619 141.387 70.9922C142.778 71.0341 144.161 71.0341 145.553 70.9922C147.338 73.2806 149.233 75.5774 151.236 77.8658C153.231 75.5774 155.126 73.289 156.919 70.9922C158.311 71.0341 159.694 71.0341 161.077 70.9922C158.261 74.3619 155.536 77.7317 152.921 81.1014C152.837 83.6413 152.837 86.1896 152.921 88.7295C151.798 88.6959 150.674 88.6959 149.551 88.7295" fill="#231F20"/>
<path fill-rule="evenodd" clip-rule="evenodd" d="M136.39 74.0839C132.543 74.0001 128.645 74.0001 124.705 74.0839C124.621 75.4167 124.621 76.7579 124.705 78.0991C127.337 78.1746 130.011 78.1746 132.702 78.0991C132.66 79.1302 132.66 80.1612 132.702 81.1923C130.07 81.1084 127.396 81.1084 124.705 81.1923C124.63 82.676 124.63 84.1596 124.705 85.6349C128.67 85.7104 132.627 85.7104 136.592 85.6349C136.55 86.666 136.55 87.697 136.592 88.7281C131.503 88.6443 126.415 88.6443 121.327 88.7281C121.419 82.8184 121.419 76.9004 121.327 70.9824C126.407 71.0662 131.428 71.0662 136.39 70.9824C136.349 72.0135 136.349 73.0445 136.39 74.0755" fill="#231F20"/>
<path fill-rule="evenodd" clip-rule="evenodd" d="M87.3366 88.7295C87.4205 83.9095 87.4205 79.0226 87.3366 74.0853C85.2326 73.9931 83.1035 73.9931 80.9492 74.0853C80.9911 73.0626 80.9911 72.0316 80.9492 70.9922C86.3308 71.076 91.7123 71.076 97.0938 70.9922C97.0519 72.0148 97.0519 73.0459 97.0938 74.0853C94.9647 74.0015 92.8355 74.0015 90.7064 74.0853C90.6226 78.9723 90.6226 83.8509 90.7064 88.7295C89.5915 88.6875 88.4683 88.6875 87.3283 88.7295" fill="#231F20"/>
<path fill-rule="evenodd" clip-rule="evenodd" d="M0.00838424 5.15521C0.00838424 5.15521 1.32443 3.60446 1.71002 3.17695C2.09561 2.74945 2.37224 2.41415 2.62371 2.16267C2.87518 1.9112 3.16857 1.84414 3.41166 1.86929C3.65475 1.89444 6.23655 2.17106 6.93229 2.25488C7.62803 2.33032 10.6876 2.47283 11.9031 2.47283C13.1185 2.47283 16.329 2.47283 16.9996 2.47283C17.6702 2.47283 22.7667 2.18782 23.8984 2.104C25.03 2.02017 31.5348 1.93635 33.1023 1.9112C34.6782 1.88606 41.9542 2.16268 43.7564 2.26327C45.5586 2.36386 50.5043 2.61533 52.1472 2.56504C53.7986 2.51474 61.5775 2.17944 63.1283 2.17944C64.679 2.17944 69.5408 2.48121 70.6306 2.65724C71.7203 2.83327 72.986 3.24401 72.986 3.24401C72.986 3.24401 75.0649 2.40577 76.1294 2.05371C77.194 1.69326 79.9854 0.913691 82.1145 0.586776C84.2437 0.251477 86.5237 0 88.7786 0C91.0334 0 94.2523 0.251478 96.4653 0.73766C98.6699 1.21546 101.21 1.97826 102.174 2.35547C103.138 2.74107 105.191 3.67152 105.191 3.67152C105.191 3.67152 106.692 3.21886 107.958 2.93386C109.223 2.65724 111.176 2.34709 112.291 2.28003C113.406 2.20459 114.295 2.104 115.669 2.12914C117.036 2.15429 120.313 2.48121 121.227 2.5818C122.141 2.68239 124.295 2.93386 126.525 2.90871C128.025 2.89195 132.845 2.68239 134.237 2.60694C135.628 2.5315 143.994 2.15429 145.721 2.12914C147.447 2.104 155 2.55665 156.526 2.6321C158.051 2.70754 161.236 2.85842 162.234 2.83327C163.223 2.80813 166.543 2.65724 168.219 2.48121C169.887 2.30518 173.483 2.00341 174.087 1.96988C174.757 1.93635 175.051 1.93635 175.168 2.01179C175.285 2.08723 176.333 3.10151 176.769 3.57931C177.197 4.06549 177.633 4.66065 177.792 4.84506C177.959 5.03786 178.035 5.1133 177.985 5.21389C177.934 5.31448 177.633 5.85096 177.515 5.98508C177.398 6.12758 177.297 6.18625 177.163 6.26169C177.021 6.33714 175.537 7.08318 175.059 7.29274C174.581 7.49392 173.307 8.03039 173.307 8.03039C173.307 8.03039 173.676 8.89379 173.81 9.271C173.953 9.64821 174.154 10.4278 174.154 10.6709C174.154 10.914 174.179 11.4504 174.112 11.4923C174.053 11.5343 173.299 11.9618 173.005 12.0875C172.712 12.2132 171.614 12.6743 171.128 12.8C170.65 12.9257 169.745 13.1688 169.745 13.1688C169.745 13.1688 169.803 13.8478 169.787 14.2669C169.761 14.6861 169.761 15.1722 169.661 15.5997C169.577 15.977 169.284 16.4715 169.108 16.6979C168.932 16.9242 168.538 17.1421 168.253 17.2762C168.018 17.3936 167.071 17.6786 166.601 17.7708C166.132 17.8546 165.486 17.9636 165.21 17.9888C164.933 18.0139 164.698 18.0139 164.698 18.0139C164.698 18.0139 164.673 18.8438 164.64 19.2042C164.606 19.573 164.472 20.2185 164.388 20.4951C164.296 20.7717 164.045 21.2663 163.776 21.4926C163.508 21.7189 163.324 21.8614 162.863 21.962C162.41 22.0626 161.807 22.2051 161.236 22.2638C160.666 22.3309 159.577 22.4482 159.208 22.4817C158.839 22.5069 158.462 22.5237 158.462 22.5237C158.462 22.5237 158.185 23.5463 158.068 23.8648C157.951 24.175 157.607 24.8624 157.372 25.206C157.129 25.5497 156.71 26.0275 156.5 26.2203C156.282 26.4131 155.947 26.6478 155.78 26.6981C155.612 26.7484 154.816 26.7903 154.438 26.7903C154.061 26.7903 152.904 26.7903 152.334 26.7484C151.764 26.7065 151.144 26.6478 150.75 26.6059C150.415 26.5724 150.155 26.5053 150.155 26.5053C150.155 26.5053 150.029 27.2933 149.987 27.4945C149.945 27.6956 149.811 28.1902 149.66 28.559C149.509 28.9278 149.317 29.2045 149.149 29.3721C148.998 29.523 148.839 29.7074 148.361 29.7996C147.875 29.9002 147.422 29.9254 147.129 29.9421C146.835 29.9589 144.983 30.0008 144.488 30.0008C143.994 30.0008 143.047 29.9924 142.703 29.9757C142.359 29.9673 141.831 29.9757 141.831 29.9757C141.831 29.9757 141.689 30.5624 141.588 30.8893C141.487 31.2163 141.269 31.7611 141.144 32.0042C141.018 32.2473 140.842 32.5575 140.632 32.7502C140.406 32.9682 140.314 33.1107 139.895 33.1526C139.476 33.2029 138.956 33.2364 138.453 33.2281C137.942 33.2113 136.827 33.1526 136.307 33.0772C135.787 33.0017 134.723 32.8005 134.413 32.7083C134.111 32.6245 133.792 32.482 133.792 32.482C133.792 32.482 133.608 33.0688 133.449 33.3286C133.298 33.5969 132.971 34.1166 132.753 34.2926C132.485 34.5106 132.2 34.8794 131.697 34.9381C131.202 35.0051 130.708 34.9129 130.288 34.8542C129.869 34.7956 128.956 34.586 128.562 34.4854C128.168 34.3848 127.179 34.0914 126.952 34.0328C126.718 33.9741 126.441 33.8567 126.441 33.8567C126.441 33.8567 126.173 34.3932 125.988 34.6279C125.812 34.8542 125.494 35.2231 125.251 35.4159C125.008 35.6087 124.58 35.8853 124.379 35.9104C124.178 35.9356 123.851 35.9104 123.415 35.8518C122.987 35.7847 122.468 35.6338 122.023 35.4913C121.579 35.3488 121.21 35.1895 121.21 35.1895C121.21 35.1895 120.732 36.5894 120.598 36.8996C120.473 37.2181 119.852 38.509 119.618 38.9449C119.425 39.3137 118.402 40.9818 118.084 41.4429C117.706 42.0045 116.181 43.9157 115.82 44.2845C115.452 44.6533 114.932 45.215 114.605 45.5503C114.278 45.8939 112.878 47.1345 112.132 47.7297C111.386 48.3249 110.028 49.314 108.972 49.9594C107.916 50.6049 106.005 51.6359 105.166 52.0131C104.328 52.3903 103.364 52.7843 103.364 52.7843C103.364 52.7843 102.978 53.5052 102.786 53.9662C102.584 54.4189 102.216 55.1146 102.123 55.2404C102.04 55.3661 101.872 55.408 101.679 55.341C101.486 55.2823 100.573 54.9386 100.237 54.8129C99.8937 54.6871 99.1309 54.3686 99.1309 54.3686C99.1309 54.3686 98.6196 55.1146 98.4435 55.3913C98.2675 55.6679 97.7729 56.4223 97.6891 56.5061C97.5969 56.5983 97.4125 56.5648 97.2951 56.5229C97.1862 56.481 96.1887 55.9445 95.9875 55.8271C95.7863 55.7182 94.9313 55.2152 94.9313 55.2152C94.9313 55.2152 94.4535 55.802 94.1936 56.1457C93.9925 56.4223 93.2883 57.227 93.2296 57.2857C93.1626 57.3528 93.062 57.336 92.9111 57.2773C92.7602 57.2103 92.4668 56.9672 92.1399 56.7324C91.813 56.4977 91.2514 56.0451 91.0754 55.9361C90.8993 55.8188 90.7317 55.6679 90.7317 55.6679C90.7317 55.6679 90.0946 56.2882 89.8683 56.5061C89.642 56.7241 89.0803 57.2689 89.0049 57.3444C88.9294 57.4198 88.787 57.5455 88.787 57.5455C88.787 57.5455 88.6696 57.6294 88.5187 57.5623C88.3678 57.4869 87.7224 56.875 87.4374 56.6067C87.211 56.3888 86.5488 55.7349 86.5488 55.7349C86.5488 55.7349 85.7525 56.3133 85.4843 56.5061C85.216 56.6989 84.5035 57.2522 84.3862 57.3192C84.2604 57.3863 84.0844 57.3611 83.9838 57.2186C83.8832 57.0761 83.1204 56.2044 82.9863 56.0283C82.8438 55.8523 82.366 55.2823 82.366 55.2823C82.366 55.2823 81.4271 55.7936 81.0499 55.978C80.6643 56.1708 80.0943 56.548 79.9938 56.5899C79.8932 56.6319 79.6668 56.6319 79.5914 56.4977C79.516 56.372 79.0214 55.6595 78.8286 55.3829C78.6106 55.0643 78.1664 54.377 78.1664 54.377C78.1664 54.377 77.303 54.6955 77.0012 54.8212C76.6994 54.947 75.7858 55.299 75.6181 55.341C75.4505 55.3829 75.2158 55.341 75.1487 55.2152C75.0649 55.0476 74.4362 53.8573 74.3104 53.5639C74.1847 53.2705 73.9835 52.8346 73.9835 52.8346C73.9835 52.8346 72.9609 52.4322 72.2987 52.1221C71.5778 51.7952 70.027 51.0324 69.3816 50.6719C68.7361 50.3199 67.6548 49.6744 67.0093 49.2302C66.3639 48.7859 64.8802 47.6962 64.2934 47.1932C63.7066 46.6903 61.7284 44.7204 61.259 44.1923C60.7896 43.6642 60.0435 42.7589 59.4064 41.8955C58.7694 41.0321 58.3167 40.2358 57.8725 39.3975C57.4282 38.5593 57.0845 37.8635 56.6822 36.8577C56.2798 35.8601 55.9361 34.9297 55.8355 34.586C55.7349 34.2423 55.7098 34.0998 55.7098 34.0998C55.7098 34.0998 54.553 34.4854 53.7483 34.6698C52.9352 34.8542 52.0215 35.1225 51.2 35.0722C50.3785 35.0219 50.2277 34.8962 50.0181 34.7285C49.8169 34.5609 49.5654 34.2675 49.2804 33.8735C49.0038 33.4795 48.7356 32.9598 48.7356 32.9598C48.7356 32.9598 47.4698 33.2783 46.9753 33.3873C46.4807 33.4963 45.3155 33.731 44.6198 33.8148C43.9241 33.907 43.111 33.9909 42.7086 33.9406C42.3062 33.8903 42.0212 33.731 41.6524 33.4208C41.2752 33.0939 41.1495 32.8928 40.9567 32.6245C40.8058 32.415 40.437 31.6941 40.3615 31.518C40.2861 31.342 40.2358 31.1157 40.2358 31.1157C40.2358 31.1157 38.7772 31.1408 38.4 31.1408C38.0228 31.1408 36.0194 31.1324 35.6087 31.1157C35.2063 31.1073 34.1166 31.0235 33.6723 30.9396C33.228 30.8474 32.9514 30.772 32.5323 30.2187C32.1132 29.6655 32.0042 29.3973 31.8366 28.953C31.6689 28.5087 31.5432 28.0142 31.5432 28.0142C31.5432 28.0142 30.2607 27.9974 29.5817 27.9303C28.8943 27.8549 27.4777 27.6872 26.7065 27.5615C25.9353 27.4358 24.7534 27.2346 24.4349 27.1172C24.1163 27.0083 23.9403 26.7317 23.6637 26.4299C23.387 26.1281 23.102 25.7174 22.8506 25.3402C22.5991 24.9546 22.0794 24.1834 22.0291 24.0744C21.9788 23.9571 21.9034 23.8313 21.9034 23.8313C21.9034 23.8313 20.5789 23.7056 20.0005 23.6301C19.4138 23.5547 18.5671 23.4122 18.1732 23.3368C17.7792 23.2613 16.7565 23.0685 16.5218 22.9512C16.2955 22.8338 16.1027 22.75 15.9015 22.3392C15.7003 21.9369 15.5662 21.1238 15.3902 20.4364C15.2142 19.7155 15.0968 19.1288 15.0968 19.1288C15.0968 19.1288 14.0322 18.8521 13.1856 18.6174C12.339 18.3911 12.0959 18.3157 11.5091 18.1396C10.9307 17.9636 10.3691 17.7457 10.0422 17.5277C9.71526 17.3098 9.72365 16.9074 9.69012 16.6811C9.6482 16.4548 9.56438 15.4908 9.53923 15.2058C9.51409 14.9292 9.52247 14.3172 9.52247 14.3172C9.52247 14.3172 7.40171 13.3365 6.85685 13.1018C6.31199 12.8587 5.02109 12.2384 4.75285 12.1126C4.48461 11.9869 4.52653 11.7103 4.56844 11.4923C4.60197 11.2744 4.78638 10.411 4.87021 9.99189C4.95403 9.57277 5.09653 8.89378 5.12168 8.80158C5.14683 8.71775 5.15521 8.62555 5.15521 8.62555C5.15521 8.62555 3.10989 7.59451 2.60694 7.32627C2.09561 7.05803 0.670596 6.33714 0.4778 6.21979C0.285003 6.11081 0.209563 5.87611 0.125738 5.56596C0.0335311 5.24742 0 5.07139 0 5.07139" fill="#231F20"/>
<path fill-rule="evenodd" clip-rule="evenodd" d="M67.3871 17.9234C67.5883 15.5847 70.5305 12.961 70.1114 10.5804C69.7761 8.69431 67.4458 7.09327 65.0987 6.73282C63.7491 6.52326 59.3232 6.18796 58.3592 6.16281C57.1689 6.1209 53.9584 6.06222 52.9609 6.04546C51.9634 6.03708 49.3061 6.02031 48.5266 5.99516C47.7386 5.97001 46.7663 5.95325 45.5089 5.74369C44.2348 5.52575 43.3378 5.2575 42.0888 4.88029C40.8315 4.50308 39.834 4.19293 38.8448 3.98337C37.8557 3.77381 36.5983 3.56425 35.7349 3.48881C34.8715 3.41337 33.1699 3.28763 31.8958 3.26248C30.6133 3.23734 27.4615 3.26248 26.4388 3.27086C25.4245 3.28763 22.2811 3.3966 21.4596 3.3966C20.6381 3.3966 19.7496 3.38821 19.3556 3.41336C18.9617 3.43851 19.0539 3.63131 18.8694 3.65645C18.6934 3.6816 17.7294 3.65645 17.1846 3.65645C16.6397 3.65645 16.229 3.63131 16.0446 3.61455C15.8518 3.60616 15.5751 3.60616 15.5751 3.60616C15.5751 3.60616 15.5416 3.78219 15.726 3.83248C15.9104 3.88278 16.3966 3.92469 16.5643 3.93308C16.7319 3.94984 18.0228 4.03367 18.4755 4.05881C18.9365 4.08396 19.7161 4.08396 20.219 4.12588C20.7136 4.16779 21.6021 4.16779 22.1805 4.17617C22.7673 4.19293 25.1228 4.17617 25.9861 4.20131C26.8495 4.22646 28.4757 4.22646 29.2721 4.25161C30.0684 4.27675 31.9628 4.3522 33.4465 4.52823C34.9302 4.70426 36.1373 4.88029 37.6294 5.24074C39.0544 5.57604 40.7476 6.11252 41.5775 6.36399C42.399 6.61546 43.5474 6.92561 44.1342 7.05135C44.7293 7.17709 45.2658 7.219 45.4167 7.34474C45.5676 7.47047 45.5676 7.61297 45.4837 7.79739C45.3915 7.99018 45.3161 8.04886 45.2574 8.2249C45.1903 8.40093 45.1317 8.54343 45.1317 8.54343H44.6036C44.6036 8.54343 44.7042 8.44284 44.7209 8.32548C44.7293 8.20813 44.4192 8.02372 44.0839 7.95666C43.757 7.8896 42.2481 7.75548 41.8541 7.70518C41.4602 7.65489 39.9597 7.51239 39.155 7.52915C38.3419 7.54592 35.1733 7.504 34.3602 7.52915C33.5471 7.5543 30.5881 7.49562 29.8337 7.52077C29.0877 7.54591 26.4723 7.52077 25.7598 7.504C25.0473 7.49562 23.396 7.49562 22.7421 7.49562C22.0883 7.49562 19.8502 7.49562 19.0622 7.47886C18.2743 7.46209 15.5835 7.40342 15.0722 7.42018C14.5525 7.43695 13.0772 7.37826 12.3479 7.36988C11.6102 7.35312 9.08712 7.27767 8.39976 7.27767C7.7124 7.27767 6.85739 7.22738 6.58915 7.15194C6.32091 7.0765 4.87913 6.32208 4.30074 6.03707C3.71397 5.74369 2.61587 5.17368 2.30572 5.0228C2.00395 4.87191 1.71056 4.66235 1.61836 4.62882C1.53453 4.59529 1.12379 4.98927 1.01482 5.14015C0.897466 5.29104 0.696289 5.14015 0.696289 5.14015C0.696289 5.14015 2.08778 3.5894 2.37278 3.26248C2.6494 2.93557 2.99308 2.4913 3.14396 2.441C3.29485 2.39071 3.90677 2.39071 4.27559 2.42424C4.64442 2.46615 6.99151 2.66733 7.44416 2.70085C7.89682 2.74277 9.89184 2.80145 10.4199 2.82659C10.9564 2.85174 13.4795 2.86851 14.3094 2.89365C15.1393 2.9188 17.7713 2.97748 18.5593 2.94395C19.3472 2.90203 21.5267 2.70085 22.1973 2.66732C22.8679 2.62541 24.9886 2.47453 25.9778 2.44939C26.9669 2.42424 28.9955 2.441 29.6409 2.39909C30.2863 2.35717 32.8514 2.33203 33.7399 2.33203C34.6285 2.33203 37.1264 2.43262 37.9731 2.45776C38.8281 2.48291 42.4661 2.67571 43.4133 2.726C44.3605 2.7763 49.0798 2.94395 50.1192 2.96909C51.1587 2.99424 52.7094 3.04453 53.5309 2.99424C54.3608 2.94394 58.3089 2.76791 59.516 2.726C60.723 2.68409 63.8748 2.64218 65.1574 2.67571C66.4399 2.70924 69.5162 3.01939 70.5557 3.14512C71.5951 3.27086 72.6177 3.5391 72.9111 3.54748C73.2045 3.56425 73.6739 3.5894 73.8332 3.74028C74.0008 3.89117 74.1517 4.23485 74.4703 4.42764C74.7888 4.62044 75.2331 4.69588 75.3839 4.89706C75.5348 5.09824 75.5516 5.51736 75.6354 5.69339C75.7276 5.86942 76.0965 6.4562 76.1468 6.85017C76.197 7.24415 76.1468 7.93151 75.8953 8.35901C75.6354 8.78652 75.2163 9.31461 74.7553 9.79241C74.2858 10.2786 73.5733 10.7983 72.953 11.3264C72.3327 11.8545 71.2765 12.6844 70.7317 13.4304C70.1868 14.1764 69.8431 14.6878 69.7258 15.4338C69.6168 16.1798 69.6755 16.6241 69.642 16.7498C69.6001 16.8756 69.4911 17.1941 69.3151 17.3869C69.139 17.5797 68.3678 18.4766 68.0828 18.8455C67.8062 19.2143 67.3368 19.9017 67.2194 20.0777C67.1021 20.2537 67.0015 20.4465 67.0015 20.4465L66.8255 20.1447C66.8255 20.1447 67.2111 19.6753 67.253 19.5664C67.3955 19.3903 67.3284 18.8538 67.4039 17.9402" fill="white"/>
<path fill-rule="evenodd" clip-rule="evenodd" d="M5.84277 9.13873L5.9266 8.66931C5.9266 8.66931 7.2175 8.66093 7.61147 8.68607C8.00545 8.71122 10.3609 8.78666 11.1908 8.78666C12.0206 8.78666 14.5773 8.8621 15.1976 8.83696C15.8179 8.81181 19.2798 8.88726 20.0343 8.88726C20.7887 8.88726 24.4099 8.90402 25.1559 8.9124C25.902 8.92079 30.0513 8.94593 30.6967 8.94593C31.3422 8.94593 34.7539 8.94593 35.5586 8.9627C36.3549 8.97108 39.7833 8.93755 40.5545 8.93755C41.3257 8.93755 43.304 8.97108 43.7398 8.9627C44.1673 8.94593 44.511 8.9124 44.6032 8.88726C44.6871 8.86211 44.9721 8.74475 45.1313 8.8202C45.299 8.89564 45.3744 9.08844 45.4499 9.18903C45.5253 9.28961 45.6762 9.40696 45.7684 9.46564C45.8522 9.52432 46.0366 9.61653 46.154 9.76741C46.2266 9.868 46.3244 9.96579 46.4474 10.0608C46.6234 10.2033 46.6653 10.262 46.5983 10.3374C46.5396 10.4129 46.263 10.7565 46.154 10.9326C46.0366 11.1086 46.0031 11.3014 45.936 11.3517C45.869 11.402 45.4918 11.4439 45.4918 11.4439C45.4918 11.4439 45.7181 11.2763 45.6846 11.1254C45.6427 10.9745 45.3828 10.6308 44.8379 10.5973C44.2931 10.5554 42.9351 10.6811 42.3232 10.7482C41.7113 10.8152 37.6793 11.1673 36.9668 11.2343C36.2543 11.293 30.6632 11.6954 29.716 11.7624C28.7604 11.8379 24.3428 12.1061 23.4878 12.1648C22.6412 12.2235 19.3301 12.3911 18.2991 12.4582C17.2681 12.5252 14.8958 12.6258 13.9989 12.6594C13.102 12.7013 11.3081 12.7348 10.9812 12.7097C10.6543 12.6845 10.21 12.4917 9.9837 12.3911C9.75738 12.2905 8.32398 11.6451 7.92162 11.4607C7.51926 11.2846 6.80676 10.9913 6.68102 10.8236C6.55528 10.656 6.61396 10.3961 6.61396 10.1865C6.61396 9.97697 6.59719 9.71711 6.37087 9.52432C6.14454 9.33152 5.85115 9.12196 5.85115 9.12196" fill="white"/>
<path fill-rule="evenodd" clip-rule="evenodd" d="M10.293 14.6107V14.2586C10.293 14.2586 10.8881 14.2586 11.2067 14.2083C11.5252 14.158 12.7826 14.158 13.6124 14.1245C14.4507 14.0826 17.7198 13.9485 18.7509 13.8814C19.8071 13.8144 24.4677 13.5629 25.3479 13.4958C26.2196 13.4288 32.3807 13.0096 33.2441 12.9342C34.1075 12.8588 39.1957 12.4564 39.992 12.3893C40.7883 12.3223 43.454 12.0457 44.4012 11.9702C45.3568 11.8948 45.4909 11.769 45.6418 11.7523C45.7927 11.7439 45.91 11.6517 46.0609 11.8277C46.2118 12.0037 46.5303 12.3642 46.7231 12.4899C46.9159 12.6157 47.5111 13.0013 47.5194 13.1857C47.5278 13.3785 47.3518 13.6132 47.2596 13.7976C47.1758 13.9736 47.1758 14.3341 47.1758 14.3341L46.5639 14.443C46.5639 14.443 46.6141 14.3089 46.6309 14.2167C46.6393 14.1329 46.5387 13.8898 46.2872 13.7892C46.0358 13.6886 45.6166 13.6132 45.1975 13.7054C44.7784 13.7892 42.8756 14.1245 42.1044 14.2502C41.3332 14.376 36.8402 15.122 35.7505 15.3064C34.6608 15.4825 30.3522 16.1447 29.3211 16.2872C28.2985 16.4297 24.3168 16.9494 22.9169 17.0835C21.5171 17.226 19.849 17.3853 18.9101 17.444C17.9713 17.4943 17.0157 17.5865 16.3367 17.5026C15.6494 17.4272 14.1405 16.9578 13.4867 16.7901C12.8329 16.6225 11.8353 16.3375 11.6761 16.1698C11.5084 16.0022 11.4246 15.8262 11.3743 15.625C11.324 15.4238 11.0055 14.9879 10.8378 14.9125C10.6786 14.837 10.293 14.6191 10.293 14.6191" fill="white"/>
<path fill-rule="evenodd" clip-rule="evenodd" d="M15.9092 19.0954C15.9092 19.0954 16.1607 19.1373 16.4373 19.0954C16.7139 19.0534 16.957 18.9277 17.2923 18.9193C17.6192 18.9026 18.6083 18.869 19.1532 18.8439C19.698 18.8187 21.2907 18.6679 21.8523 18.6176C22.4056 18.5673 25.0628 18.299 25.9262 18.1901C26.7896 18.0727 31.5173 17.4021 32.3053 17.2931C33.0932 17.1758 37.0497 16.5806 38.1227 16.3878C39.204 16.2034 42.8169 15.5663 43.7389 15.3903C44.661 15.2143 45.7759 15.0383 46.2034 14.946C46.6225 14.8538 46.8991 14.6694 47.1338 14.7281C47.3601 14.7868 47.6032 14.9712 47.8966 15.1053C48.19 15.2478 48.6343 15.3819 48.8774 15.4741C49.1205 15.5663 49.3468 15.6921 49.3719 15.7759C49.3971 15.8681 49.3719 16.2202 49.2713 16.3962C49.1708 16.5722 49.1037 16.7147 49.0702 16.9159C49.0283 17.1171 49.0199 17.2847 49.0199 17.2847L48.4499 17.4859C48.4499 17.4859 48.5337 17.2261 48.4499 17.1003C48.3577 16.9746 48.0475 16.7483 47.8799 16.7734C47.7122 16.7986 47.4607 16.8153 47.1925 16.8992C46.9243 16.983 43.5042 18.014 42.9594 18.1649L38.8771 19.2882C38.3742 19.4307 35.1469 20.2354 34.2416 20.4282C33.3279 20.621 29.9582 21.2999 29.1199 21.4592C28.2817 21.6101 25.1131 22.0208 24.3 22.0711C23.4869 22.1214 23.3444 22.1466 22.699 22.113C22.0535 22.0711 20.8381 21.9202 20.0585 21.8113C19.2873 21.6939 18.4491 21.5347 18.1557 21.4676C17.8623 21.4005 17.5857 21.3502 17.4599 21.0149C17.3342 20.6713 17.351 20.4198 17.133 20.1767C16.9151 19.9336 16.6468 19.6905 16.4708 19.6151C16.2948 19.5396 16.0098 19.5396 15.9762 19.4474C15.9176 19.2965 15.9259 19.0954 15.9259 19.0954" fill="white"/>
<path fill-rule="evenodd" clip-rule="evenodd" d="M22.7334 23.7225C22.7334 23.7225 25.0386 23.4794 25.5583 23.404C26.078 23.3286 29.6322 22.8172 30.4788 22.6412C31.3254 22.4652 34.9885 21.6688 35.6508 21.5179C36.313 21.3671 40.3198 20.3276 41.1161 20.1097C41.9125 19.8918 44.6032 19.1373 45.3241 18.9026C46.045 18.6763 48.1909 18.0308 48.434 17.9219C48.6771 17.8213 48.9118 17.6453 49.1549 17.6704C49.398 17.6955 50.0937 17.9135 50.3452 17.9889C50.5967 18.0644 51.2589 18.1817 51.3762 18.2907C51.4852 18.3997 51.5355 18.5086 51.5104 18.6847C51.4852 18.8607 51.4936 19.7995 51.5104 19.9001C51.5271 20.0007 51.7702 20.2019 51.7702 20.2019L51.1583 20.445C51.0326 20.4953 50.7559 20.5959 50.7559 20.5959C50.7559 20.5959 50.823 20.3276 50.7811 20.2522C50.7392 20.1768 50.3955 19.9756 50.2949 19.9504C50.1776 19.9253 50.077 19.9504 49.8087 20.0343C49.5405 20.1265 48.8615 20.4282 48.5178 20.5791C48.1741 20.73 46.1456 21.5263 45.5421 21.7694C44.9301 22.0125 42.4741 22.9513 41.6861 23.228C40.8982 23.5046 37.3272 24.7368 36.665 24.938C36.0028 25.1392 33.6557 25.8014 33.1025 25.9355C32.5409 26.078 32.2726 26.1954 31.82 26.2121C31.3673 26.2373 29.5902 26.0864 28.8526 25.9858C28.1149 25.8852 26.0528 25.5834 25.7762 25.4912C25.4996 25.4074 25.3236 25.29 25.1559 25.0973C24.9883 24.9045 24.8542 24.7703 24.5775 24.6111C24.3009 24.4602 23.9656 24.2925 23.7393 24.2087C23.513 24.1249 23.4124 24.083 23.2531 24.0243C23.1022 23.9572 22.9346 23.9489 22.8508 23.8818C22.7669 23.8231 22.7418 23.7058 22.7418 23.7058" fill="white"/>
<path fill-rule="evenodd" clip-rule="evenodd" d="M32.2803 27.7134C32.2803 27.7134 33.0263 27.5374 33.2443 27.4368C33.4538 27.3362 34.6609 26.9674 35.0465 26.8668C35.4321 26.7662 36.7816 26.3974 37.3517 26.2046C37.9217 26.0118 40.5873 25.1065 41.107 24.9221C41.6267 24.7461 44.7953 23.5557 45.4156 23.3127C46.0359 23.0696 49.5649 21.6278 50.0678 21.4182C50.5792 21.217 51.0821 20.9991 51.2581 20.8817C51.4342 20.7728 52.0042 20.4878 52.2724 20.4291C52.5407 20.3704 53.0688 20.2782 53.3118 20.295C53.5549 20.3034 53.731 20.2782 53.8316 20.3956C53.9321 20.5129 53.9741 20.6638 53.9573 20.8566C53.9405 21.041 54.0076 21.5272 54.2255 21.6948C54.4435 21.8625 54.7704 22.0134 55.1392 22.0972C55.508 22.181 55.8601 22.2397 55.9859 22.2481C56.1116 22.2648 56.2038 22.2481 56.2038 22.2481C56.2038 22.2481 55.4829 22.6756 55.3069 22.7678L54.368 23.2372C54.368 23.2372 54.301 23.0444 54.2172 23.0109C54.1249 22.969 53.7896 22.969 53.5046 22.9941C53.228 23.0193 52.9514 23.1199 52.6915 23.2707C52.4317 23.4216 50.0008 24.7125 49.523 24.9724C49.0368 25.2239 45.315 27.1686 44.8037 27.3949C44.2923 27.6212 41.9033 28.8032 41.5093 28.9792C41.1154 29.1552 40.8891 29.3145 40.5202 29.348C40.1514 29.3899 39.3132 29.3983 38.5671 29.4067C37.8211 29.4235 36.3458 29.3816 35.8931 29.3564C35.4405 29.3313 34.7782 29.3145 34.4262 29.1804C34.0741 29.0379 34.0238 28.8451 33.8059 28.5936C33.5879 28.3421 33.1688 28.099 32.9844 28.0404C32.7916 27.9733 32.4982 27.9565 32.3725 27.9901C32.3222 28.0068 32.2887 27.7134 32.2887 27.7134" fill="white"/>
<path fill-rule="evenodd" clip-rule="evenodd" d="M40.9561 30.7809C40.9561 30.7809 43.8564 29.3223 44.3007 29.1295C44.7449 28.9367 49.0787 26.7238 49.6403 26.4136C50.2019 26.1119 53.3705 24.3767 54.0578 23.9911C54.7452 23.6055 55.6924 23.1026 55.8433 23.002C55.9942 22.9014 56.1115 22.7505 56.3043 22.6834C56.4887 22.6164 56.6229 22.5996 56.6229 22.5996C56.6229 22.5996 56.8911 22.96 57.042 23.1445C57.1929 23.3289 57.5366 23.6726 57.9138 23.7312C58.291 23.7815 58.4838 23.7983 58.7269 23.7648C58.9699 23.7396 59.3891 23.6558 59.3891 23.6558C59.3891 23.6558 58.3413 24.6701 58.1485 24.821C57.9557 24.9718 55.6505 26.8663 55.1978 27.2686C54.7452 27.671 53.0687 28.9787 52.6831 29.2804C52.3059 29.5822 51.0904 30.4875 50.8222 30.6216C50.554 30.7641 49.8834 31.0156 49.4642 31.1329C49.0451 31.2419 47.1172 31.6527 46.4214 31.7868C45.7257 31.9209 44.2252 32.1807 43.9402 32.1891C43.6468 32.2059 43.2277 32.2059 42.9762 31.9293C42.7247 31.661 42.5823 31.2754 42.2553 31.1078C41.9284 30.9401 41.7021 30.8396 41.4674 30.8647C41.0063 30.9234 40.9728 30.7641 40.9728 30.7641" fill="white"/>
<path fill-rule="evenodd" clip-rule="evenodd" d="M49.3809 32.4826C49.3809 32.4826 50.9568 31.3259 51.3004 31.0492C51.6357 30.7726 53.0608 29.6577 53.4463 29.356C53.8319 29.0542 55.5 27.6962 56.0114 27.2771C56.5227 26.858 58.0399 25.5671 58.4339 25.2067C58.8279 24.8546 59.6075 24.0918 59.6075 24.0918C59.6075 24.0918 59.6577 24.3936 59.8002 24.5109C59.9428 24.6283 60.1355 24.8714 60.4625 25.0055C60.7894 25.148 61.2504 25.1731 61.5773 25.1564C61.9042 25.148 62.2228 25.1061 62.3485 25.1061C62.4742 25.1061 62.6754 25.1648 62.6922 25.3827C62.7006 25.6006 62.7173 25.7515 62.7173 25.8521C62.7173 25.9527 62.7676 26.0449 62.7676 26.0449L60.4373 28.6351C59.9847 29.1464 58.6602 30.563 58.2411 30.9906C57.822 31.4181 56.7574 32.5748 56.6317 32.6754C56.5059 32.776 56.1287 32.6922 55.9024 32.5581C55.609 32.382 55.3492 32.5162 54.9887 32.6084C54.6283 32.6922 53.9996 32.885 53.5805 32.9856C53.22 33.0694 52.1974 33.3041 51.9291 33.3041C51.6609 33.3041 51.3675 33.279 51.2082 33.1029C51.0406 32.9269 50.6801 32.5329 50.4873 32.4407C50.2945 32.3485 50.0682 32.2898 49.9676 32.3485C49.867 32.4156 49.4563 32.6503 49.3809 32.4743" fill="white"/>
<path fill-rule="evenodd" clip-rule="evenodd" d="M57.0588 32.9843C57.0588 32.9843 58.576 31.3748 58.9197 31.0228C59.2633 30.6623 61.0991 28.6757 61.4931 28.2482C61.887 27.8207 62.5576 27.016 62.7169 26.8148C62.8846 26.6136 63.0103 26.4711 63.0857 26.4711C63.1612 26.4711 63.5971 26.4459 63.9324 26.3789C64.276 26.3202 64.7958 26.2029 64.9215 26.2364C65.0472 26.2783 65.0472 26.3789 65.064 26.4795C65.0808 26.5801 65.0891 27.6865 65.1059 28.0386C65.1143 28.3991 65.1143 29.1702 65.0389 29.4469C64.9634 29.7235 64.1252 31.3581 63.9324 31.8023C63.7396 32.2466 63.1947 33.2357 63.1193 33.4285C63.0438 33.6129 62.9935 33.6716 62.9265 33.7303C62.8594 33.7974 62.7169 33.571 62.5241 33.3279C62.2475 32.9843 61.9541 33.0346 61.6607 33.11C61.3673 33.1854 59.7328 33.6129 59.4394 33.68C59.146 33.7471 58.643 33.8812 58.3748 33.8309C58.1066 33.7806 57.9808 33.6046 57.8551 33.3866C57.7293 33.1687 57.5701 33.0262 57.3857 33.0262C57.1845 33.0262 57.042 32.9759 57.042 32.9759" fill="white"/>
<path fill-rule="evenodd" clip-rule="evenodd" d="M64.4775 31.8456C64.4775 31.8456 64.8548 30.9487 64.947 30.781C65.0392 30.6134 65.1649 30.3535 65.1649 30.3535C65.1649 30.3535 65.2655 30.8229 65.3577 31.0409C65.4499 31.2588 65.6678 31.4935 65.7433 31.7366C65.7936 31.921 66.1708 32.8934 66.2379 33.0443C66.3049 33.1952 66.4139 33.4383 66.3804 33.5808C66.3468 33.7233 66.3552 33.8322 66.4055 33.958C66.4558 34.0837 66.5061 34.2011 66.4139 34.2346C66.2882 34.2849 66.0199 34.4777 65.9361 34.5112C65.8439 34.5531 65.6343 34.5364 65.5086 34.3519C65.4331 34.2346 65.1146 34.2094 64.8631 34.0083C64.6117 33.8071 64.6368 33.6813 64.6452 33.4718C64.6536 33.2706 64.7709 32.5078 64.7039 32.3485C64.6452 32.1809 64.4859 31.854 64.4859 31.854" fill="white"/>
<path fill-rule="evenodd" clip-rule="evenodd" d="M56.7662 34.9386C56.7662 34.9386 57.2356 35.5338 57.5374 35.5254C57.8391 35.5086 57.9397 35.4332 58.0655 35.3997C58.1912 35.3578 58.4678 35.3494 58.5852 35.4081C58.7025 35.4751 58.8618 35.6763 58.8534 35.8691C58.8367 36.0619 58.954 36.4642 59.0965 36.766C59.2642 37.1348 59.9096 38.4509 60.2868 39.0712C60.664 39.6915 61.7705 41.2674 62.2399 41.8374C62.7094 42.4074 64.2685 44.109 64.6792 44.4611C65.0816 44.8216 67.1437 46.5316 67.8729 47.0261C68.6106 47.5207 70.3542 48.6523 71.4187 49.1804C72.4833 49.7169 73.7993 50.3372 74.143 50.4629C74.4867 50.5887 74.713 50.6222 74.7801 50.7228C74.8471 50.8234 74.9561 50.924 74.9561 50.924L74.5621 51.5694L74.2185 52.1143L73.9251 51.9718C73.9251 51.9718 74.1346 51.7958 74.0592 51.6449C73.9838 51.494 73.8916 51.3431 73.6568 51.209C73.4138 51.0832 72.3743 50.639 71.9217 50.421C71.469 50.2031 69.4656 49.1134 68.7531 48.6607C68.0406 48.1997 66.2887 47.001 65.4672 46.322C64.6457 45.6514 62.8602 43.8995 62.2651 43.2457C61.6699 42.5834 60.4293 40.9489 60.0437 40.3621C59.6665 39.7837 58.5852 37.8306 58.3589 37.3025C58.1325 36.7828 58.0068 36.4391 57.7889 36.2379C57.5709 36.0367 57.5122 35.9948 57.42 35.9864C57.3362 35.9781 57.1015 35.9445 57.1015 35.9445C57.1015 35.9445 57.0344 35.7936 56.9255 35.45C56.8333 35.1817 56.7578 34.9219 56.7578 34.9219" fill="white"/>
<path fill-rule="evenodd" clip-rule="evenodd" d="M58.9697 35.3234C58.9697 35.3234 59.3973 35.2983 59.7409 35.1558C60.0846 35.0133 61.0235 34.7534 61.4007 34.6445C61.7779 34.5439 62.2221 34.3511 62.4149 34.3008C62.6077 34.2505 62.7419 34.1918 62.8592 34.217C62.9766 34.2421 63.0352 34.3008 63.161 34.4852C63.2867 34.6612 63.446 35.0384 63.6052 35.1726C63.798 35.3234 64.0495 35.5581 64.4016 35.5162C64.762 35.4743 65.1141 35.4408 65.4075 35.3151C65.7009 35.1893 66.2457 34.8289 66.3715 34.7702C66.4972 34.7031 66.6732 34.569 66.7403 34.6361C66.8073 34.7031 66.8912 34.8121 66.9834 34.8373C67.0756 34.8624 67.2013 34.9798 67.2516 35.0636C67.3019 35.1474 68.0899 36.321 68.5174 36.8407C68.9449 37.3604 69.5736 38.0477 70.0011 38.4669C70.4286 38.886 71.6859 39.9757 72.1805 40.3278C72.6751 40.6882 74.1252 41.6438 74.7707 41.9875C75.4161 42.3312 76.2041 42.7503 76.8411 43.0185C77.4782 43.2868 78.1488 43.5466 78.3248 43.6388C78.5009 43.731 78.5679 43.8149 78.6937 43.9155C78.8194 44.016 78.8948 44.1418 78.8446 44.2675C78.7943 44.3933 78.1237 45.4494 77.8303 45.9775C77.5369 46.5056 77.0088 47.3606 76.7908 47.7379C76.5729 48.1151 76.0029 49.0455 75.8352 49.3473C75.6676 49.6491 75.2401 50.3448 75.215 50.4286C75.1898 50.5041 75.0808 50.4957 75.0389 50.4286C74.997 50.3616 75.1898 50.1604 75.1898 49.9089C75.1898 49.6574 75.0389 49.297 74.8964 49.1629C74.7539 49.0204 74.3432 48.8192 74.1085 48.7186C73.8821 48.618 72.7673 48.0815 72.2056 47.7965C71.6524 47.5031 70.5208 46.8577 69.7831 46.3799C69.0455 45.9021 68.0563 45.2399 67.4276 44.7202C66.7906 44.2005 65.8937 43.4293 65.3404 42.8844C64.7788 42.3396 63.8567 41.3169 63.27 40.5457C62.6832 39.7913 61.9371 38.7602 61.5348 38.0394C61.1324 37.3185 60.7133 36.4132 60.5708 36.2623C60.4283 36.1114 60.2271 35.8683 59.9337 35.7845C59.6403 35.7006 59.4727 35.6336 59.347 35.6168C59.2212 35.6084 58.9949 35.6084 58.9614 35.5079C58.9362 35.4073 58.9614 35.3402 58.9614 35.3402" fill="white"/>
<path fill-rule="evenodd" clip-rule="evenodd" d="M46.0859 7.47833C46.0859 7.47833 48.4581 7.46995 49.1538 7.47833C49.8496 7.4951 51.8698 7.4951 52.0877 7.4951C52.3056 7.4951 52.5823 7.57892 52.6996 7.59569L52.9176 7.62084C52.9176 7.62084 53.0182 7.84716 52.9427 7.9226C52.8673 7.99805 52.7751 8.24952 52.7164 8.4004C52.6493 8.55129 52.6996 8.71893 52.6158 8.74408C52.532 8.76923 52.1212 8.81953 52.1212 8.81953C52.1212 8.81953 52.1883 8.62673 52.0709 8.55129C51.9536 8.47585 51.6686 8.37525 51.4255 8.38364C51.1824 8.39202 49.9753 8.50938 49.5981 8.55129C49.2125 8.5932 48.1396 8.72732 47.9216 8.76923C47.7037 8.81115 47.469 8.76923 47.3013 8.71056C47.1337 8.6435 46.5553 8.40879 46.3876 8.28305C46.22 8.15731 46.1445 8.10702 46.0859 8.09025L45.8428 8.03996L45.9601 7.73819C46.002 7.6376 46.1026 7.48671 46.1026 7.48671" fill="white"/>
<path fill-rule="evenodd" clip-rule="evenodd" d="M46.7902 10.839C46.7902 10.839 47.0165 10.4786 47.092 10.4367C47.1674 10.3864 47.7374 10.2103 47.9637 10.1433C48.1901 10.0762 49.2714 9.82474 49.7492 9.71577C50.227 9.59841 51.1575 9.43914 51.585 9.32179C52.0125 9.20443 52.4232 9.07031 52.5489 9.07031C52.6747 9.07031 52.8926 9.12899 53.0267 9.23797C53.1692 9.33855 53.4459 9.53973 53.5884 9.65709C53.7309 9.77444 53.865 9.95885 53.8315 10.0594C53.7979 10.16 53.7309 10.2355 53.6554 10.3361C53.58 10.4367 53.6051 10.4869 53.58 10.6043C53.5548 10.7133 53.5548 10.9061 53.5548 10.9061C53.5548 10.9061 53.1776 11.0234 53.1106 11.0318C53.0519 11.0402 52.9429 11.0737 52.9429 11.0737C52.9429 11.0737 53.0435 10.8055 52.9681 10.7552C52.8926 10.7049 52.616 10.4953 52.331 10.4786C52.0544 10.4534 51.2497 10.6965 50.9814 10.7803C50.7132 10.8642 49.7157 11.1324 49.3385 11.2498C48.9529 11.3587 48.6176 11.5264 48.3074 11.5012C48.0057 11.4761 47.7374 11.3503 47.4692 11.2246C47.2009 11.0989 47.1423 11.0486 47.0501 10.9983C46.9662 10.948 46.7734 10.8474 46.7734 10.8474" fill="white"/>
<path fill-rule="evenodd" clip-rule="evenodd" d="M47.8131 13.5211C47.8131 13.5211 47.8382 13.3031 47.9556 13.2193C48.0645 13.1271 48.3747 13.0517 48.5256 12.9762C48.6765 12.9008 49.1459 12.7499 49.6404 12.5738C50.135 12.3978 51.0655 12.1128 51.4511 12.0038C51.845 11.8865 52.6917 11.6183 52.9096 11.5344C53.1275 11.4422 53.3958 11.283 53.6053 11.2913C53.8233 11.2997 54.2256 11.3919 54.452 11.4757C54.6783 11.568 54.9214 11.6602 54.9633 11.8194C54.9968 11.9703 54.913 12.205 54.8208 12.3308C54.7286 12.4565 54.7035 12.5739 54.6783 12.6744C54.6532 12.775 54.6532 12.9678 54.6532 12.9678C54.6532 12.9678 54.5107 13.0852 54.3514 13.1187L54.0831 13.1774C54.0831 13.1774 54.1083 13.0014 53.9993 12.8756C53.882 12.7499 53.5718 12.6241 53.3539 12.6828C53.1359 12.7415 52.3144 13.0768 51.9959 13.2193C51.6774 13.3618 50.7805 13.7725 50.4703 13.9067C50.1685 14.0324 49.9506 14.1497 49.6321 14.0995C49.3135 14.0492 49.0537 14.024 48.8106 13.9067C48.5675 13.7893 48.249 13.6217 48.14 13.5881C48.0226 13.5546 47.8047 13.5295 47.8047 13.5295" fill="white"/>
<path fill-rule="evenodd" clip-rule="evenodd" d="M49.7922 15.7177L50.8735 15.198C51.2423 15.0219 52.6338 14.3849 53.0697 14.1837C53.4972 13.9825 54.2013 13.6388 54.3522 13.5718C54.5031 13.5131 54.6707 13.3957 54.8468 13.379C55.0228 13.3622 55.4336 13.4544 55.6599 13.5047C55.8862 13.555 56.2047 13.5885 56.2802 13.731C56.3556 13.8735 56.3975 14.1669 56.3556 14.2507C56.3137 14.3429 56.2299 14.6279 56.2466 14.7453C56.255 14.8627 56.2969 15.1393 56.2969 15.1393L55.97 15.3153C55.8024 15.4075 55.5844 15.5081 55.5844 15.5081C55.5844 15.5081 55.5341 15.3153 55.3916 15.1896C55.2491 15.0638 54.9893 14.9968 54.7797 15.0638C54.6456 15.1057 53.8157 15.5835 53.514 15.7763C53.2122 15.9691 52.4326 16.4469 52.3069 16.5224C52.1812 16.5978 52.0638 16.7906 51.6866 16.7403C51.301 16.69 51.125 16.6481 50.9406 16.5643C50.7478 16.4805 50.3622 16.1955 50.2532 16.12C50.1526 16.0446 49.7754 15.944 49.7754 15.8434C49.7754 15.7428 49.8005 15.7177 49.8005 15.7177" fill="white"/>
<path fill-rule="evenodd" clip-rule="evenodd" d="M51.7779 18.3577C51.7779 18.3577 52.8676 17.6368 53.337 17.3602C53.8065 17.0836 54.9465 16.4214 55.3908 16.1783C55.835 15.9352 56.2625 15.6167 56.4889 15.5831C56.7152 15.5412 57.2852 15.558 57.5786 15.558C57.872 15.558 58.0731 15.558 58.0983 15.7089C58.1234 15.8598 58.0731 15.9855 58.0564 16.1112C58.048 16.237 58.0564 16.589 58.0564 16.589L55.8602 18.3158C55.5081 18.5924 54.6699 19.3469 54.6196 19.3553C54.5693 19.3636 54.2926 19.1373 53.949 19.0116C53.6053 18.8858 53.4209 18.8607 53.2784 18.8355C53.1359 18.8104 52.9263 18.7098 52.7084 18.6092C52.4904 18.5086 52.4317 18.4667 52.2809 18.4416C52.13 18.4164 51.8114 18.5338 51.8114 18.5338L51.7695 18.3577H51.7779Z" fill="white"/>
<path fill-rule="evenodd" clip-rule="evenodd" d="M54.4268 20.2606C54.4268 20.2606 54.9716 19.766 55.3572 19.4391C55.7344 19.1122 56.8996 18.1734 57.2097 17.9135C57.5115 17.662 58.2911 17.0669 58.4 16.9747C58.5174 16.8825 58.6431 16.8741 58.7856 16.8741C58.9281 16.8741 59.2634 16.7735 59.4227 16.7735C59.582 16.7735 59.8418 16.7651 59.867 16.9663C59.8921 17.1675 59.9927 17.5614 59.9843 17.7123C59.9676 17.8632 59.9843 18.0392 60.0346 18.1314C60.0849 18.2237 60.1352 18.2739 60.1352 18.2739C60.1352 18.2739 60.0095 18.4416 59.7915 18.6428C59.5736 18.844 58.9198 19.4643 58.6264 19.7493C58.333 20.0259 57.7378 20.6043 57.5283 20.8306C57.3103 21.0569 56.975 21.3755 56.975 21.3755C56.975 21.3755 56.8828 21.0485 56.6984 20.8809C56.514 20.7132 56.0362 20.6294 55.7596 20.6127C55.4829 20.6043 55.1225 20.3277 54.9884 20.2941C54.8543 20.2522 54.6866 20.3444 54.6866 20.3444C54.6866 20.3444 54.5106 20.3947 54.4603 20.269" fill="white"/>
<path fill-rule="evenodd" clip-rule="evenodd" d="M57.193 21.8777L58.685 20.3856C58.9784 20.0922 59.9508 19.1785 60.1855 18.9522C60.4118 18.7259 60.6046 18.4995 60.8561 18.3822C61.1076 18.2648 61.4177 18.114 61.5518 18.1642C61.6943 18.2145 61.7949 18.4073 61.862 18.6085C61.9207 18.8097 62.1134 19.0947 62.4655 19.2037C62.8176 19.3126 63.0355 19.3545 63.2032 19.3462C63.3708 19.3294 63.4546 19.321 63.4546 19.321C63.4546 19.321 63.0942 19.6898 62.9098 19.8826C62.7254 20.0754 62.1637 20.6203 61.8285 20.9221C61.5015 21.2238 60.6549 22.0788 60.4118 22.3052C60.1687 22.5315 59.825 22.8249 59.825 22.8249C59.825 22.8249 59.825 22.5902 59.649 22.4225C59.4059 22.1878 59.1042 22.2297 58.8275 22.2465C58.5509 22.2549 58.3665 22.1794 58.2072 22.0453C58.0396 21.9028 57.9138 21.7687 57.8216 21.7519C57.7294 21.7352 57.5282 21.8441 57.478 21.8693C57.4277 21.8944 57.1846 21.8944 57.1846 21.8944" fill="white"/>
<path fill-rule="evenodd" clip-rule="evenodd" d="M60.1855 23.2286C60.1855 23.2286 61.007 22.4575 61.4178 22.0467C61.8201 21.6444 62.6081 20.8815 62.9518 20.5379C63.2954 20.1942 63.9157 19.6074 63.9157 19.6074C63.9157 19.6074 64.0415 19.8002 64.3349 19.8254C64.6282 19.8505 64.9049 19.9008 65.1228 19.9176C65.3408 19.9343 65.7096 19.9343 65.8186 19.817C65.9359 19.708 66.0868 19.6661 66.0868 19.6661C66.0868 19.6661 65.9108 19.9176 65.6928 20.1942C65.4749 20.4708 64.8713 21.3258 64.5277 21.8455C64.184 22.3652 63.4128 23.4885 63.2871 23.7064C63.1613 23.9244 62.8679 24.377 62.7841 24.5028C62.7003 24.6285 62.5829 24.7794 62.5829 24.7794C62.5829 24.7794 62.6081 24.5363 62.4069 24.1842C62.2057 23.8238 62.0884 23.8154 61.9123 23.7651C61.7363 23.7148 61.6692 23.7903 61.4094 23.6561C61.1411 23.5136 61.007 23.2538 60.8394 23.2119C60.6717 23.1783 60.6801 23.1532 60.546 23.2119C60.3364 23.3125 60.2023 23.2286 60.2023 23.2286" fill="white"/>
<path fill-rule="evenodd" clip-rule="evenodd" d="M66.2971 20.2681C66.2971 20.2681 66.3976 20.4358 66.4982 20.5615C66.5988 20.6873 66.7413 20.8298 66.7162 20.9304C66.691 21.0309 66.2384 21.9446 66.1294 22.1877C66.0288 22.4308 65.7019 23.5038 65.6265 23.8223C65.551 24.1408 65.4337 24.6103 65.3331 24.845C65.2325 25.0881 65.1319 25.2138 65.1235 25.3144L65.0816 25.6162C65.0816 25.6162 64.8972 25.7419 64.805 25.767L64.5284 25.8425V25.5994C64.5284 25.4988 64.3775 25.306 64.2769 25.13C64.1763 24.9539 64.0841 24.7528 64.2014 24.4091C64.3188 24.0654 64.4529 23.663 64.587 23.378C64.7128 23.1014 64.805 22.7997 65.0062 22.3302C65.2073 21.8608 65.375 21.492 65.6181 21.1399C65.8612 20.7879 65.9701 20.5951 66.0791 20.4526C66.1797 20.3101 66.3222 20.2598 66.3222 20.2598" fill="white"/>
<path fill-rule="evenodd" clip-rule="evenodd" d="M53.4552 7.62907C53.4552 7.62907 54.4444 7.57878 55.1653 7.57039C55.8862 7.55363 56.7998 7.57039 57.286 7.64583C57.7722 7.72128 58.5685 7.76319 58.8703 7.74642C59.1721 7.72966 59.6331 7.69613 60.3708 7.72128C61.1084 7.74643 62.4245 7.78833 63.3046 7.91407C64.1764 8.03981 64.9811 8.21584 65.6852 8.45893C66.3978 8.70202 67.7054 9.25527 68.1245 9.74983C68.5437 10.2444 68.8454 10.6468 68.7951 11.2838C68.7448 11.9209 68.4934 12.5915 68.2838 12.9855C68.0826 13.3794 67.5881 14.2261 67.4959 14.3769C67.412 14.5278 66.6408 15.2403 66.3391 15.584C66.0373 15.9277 65.0482 16.9923 64.6542 17.4617C64.2602 17.9311 63.9585 18.3083 63.8243 18.4341C63.6483 18.6101 63.5226 18.8029 63.5226 18.8029H63.3968C63.3968 18.8029 63.5477 18.6017 63.5142 18.3838C63.4723 18.1658 63.2963 17.8389 63.1202 17.7383C62.9442 17.6377 62.8939 17.6126 62.7682 17.6461C62.6424 17.688 62.5418 17.7383 62.4496 17.7635C62.3574 17.7886 62.282 17.8054 62.282 17.8054C62.282 17.8054 62.7262 17.3108 62.9274 17.0929C63.1286 16.8749 63.6902 16.3636 63.8746 16.1792C64.0674 15.9864 64.2435 15.8774 64.3189 15.8774C64.3944 15.8774 64.7213 15.9948 64.9392 15.9025C65.1572 15.8187 65.5511 15.408 65.5763 15.1314C65.6014 14.8547 65.4589 14.5697 65.2745 14.4356C65.0817 14.2931 64.8051 14.1758 64.6291 14.1925C64.453 14.2093 64.2099 14.2428 64.0339 14.3434C63.9165 14.4105 63.7824 14.4356 63.7824 14.4356C63.7824 14.4356 63.7992 14.2931 63.8243 14.0752C63.8495 13.8572 63.7405 13.6477 63.6232 13.4633C63.5142 13.2872 63.2795 13.1447 63.0029 13.1112C62.7262 13.0693 62.6005 13.1531 62.4915 13.0693C62.3909 12.9938 62.4664 12.8262 62.3742 12.625C62.2904 12.4238 62.1479 12.1304 61.8796 12.0299C61.6114 11.9293 61.385 11.8706 61.2593 11.8706C61.1336 11.8706 61.1336 11.7951 61.1336 11.6275C61.1336 11.4096 61.0833 10.9653 60.9575 10.8563C60.8318 10.739 60.5384 10.521 60.3624 10.4875C60.1864 10.4456 60.0606 10.4288 60.0606 10.3366C60.0606 10.2444 60.1696 10.0348 60.1696 9.82527C60.1696 9.61571 60.1277 9.31394 59.893 9.15468C59.6499 8.98703 59.3816 8.9032 59.2811 8.73555C59.1805 8.56791 59.0044 8.39187 58.9541 8.38349C58.9038 8.36672 58.6859 8.36672 58.535 8.38349C58.3841 8.40025 58.0153 8.4757 57.7471 8.50922C57.4788 8.54275 57.3447 8.60982 57.2022 8.57629C57.0681 8.53437 56.7747 8.4254 56.5651 8.4254C56.3556 8.4254 55.8694 8.45055 55.5425 8.48408C55.2156 8.52599 54.8719 8.55952 54.6036 8.54276C54.3354 8.53437 54.1426 8.44217 53.9331 8.35834C53.7151 8.26613 53.6564 8.23261 53.5307 8.15716C53.405 8.08172 53.3379 8.01466 53.3379 8.01466C53.3379 8.01466 53.3547 7.89731 53.3798 7.82186C53.405 7.74642 53.472 7.62907 53.472 7.62907" fill="white"/>
<path fill-rule="evenodd" clip-rule="evenodd" d="M54.0998 9.9592C54.0998 9.9592 54.8123 9.65743 55.3069 9.50654C55.8266 9.3389 56.7486 9.11257 57.1678 9.02874C57.5869 8.93654 57.8886 8.8108 58.0563 8.86109C58.2239 8.91139 58.4251 8.91139 58.5425 8.90301L58.7688 8.87786C58.7688 8.87786 58.8694 9.00359 58.8107 9.04551C58.7437 9.08742 58.7353 9.12933 58.5928 9.2886C58.4503 9.43948 58.3413 9.60713 58.1736 9.67419C58.006 9.74125 57.6288 9.82507 57.1929 9.94243C56.757 10.0598 56.078 10.2693 55.8349 10.3364C55.5919 10.3951 55.5332 10.4621 55.156 10.3951C54.7704 10.3364 54.6614 10.2945 54.4938 10.2526C54.3261 10.2107 54.3177 10.2526 54.2255 10.2945C54.1333 10.3364 54.083 10.2945 54.083 10.2945V10.1185C54.083 10.0514 54.0998 9.97596 54.0998 9.97596" fill="white"/>
<path fill-rule="evenodd" clip-rule="evenodd" d="M55.3402 11.779C55.3402 11.779 56.0275 11.4102 56.5975 11.1671C57.1675 10.924 58.3243 10.5049 58.5674 10.4462C58.8105 10.3791 59.0704 10.3037 59.2129 10.3791C59.347 10.4546 59.4643 10.5468 59.4308 10.6557C59.3889 10.7647 59.2045 11.0497 59.062 11.1252C58.9195 11.2006 58.1148 11.6449 57.8046 11.7706C57.5028 11.8963 56.8322 12.2484 56.6311 12.2652C56.4299 12.2819 56.2119 12.2233 56.0108 12.1646C55.8096 12.0975 55.7341 12.064 55.6252 12.0472C55.5246 12.0305 55.3066 12.0472 55.3066 12.0472C55.3066 12.0472 55.3318 11.9802 55.3318 11.9215C55.3318 11.8628 55.3402 11.7706 55.3402 11.7706" fill="white"/>
<path fill-rule="evenodd" clip-rule="evenodd" d="M56.6232 13.6874C56.6232 13.6874 57.386 13.2431 57.6375 13.0923C57.889 12.9414 58.7188 12.5474 59.0709 12.3546C59.4313 12.1618 59.8085 11.9942 60.0097 12.0109C60.2109 12.0277 60.3869 12.1115 60.4121 12.2121C60.4372 12.3127 60.4121 12.5306 60.3199 12.6983C60.2277 12.8659 60.1774 13.0001 59.8924 13.2683C59.5738 13.5701 59.3475 13.7126 59.1547 13.8802C58.9703 14.0479 58.6769 14.2826 58.5176 14.3077C58.3668 14.3329 58.1237 14.1904 57.9979 14.1652C57.8722 14.1401 57.4866 13.9892 57.4028 13.9389C57.3106 13.8886 57.1597 13.8215 57.0507 13.8383C56.9334 13.8467 56.6064 13.9221 56.6064 13.9221L56.6232 13.679V13.6874Z" fill="white"/>
<path fill-rule="evenodd" clip-rule="evenodd" d="M58.6436 15.341C58.6436 15.341 59.0962 14.9219 59.4147 14.6704C59.7333 14.4189 60.3117 14.025 60.5883 13.8154C60.8649 13.6142 61.0829 13.4633 61.1751 13.4466C61.2673 13.4382 61.3511 13.4717 61.4181 13.5388C61.4768 13.5975 61.6612 13.5975 61.7115 13.7567C61.7618 13.9076 61.7115 14.0334 61.7618 14.1256C61.8121 14.2178 61.9379 14.1926 61.963 14.2681C61.9882 14.3435 61.963 14.4944 61.963 14.4944C61.963 14.4944 61.3259 14.989 61.0996 15.2069C60.8733 15.4248 60.5045 15.7769 60.4123 15.8272C60.3284 15.8775 59.9931 15.6931 59.792 15.6009C59.5908 15.517 59.1214 15.3745 58.9453 15.3578C58.7693 15.341 58.6436 15.341 58.6436 15.341Z" fill="white"/>
<path fill-rule="evenodd" clip-rule="evenodd" d="M60.4287 16.5295C60.4287 16.5295 60.9736 16.0182 61.2418 15.7835C61.51 15.5404 61.7867 15.2889 61.9878 15.0961C62.189 14.9033 62.6249 14.6016 62.6249 14.6016C62.6249 14.6016 62.8177 14.6183 62.7926 14.7273C62.7674 14.8446 62.9015 14.8698 62.9937 14.8698C63.0859 14.8698 63.2955 14.8195 63.3626 14.8447C63.4212 14.8698 63.5302 14.9033 63.5302 15.0458C63.5302 15.1883 63.5386 15.3141 63.5973 15.3225C63.6476 15.3392 63.7733 15.3057 63.7817 15.3644C63.7985 15.4147 63.8068 15.4985 63.8068 15.4985C63.8068 15.4985 63.0943 16.211 62.7926 16.4876C62.4908 16.7642 62.0214 17.2588 61.9543 17.3426C61.8956 17.4181 61.8537 17.4684 61.8537 17.4684C61.8537 17.4684 61.7531 17.1917 61.4933 16.957C61.2418 16.7307 61.1412 16.6553 60.8981 16.5882C60.655 16.5295 60.4287 16.5295 60.4287 16.5295Z" fill="white"/>
<path fill-rule="evenodd" clip-rule="evenodd" d="M64.5869 18.307C64.5869 18.307 65.006 17.7872 65.3749 17.3933L66.2634 16.4377C66.4143 16.27 66.5149 16.1191 66.5149 16.1191C66.5149 16.1191 66.2718 16.6891 66.2215 16.949C66.1712 17.2005 66.1041 17.6867 66.1041 17.8962C66.1041 18.1058 66.0203 18.3489 65.9616 18.6171C65.9113 18.8854 65.9113 19.1284 65.9113 19.1284C65.9113 19.1284 65.7353 19.229 65.6096 19.2961C65.4838 19.3632 65.333 19.4637 65.333 19.4637C65.333 19.4637 65.3078 19.0865 65.1569 18.8854C65.006 18.6842 64.939 18.6255 64.8132 18.5584C64.6875 18.483 64.4863 18.4578 64.4863 18.4578L64.5869 18.3153V18.307Z" fill="white"/>
<path fill-rule="evenodd" clip-rule="evenodd" d="M73.8486 3.48C73.8486 3.48 74.5695 3.21176 75.0222 3.02735C75.4832 2.83455 77.8052 2.03822 78.526 1.84543C79.3978 1.6191 81.4431 1.12453 82.6754 0.931734C83.9076 0.738938 86.3804 0.470703 88.761 0.470703C90.798 0.470703 92.6756 0.638354 93.6648 0.747326C94.6539 0.86468 96.6489 1.21674 97.462 1.41792C98.2667 1.6191 99.6247 1.96278 100.387 2.21426C101.15 2.46573 102.341 2.86809 102.793 3.07765C103.246 3.27883 103.539 3.34588 103.615 3.42132C103.69 3.49677 103.699 3.61412 103.942 3.72309C104.185 3.84045 104.537 3.96618 104.537 3.96618C104.537 3.96618 104.411 4.08354 104.218 4.15898C104.025 4.23443 103.791 4.36016 103.598 4.44398C103.414 4.51943 103.221 4.6284 103.221 4.6284C103.221 4.6284 103.221 4.36016 103.12 4.27634C103.02 4.18413 102.433 3.88236 101.829 3.65603C101.268 3.44647 100.396 3.13632 99.5576 2.89323C98.7194 2.65014 97.2273 2.22263 96.2214 2.0466C95.2239 1.87057 94.1426 1.67778 93.1618 1.57719C92.1894 1.4766 89.9429 1.30057 88.7778 1.30895C87.6126 1.32571 85.3913 1.45145 84.2764 1.58557C83.1699 1.72807 81.3426 2.00469 80.2864 2.27293C79.2218 2.54117 77.7968 2.89323 77.2435 3.08602C76.6819 3.27882 76.0113 3.55544 75.8017 3.56382C75.5838 3.58059 75.1311 3.51353 74.9803 3.51353C74.8294 3.51353 74.6785 3.51353 74.5863 3.53868C74.5025 3.56383 74.2594 3.68956 74.1588 3.63927C74.0582 3.58897 73.857 3.47162 73.857 3.47162" fill="white"/>
<path fill-rule="evenodd" clip-rule="evenodd" d="M108.653 18.0228C108.653 18.0228 108.385 17.7462 108.243 17.5953C108.108 17.4444 108.041 16.7487 107.874 16.3631C107.706 15.9775 107.111 15.1812 106.759 14.8123C106.407 14.4435 105.753 13.7813 104.403 12.9095C103.163 12.1132 101.864 11.4007 100.48 10.881C99.0973 10.3612 98.1333 9.96727 96.4736 9.59845C94.8139 9.22962 92.6596 8.8524 90.3125 8.77696C87.9654 8.70152 85.9453 8.88593 84.5705 9.07035C83.2126 9.24638 81.2762 9.59845 79.4992 10.202C77.7221 10.7971 77.2778 11.0151 76.7246 11.2833C76.1629 11.5516 74.8217 12.2222 74.3272 12.5491C73.8326 12.876 73.0447 13.4208 72.5669 13.731C72.0891 14.0328 71.9969 14.2842 71.7035 14.2088C71.2843 14.1082 71.167 13.731 71.167 13.731C71.167 13.731 71.5274 13.3035 71.8711 12.9598C72.2148 12.6161 73.0195 11.9372 73.5308 11.518C74.0422 11.0989 75.0313 10.2523 75.1906 10.1014C75.3582 9.95051 75.8025 9.41403 75.8025 9.41403C75.8025 9.41403 75.945 9.7158 76.1965 9.64035C76.4479 9.56491 76.8503 9.26315 77.0934 8.87755C77.3365 8.49196 77.7472 7.6118 77.6466 6.87415C77.546 6.13649 77.4454 5.6084 77.2443 5.4659C77.0431 5.32339 76.6994 5.08868 76.4479 5.06354C76.1965 5.03839 76.1043 5.07192 75.9785 5.02163C75.8528 4.97133 75.6768 4.82044 75.6768 4.82044C75.6768 4.82044 76.2887 4.59412 76.5485 4.47677C76.8168 4.35941 78.0071 3.9319 78.8034 3.71396C79.5997 3.49602 80.4547 3.28646 81.469 3.0769C82.4833 2.87572 83.9754 2.63262 85.1741 2.51527C86.3728 2.39791 87.9151 2.28895 88.8288 2.29733C89.7425 2.30571 91.8549 2.42306 92.7183 2.52365C93.5817 2.62424 95.2582 2.84219 96.2557 3.06851C97.2532 3.29484 99.1309 3.74749 99.9607 4.04087C100.782 4.33426 101.771 4.63603 101.872 4.73662C101.973 4.83721 102.09 4.95457 102.241 5.01324C102.392 5.0803 102.543 5.18089 102.543 5.18089C102.543 5.18089 102.132 5.63355 101.855 6.10296C101.042 7.48607 102.014 9.238 103.305 10.1936C104.973 11.4342 108.033 13.3286 108.561 16.1619C108.687 16.8241 108.653 18.006 108.653 18.006" fill="white"/>
<path fill-rule="evenodd" clip-rule="evenodd" d="M109.785 16.5056C109.684 15.5249 109.089 14.5274 108.645 13.8819C108.192 13.2281 107.907 12.5575 107.404 11.7025C106.893 10.8475 105.484 10.0008 104.571 9.36378C103.875 8.87759 102.978 7.79626 102.978 6.94125C102.978 6.53889 102.777 5.91859 102.282 6.19521C102.366 5.98565 102.559 5.78447 102.802 5.58329C103.271 5.18931 104.118 4.65284 104.914 4.36783C105.711 4.07445 107.63 3.55474 108.418 3.37871C109.206 3.20267 111.427 2.83384 112.341 2.7584C113.255 2.68296 114.848 2.60751 115.61 2.60751C116.432 2.60751 118.016 2.69134 119.198 2.8087C120.439 2.93443 122.14 3.19429 123.255 3.25297C124.37 3.31164 126.29 3.36194 127.119 3.33679C127.958 3.31164 129.492 3.25296 130.33 3.2362C131.168 3.22782 134.219 3.11884 135.234 3.06017C136.248 2.99311 138.997 2.83384 140.028 2.78355C141.059 2.73325 144.203 2.66619 145.1 2.66619C145.997 2.66619 149.895 2.84223 150.884 2.89252C151.873 2.94282 154.304 3.07694 155.209 3.13561C156.114 3.18591 157.405 3.2362 158.151 3.27811C158.897 3.32003 161.119 3.25297 161.596 3.25297C162.074 3.25297 163.768 3.2362 164.69 3.20267C165.62 3.16076 168.076 2.97635 168.973 2.90091C169.87 2.82546 172.184 2.58237 172.913 2.53208C173.65 2.48178 174.38 2.37281 174.698 2.42311C175.017 2.4734 175.386 2.71649 175.486 2.82546C175.587 2.93443 176.014 3.41223 176.333 3.74753C176.651 4.09121 176.97 4.46842 177.02 4.60254C177.07 4.72828 177.28 5.0049 177.238 5.10549C177.196 5.20608 177.163 5.39887 177.045 5.46593C176.936 5.52461 176.417 5.75932 176.417 5.75932C176.417 5.75932 176.391 5.51623 176.215 5.44079C176.039 5.36535 175.729 5.26475 175.503 5.3402C175.277 5.41564 174.539 5.73417 174.111 5.91859C173.684 6.11138 172.971 6.4383 172.645 6.48021C172.318 6.51374 171.027 6.56404 170.163 6.5808C169.3 6.59757 166.777 6.60594 165.687 6.64786C164.597 6.68977 160.909 6.70654 160.13 6.7233C159.358 6.73168 155.972 6.77359 154.891 6.77359C153.809 6.77359 150.791 6.83228 149.819 6.82389C148.847 6.80713 144.521 6.89095 143.566 6.87419C142.619 6.85742 139.911 6.89095 139.19 6.89933C138.469 6.9161 137.489 6.94963 136.55 7.0083C135.611 7.07536 134.295 7.20948 133.918 7.23463C133.532 7.25978 133.029 7.19272 132.853 7.13404C132.677 7.06698 132.66 7.04184 132.551 7.03346C132.442 7.01669 132.124 6.97477 132.124 6.97477L132.048 6.80713C132.048 6.80713 132.467 6.73168 132.811 6.65624C133.155 6.5808 133.448 6.42153 134.052 6.2958C134.664 6.17006 136.189 5.87667 136.96 5.75093C137.723 5.6252 141.16 5.01328 142.149 4.88754C143.138 4.76181 145.712 4.46842 146.609 4.40974C147.514 4.35107 150.071 4.14151 150.976 4.09121C151.873 4.04092 153.901 3.94871 154.413 3.96547C154.924 3.98224 156.659 4.01577 157.338 4.0493C158.026 4.09121 158.394 4.09121 158.394 4.09121L158.52 3.64694C158.52 3.64694 157.799 3.60503 157.187 3.5715C156.584 3.52959 155.008 3.51282 154.471 3.51282C153.935 3.51282 152.007 3.5212 151.278 3.56311C150.574 3.60503 149.543 3.47929 148.704 3.45414C147.69 3.41223 145.393 3.43738 144.454 3.51282C143.516 3.58826 140.867 3.83974 140.028 3.94033C139.19 4.04092 136.315 4.46004 134.991 4.70313C133.675 4.94622 131.621 5.34858 130.657 5.52461C129.693 5.70064 128.461 5.95212 127.363 6.06947C126.256 6.17844 124.026 6.22035 123.213 6.21197C122.4 6.19521 120.003 6.14491 118.796 6.16168C117.589 6.17844 115.568 6.17844 114.386 6.31256C113.205 6.45507 112.207 6.68139 111.595 6.88257C110.983 7.08375 110.363 7.31007 109.952 7.62022C109.533 7.92199 109.34 8.25729 109.357 8.36626C109.374 8.47523 109.407 8.55068 109.407 8.55068L109.726 8.65126C109.726 8.65126 109.424 8.89435 109.248 9.04524C109.072 9.19612 108.879 9.55657 108.821 9.85834C108.762 10.1601 108.653 10.8978 108.645 11.1995C108.628 11.5013 108.594 11.627 108.695 11.8701C108.795 12.1132 109.273 12.9682 109.466 13.3371C109.659 13.7059 110.162 14.519 110.304 14.7537C110.447 14.9968 110.707 15.3405 110.899 15.6255C111.092 15.9189 111.419 16.6146 111.453 16.8409C111.495 17.0672 111.495 17.3942 111.495 17.7295V19.3808C111.495 19.649 111.469 19.8586 111.419 19.9257C111.369 19.9843 111.218 20.1185 111.201 20.261C111.193 20.3951 111.101 20.7136 111.067 20.8813C111.025 21.0405 110.899 21.3842 110.899 21.3842C110.899 21.3842 110.698 20.9819 110.681 20.9316C110.673 20.8813 110.765 20.546 110.732 20.0682C110.69 19.582 109.961 18.0564 109.793 16.5056" fill="white"/>
<path fill-rule="evenodd" clip-rule="evenodd" d="M109.323 9.72495C109.323 9.72495 109.516 9.40641 110.044 9.05435C110.505 8.75258 111.251 8.41729 111.704 8.28317C112.157 8.14066 113.833 7.76345 114.596 7.70478C115.359 7.63772 117.404 7.62933 118.066 7.61257C118.737 7.5958 120.019 7.63772 120.455 7.62095C120.883 7.61257 121.495 7.62095 121.947 7.62095C122.4 7.62095 123.28 7.61257 123.557 7.61257C123.833 7.61257 124.37 7.58742 124.521 7.62095C124.672 7.66286 124.948 7.71316 124.99 7.82213C125.024 7.93948 125.066 8.04008 124.99 8.16581C124.915 8.29155 124.923 8.4592 124.923 8.50949V8.62684C124.923 8.62684 124.831 8.67714 124.747 8.73582C124.663 8.80288 124.244 9.03759 124.244 9.03759C124.244 9.03759 124.244 8.94538 124.169 8.78611C124.093 8.61846 123.85 8.48434 123.674 8.44243C123.498 8.4089 122.853 8.36699 122.568 8.35861C122.291 8.35022 121.62 8.33346 121.352 8.30831C121.084 8.28317 120.958 8.24125 120.833 8.24125C120.707 8.24125 120.606 8.25802 120.506 8.33346C120.405 8.4089 120.363 8.48435 120.304 8.50111C120.246 8.50949 120.112 8.48434 120.061 8.48434C120.011 8.48434 119.927 8.55979 120.086 8.71067C120.33 8.937 120.682 8.97891 121 9.0292C121.319 9.0795 121.763 9.15494 122.09 9.222C122.417 9.28906 122.861 9.3645 123.154 9.42318C123.448 9.48186 123.724 9.49862 123.825 9.507C123.926 9.51539 124.102 9.59082 124.093 9.6998C124.077 9.80039 124.051 9.89259 124.018 9.97642C123.976 10.0686 123.976 10.2279 123.993 10.3033C124.009 10.3788 123.976 10.4542 123.909 10.5045C123.833 10.5548 123.515 10.6722 123.439 10.7057C123.364 10.7476 123.23 10.7308 123.23 10.7308C123.23 10.7308 123.272 10.5297 123.23 10.4794C123.188 10.4291 123.079 10.3117 122.836 10.2363C122.593 10.1608 121.964 9.99319 121.654 9.93451C121.352 9.87583 120.833 9.73333 120.489 9.66627C120.145 9.59921 119.919 9.49862 119.818 9.59083C119.718 9.68303 119.692 9.75848 119.625 9.76686C119.558 9.78362 119.458 9.73333 119.399 9.792C119.332 9.85906 119.248 9.93451 119.307 10.0099C119.374 10.0854 119.6 10.2279 119.827 10.3033C120.053 10.3788 120.807 10.5967 121.134 10.6973C121.461 10.7979 122.031 11.0242 122.341 11.0913C122.643 11.15 122.962 11.2589 123.029 11.4182C123.087 11.5859 123.079 11.7451 122.962 11.8457C122.844 11.9463 122.819 12.0888 122.794 12.1475C122.769 12.2145 122.735 12.3738 122.735 12.3738C122.735 12.3738 122.442 12.5582 122.383 12.5917L122.107 12.7091C122.107 12.7091 122.207 12.5834 122.115 12.3654C122.031 12.1475 121.771 12.0217 121.444 11.8541C121.118 11.6864 120.447 11.4517 120.187 11.3595C119.936 11.2673 119.114 10.9404 118.921 10.8733C118.729 10.8147 118.519 10.7392 118.335 10.7728C118.159 10.8147 118.066 10.9153 118.117 10.9991C118.167 11.0829 118.309 11.1248 118.309 11.2254C118.309 11.326 118.309 11.4098 118.259 11.4433C118.209 11.4685 118.192 11.4769 118.192 11.4769C118.192 11.4769 118.62 11.7703 118.921 11.9044C119.215 12.0469 119.936 12.4241 120.128 12.5247C120.321 12.6253 120.916 12.9103 121.05 13.0109C121.193 13.1115 121.478 13.2791 121.428 13.4132C121.377 13.5557 121.327 13.7821 121.302 13.8575C121.277 13.9329 121.327 14 121.201 14.0503C121.076 14.1006 120.606 14.2263 120.606 14.2263C120.606 14.2263 120.598 14.109 120.564 14.0503C120.539 13.9916 120.455 13.8743 120.195 13.7234C119.944 13.5725 119.039 13.036 118.812 12.927C118.586 12.8097 118.016 12.5079 117.89 12.3906C117.765 12.2816 117.446 12.0134 117.329 11.9463C117.22 11.8876 116.985 11.7703 116.834 11.9211C116.717 12.0469 116.658 12.29 116.733 12.3738C116.809 12.466 116.977 12.6169 116.977 12.6169C116.977 12.6169 116.826 12.7342 116.851 12.7929C116.876 12.86 117.278 13.145 117.589 13.3629C117.89 13.5809 118.695 14.1257 118.896 14.2599C119.097 14.4024 119.533 14.6622 119.667 14.7963C119.81 14.9221 119.843 15.0394 119.743 15.1484C119.642 15.2657 119.609 15.3747 119.609 15.3747C119.609 15.3747 119.617 15.5256 119.617 15.5927C119.617 15.6597 119.592 15.7352 119.592 15.7352C119.592 15.7352 119.525 15.7938 119.357 15.8274C119.198 15.8525 118.955 15.8693 118.955 15.8693C118.955 15.8693 118.905 15.7938 118.913 15.6765C118.921 15.5591 118.812 15.4837 118.645 15.3328C118.427 15.14 117.823 14.7209 117.521 14.5029C117.22 14.285 116.625 13.891 116.482 13.7401C116.34 13.5893 116.088 13.2204 115.954 13.1031C115.811 12.9857 115.627 12.86 115.459 12.927C115.292 12.9857 115.116 13.1198 115.091 13.2707C115.065 13.4216 115.04 13.539 115.141 13.6144C115.241 13.6898 115.384 13.7821 115.384 13.8323C115.384 13.8826 115.216 13.9246 115.258 14.0084C115.3 14.0922 115.828 14.4946 116.071 14.6957C116.314 14.8969 117.136 15.5508 117.337 15.7268C117.538 15.9028 117.924 16.2549 117.974 16.4141C118.024 16.565 117.999 16.8836 117.932 16.9674C117.865 17.0596 117.689 17.0931 117.521 17.1183C117.354 17.1434 117.136 17.1686 117.136 17.1686C117.136 17.1686 117.211 16.9758 117.178 16.9003C117.136 16.8249 116.784 16.5986 116.516 16.3806C116.247 16.1627 115.451 15.4921 115.149 15.2406C114.847 14.9891 114.537 14.679 114.437 14.4694C114.336 14.2515 114.16 13.9665 113.9 13.9665C113.64 13.9665 113.389 14.0084 113.238 14.2096C113.087 14.4107 113.087 14.6287 113.204 14.7209C113.322 14.8131 113.523 14.9388 113.456 14.9724L113.23 15.1149C113.23 15.1149 113.473 15.2574 113.774 15.5172C114.127 15.819 114.738 16.3136 114.965 16.5315C115.191 16.7494 115.661 17.1937 115.753 17.2692C115.837 17.3446 115.971 17.5709 115.954 17.7386C115.946 17.9062 115.92 18.1242 115.862 18.208C115.811 18.3002 115.878 18.3589 115.753 18.4259C115.627 18.493 115.384 18.493 115.3 18.493C115.216 18.493 115.132 18.4678 115.132 18.4678C115.132 18.4678 115.35 18.3002 115.334 18.2248C115.317 18.1493 115.057 17.8811 114.873 17.7302C114.697 17.5793 113.833 16.8417 113.515 16.5483C113.196 16.2549 112.743 15.8022 112.643 15.5256C112.542 15.249 112.542 14.8885 112.375 14.6622C112.207 14.4359 111.847 14.1509 111.679 13.9162C111.511 13.6731 110.966 12.8348 110.715 12.3235C110.455 11.8038 110.195 11.4098 110.128 10.9655C110.069 10.5213 110.111 10.253 110.036 10.1105C109.96 9.96804 109.784 9.75848 109.692 9.75848C109.6 9.75848 109.307 9.71657 109.307 9.71657" fill="white"/>
<path fill-rule="evenodd" clip-rule="evenodd" d="M111.369 16.0371C111.369 16.0371 112.065 16.8334 112.241 16.9843C112.417 17.1352 112.786 17.3615 112.903 17.4286C113.02 17.4873 113.448 17.9232 113.565 18.0657C113.683 18.2082 113.959 18.468 113.943 18.6357C113.934 18.8033 113.8 19.2476 113.699 19.3482C113.599 19.4488 113.448 19.5745 113.314 19.5913C113.188 19.5997 112.962 19.5661 112.962 19.5661C112.962 19.5661 113.238 19.4907 113.238 19.3817C113.238 19.2727 113.188 19.1638 112.987 18.9626C112.786 18.7614 112.71 18.686 112.492 18.3926C112.274 18.0992 112.098 17.7974 112.098 17.7974L111.948 17.8477L111.797 17.8645C111.797 17.8645 111.746 17.3783 111.679 17.1184C111.612 16.8502 111.528 16.6239 111.495 16.4981C111.445 16.3305 111.369 16.0539 111.369 16.0539" fill="white"/>
<path fill-rule="evenodd" clip-rule="evenodd" d="M111.285 21.7946C111.285 21.7946 111.461 21.3754 111.486 21.2078C111.511 21.0401 111.604 20.7468 111.612 20.6797L111.654 20.4785C111.654 20.4785 111.981 20.906 112.081 21.0318C112.182 21.1575 112.526 21.4257 112.652 21.6018C112.777 21.7778 113.347 22.5155 113.59 22.8424C113.833 23.1693 114.512 24.083 114.638 24.259C114.764 24.435 115.149 24.9799 115.124 25.1308C115.099 25.2817 115.074 25.4745 114.999 25.6253C114.923 25.7762 114.848 25.9439 114.772 25.9523C114.697 25.9606 114.328 25.9774 114.328 25.9774C114.328 25.9774 114.429 25.8349 114.429 25.7511C114.429 25.6673 114.261 25.399 114.035 25.2733C113.808 25.1475 113.364 24.9045 113.263 24.7871C113.163 24.6697 112.853 23.8483 112.71 23.5549C112.534 23.2028 112.224 22.616 112.04 22.3478C111.847 22.0796 111.721 21.8029 111.646 21.7778C111.57 21.7527 111.604 21.8197 111.495 21.8281C111.377 21.8449 111.294 21.7778 111.294 21.7778" fill="white"/>
<path fill-rule="evenodd" clip-rule="evenodd" d="M111.872 19.8925C111.872 19.8925 112.341 20.0601 112.61 20.0601C112.878 20.0601 113.079 20.0769 113.146 20.0517C113.205 20.0266 113.322 19.8254 113.59 19.7583C113.859 19.6913 114.11 19.7332 114.362 19.926C114.613 20.1188 115.887 21.3845 116.072 21.5606C116.264 21.7366 117.086 22.5329 117.337 22.776C117.589 23.0191 118 23.4215 118.075 23.5891C118.151 23.7568 118.184 23.8909 118.125 23.9831C118.067 24.0669 117.974 24.134 117.933 24.2513C117.899 24.3687 117.866 24.6202 117.807 24.6956C117.748 24.7711 117.656 24.8633 117.48 24.8633C117.304 24.8633 117.128 24.8381 117.128 24.8381C117.128 24.8381 117.329 24.7208 117.329 24.595C117.329 24.4693 117.27 24.3016 117.086 24.201C116.91 24.1005 116.717 23.9999 116.449 23.8574C116.181 23.7232 115.971 23.5305 115.778 23.3125C115.586 23.0946 115.141 22.4994 114.932 22.2563C114.714 22.0132 114.194 21.3426 113.959 21.1163C113.716 20.89 113.473 20.672 113.171 20.605C112.87 20.5379 112.786 20.5295 112.727 20.5295C112.668 20.5295 112.534 20.7307 112.559 20.781C112.585 20.8313 112.434 20.7056 112.308 20.5379C112.182 20.3703 111.88 19.8925 111.88 19.8925" fill="white"/>
<path fill-rule="evenodd" clip-rule="evenodd" d="M114.278 19.304C114.278 19.304 114.312 19.2201 114.329 19.086C114.345 18.9603 114.371 18.7926 114.429 18.8094C114.488 18.8178 114.806 18.9687 115.024 18.9687C115.242 18.9687 115.267 18.9351 115.267 18.9351C115.267 18.9351 115.376 18.7423 115.645 18.692C115.913 18.6417 116.005 18.6334 116.089 18.6334C116.173 18.6334 116.307 18.6082 116.583 18.7172C116.86 18.8345 117.64 19.4632 117.925 19.6896C118.218 19.9159 119.4 20.8463 119.727 21.1062C120.054 21.3744 120.439 21.6259 120.54 21.7265C120.641 21.8271 120.968 22.1456 120.892 22.2881C120.817 22.4222 120.649 22.5899 120.615 22.7408C120.582 22.8917 120.565 23.1096 120.54 23.1934C120.515 23.2856 120.339 23.3192 120.247 23.3108C120.154 23.3024 119.903 23.2856 119.903 23.2856C119.903 23.2856 120.045 23.185 120.079 23.0844C120.113 22.9839 120.037 22.8665 119.903 22.7659C119.76 22.6653 119.534 22.5144 119.266 22.3887C118.998 22.263 118.595 21.9193 118.268 21.651C117.941 21.3828 117.078 20.5865 116.885 20.4105C116.692 20.2344 116.097 19.7231 115.946 19.6644C115.796 19.5974 115.351 19.5219 115.184 19.4884C115.016 19.4465 114.781 19.3962 114.781 19.3962C114.781 19.3962 114.672 19.5638 114.622 19.5638C114.521 19.5638 114.53 19.5554 114.53 19.5554C114.53 19.5554 114.538 19.5554 114.454 19.48C114.362 19.4046 114.278 19.304 114.278 19.304Z" fill="white"/>
<path fill-rule="evenodd" clip-rule="evenodd" d="M116.398 18.0224L116.415 17.7961C116.415 17.7961 116.583 17.7374 116.792 17.7374C117.002 17.7374 117.212 17.7458 117.455 17.662C117.698 17.5781 117.698 17.6033 117.857 17.4943C118.016 17.3937 118.1 17.3686 118.268 17.268C118.427 17.1674 118.393 17.0249 118.494 17.0165C118.595 17.0081 118.896 16.9662 118.989 17.0165C119.072 17.0668 119.726 17.5865 120.103 17.8129C120.489 18.0392 121.637 18.7517 122.065 19.0199C122.492 19.2882 123.146 19.6402 123.356 19.833C123.574 20.0258 123.716 20.1264 123.7 20.3024C123.691 20.4785 123.549 20.6042 123.473 20.7467C123.398 20.8892 123.415 21.015 123.356 21.1239C123.306 21.2413 123.272 21.3502 123.272 21.3502L122.744 21.4676C122.744 21.4676 122.886 21.3419 122.861 21.1994C122.836 21.0569 122.744 20.9227 122.518 20.797C122.291 20.6713 121.99 20.6545 121.73 20.5707C121.478 20.4785 121.034 20.1767 120.766 19.9755C120.497 19.7743 119.827 19.2546 119.508 19.0367C119.19 18.8188 118.737 18.4499 118.511 18.3493C118.284 18.2487 117.865 18.1649 117.622 18.1482C117.379 18.1314 117.094 18.1649 117.044 18.1482C116.994 18.1314 116.918 18.4164 116.818 18.3242C116.717 18.2404 116.675 18.2236 116.549 18.1482C116.424 18.0727 116.407 18.0308 116.407 18.0308" fill="white"/>
<path fill-rule="evenodd" clip-rule="evenodd" d="M119.584 16.2799C119.584 16.2799 119.928 16.2547 120.003 16.1038C120.079 15.953 120.053 15.6177 120.079 15.4668C120.104 15.3159 120.095 15.2237 120.154 15.2153C120.213 15.2069 120.38 15.3159 120.548 15.3327C120.716 15.341 120.917 15.3327 121.185 15.4668C121.453 15.6093 122.593 16.2044 123.188 16.4559C123.784 16.7074 124.974 17.3277 125.343 17.4702C125.712 17.6127 126.315 17.839 126.407 17.9983C126.491 18.1659 126.541 18.342 126.441 18.5096C126.34 18.6773 126.265 18.7611 126.298 18.8784C126.34 18.9958 126.441 19.1299 126.349 19.197C126.265 19.2556 126.047 19.2724 125.904 19.3227C125.762 19.373 125.611 19.373 125.611 19.373C125.611 19.373 125.737 19.2892 125.712 19.1467C125.686 19.0126 125.561 18.8198 125.292 18.7527C125.024 18.6856 124.722 18.6773 124.479 18.6102C124.236 18.5515 124.027 18.4425 123.658 18.233C123.289 18.015 122.543 17.5708 122.149 17.3696C121.755 17.1684 121.034 16.7828 120.783 16.6236C120.531 16.4559 120.439 16.3805 120.313 16.3469C120.188 16.305 120.02 16.2966 119.936 16.3218C119.844 16.3469 119.584 16.2799 119.584 16.2799Z" fill="white"/>
<path fill-rule="evenodd" clip-rule="evenodd" d="M121.713 14.2259C121.713 14.2259 121.772 14.0247 121.813 13.7984C121.855 13.572 121.805 13.4547 121.881 13.4295C121.956 13.4044 122.082 13.4714 122.249 13.4547C122.417 13.4379 122.585 13.4295 122.694 13.4966C122.811 13.5553 123.364 13.7732 123.649 13.8738C123.926 13.9744 125.376 14.4941 125.854 14.6785C126.332 14.8546 127.212 15.1731 127.589 15.3156C127.975 15.4581 128.226 15.4916 128.36 15.6174C128.503 15.7431 128.628 15.9191 128.612 16.179C128.603 16.4305 128.654 16.5059 128.553 16.6316C128.452 16.7574 128.427 16.7825 128.41 16.858C128.394 16.9334 128.494 17.0759 128.436 17.1514C128.377 17.2268 128.268 17.2436 128.042 17.2771C127.815 17.319 127.698 17.3441 127.698 17.3441C127.698 17.3441 127.891 17.143 127.706 16.9753C127.53 16.8077 127.463 16.7071 127.061 16.5562C126.659 16.4053 126.005 16.1371 125.72 16.0197C125.426 15.9107 124.169 15.3324 123.817 15.2066C123.465 15.0809 122.736 14.8043 122.484 14.6618C122.233 14.5193 122.132 14.469 122.057 14.3684C121.981 14.2678 121.713 14.2259 121.713 14.2259Z" fill="white"/>
<path fill-rule="evenodd" clip-rule="evenodd" d="M123.281 12.1135C123.281 12.1135 123.256 11.4932 123.34 11.468C123.432 11.4429 123.683 11.5183 123.792 11.51C123.91 11.5016 124.22 11.5016 124.513 11.577C124.807 11.6525 126.416 12.0632 127.045 12.1973C127.682 12.3398 128.528 12.541 129.065 12.6248C129.593 12.717 129.953 12.717 130.062 12.9098C130.18 13.1026 130.163 13.505 130.155 13.7229C130.138 13.9325 130.205 14.3935 130.163 14.4606C130.129 14.5276 129.861 14.6366 129.668 14.7121C129.484 14.7875 129.4 14.821 129.4 14.821C129.4 14.821 129.492 14.5947 129.358 14.4271C129.233 14.2594 128.738 14.0582 128.411 13.966C128.084 13.8738 127.129 13.5637 126.609 13.4128C126.089 13.2619 125.226 12.9685 124.932 12.8931C124.639 12.8176 124.295 12.7254 124.094 12.5997C123.893 12.4739 123.675 12.2476 123.583 12.1973C123.491 12.147 123.256 12.1219 123.256 12.1219" fill="white"/>
<path fill-rule="evenodd" clip-rule="evenodd" d="M124.446 9.82381V9.58072C124.446 9.58072 124.723 9.3041 124.807 9.3041C124.882 9.3041 125.083 9.26218 125.402 9.28733C125.72 9.31248 127.078 9.47175 127.606 9.56395C128.135 9.64778 129.56 9.84057 129.962 9.89087C130.373 9.94116 130.993 9.89925 131.194 9.95793C131.538 10.0418 131.488 10.3519 131.513 10.5615C131.538 10.7794 131.58 11.1063 131.546 11.1985C131.521 11.2907 131.328 11.4668 131.127 11.6177C130.926 11.7685 130.725 11.8859 130.607 11.9446C130.49 12.0032 130.641 11.6763 130.515 11.5506C130.44 11.4752 130.239 11.3746 129.92 11.3075C129.601 11.2488 129.099 11.1315 128.788 11.0644C128.487 11.0057 127.321 10.771 126.852 10.6872C126.383 10.6034 125.855 10.5447 125.536 10.3938C125.217 10.2429 125.016 9.99146 124.84 9.90763C124.664 9.83219 124.446 9.80705 124.446 9.80705" fill="white"/>
<path fill-rule="evenodd" clip-rule="evenodd" d="M125.376 8.14893C125.376 8.14893 125.292 7.89745 125.292 7.8304C125.292 7.7801 125.317 7.70466 125.317 7.70466C125.317 7.70466 125.837 7.72981 126.189 7.66275C126.541 7.59569 127.597 7.43642 128.268 7.33583C128.938 7.23524 130.204 7.00891 130.623 6.93347C131.042 6.85803 131.554 6.76583 131.73 6.84965C131.906 6.92509 132.031 7.10112 132.057 7.27715C132.082 7.45318 132.224 7.84716 132.275 8.01481C132.325 8.18246 132.451 8.43393 132.425 8.50937C132.4 8.58481 132.182 8.85305 132.031 8.99556C131.881 9.13806 131.512 9.49012 131.512 9.49012C131.512 9.49012 131.562 9.19673 131.453 9.0207C131.344 8.84467 131.109 8.62673 130.816 8.53452C130.523 8.44231 129.332 8.35849 128.913 8.36687C128.494 8.37525 127.471 8.39202 126.985 8.37526C126.499 8.36687 126.063 8.27466 125.854 8.18246C125.652 8.09863 125.711 8.12378 125.627 8.09863C125.476 8.04834 125.376 8.14893 125.376 8.14893Z" fill="white"/>
<path fill-rule="evenodd" clip-rule="evenodd" d="M132.225 9.52367C132.225 9.52367 132.719 8.98719 132.845 8.83631C132.971 8.68543 133.096 8.49263 133.18 8.46749C133.272 8.44234 133.599 8.48425 133.801 8.41719C134.069 8.32498 135.779 8.34174 136.24 8.32498C136.701 8.3166 139.853 8.3166 140.54 8.3166C141.227 8.3166 145.687 8.25792 146.424 8.2663C147.162 8.28307 150.389 8.2663 151.219 8.24116C152.049 8.21601 156.022 8.24116 156.978 8.19925C157.925 8.16572 162.888 8.14057 163.709 8.10704C164.531 8.08189 168.361 8.02321 169.057 8.00645C169.753 7.99807 171.136 7.97292 171.563 7.94777C171.991 7.92262 172.385 7.87233 172.553 7.89748C172.72 7.92263 172.745 8.09027 172.796 8.19086C172.846 8.29145 173.089 9.06264 173.206 9.40632C173.315 9.75 173.408 10.2026 173.424 10.4206C173.433 10.6385 173.508 10.9068 173.466 10.9571C173.416 11.0074 172.955 11.2756 172.871 11.3008C172.787 11.3259 172.67 11.351 172.67 11.351C172.67 11.351 172.762 11.2002 172.695 11.0744C172.636 10.9487 172.368 10.7559 172.201 10.7391C172.033 10.714 171.798 10.7643 171.463 10.89C171.128 11.0158 170.164 11.2924 169.619 11.4097C169.074 11.5187 168.839 11.6025 167.909 11.6277C166.987 11.6528 164.841 11.6361 163.927 11.6025C163.013 11.5606 160.297 11.4852 159.023 11.4265C157.741 11.3594 154.572 11.2002 153.466 11.1499C152.359 11.0996 148.964 10.8984 148.16 10.8481C147.347 10.7978 143.382 10.5547 142.552 10.496C141.73 10.429 137.581 10.1775 136.91 10.1188C136.24 10.0518 134.79 9.95118 134.345 9.92603C133.901 9.90088 133.281 9.85059 133.054 9.78353C132.828 9.72485 132.828 9.63264 132.644 9.59073C132.468 9.54882 132.225 9.54044 132.225 9.54044" fill="white"/>
<path fill-rule="evenodd" clip-rule="evenodd" d="M130.539 12.6758C130.539 12.6758 131.126 12.3154 131.377 12.1142C131.629 11.913 131.922 11.7202 131.989 11.5442C132.048 11.3682 132.048 11.2676 132.048 11.2676C132.048 11.2676 133.833 11.3179 134.244 11.3598C134.646 11.3933 136.616 11.5274 137.136 11.561C137.656 11.6029 140.808 11.8292 141.805 11.8879C142.794 11.9549 147.229 12.2567 148.117 12.307C149.006 12.3573 152.543 12.5752 153.415 12.6255C154.287 12.6758 157.673 12.8435 158.78 12.8938C159.886 12.9441 163.734 13.0447 164.396 13.0614C165.05 13.0698 167.212 13.095 167.59 13.0698C167.967 13.0447 168.436 13.0027 168.688 13.0027C168.939 13.0027 169.232 13.0279 169.241 13.2961C169.258 13.5644 169.199 14.6792 169.09 15.0481C168.973 15.4169 168.721 16.0288 168.528 16.1881C168.336 16.3557 168.051 16.5066 168.051 16.5066C168.051 16.5066 168.16 16.2635 168.092 16.121C168.017 15.9785 167.749 15.7773 167.564 15.7941C167.372 15.8025 166.24 16.0875 165.687 16.1462C165.125 16.2048 164.203 16.3138 163.507 16.2971C162.812 16.2887 161.202 16.2216 160.389 16.1546C159.584 16.0959 157.371 15.9282 156.273 15.8109C155.167 15.6935 152.166 15.3666 150.774 15.199C149.374 15.0313 146.566 14.6792 145.577 14.5535C144.588 14.4278 141.369 13.9919 140.506 13.8661C139.642 13.7404 137.337 13.4386 136.7 13.3297C136.063 13.2291 134.076 12.9357 133.506 12.8602C132.936 12.7848 132.576 12.7094 132.325 12.7094C132.073 12.7094 131.88 12.6842 131.553 12.7094C131.226 12.7345 131.277 12.7345 131.126 12.7345C130.983 12.7345 130.933 12.7261 130.782 12.7094C130.631 12.701 130.556 12.6591 130.556 12.6591" fill="white"/>
<path fill-rule="evenodd" clip-rule="evenodd" d="M129.015 15.5424C129.015 15.5424 129.492 15.3916 129.761 15.2658C130.029 15.1401 130.456 15.0227 130.582 14.8132C130.708 14.5952 130.733 14.5449 130.725 14.4108C130.716 14.2683 130.674 14.1426 130.674 14.1426C130.674 14.1426 131.513 14.1929 131.84 14.218C132.166 14.2432 133.751 14.4863 134.245 14.5449C134.74 14.612 137.162 14.9892 137.825 15.0814C138.487 15.1652 142.963 15.7939 143.835 15.9029C144.707 16.0119 148.537 16.5148 149.25 16.5903C149.962 16.6657 154.271 17.1519 154.942 17.2106C155.612 17.2692 158.035 17.5039 158.873 17.5626C159.711 17.6297 161.497 17.7303 162.276 17.7387C163.047 17.7554 163.609 17.7303 163.81 17.7889C164.011 17.856 164.171 17.9901 164.129 18.1326C164.087 18.2751 163.928 19.4906 163.852 19.7253C163.777 19.9684 163.651 20.4378 163.534 20.5971C163.425 20.7647 163.332 20.9491 163.14 21.0581C162.947 21.1587 162.871 21.1838 162.871 21.1838C162.871 21.1838 163.014 20.9156 162.93 20.7647C162.855 20.6138 162.578 20.3456 162.41 20.3372C162.243 20.3204 161.614 20.4378 161.195 20.5049C160.776 20.5635 160.005 20.6557 159.485 20.6977C158.965 20.7312 158.311 20.7815 157.976 20.7731C157.649 20.7563 157.029 20.6977 156.484 20.6222C155.939 20.5468 153.936 20.2701 153.223 20.1528C152.511 20.0438 150.18 19.6331 149.208 19.4571C148.227 19.281 144.765 18.5853 144.095 18.426C143.424 18.2751 140.851 17.7135 140.205 17.5626C139.56 17.4117 136.743 16.7495 136.098 16.5903C135.452 16.4226 133.65 16.0035 133.164 15.8945C132.686 15.7772 131.697 15.5424 131.429 15.4922C131.161 15.4419 130.859 15.3664 130.632 15.4251C130.406 15.4922 129.937 15.6263 129.786 15.685C129.635 15.7352 129.61 15.7604 129.375 15.7269C129.149 15.6849 129.023 15.5592 129.023 15.5592" fill="white"/>
<path fill-rule="evenodd" clip-rule="evenodd" d="M126.835 17.989C126.835 17.989 127.304 17.9638 127.522 17.9135C127.74 17.8632 128.285 17.7459 128.528 17.6704C128.771 17.595 128.855 17.5531 128.88 17.4274C128.905 17.3016 128.855 16.9579 128.897 16.8154C128.931 16.6729 128.998 16.5137 128.998 16.5137C128.998 16.5137 129.517 16.631 129.735 16.6394C129.953 16.6562 130.691 16.8071 130.993 16.8825C131.294 16.9579 134.773 17.8297 135.318 17.9722C135.863 18.1147 139.836 19.0703 140.515 19.2128C141.202 19.3469 144.43 20.0594 145.159 20.2103C145.88 20.3612 150.683 21.2498 151.488 21.3755C152.284 21.5012 155.025 21.9287 155.671 21.9958C156.316 22.0629 157.255 22.1634 157.448 22.2137C157.64 22.264 157.816 22.3395 157.775 22.5658C157.724 22.8843 157.456 23.5214 157.305 23.8232C157.154 24.1249 156.911 24.6782 156.651 24.9799C156.383 25.2817 156.207 25.5248 156.031 25.6338C155.855 25.7511 155.788 25.7847 155.788 25.7847C155.788 25.7847 155.939 25.5583 155.905 25.4075C155.863 25.2566 155.637 25.0554 155.411 25.0135C155.184 24.9799 154.69 25.0051 154.195 25.0051C153.701 25.0051 152.259 24.938 150.985 24.7452C149.719 24.5608 147.774 24.2423 146.475 23.9321C145.167 23.6304 143.306 23.1861 141.974 22.8005C140.641 22.4233 138.453 21.803 137.07 21.3336C135.687 20.8642 133.918 20.2774 133.139 20.0008C132.367 19.7241 130.096 18.9194 129.735 18.7853C129.375 18.6512 129.14 18.5925 128.872 18.5674C128.604 18.5422 128.277 18.6093 128 18.5674C127.724 18.5255 127.38 18.4416 127.229 18.3913C127.078 18.341 126.961 18.3075 126.902 18.1902C126.843 18.0728 126.86 17.9722 126.86 17.9722" fill="white"/>
<path fill-rule="evenodd" clip-rule="evenodd" d="M124.195 20.219C124.195 20.219 125.05 20.0178 125.477 19.8502C125.838 19.7161 126.315 19.5065 126.718 19.5484C127.12 19.5903 128 19.8753 128.495 20.0681C128.989 20.2609 130.75 20.8812 131.219 21.0573C131.689 21.2333 135.721 22.5912 136.366 22.7924C137.011 22.9936 140.515 24.033 141.253 24.2342C141.991 24.4354 145.36 25.2988 146.157 25.458C146.953 25.6257 148.269 25.8604 148.68 25.9442C149.082 26.0197 149.468 26.1203 149.501 26.3131C149.543 26.5059 149.518 26.8076 149.443 26.9585C149.367 27.1094 149.241 27.604 149.124 27.9141C149.007 28.2159 148.856 28.6099 148.697 28.7859C148.529 28.9619 148.16 29.0374 148.16 29.0374C148.16 29.0374 148.353 28.9116 148.328 28.7188C148.303 28.5344 148.236 28.4422 148.085 28.3416C147.934 28.241 147.842 28.1488 147.632 28.1404C147.414 28.1237 146.861 28.1907 146.425 28.2159C145.997 28.241 144.514 28.241 143.927 28.241C143.34 28.241 142.762 28.2829 142.326 28.2326C141.898 28.1823 141.362 28.0901 140.691 27.9057C140.021 27.7213 138.361 27.1094 137.623 26.816C136.886 26.5226 134.698 25.5503 134.111 25.282C133.524 25.0138 131.345 23.9324 130.624 23.572C129.903 23.2032 128.872 22.6918 128.319 22.3901C127.766 22.0883 126.559 21.4261 126.24 21.2752C125.921 21.1243 125.578 21.007 125.31 20.9567C125.041 20.9064 124.664 20.7555 124.555 20.7052C124.438 20.6549 124.161 20.5795 124.161 20.5795L124.195 20.219Z" fill="white"/>
<path fill-rule="evenodd" clip-rule="evenodd" d="M121.394 22.1313C121.394 22.1313 122.291 21.9301 122.526 21.8379C122.752 21.7457 123.247 21.6367 123.44 21.6703C123.624 21.7122 124.286 22.0223 124.68 22.2403C125.074 22.4582 126.809 23.3803 127.371 23.6737C127.924 23.9671 130.221 25.1406 130.741 25.4005C131.261 25.6519 132.945 26.4902 133.557 26.7584C134.169 27.0267 136.273 27.9655 136.868 28.2002C137.422 28.4265 138.302 28.7451 138.805 28.9211C139.316 29.0971 139.962 29.2899 140.263 29.3737C140.565 29.4576 141.102 29.6001 141.135 29.7426C141.177 29.8851 141.177 30.0862 141.076 30.3042C140.976 30.5221 140.733 31.1927 140.615 31.4107C140.506 31.6286 140.314 32.0477 140.146 32.1986C139.978 32.3495 139.903 32.425 139.802 32.4501C139.702 32.4753 139.693 32.4585 139.693 32.4585C139.693 32.4585 139.878 32.2322 139.878 32.14C139.878 32.0477 139.76 31.746 139.609 31.6454C139.459 31.5448 139.257 31.4442 139.09 31.4442C138.922 31.4442 138.402 31.4442 137.908 31.3939C137.413 31.3436 136.6 31.243 136.005 31.1173C135.41 30.9916 134.999 30.9245 134.505 30.7149C134.01 30.497 132.92 29.927 132.35 29.6001C131.78 29.2732 129.97 28.1583 129.4 27.7727C128.855 27.4122 126.256 25.5513 125.862 25.2747C125.468 24.9981 124.529 24.3107 124.152 24.0174C123.767 23.724 123.23 23.2881 123.012 23.1959C122.794 23.0953 122.157 22.8606 121.948 22.7768C121.738 22.6929 121.495 22.6091 121.428 22.475C121.369 22.3325 121.386 22.1313 121.386 22.1313" fill="white"/>
<path fill-rule="evenodd" clip-rule="evenodd" d="M118.628 23.8065C118.628 23.8065 119.123 23.8317 119.341 23.7814C119.559 23.7311 120.011 23.6053 120.154 23.6053C120.296 23.6053 120.556 23.555 120.808 23.664C121.059 23.7814 121.704 24.1502 122.04 24.4101C122.367 24.6783 123.75 25.7429 124.177 26.0614C124.605 26.3799 126.684 27.8469 127.103 28.1402C127.522 28.4336 129.408 29.691 129.919 29.9928C130.431 30.2945 131.361 30.8645 131.822 31.1328C132.283 31.401 132.786 31.6525 132.929 31.795C133.071 31.9375 133.247 32.0716 133.105 32.3902C132.962 32.7087 132.56 33.3541 132.459 33.505C132.359 33.6559 132.074 33.9325 131.939 34.0331C131.797 34.1337 131.738 34.1588 131.738 34.1588C131.738 34.1588 131.956 33.9158 131.914 33.7565C131.881 33.5888 131.78 33.3541 131.52 33.2116C131.269 33.0691 130.757 33.0188 130.38 32.935C130.003 32.8512 128.586 32.5075 128.05 32.3566C127.505 32.2057 127.044 32.0716 126.709 31.8201C126.365 31.5687 125.468 30.7304 125.032 30.3364C124.605 29.9425 123.683 29.0791 123.163 28.6097C122.643 28.1402 121.579 27.1427 121.201 26.7739C120.816 26.4051 119.776 25.4914 119.6 25.2902C119.424 25.089 118.997 24.6783 118.863 24.5526C118.737 24.4268 118.636 24.4352 118.561 24.3095C118.486 24.1837 118.519 23.9909 118.544 23.9406C118.569 23.8903 118.62 23.7981 118.62 23.7981" fill="white"/>
<path fill-rule="evenodd" clip-rule="evenodd" d="M115.443 25.9269L115.56 25.5413C115.602 25.4156 115.602 25.3401 115.602 25.3401C115.602 25.3401 116.046 25.3653 116.399 25.315C116.751 25.2647 116.943 25.1725 117.245 25.1976C117.547 25.2228 117.689 25.2898 117.84 25.5916C117.991 25.8934 118.452 26.3879 118.762 26.6981C119.081 26.9999 120.615 28.4165 121.084 28.8691C121.554 29.3134 123.037 30.7217 123.557 31.1911C124.077 31.6605 124.781 32.2808 124.974 32.4736C125.167 32.6664 125.611 33.0939 125.711 33.2196C125.812 33.3454 125.787 33.5968 125.67 33.7896C125.561 33.9824 125.317 34.3764 125.141 34.5357C124.965 34.7033 124.58 34.9632 124.58 34.9632C124.58 34.9632 124.722 34.6866 124.68 34.5608C124.639 34.4351 124.362 34.1836 124.161 34.1082C123.96 34.0327 123.088 33.8064 122.702 33.689C122.317 33.5717 121.487 33.2448 121.26 33.0687C121.034 32.8927 120.028 31.6856 119.802 31.409C119.576 31.1324 118.695 29.9924 118.394 29.5984C118.092 29.2044 117.413 28.2656 117.044 27.7962C116.675 27.3268 116.105 26.5807 115.954 26.4215C115.803 26.2706 115.778 26.1951 115.636 26.0945C115.493 25.994 115.435 25.9269 115.435 25.9269" fill="white"/>
<path fill-rule="evenodd" clip-rule="evenodd" d="M112.342 26.3301C112.342 26.3301 112.895 26.4055 113.214 26.4055C113.532 26.4055 113.826 26.372 113.96 26.3971C114.094 26.4223 114.278 26.4055 114.412 26.5732C114.555 26.7408 114.63 27.0258 114.689 27.1935C114.756 27.3611 115.77 28.7861 115.93 29.0208C116.097 29.2472 116.818 30.2112 117.137 30.6303C117.455 31.0494 118.319 32.1475 118.57 32.4828C118.822 32.8097 119.333 33.3294 119.459 33.5222C119.584 33.715 119.911 34.1844 119.962 34.285C120.012 34.3856 119.886 34.5281 119.811 34.6287C119.735 34.7293 119.584 34.9053 119.425 35.0562C119.274 35.2071 119.048 35.3747 118.981 35.3999C118.922 35.425 119.006 35.2239 119.023 35.1065C119.031 34.9892 118.964 34.8466 118.771 34.7041C118.503 34.503 118.126 34.3437 117.832 34.2347C117.539 34.1174 116.927 33.933 116.516 33.7653C116.122 33.5977 115.913 33.4887 115.754 33.3127C115.552 33.0863 115.133 32.3152 114.89 31.8793C114.647 31.4518 113.935 30.1189 113.759 29.7585C113.583 29.3981 113.49 29.1885 113.465 28.9706C113.44 28.7526 113.423 27.973 113.348 27.7635C113.272 27.5623 113.046 27.2018 112.904 27.0929C112.761 26.9755 112.711 26.9671 112.652 26.9252C112.585 26.8917 112.375 26.8246 112.375 26.8246C112.375 26.8246 112.35 26.548 112.35 26.481C112.35 26.4139 112.325 26.3301 112.325 26.3301" fill="white"/>
<path fill-rule="evenodd" clip-rule="evenodd" d="M112.149 30.505C112.149 30.505 112.501 31.1002 112.626 31.3014C112.752 31.5026 113.087 31.9384 113.247 32.2654C113.414 32.5923 113.917 33.4305 114.06 33.7071C114.194 33.9838 114.378 34.2352 114.353 34.5286C114.328 34.822 114.085 35.1657 114.009 35.2998C113.934 35.4423 113.917 35.5932 113.741 35.7273C113.565 35.8698 113.289 35.9201 113.289 35.9201C113.289 35.9201 113.465 35.7441 113.481 35.5764C113.49 35.4088 113.356 35.1741 113.263 35.0567C113.18 34.9477 112.97 34.7382 112.744 34.6292C112.517 34.5202 112.056 34.2771 112.006 34.1346C111.956 33.9921 111.939 33.8413 112.056 33.5646C112.207 33.1958 112.182 32.827 112.123 32.542C112.056 32.2486 112.006 32.1564 111.956 32.0558C111.905 31.9552 111.788 31.8881 111.788 31.8881C111.788 31.8881 111.964 31.2427 112.006 31.0751L112.149 30.4883V30.505Z" fill="white"/>
<path fill-rule="evenodd" clip-rule="evenodd" d="M98.6607 43.9905C98.6607 43.9905 99.5074 43.6803 99.9013 43.4959C100.295 43.3199 101.058 42.993 101.553 42.7583C102.072 42.5152 103.43 41.7691 104.017 41.4003C104.596 41.0315 105.35 40.5118 105.953 40.0088C106.565 39.4975 107.538 38.6006 107.932 38.2233C108.326 37.8461 109.256 36.7564 109.533 36.3457C109.809 35.9433 110.296 35.1805 110.296 35.1805L111.36 35.717C111.821 35.9433 112.316 36.1613 112.643 36.2116C112.97 36.2619 113.188 36.2954 113.514 36.2786C113.841 36.2535 113.975 36.1864 114.152 35.9852C114.328 35.784 114.529 35.4236 114.604 35.2392C114.68 35.0548 114.797 34.7949 114.797 34.7949C114.797 34.7949 115.199 34.9793 115.459 35.0715L116.683 35.4991C117.01 35.608 117.496 35.7002 117.681 35.8427C117.873 35.9852 117.924 36.0858 117.907 36.2199C117.89 36.3624 117.756 36.7061 117.63 36.9576C117.504 37.2175 117.018 38.2233 116.834 38.567C116.641 38.9107 115.87 40.1597 115.476 40.7213C115.082 41.2746 113.825 42.8505 113.355 43.2947C112.886 43.739 112.316 44.3174 111.972 44.5018C111.628 44.6778 111.084 44.7784 110.715 45.0131L108.787 46.2202C108.284 46.5387 107.555 46.9662 107.035 47.2345C106.515 47.5027 105.224 48.1482 104.83 48.341C104.436 48.5338 103.9 48.7601 103.648 48.8774C103.397 48.9864 103.187 49.0954 102.986 49.0786C102.785 49.0619 102.642 48.9277 102.559 48.7601C102.475 48.5924 101.846 47.5279 101.62 47.1087C101.393 46.6896 100.522 45.2059 100.354 44.9377C100.178 44.6611 100.103 44.5186 99.7085 44.3677C99.4487 44.2671 99.3649 44.2252 99.2391 44.2252C99.1134 44.2252 99.0296 44.242 98.8451 44.1833C98.7194 44.1414 98.6523 43.9905 98.6523 43.9905" fill="white"/>
<path fill-rule="evenodd" clip-rule="evenodd" d="M95.7531 44.8209C95.7531 44.8209 96.4488 44.6449 96.7925 44.5275C97.1362 44.4102 97.5134 44.2761 97.7565 44.2258C97.9996 44.1755 98.1002 44.1671 98.2259 44.2928C98.3517 44.4186 98.469 44.6617 98.5277 44.8377C98.5864 45.0137 99.2989 46.246 99.542 46.6651C99.7851 47.0842 100.456 48.2494 100.657 48.6182C100.858 48.987 101.579 50.1522 101.738 50.412C101.889 50.6635 102.065 51.0072 102.191 51.2084C102.317 51.4095 102.518 51.879 102.61 52.0718C102.694 52.2646 102.778 52.4154 102.711 52.5747C102.652 52.7424 102.224 53.4884 102.141 53.6812C102.048 53.874 101.654 54.5697 101.654 54.5697C101.654 54.5697 101.612 53.9997 101.512 53.7147C101.411 53.4381 101.294 53.2621 101.093 53.1196C100.892 52.9771 100.498 52.8932 100.347 52.7759C100.196 52.6585 100.053 52.5579 99.8689 52.1807C99.6761 51.8035 99.1648 50.4288 98.9887 49.9845C98.7959 49.5067 98.1672 47.9057 97.9493 47.3692C97.7314 46.8327 97.3793 45.9274 97.2116 45.7095C97.044 45.4915 96.6165 45.1814 96.474 45.1646C96.3315 45.1562 96.1471 45.1143 96.0968 45.1227C96.0465 45.1311 95.8788 45.1478 95.8788 45.1478L95.7363 44.8126L95.7531 44.8209Z" fill="white"/>
<path fill-rule="evenodd" clip-rule="evenodd" d="M118.468 36.0948C118.468 36.0948 118.778 36.1199 118.938 36.0445C119.089 35.969 119.457 35.6924 119.7 35.4577C119.944 35.2314 120.22 34.9296 120.312 34.7704C120.396 34.6195 120.438 34.5859 120.438 34.5859C120.438 34.5859 120.564 34.6195 120.564 34.7117C120.564 34.8039 120.312 35.6337 120.229 35.8517C120.153 36.0696 119.893 36.7821 119.709 37.1594C119.533 37.5449 118.963 38.643 118.753 39.0119C118.552 39.3807 117.63 40.8392 117.244 41.359C116.867 41.8787 115.71 43.2953 115.358 43.6977C115.006 44.0916 113.598 45.458 113.254 45.7933C112.911 46.1202 110.429 47.7548 109.943 48.0482C109.457 48.3415 107.873 49.2636 107.504 49.4648C107.135 49.666 106.02 50.2025 105.643 50.3869C105.258 50.5797 104.268 51.0407 104.034 51.0994C103.791 51.1497 103.514 51.0994 103.296 51.0742C103.078 51.0491 102.977 51.0491 102.902 51.0491C102.827 51.0491 102.542 51.091 102.542 51.091L102.433 50.8982C102.433 50.8982 103.355 50.5294 103.824 50.303C104.294 50.0767 106.314 49.1295 106.884 48.8026C107.454 48.4757 108.644 47.8051 109.256 47.3943C109.868 46.9836 111.326 45.9274 111.854 45.458C112.383 44.9886 113.908 43.5049 114.176 43.178C114.445 42.851 115.66 41.7194 115.937 41.426C116.213 41.1326 116.716 40.6716 117.052 40.1854C117.42 39.6322 118.225 38.3329 118.393 37.9389C118.552 37.5533 118.745 37.2516 118.711 37.0923C118.678 36.9246 118.661 36.7738 118.611 36.7486C118.56 36.7235 118.275 36.648 118.275 36.648L118.393 36.3043C118.426 36.187 118.46 36.1032 118.46 36.1032" fill="white"/>
<path fill-rule="evenodd" clip-rule="evenodd" d="M93.0029 45.3411C93.0029 45.3411 93.2963 45.3578 93.5646 45.2656C93.8328 45.1734 94.4363 44.9219 94.6962 44.8968C94.9476 44.8716 95.3332 44.8716 95.3919 44.9722C95.4506 45.0728 95.5428 45.3243 95.6602 45.6428C95.7775 45.9614 96.5236 47.8642 96.6996 48.3671C96.8756 48.8784 97.7139 50.8902 97.8648 51.3094C98.0156 51.7285 98.4096 52.6589 98.4599 52.8433C98.5102 53.0361 98.6862 53.5391 98.6527 53.69C98.6108 53.8409 98.309 54.3103 98.133 54.5785C97.957 54.8468 97.3367 55.685 97.3367 55.685C97.3367 55.685 97.3031 55.3497 97.3618 55.2575C97.4205 55.1569 97.4875 54.939 97.454 54.83C97.4121 54.7126 97.278 54.3606 97.0852 54.2097C96.8924 54.0588 96.5403 53.9331 96.3475 53.757C96.1631 53.5726 96.0709 53.5307 95.9284 52.9691C95.7859 52.4158 95.4338 50.9154 95.3165 50.4711C95.1991 50.0268 94.7465 47.9229 94.6291 47.5037C94.5118 47.0846 94.4112 46.5314 94.2435 46.3134C94.0759 46.0955 93.7406 45.7937 93.5981 45.7686C93.4556 45.7434 93.2963 45.7602 93.246 45.7602C93.1957 45.7602 93.1035 45.7686 93.1035 45.7686L93.0029 45.3494V45.3411Z" fill="white"/>
<path fill-rule="evenodd" clip-rule="evenodd" d="M90.3711 45.5768C90.3711 45.5768 90.8657 45.5265 91.0584 45.4762C91.2512 45.4176 91.771 45.3086 92.0727 45.3086C92.3745 45.3086 92.6679 45.384 92.7182 45.5768C92.7685 45.7696 92.8439 46.3145 92.8858 46.5576C92.9277 46.8007 93.4726 49.131 93.5313 49.4747C93.5899 49.8183 94.227 52.3247 94.2941 52.6935C94.3528 53.0624 94.5707 53.9341 94.5623 54.1437C94.5539 54.3449 94.5791 54.5209 94.5372 54.588C94.4953 54.655 94.118 55.1412 93.9252 55.334C93.7324 55.5268 93.0619 56.3734 93.0619 56.3734C93.0619 56.3734 93.0032 56.1303 93.087 56.013C93.1708 55.904 93.3636 55.7364 93.3385 55.5436C93.3133 55.3508 93.1373 54.9987 92.9696 54.8478C92.802 54.6969 92.4416 54.5041 92.2739 54.3281C92.1063 54.1521 92.0224 54.0096 91.9805 53.5905C91.9386 53.1713 91.7793 50.9668 91.729 50.2459C91.6788 49.525 91.5279 47.5048 91.4776 47.203C91.4273 46.9013 91.377 46.6079 91.1758 46.4067C90.9746 46.2055 90.7651 46.1049 90.6393 46.063C90.5136 46.0295 90.3878 46.0127 90.3878 46.0127V45.5852L90.3711 45.5768Z" fill="white"/>
<path fill-rule="evenodd" clip-rule="evenodd" d="M87.6295 45.6097C87.6295 45.6097 88.1324 45.618 88.2498 45.5845C88.3587 45.551 88.8617 45.4839 89.2138 45.5007C89.5742 45.5175 89.9514 45.6013 89.9766 45.7941C90.0017 45.9869 90.0185 46.6072 90.0269 46.9844C90.0436 47.37 90.1945 49.3315 90.2029 49.65C90.2196 49.9685 90.3789 52.1564 90.4208 52.6928C90.4627 53.2209 90.5382 54.252 90.5214 54.4531C90.513 54.6543 90.513 54.9142 90.513 54.9142C90.513 54.9142 89.9263 55.5261 89.7419 55.6854C89.5491 55.853 88.8701 56.4314 88.8701 56.4314C88.8701 56.4314 88.9707 56.138 89.0713 56.0123C89.1718 55.8865 89.2641 55.6854 89.1886 55.5596C89.1132 55.4339 88.5935 54.889 88.4258 54.7549C88.2582 54.6292 88.0486 54.3526 88.0234 54.0843C87.9983 53.8161 88.124 52.0558 88.1995 51.3181C88.2749 50.5805 88.3755 48.9207 88.4258 48.3507C88.4761 47.7807 88.5515 47.0934 88.4509 46.8503C88.3504 46.6072 88.1576 46.3222 88.0067 46.2383C87.8558 46.1629 87.6211 46.121 87.6211 46.121L87.6378 45.6013L87.6295 45.6097Z" fill="white"/>
<path fill-rule="evenodd" clip-rule="evenodd" d="M84.914 45.441C84.914 45.441 85.2829 45.441 85.4589 45.4326C85.6349 45.4159 85.8026 45.3823 86.096 45.3991C86.3893 45.4075 86.6157 45.3991 86.8336 45.4745C87.0516 45.55 87.2192 45.6673 87.1941 46.0194C87.1689 46.3715 87.0767 47.6288 87.0432 47.9809C87.0013 48.333 86.7917 50.898 86.7917 51.1411C86.7917 51.3842 86.7163 52.499 86.6911 52.8679C86.6744 53.1529 86.5654 53.8402 86.5402 54.1085C86.5151 54.3767 86.3726 54.821 86.3726 54.8713C86.3726 54.9216 86.3307 55.0054 86.3307 55.0054C86.3307 55.0054 85.8613 55.391 85.6936 55.4664C85.526 55.5419 85.5259 55.3826 85.4254 55.2736C85.3248 55.173 85.1823 55.1563 84.9392 55.0389C84.6961 54.9299 84.3273 54.5695 84.168 54.318C84.0003 54.0666 83.95 53.8067 84.0506 53.396C84.1512 52.9768 84.5033 51.5267 84.6206 51.0153C84.7296 50.4956 85.0733 49.0538 85.1906 48.5425C85.308 48.0312 85.5092 47.2349 85.5092 46.9582C85.5092 46.6816 85.417 46.4134 85.2661 46.2709C85.1152 46.1284 85.0901 46.1032 84.9895 46.0697C84.8889 46.0362 84.7883 46.0026 84.7883 46.0026L84.914 45.4494V45.441Z" fill="white"/>
<path fill-rule="evenodd" clip-rule="evenodd" d="M82.1644 44.9805C82.1644 44.9805 82.5332 45.0224 82.7092 45.0224C82.8853 45.0224 83.1954 44.9805 83.5307 45.0559C83.8744 45.1313 84.2768 45.1984 84.327 45.3493C84.3773 45.5002 84.4528 45.6678 84.369 45.9947C84.2851 46.3217 83.6816 48.7945 83.5894 49.2136C83.4888 49.6327 83.0278 51.5942 82.9523 51.9295C82.8769 52.2564 82.6254 53.3881 82.55 53.6395C82.4745 53.891 82.3236 54.3772 82.2985 54.4275C82.2733 54.4778 81.9045 54.6706 81.8123 54.7041C81.7285 54.746 81.5944 54.8047 81.5944 54.8047C81.5944 54.8047 81.7369 54.6035 81.6866 54.4778C81.6363 54.352 81.4938 54.2096 81.301 54.2096C81.1082 54.2096 80.8986 54.3604 80.7477 54.3101C80.5969 54.2598 80.3538 54.1593 80.1777 53.7401C80.0017 53.321 79.9849 53.2623 80.052 52.9438C80.1191 52.6253 80.907 50.7476 81.0663 50.3033C81.2339 49.8591 81.938 48.0233 82.1225 47.579C82.2985 47.1348 82.5416 46.548 82.5248 46.3803C82.5081 46.1959 82.3739 45.9109 82.2817 45.8187C82.1895 45.7265 82.0638 45.6762 82.0135 45.693C81.9632 45.7097 81.9045 45.6595 81.9045 45.6595L82.1728 44.9889L82.1644 44.9805Z" fill="white"/>
<path fill-rule="evenodd" clip-rule="evenodd" d="M79.4566 44.2525C79.4566 44.2525 79.7249 44.3363 79.9931 44.3363C80.2613 44.3363 80.538 44.328 80.8397 44.4118C81.1415 44.4956 81.5522 44.7387 81.6109 44.9063C81.6696 45.074 81.5187 45.3842 81.3427 45.7781C81.1666 46.1721 80.3452 48.3599 80.1524 48.8377C79.9596 49.3071 79.1213 51.4111 79.0124 51.7045C78.895 51.9979 78.5262 52.8865 78.4172 53.1128C78.3082 53.3391 78.216 53.5654 78.216 53.5654L77.7466 53.7079C77.7466 53.7079 77.8723 53.5151 77.7969 53.4062C77.7215 53.2888 77.4784 53.0541 77.3442 53.0373C77.2101 53.0206 77.0173 53.0625 76.8497 53.1212C76.6485 53.1966 76.4054 53.1966 76.3216 53.0373C76.2294 52.8697 75.9779 52.4003 75.9528 52.2913C75.9276 52.1823 75.8354 52.0147 75.9695 51.7716C76.0953 51.5285 76.9167 50.0113 77.0928 49.7263C77.2688 49.4496 78.2328 47.8235 78.4507 47.4295C78.6687 47.0355 79.1968 46.1386 79.3057 45.9374C79.4063 45.7362 79.4734 45.5686 79.3979 45.4177C79.3225 45.2668 79.3225 45.1914 79.2303 45.1494C79.1381 45.1075 78.9872 45.0824 78.9872 45.0824L79.465 44.2441L79.4566 44.2525Z" fill="white"/>
<path fill-rule="evenodd" clip-rule="evenodd" d="M89.2389 38.6945H89.0293C86.2547 38.6945 83.1113 37.915 83.1113 33.4471C83.1113 28.9793 86.2044 28.074 89.1299 28.0488C91.9297 28.074 94.9054 29.0966 94.9054 33.4471C94.9054 37.3785 92.156 38.6945 89.2473 38.6945" fill="#231F20"/>
<path fill-rule="evenodd" clip-rule="evenodd" d="M88.6777 45.0906C75.4418 45.0906 65.4248 36.9261 65.4248 27.6634C65.4248 18.4008 75.4335 10.2363 88.6777 10.2363C101.922 10.2363 111.931 18.3924 111.931 27.6634C111.931 36.9344 101.922 45.0906 88.6777 45.0906Z" fill="white"/>
<path fill-rule="evenodd" clip-rule="evenodd" d="M88.6441 16.4961C91.8462 16.5212 94.0005 17.8205 94.0005 21.3663C94.0005 24.9121 91.7456 26.2617 88.6441 26.2868C85.6767 26.27 83.2793 25.2055 83.2793 21.3663C83.2793 17.963 85.7102 16.5212 88.6441 16.4961Z" fill="#231F20"/>
<path fill-rule="evenodd" clip-rule="evenodd" d="M97.6976 26.7826C100.883 24.972 101.545 23.1446 101.302 20.9987C100.866 17.126 95.5601 14.3514 88.5356 14.4436C80.0777 14.5442 74.9561 18.7774 74.9561 19.8838C74.9561 20.9903 76.6326 21.2753 76.6326 21.8705V33.5305C76.6493 34.2514 75.0566 35.0561 75.0566 35.8608C75.0566 36.6655 80.5052 40.7142 89.5248 40.664C97.4462 40.622 101.998 37.3026 102.04 33.3209C102.065 31.1666 100.816 28.2747 97.706 26.8329V26.7826H97.6976Z" fill="#231F20"/>
<path fill-rule="evenodd" clip-rule="evenodd" d="M88.6858 11.0469C102.073 11.0469 111.176 19.3958 111.176 27.7112C111.176 36.0266 102.073 44.3839 88.6858 44.3839C75.2991 44.3839 66.2041 36.035 66.2041 27.7112C66.2041 19.3874 75.3074 11.0469 88.6858 11.0469Z" fill="#231F20"/>
<path fill-rule="evenodd" clip-rule="evenodd" d="M88.6442 16.4972C91.8463 16.5223 94.0006 17.8216 94.0006 21.3674C94.0006 24.9132 91.7457 26.2627 88.6442 26.2879C85.6768 26.2711 83.2794 25.2066 83.2794 21.3674C83.2794 17.9641 85.7103 16.5223 88.6442 16.4972ZM97.6972 26.7825C100.883 24.9718 101.545 23.1445 101.302 20.9986C100.866 17.1259 95.5597 14.3597 88.5268 14.4351C80.0689 14.5357 74.9473 18.7772 74.9473 19.8837C74.9473 20.9902 76.6238 21.2752 76.6238 21.8703V33.5303C76.6405 34.2512 75.0479 35.0559 75.0479 35.8607C75.0479 36.6654 80.4964 40.7141 89.516 40.6638C97.4374 40.6219 101.989 37.3024 102.031 33.3208C102.056 31.1749 100.807 28.2745 97.6972 26.8327V26.7825ZM89.2393 38.6939H89.0298C86.2552 38.6939 83.1118 37.9144 83.1118 33.4465C83.1118 28.9787 86.2049 28.0734 89.1304 28.0482C91.9301 28.0734 94.9059 29.096 94.9059 33.4465C94.9059 37.3779 92.1564 38.6939 89.2477 38.6939" fill="white"/>
</svg>
