<svg width="277" height="75" viewBox="0 0 277 75" fill="none" xmlns="http://www.w3.org/2000/svg">
<path d="M277 63.002H99.984V0H99.1299V63.002H0V63.8561H99.1299V74.9009H99.984V63.8561H277" fill="#010101"/>
<path d="M46.891 54.2362H47.148C48.284 54.2362 49.3288 53.6972 49.3288 52.072C49.3288 50.2395 47.9275 49.6922 46.609 49.6922H45.6306V53.2992C45.6306 54.0786 45.755 54.2362 46.8993 54.2362M49.0303 46.8232C49.0303 45.6375 48.3669 44.8497 46.7251 44.8497H45.6223V47.785C45.6223 48.805 45.6555 48.8796 46.7251 48.8796H46.8827C48.3421 48.8796 49.0303 48.0421 49.0303 46.8149M50.6389 46.6159C50.6389 48.0421 49.76 48.8796 48.6903 49.2693C49.8761 49.5098 50.9706 50.3058 50.9706 51.8896C50.9706 53.4733 50.0999 55.0405 47.0568 55.0405H44.0137V44.0371H47.1231C49.3122 44.0371 50.6389 44.8829 50.6389 46.6076" fill="#010101"/>
<path d="M64.4865 53.8713C63.8314 54.7917 62.6623 55.2644 61.1697 55.2644C59.6772 55.2644 58.6075 54.8083 57.9442 53.9211C57.4715 53.2909 57.3223 52.5778 57.3223 51.7403V44.0371H58.8646V51.9061C58.8646 53.2577 59.6274 54.2445 61.1863 54.2445C62.7452 54.2445 63.5495 53.2577 63.5495 51.9061V44.0371H65.0752V51.7403C65.0752 52.5529 64.9094 53.2743 64.4865 53.863" fill="#010101"/>
<path d="M88.5573 53.0436C88.5573 56.2111 87.952 57.2974 84.6104 57.8944V57.43C86.7994 56.5511 86.9487 55.3902 86.9487 53.2675V45.415C86.9487 44.7185 86.6916 44.5195 85.8293 44.5195H85.539V44.0469H88.5656" fill="#010101"/>
<path d="M73.425 44.8512V49.6439C76.5594 49.4449 77.1481 48.3338 77.1481 46.9988C77.1481 45.6638 76.2609 44.8429 74.4035 44.8429H73.425V44.8512ZM76.1448 50.0171C76.6257 50.6141 77.0072 51.294 77.4217 51.9325C78.0602 52.9109 79.5942 55.0503 79.5942 55.0503H77.6042L75.1829 51.2857C74.7517 50.6141 74.3371 50.4482 73.425 50.4482V55.0503H71.8164V44.0469H74.7435C75.7551 44.0469 78.7982 44.1464 78.7982 46.9159C78.7982 48.4416 77.8944 49.4698 76.1365 50.0171" fill="#010101"/>
<path d="M143.177 49.8335C143.5 50.7622 145.068 55.0657 145.068 55.0657H143.326L142.389 52.2382C142.132 51.467 142.049 51.3841 140.971 51.3841H138.658C138.401 51.3841 138.343 51.4338 138.293 51.5914L137.107 55.0657H136.129L140.026 43.8965H141.112L143.185 49.8335H143.177ZM138.641 50.5798H140.482C141.651 50.5798 141.767 50.4139 141.544 49.7672L140.233 45.928" fill="#010101"/>
<path d="M186.983 49.8335C187.306 50.7622 188.873 55.0657 188.873 55.0657H187.132L186.195 52.2382C185.946 51.467 185.855 51.3841 184.785 51.3841H182.472C182.207 51.3841 182.157 51.4338 182.107 51.5914L180.913 55.0657H179.935L183.832 43.8965H184.918L186.991 49.8335H186.983ZM182.447 50.5798H184.288C185.465 50.5798 185.581 50.4139 185.357 49.7672L184.039 45.928" fill="#010101"/>
<path d="M163.65 44.0801H162.041V55.0586H163.65V44.0801Z" fill="#010101"/>
<path d="M118.756 55.2311L113.441 49.236L118.474 43.9043H116.916L112.189 49.0038V44.0784H110.572V55.0569H112.189V49.5843L117.081 55.2311" fill="#010101"/>
<path d="M152.257 53.9894V44.0723H150.656V55.0591H157.655V53.9894" fill="#010101"/>
<path d="M173.517 48.9718C172.547 48.947 172.53 48.7397 172.53 47.7944V44.7595H177.589V44.0879H170.905V55.0664H172.539V49.6601H177.589V48.9801C173.55 48.9801 173.534 48.9801 173.517 48.9801" fill="#010101"/>
<path d="M125.274 55.0591V49.6113H129.536V55.0591H131.161V44.0723H129.536V48.5416H125.274V44.0723H123.657V55.0591" fill="#010101"/>
</svg>
