<svg width="174" height="49" viewBox="0 0 174 49" fill="none" xmlns="http://www.w3.org/2000/svg">
<path d="M34.7399 48.71V39.5474H37.4713C38.8701 39.5474 40.4179 40.0523 40.4179 41.8898C40.4179 42.8499 39.7723 43.6362 38.8039 43.8597V43.8845C39.9958 44.017 40.8731 44.8447 40.8731 46.1773C40.8731 47.7002 39.5654 48.71 37.4547 48.71H34.7399ZM35.6669 43.5617H37.5458C38.4397 43.5617 39.4826 43.1727 39.4826 41.956C39.4826 40.7393 38.4893 40.3503 37.2809 40.3503H35.6669V43.5617ZM35.6669 47.9071H37.3968C38.7459 47.9071 39.9213 47.4022 39.9213 46.1193C39.9213 44.9191 39.0522 44.3232 37.5706 44.3232H35.6669V47.9071ZM44.5978 45.2999V39.5557H45.5331V45.2006C45.5331 46.6739 46.1704 48.1223 48.0327 48.1223C49.895 48.1223 50.5323 46.6739 50.5323 45.2006V39.5557H51.4676V45.2999C51.4676 46.8229 50.7807 48.95 48.041 48.95C45.3013 48.95 44.6143 46.8311 44.6143 45.2999H44.5978ZM55.6558 48.71V39.5474H58.3458C60.1585 39.5474 61.4745 40.2096 61.4745 41.9891C61.4745 43.3465 60.4647 44.1991 59.1321 44.3398L61.8139 48.7017H60.6716L58.1389 44.4225H56.5828V48.7017H55.6475L55.6558 48.71ZM56.5828 43.6279H58.1968C59.6867 43.6279 60.5392 43.0817 60.5392 41.9974C60.5392 40.7972 59.6205 40.3503 58.2382 40.3503H56.5828V43.6197V43.6279ZM64.3466 47.0794L65.2157 46.8477C65.3564 47.5595 65.8861 48.1306 66.7056 48.1306C67.9885 48.1306 68.3196 47.1126 68.3196 46.0117V39.5557H69.2549V46.0779C69.2549 47.2698 68.8162 48.95 66.8132 48.95C65.4971 48.95 64.5784 48.172 64.3549 47.0877L64.3466 47.0794ZM81.4634 39.5557L85.395 48.7183H84.3603L83.3506 46.3097H78.6161L77.6229 48.7183H76.5965L80.5529 39.5557H81.4551H81.4634ZM78.972 45.4489H83.0112L80.9916 40.5737L78.972 45.4489ZM88.5982 48.71V39.5474H89.5335V47.8823H93.8044V48.71H88.6064H88.5982ZM105.053 39.5557L108.984 48.7183H107.95L106.94 46.3097H102.206L101.212 48.7183H100.194L104.151 39.5557H105.053ZM102.553 45.4489H106.592L104.573 40.5737L102.553 45.4489ZM112.179 48.71V39.5474H114.869C116.682 39.5474 117.998 40.2096 117.998 41.9891C117.998 43.3465 116.988 44.1991 115.656 44.3398L118.337 48.7017H117.195L114.662 44.4225H113.106V48.7017H112.171L112.179 48.71ZM113.115 43.6279H114.729C116.218 43.6279 117.071 43.0817 117.071 41.9974C117.071 40.7972 116.152 40.3503 114.77 40.3503H113.115V43.6197V43.6279ZM126.002 39.5557L129.933 48.7183H128.899L127.889 46.3097H123.155L122.161 48.7183H121.143L125.1 39.5557H126.002ZM123.502 45.4489H127.541L125.522 40.5737L123.502 45.4489ZM133.128 48.71V39.5474H135.86C137.259 39.5474 138.806 40.0523 138.806 41.8898C138.806 42.8499 138.161 43.6362 137.192 43.8597V43.8845C138.384 44.017 139.262 44.8447 139.262 46.1773C139.262 47.7002 137.954 48.71 135.843 48.71H133.128ZM134.064 43.5617H135.942C136.836 43.5617 137.879 43.1727 137.879 41.956C137.879 40.7393 136.886 40.3503 135.678 40.3503H134.064V43.5617ZM134.064 47.9071H135.793C137.143 47.9071 138.318 47.4022 138.318 46.1193C138.318 44.9191 137.449 44.3232 135.967 44.3232H134.064V47.9071ZM86.7193 18.1514L86.4627 24.3095C86.4462 24.6902 86.3137 24.9799 85.933 24.9799H69.3128C69.1638 24.9799 69.0728 24.9054 69.0728 24.773C69.0728 24.6654 69.1224 24.5992 69.2714 24.5495C70.5212 24.1439 70.9351 23.7549 70.9351 22.3064V6.83678C70.9351 5.38831 70.5212 4.99929 69.2714 4.59372C69.1224 4.54406 69.0728 4.47784 69.0728 4.37024C69.0728 4.23781 69.1638 4.16332 69.3128 4.16332H84.8404C85.2046 4.16332 85.337 4.43646 85.3701 4.80064C85.4943 6.14979 85.7674 9.2371 85.8419 10.0979C85.8502 10.2221 85.7592 10.3214 85.635 10.3214C85.5522 10.3214 85.4695 10.2717 85.4446 10.189C83.9382 6.37327 82.7215 4.97446 81.0661 4.97446H73.5589V13.508H79.7004C81.8276 13.508 82.2001 12.1009 82.3822 11.0415C82.4153 10.8759 82.4898 10.818 82.6139 10.818C82.7298 10.818 82.8208 10.8842 82.8208 11.0415V16.7195C82.8208 16.8768 82.7298 16.943 82.6139 16.943C82.4898 16.943 82.4153 16.885 82.3822 16.7195C82.2001 15.66 81.8276 14.3109 79.7004 14.3109H73.5589V24.1688H81.9269C83.9051 24.1688 84.9977 22.9355 86.322 18.0852C86.3468 17.9941 86.4296 17.9362 86.5206 17.9362C86.6365 17.9362 86.7276 18.0355 86.7276 18.1514H86.7193ZM35.013 4.16332H29.7902C29.6495 4.16332 29.575 4.23781 29.575 4.36196C29.575 4.4944 29.6413 4.55233 29.7737 4.59372C30.8828 4.94963 31.9257 5.31381 31.9257 6.83678V17.1582C31.9257 21.7436 29.244 24.2764 25.4531 24.2764C21.4305 24.2764 19.6923 21.5615 19.6923 17.0671V6.83678C19.6923 5.38831 20.1062 4.99929 21.356 4.59372C21.505 4.54406 21.5547 4.47784 21.5547 4.37024C21.5547 4.23781 21.4636 4.16332 21.3146 4.16332H15.4462C15.2973 4.16332 15.2062 4.23781 15.2062 4.37024C15.2062 4.47784 15.2559 4.54406 15.4049 4.59372C16.6547 4.99929 17.0685 5.38831 17.0685 6.83678V17.1582C17.0685 22.4968 19.9986 25.3275 25.2296 25.3275C29.5419 25.3275 32.8858 22.4389 32.8858 17.2161V6.83678C32.8858 5.42141 33.8046 4.99101 35.0378 4.59372C35.1786 4.54406 35.2282 4.47784 35.2282 4.36196C35.2282 4.23781 35.1454 4.16332 35.0213 4.16332H35.013ZM63.6514 4.59372C63.8003 4.54406 63.85 4.47784 63.85 4.37024C63.85 4.23781 63.759 4.16332 63.61 4.16332H59.9102C59.1156 4.16332 58.8755 4.602 58.7348 4.9248L51.898 20.9076L46.1952 8.30181C45.2351 6.1829 44.366 4.16332 40.8979 4.16332H39.3833C39.2591 4.16332 39.1515 4.26264 39.1515 4.38679C39.1515 4.50267 39.2426 4.60199 39.3584 4.61855C41.0718 4.89169 41.2952 5.33037 41.2952 6.26567V22.3064C41.2952 23.7218 40.2606 24.1522 39.0273 24.5495C38.8866 24.5992 38.837 24.6654 38.837 24.7813C38.837 24.9054 38.9197 24.9799 39.0439 24.9799H44.4984C44.6391 24.9799 44.7136 24.9054 44.7136 24.7813C44.7136 24.6488 44.6474 24.5909 44.515 24.5495C43.4059 24.1936 42.2471 23.8294 42.2471 22.3064V6.32361L49.6053 22.5961C49.6881 22.7865 49.8205 22.9024 50.0192 22.9024H51.7408C51.9477 22.9024 52.0801 22.7782 52.1629 22.5879L59.3556 5.85182V22.3064C59.3556 23.7549 58.9418 24.1439 57.6919 24.5495C57.5429 24.5992 57.4933 24.6654 57.4933 24.773C57.4933 24.9054 57.5843 24.9799 57.7333 24.9799H63.6017C63.7507 24.9799 63.8417 24.9054 63.8417 24.773C63.8417 24.6654 63.7921 24.5992 63.6431 24.5495C62.3933 24.1439 61.9794 23.7549 61.9794 22.3064V6.83678C61.9794 5.38831 62.3933 4.99929 63.6431 4.59372H63.6514ZM10.2649 0H4.39648C4.2475 0 4.15645 0.0744928 4.15645 0.206924C4.15645 0.314525 4.20611 0.380738 4.3551 0.4304C5.60492 0.835972 6.01877 1.22499 6.01877 2.67346V24.1439C6.01877 28.8866 2.27757 31.4939 0.117283 32.843C0.00968264 32.9093 -0.0317028 33.05 0.0262361 33.1658C0.0924519 33.29 0.24144 33.3479 0.365595 33.2817C2.58382 32.0981 8.64257 28.9446 8.64257 20.6676V2.68174C8.64257 1.23327 9.05642 0.844251 10.3062 0.438679C10.4552 0.389017 10.5049 0.322798 10.5049 0.215197C10.5049 0.0827652 10.4138 0.00827243 10.2649 0.00827243V0ZM150.7 24.7647C150.7 24.8806 150.609 24.9799 150.485 24.9799H143.88C143.764 24.9799 143.665 24.8971 143.665 24.773C143.665 24.6406 143.748 24.5661 143.872 24.5495C144.964 24.4088 145.535 24.0529 145.535 23.3245C145.535 23.0514 145.386 22.6458 145.146 22.0995C144.658 20.9987 143.897 19.2854 143.897 19.2854H133.36C133.36 19.2854 132.565 21.0649 132.375 21.5036C132.135 22.0416 131.986 22.5299 131.986 22.9024C131.986 23.788 132.607 24.3012 134.419 24.5495C134.552 24.5661 134.626 24.6323 134.626 24.773C134.626 24.8971 134.552 24.9799 134.403 24.9799H127.591C127.467 24.9799 127.368 24.8806 127.368 24.7564C127.368 24.6323 127.467 24.5412 127.583 24.533C129.271 24.4502 130.546 23.3494 131.44 21.3463L138.07 6.44777L137.722 5.58696C137.457 4.93308 137.201 4.7427 136.828 4.59372C136.712 4.54406 136.629 4.50267 136.629 4.36196C136.629 4.24609 136.704 4.16332 136.828 4.16332H138.384C139.742 4.16332 140.189 4.82547 140.66 5.86009L148.035 22.1492C148.788 23.8129 149.649 24.4088 150.518 24.5412C150.642 24.5578 150.717 24.6323 150.717 24.7647H150.7ZM143.499 18.4163L138.608 7.44928L133.733 18.4163H143.499ZM173.801 24.5495C172.552 24.1439 172.138 23.7549 172.138 22.3064V6.83678C172.138 5.38831 172.552 4.99929 173.801 4.59372C173.95 4.54406 174 4.47784 174 4.37024C174 4.23781 173.909 4.16332 173.76 4.16332H167.892C167.743 4.16332 167.652 4.23781 167.652 4.37024C167.652 4.47784 167.701 4.54406 167.85 4.59372C169.1 4.99929 169.514 5.38831 169.514 6.83678V13.9467H158.34V6.83678C158.34 5.38831 158.754 4.99929 160.004 4.59372C160.153 4.54406 160.202 4.47784 160.202 4.37024C160.202 4.23781 160.111 4.16332 159.962 4.16332H154.094C153.945 4.16332 153.854 4.23781 153.854 4.37024C153.854 4.47784 153.903 4.54406 154.052 4.59372C155.302 4.99929 155.716 5.38831 155.716 6.83678V22.3064C155.716 23.7549 155.302 24.1439 154.052 24.5495C153.903 24.5992 153.854 24.6654 153.854 24.773C153.854 24.9054 153.945 24.9799 154.094 24.9799H159.962C160.111 24.9799 160.202 24.9054 160.202 24.773C160.202 24.6654 160.153 24.5992 160.004 24.5495C158.754 24.1439 158.34 23.7549 158.34 22.3064V14.8158H169.514V22.3064C169.514 23.7549 169.1 24.1439 167.85 24.5495C167.701 24.5992 167.652 24.6654 167.652 24.773C167.652 24.9054 167.743 24.9799 167.892 24.9799H173.76C173.909 24.9799 174 24.9054 174 24.773C174 24.6654 173.95 24.5992 173.801 24.5495ZM98.8947 4.59372C99.0437 4.54406 99.0934 4.47784 99.0934 4.37024C99.0934 4.23781 99.0023 4.16332 98.8533 4.16332H92.985C92.836 4.16332 92.7449 4.23781 92.7449 4.37024C92.7449 4.47784 92.7946 4.54406 92.9436 4.59372C94.1934 4.99929 94.6073 5.38831 94.6073 6.83678V22.3064C94.6073 23.7549 94.1934 24.1439 92.9436 24.5495C92.7946 24.5992 92.7449 24.6654 92.7449 24.773C92.7449 24.9054 92.836 24.9799 92.985 24.9799H98.8533C99.0023 24.9799 99.0934 24.9054 99.0934 24.773C99.0934 24.6654 99.0437 24.5992 98.8947 24.5495C97.6449 24.1439 97.2311 23.7549 97.2311 22.3064V6.83678C97.2311 5.38831 97.6449 4.99929 98.8947 4.59372ZM125.249 24.7564C125.249 24.8806 125.149 24.9799 125.025 24.9799H122.228C119.463 24.9799 117.957 24.0198 116.74 22.3809L111.906 15.9249H108.794V22.3064C108.794 23.7549 109.208 24.1439 110.458 24.5495C110.607 24.5992 110.656 24.6654 110.656 24.773C110.656 24.9054 110.565 24.9799 110.416 24.9799H104.548C104.399 24.9799 104.308 24.9054 104.308 24.773C104.308 24.6654 104.358 24.5992 104.507 24.5495C105.756 24.1439 106.17 23.7549 106.17 22.3064V6.83678C106.17 5.38831 105.756 4.99929 104.507 4.59372C104.358 4.54406 104.308 4.47784 104.308 4.37024C104.308 4.23781 104.399 4.16332 104.548 4.16332H113.222C116.276 4.16332 118.304 4.82548 119.554 6.05875C120.564 7.05198 121.118 8.44252 121.118 10.0482C121.118 11.654 120.564 13.0445 119.554 14.0378C118.304 15.271 116.276 15.9332 113.222 15.9332H113.048C114.447 17.7541 115.78 16.3387 117.683 18.6646C118.718 19.9227 120.249 21.7684 120.969 22.621C122.376 24.2764 123.949 24.4171 125.025 24.5495C125.141 24.5661 125.232 24.6488 125.232 24.773L125.249 24.7564ZM112.767 15.1138C114.729 15.1138 116.144 14.9399 116.963 14.1288C117.783 13.3177 118.246 12.2416 118.246 10.04C118.246 7.83829 117.816 6.7209 116.963 5.95114C116.111 5.18138 114.729 4.96619 112.767 4.96619H108.802V15.1138H112.767Z" fill="#231F20"/>
</svg>
