<svg width="218" height="34" viewBox="0 0 218 34" fill="none" xmlns="http://www.w3.org/2000/svg">
<path d="M186.524 10.2602C189.047 10.4418 189.643 11.0304 190.627 12.3675L192.704 15.6884C193.795 17.0618 194.705 17.7957 196.831 17.7957V18.2971H194.226C193.043 18.2971 190.793 18.4206 189.527 17.069L186.814 13.1378C185.863 11.9751 185.573 11.0377 182.405 11.0377H177.475V16.3424C177.475 17.2798 177.955 17.6431 178.823 17.6431H179.295V18.3116H172.073V17.6431H172.545C173.413 17.6431 173.885 17.287 173.885 16.3424V2.35403C173.885 1.41663 173.413 1.0533 172.545 1.0533H172.073V0.384766H184.117C191.107 0.384766 193.059 2.89903 193.059 5.31883C193.059 8.05837 190.594 9.67157 186.524 10.2602ZM177.475 1.84537V9.2283H182.893C187.178 9.2283 189.188 7.82583 189.188 5.49323C189.188 3.16063 187.228 1.84537 182.785 1.84537H177.475Z" fill="#010101"/>
<path d="M216.189 2.35403C216.189 1.41663 216.66 1.0533 217.529 1.0533H218V0.384766H210.771V1.0533H211.242C212.111 1.0533 212.582 1.40937 212.582 2.35403V16.3424C212.582 17.2798 212.111 17.6431 211.242 17.6431H210.771V18.3044H218V17.6431H217.529C216.66 17.6431 216.189 17.287 216.189 16.3424V2.35403Z" fill="#010101"/>
<path d="M12.8795 9.75205C17.3546 9.75205 19.2241 11.358 19.2241 13.2982C19.2241 15.1003 17.8592 16.3066 12.7637 16.3066H5.40161V9.75205H12.8712H12.8795ZM5.41815 1.96218H11.4236C15.9153 1.96218 17.4291 2.81965 17.4291 4.70171C17.4291 6.58378 16.1138 8.05891 11.2168 8.05891H5.40161L5.42643 1.96218H5.41815ZM1.81157 16.3429C1.81157 17.2803 1.34006 17.6436 0.471504 17.6436H0V18.3049H14.2857C19.9851 18.3049 23.2443 16.6845 23.2443 13.2473C23.2443 10.6677 21.3996 9.11985 16.8087 8.63298C19.0256 8.12431 20.9943 6.77271 20.9943 4.67265C20.9943 1.62791 17.5366 0.392578 12.9457 0.392578H0.00827218V1.06111H0.479776C1.34833 1.06111 1.81984 1.41718 1.81984 2.36184V16.3502L1.81157 16.3429Z" fill="#010101"/>
<path d="M76.8294 0.392578V1.06111H76.3579C75.4893 1.06111 75.0178 1.41718 75.0178 2.36184V16.3284H85.333C87.0287 16.2702 88.3688 15.4782 89.1381 14.4027L89.8495 14.6352L87.7401 18.3267L69.6162 18.3122V17.6509H70.0877C70.9563 17.6509 71.4278 17.2948 71.4278 16.3502V2.36184C71.4278 1.42444 70.9563 1.06111 70.0877 1.06111H69.6162V0.392578H76.8294Z" fill="#010101"/>
<path d="M58.011 0.392034V1.06057H57.5395C56.4807 1.06057 56.3566 1.54743 55.8934 2.30317L46.5543 18.3044H43.5598L34.1132 2.30317C33.65 1.54743 33.5259 1.0533 32.4588 1.0533H31.9873V0.384766H39.4735V1.04604H39.002C38.0093 1.04604 37.6205 1.64917 38.0755 2.4485L45.7188 15.3759L53.2546 2.4485C53.7095 1.64917 53.329 1.04604 52.3281 1.04604H51.8566V0.384766H58.0027L58.011 0.392034Z" fill="#010101"/>
<path d="M125.577 9.7882V10.4567H124.75C123.881 10.4567 123.41 10.8128 123.41 11.7575V15.0783C122.144 16.9459 118.074 18.9297 111.862 18.9297C103.061 18.9297 97.4521 14.6569 97.4521 9.38853C97.4521 5.0358 102.73 0 111.721 0C116.792 0 120.506 1.55507 121.54 2.1582C121.54 2.2236 122.632 6.1476 122.632 6.16214C122.632 6.1694 121.855 6.41647 121.855 6.41647C121.855 6.41647 119.505 1.49693 112.168 1.47513C105.84 1.45333 101.522 5.47907 101.522 9.40307C101.522 13.734 105.782 17.3019 112.168 17.2801C116.163 17.2656 119.944 15.4489 119.935 14.1337V11.7575C119.944 10.8201 119.48 10.4567 118.604 10.4567H117.776V9.7882H125.593H125.577Z" fill="#010101"/>
<path d="M160.502 17.6375V18.306H152.949V17.6375H153.421C154.422 17.6375 154.802 17.0416 154.339 16.2423L152.569 13.4809H140.558L138.92 16.2423C138.465 17.0416 138.846 17.6375 139.838 17.6375H140.31V18.306H134.048V17.6375H134.519C135.264 17.6375 135.611 17.3977 136.033 16.7001L145.811 0.408203H148.557L158.293 16.3803C158.367 16.4966 158.434 16.6056 158.5 16.7001C158.922 17.3977 159.269 17.6375 160.014 17.6375H160.485H160.502ZM151.485 11.4899L146.539 3.08961V3.10414L141.749 11.4899H151.485Z" fill="#010101"/>
<path d="M73.2647 27.0902H72.909V29.3792H73.3557C73.9513 29.3792 74.3649 29.3356 74.5882 29.2484C74.8116 29.1539 74.9853 29.0231 75.1093 28.8415C75.2334 28.6598 75.2996 28.4491 75.2996 28.2238C75.2996 27.9985 75.2334 27.7878 75.0928 27.6061C74.9522 27.4245 74.7619 27.2937 74.5138 27.2137C74.2656 27.1411 73.8437 27.0975 73.273 27.0975M71.7344 33.4631V26.2109H73.8024C74.6378 26.2109 75.2996 26.3926 75.7877 26.7559C76.2757 27.1193 76.5239 27.6134 76.5239 28.2311C76.5239 28.6525 76.4081 29.0159 76.1599 29.3283C75.92 29.6335 75.5726 29.8661 75.1259 30.0187C75.3906 30.1713 75.647 30.3747 75.9035 30.6436C76.1599 30.9052 76.5073 31.363 76.9705 32.017C77.2601 32.4312 77.4917 32.7364 77.6654 32.9471L78.1038 33.4631H76.6976L76.3336 32.9835C76.3336 32.9835 76.3005 32.9326 76.2674 32.8963L76.0358 32.6129L75.6718 32.0824L75.2748 31.5156C75.0266 31.2177 74.8033 30.9779 74.6048 30.8035C74.4062 30.6291 74.216 30.4983 74.0588 30.4183C73.8934 30.3457 73.6204 30.3021 73.2316 30.3021H72.9255V33.4631H71.7426H71.7344Z" fill="#010101"/>
<path d="M85.6641 26.2109H90.346V27.1338H86.847V29.3429H90.2219V30.273H86.847V32.5257H90.4535V33.4485H85.6641V26.2109Z" fill="#010101"/>
<path d="M100.413 30.4258L99.5116 29.9462C98.9492 29.641 98.5438 29.343 98.3039 29.0524C98.0641 28.7617 97.9482 28.4274 97.9482 28.0423C97.9482 27.4682 98.1716 27.0032 98.6266 26.6471C99.0732 26.291 99.6605 26.1094 100.388 26.1094C101.116 26.1094 101.712 26.2838 102.283 26.6181V27.7952C101.687 27.2938 101.05 27.0395 100.364 27.0395C99.9749 27.0395 99.6605 27.1194 99.4124 27.272C99.1642 27.4246 99.0402 27.6281 99.0402 27.8752C99.0402 28.0932 99.1311 28.2966 99.3131 28.4856C99.4951 28.6745 99.7929 28.878 100.19 29.0815L101.092 29.5538C102.101 30.0842 102.605 30.7528 102.605 31.5739C102.605 32.1552 102.382 32.6276 101.944 32.9909C101.497 33.3542 100.926 33.5359 100.215 33.5359C99.3958 33.5359 98.6596 33.3179 97.9896 32.8747V31.5521C98.6265 32.2642 99.3627 32.6203 100.206 32.6203C100.579 32.6203 100.885 32.5331 101.133 32.3515C101.381 32.1698 101.505 31.9445 101.505 31.6684C101.505 31.2251 101.141 30.8109 100.413 30.4113" fill="#010101"/>
<path d="M114.674 27.0898C113.731 27.0898 112.953 27.3514 112.341 27.8674C111.729 28.3833 111.431 29.0518 111.431 29.8584C111.431 30.665 111.737 31.29 112.349 31.8132C112.962 32.3291 113.723 32.5907 114.641 32.5907C115.559 32.5907 116.328 32.3291 116.949 31.7986C117.569 31.2682 117.875 30.6069 117.875 29.8221C117.875 29.0373 117.569 28.4051 116.949 27.8819C116.328 27.3587 115.576 27.0971 114.682 27.0971M114.624 26.1016C115.898 26.1016 116.965 26.4576 117.809 27.1625C118.661 27.8746 119.083 28.7612 119.083 29.8294C119.083 30.8976 118.653 31.7841 117.801 32.489C116.94 33.1866 115.865 33.5426 114.558 33.5426C113.251 33.5426 112.275 33.1938 111.448 32.489C110.621 31.7841 110.207 30.9121 110.207 29.8512C110.207 28.7902 110.629 27.8746 111.456 27.1625C112.292 26.4504 113.35 26.1016 114.624 26.1016Z" fill="#010101"/>
<path d="M128.77 27.0902H128.414V29.3792H128.861C129.457 29.3792 129.87 29.3356 130.094 29.2484C130.317 29.1539 130.491 29.0231 130.615 28.8415C130.739 28.6598 130.797 28.4491 130.797 28.2238C130.797 27.9985 130.731 27.7878 130.59 27.6061C130.449 27.4245 130.259 27.2937 130.011 27.2137C129.763 27.1411 129.341 27.0975 128.77 27.0975M127.231 33.4631V26.2109H129.299C130.135 26.2109 130.797 26.3926 131.285 26.7559C131.773 27.1193 132.021 27.6134 132.021 28.2311C132.021 28.6525 131.905 29.0159 131.657 29.3283C131.417 29.6335 131.07 29.8661 130.623 30.0187C130.888 30.1713 131.144 30.3747 131.401 30.6436C131.657 30.9052 132.004 31.363 132.468 32.017C132.757 32.4312 132.989 32.7364 133.162 32.9471L133.601 33.4631H132.195L131.839 32.9835C131.839 32.9835 131.806 32.9326 131.765 32.8963L131.533 32.6129L131.169 32.0824L130.772 31.5156C130.524 31.2177 130.3 30.9779 130.102 30.8035C129.895 30.6291 129.713 30.4983 129.548 30.4183C129.382 30.3457 129.109 30.3021 128.72 30.3021H128.414V33.4631H127.231Z" fill="#010101"/>
<path d="M139.374 26.1973H146.273V27.1201H143.386V33.4639H142.203V27.1201H139.374V26.1973Z" fill="#010101"/>
</svg>
