<svg width="155" height="50" viewBox="0 0 155 50" fill="none" xmlns="http://www.w3.org/2000/svg">
<g clip-path="url(#clip0_440_846)">
<path d="M38.4247 0C37.0217 0 35.6118 0.176128 34.2156 0.419997C30.633 1.03644 27.3296 2.43869 24.1421 4.11191C19.3676 6.61157 14.9745 9.63962 11.4668 13.7922C9.839 15.7228 8.53129 17.816 8.09539 20.3563C7.55051 23.5131 9.30094 26.514 12.5702 26.934C13.0334 26.995 13.5033 27.1169 13.9597 27.1169C14.0278 27.1169 14.0959 27.1169 14.1572 27.1101C16.7726 26.8663 19.4085 26.7037 21.9966 26.2769C26.4987 25.525 30.776 23.9263 35.1214 22.585C38.9969 21.386 42.8859 20.2479 46.7818 19.1167C47.6468 18.866 48.5527 18.7644 49.4926 18.5815C49.0976 20.0244 49.479 20.7086 50.6505 20.7086C50.8276 20.7086 51.0183 20.695 51.2294 20.6612C51.8833 20.5663 52.5371 20.3902 53.1774 20.2208C54.3625 19.9025 55.534 19.5434 56.7191 19.2454C57.3048 19.0963 57.9178 19.0286 58.5717 18.9134C58.1698 20.1599 58.5172 20.7831 59.6614 20.9795C59.8045 21.0066 59.9611 21.0134 60.1178 21.0134C60.3221 21.0134 60.5264 20.9931 60.724 20.9524C61.3778 20.8102 62.018 20.6205 62.6583 20.4308C63.9319 20.0515 65.2056 19.6518 66.4724 19.2589C66.9424 20.3495 67.4736 20.8237 68.3727 20.8237C68.6315 20.8237 68.9108 20.7831 69.2309 20.7154C70.0141 20.5392 70.7702 20.2547 71.533 20.0176C72.5478 19.706 73.5559 19.3876 74.5911 19.0625C74.7001 20.6137 75.1224 21.0676 76.5118 21.0676C76.5663 21.0676 76.614 21.0676 76.6685 21.0676C77.3087 21.0541 77.9694 20.9795 78.5756 20.7831C79.9923 20.3292 81.3885 19.7805 82.7848 19.2657C83.173 19.1234 83.5544 18.9744 84.0176 18.7983C83.9699 19.0489 83.929 19.1979 83.9086 19.347C83.7655 20.3292 84.2696 20.9863 85.0869 20.9863C85.2708 20.9863 85.4615 20.9524 85.6726 20.8915C86.1221 20.7492 86.5717 20.4783 86.9258 20.1599C87.8181 19.3334 88.6558 18.446 89.5004 17.5992C90.883 18.3579 92.2997 18.507 93.7368 18.5205C94.3226 18.5273 94.9015 18.5273 95.4873 18.5273C96.3454 18.5273 97.2104 18.5273 98.0822 18.5273C97.694 20.5799 98.5318 21.3318 99.7578 21.3318C100.112 21.3318 100.5 21.2708 100.902 21.1557C102.073 20.817 103.211 20.336 104.369 19.9295C105.683 19.4621 106.998 19.015 108.285 18.5612C109.252 20.2547 109.981 20.7899 111.813 20.9389C112.181 20.9728 112.556 20.9863 112.93 20.9863C113.543 20.9863 114.149 20.9389 114.742 20.8373C117.991 20.2683 121.226 19.6044 124.461 18.9812C124.625 18.9541 124.788 18.9405 124.958 18.9202C125.088 20.2886 125.803 21.0405 126.92 21.0405C127.056 21.0405 127.192 21.0337 127.342 21.0066C127.894 20.9253 128.439 20.7763 128.963 20.5934C130.251 20.1531 131.524 19.6721 132.805 19.225C133.104 19.1234 133.418 19.076 133.881 18.9676C133.704 19.1979 133.642 19.2996 133.568 19.3673C133.002 19.9025 132.485 20.5054 131.858 20.9592C127.608 24.0618 123.399 27.2185 119.06 30.1856C115.77 32.4279 112.263 34.3653 108.912 36.533C104.866 39.1478 100.834 41.7965 97.2241 45.0075C96.3863 45.7594 95.6303 46.6197 94.9424 47.5139C94.4179 48.1913 94.5337 49.0177 95.0173 49.5461C95.2966 49.851 95.6575 50.0136 96.0662 50.0136C96.3727 50.0136 96.7064 49.9255 97.0402 49.729C97.6736 49.3632 98.2798 48.9297 98.8315 48.4487C104.948 43.0971 111.445 38.2469 118.188 33.7217C120 32.5024 121.716 31.0866 123.658 30.1314C126.988 28.4853 130.434 27.0424 133.894 25.6876C137.995 24.0821 142.252 22.9711 146.651 22.524C147.544 22.436 148.034 21.9482 147.959 21.1828C147.898 20.5054 147.401 20.1125 146.665 20.1125C146.563 20.1125 146.447 20.1192 146.338 20.1395C142.79 20.6476 139.343 21.5418 135.972 22.734C134.589 23.2218 133.22 23.7366 131.844 24.2447C132.137 23.8857 132.491 23.6282 132.805 23.3302C133.826 22.3682 134.902 21.4605 135.808 20.4037C136.271 19.8686 136.598 19.076 136.646 18.3715C136.728 17.2809 135.781 16.4951 134.569 16.4951C134.351 16.4951 134.126 16.5222 133.901 16.5763C132.777 16.8338 131.695 17.2605 130.598 17.6399C129.849 17.8973 129.113 18.1818 128.241 18.4934C128.589 17.1589 128.037 16.3663 126.893 16.3663C126.831 16.3663 126.77 16.3663 126.702 16.3731C125.946 16.4273 125.197 16.5763 124.454 16.7254C121.219 17.3825 117.998 18.087 114.756 18.7034C114.265 18.7983 113.768 18.8389 113.264 18.8389C112.603 18.8389 111.929 18.7576 111.275 18.5883C111.588 18.5544 111.902 18.5883 112.208 18.5476C112.808 18.4731 113.407 18.4189 113.979 18.2631C114.558 18.1005 114.803 17.5925 114.817 17.0234C114.83 16.4883 114.483 16.1563 114.013 15.9938C113.639 15.8583 113.244 15.777 112.848 15.716C112.562 15.6754 112.276 15.6483 111.997 15.6483C110.614 15.6483 109.307 16.1225 107.999 16.4815C105.772 17.1047 103.613 17.9515 101.42 18.7034C101.059 18.8254 100.691 18.9337 100.173 19.0963C100.425 18.6696 100.555 18.385 100.745 18.1412C101.461 17.2334 102.182 16.3257 102.925 15.4383C105.493 12.3899 108.353 9.65994 111.602 7.34318C111.711 7.26866 111.82 7.19415 111.922 7.10608C112.379 6.74705 112.453 6.28641 112.188 5.80545C112.004 5.46674 111.745 5.29739 111.425 5.29739C111.289 5.29739 111.146 5.33126 110.989 5.399C110.608 5.56835 110.226 5.77158 109.906 6.03577C106.589 8.7522 103.402 11.6041 100.623 14.8693C99.928 15.6889 99.2469 16.3189 98.2117 16.3189C98.0618 16.3189 97.9052 16.3054 97.7417 16.2783H97.6736C96.0594 16.3122 94.452 16.3596 92.8378 16.3596C92.5585 16.3596 92.2793 16.3596 91.9932 16.3596C91.0124 16.346 90.8762 16.1157 90.5833 15.2012C90.488 14.9167 90.1951 14.5509 89.9363 14.4899C89.8886 14.4764 89.8341 14.4764 89.7797 14.4764C89.5004 14.4764 89.1667 14.6118 88.9283 14.7609C88.7035 14.8964 88.6082 15.2283 88.4379 15.4586C87.8862 16.2173 87.3277 16.976 86.6806 17.8702C86.4355 16.766 86.0949 16.2986 85.4206 16.2986C85.1822 16.2986 84.9098 16.3528 84.5829 16.4612C83.0163 16.976 81.4975 17.6128 79.9446 18.1615C79.1613 18.4392 78.344 18.6357 77.4858 18.8931C77.7446 17.4163 77.4041 16.9557 76.0419 16.7186C75.7354 16.6644 75.388 16.6983 75.1292 16.5696C74.237 16.1022 73.2902 15.8786 72.3435 15.8786C71.9961 15.8786 71.642 15.9125 71.2946 15.9667C69.3535 16.3054 67.426 16.7999 65.5121 17.308C64.1635 17.667 62.8558 18.1547 61.5072 18.595C61.4323 17.4705 61.1122 17.0302 60.1859 16.827C59.9339 16.7728 59.6546 16.7186 59.3958 16.7186C59.28 16.7186 59.171 16.7322 59.0689 16.7525C57.2912 17.1454 55.5203 17.5925 53.7495 18.026C53.3476 18.1276 52.9458 18.2631 52.5439 18.385C52.8709 17.8499 53.2455 17.4434 53.6337 17.0505C57.1686 13.406 60.5332 9.58542 64.9059 6.86899C65.4167 6.5506 65.5325 5.94093 65.2396 5.46674C65.0489 5.14835 64.7969 5.01287 64.5245 5.01287C64.3406 5.01287 64.1499 5.07384 63.9592 5.17545C63.4075 5.45996 62.8762 5.79867 62.3858 6.17125C58.5785 9.09768 55.0981 12.3899 51.8356 15.9057C51.5427 16.2241 51.2499 16.346 50.8071 16.3731C49.6765 16.4476 48.5391 16.556 47.4221 16.7457C43.5602 17.4028 39.8755 18.7102 36.1635 19.9228C30.2107 21.867 24.3532 24.1634 18.0394 24.7256C16.8543 24.8273 15.6556 24.9289 14.4637 24.9289C14.0823 24.9289 13.7008 24.9221 13.3194 24.895C11.2557 24.7663 9.94798 23.276 10.1046 21.3047C10.1864 20.2886 10.4724 19.2454 10.8811 18.3038C11.6848 16.468 12.9857 14.9505 14.3887 13.5415C18.7478 9.17897 23.9582 6.15093 29.7067 3.99675C32.4583 2.96708 35.2917 2.26934 38.2409 2.26934C38.5337 2.26934 38.8334 2.26934 39.1331 2.28966C40.9176 2.37095 42.6203 2.78418 44.0915 3.88159C44.4252 4.13223 44.7385 4.25417 45.0246 4.25417C45.3379 4.25417 45.6172 4.09836 45.8419 3.79352C46.2438 3.24482 46.1007 2.53353 45.3515 2.11353C44.3094 1.52418 43.2537 0.894188 42.1163 0.55548C40.8767 0.189676 39.6235 0.0406449 38.3635 0.0406449" fill="#231E21"/>
</g>
<circle cx="153.5" cy="23.5" r="1.5" fill="#231E21"/>
<defs>
<clipPath id="clip0_440_846">
<rect width="140" height="50" fill="white" transform="translate(8)"/>
</clipPath>
</defs>
</svg>
