<svg width="120" height="37" viewBox="0 0 120 37" fill="none" xmlns="http://www.w3.org/2000/svg">
<path d="M0.352925 0.705856H15.9321C29.3265 0.705856 34.57 9.16768 34.57 18.1337C34.57 27.0997 27.8476 35.3851 15.0582 35.3851H0.378139C0.109243 35.3851 0.0168096 35.2002 0.0168096 35.0489C0.0168096 34.8641 0.184868 34.7128 0.428555 34.7128H3.16794C4.01664 34.7128 4.57964 34.1666 4.57964 33.1415V3.01668C4.57964 2.26041 4.24352 1.42011 3.12592 1.42011H0.336122C0.117643 1.42011 0 1.26045 0 1.08399C0 0.924332 0.0504183 0.722659 0.36133 0.722659M10.0836 33.7633C10.0836 34.5196 10.4029 34.7548 10.8567 34.7548H14.9826C25.1502 34.7548 28.8391 26.3686 28.8391 17.9488C28.8391 9.52901 24.9317 1.3865 16.3439 1.3865H10.739C10.1592 1.3865 10.1088 1.90749 10.1088 2.14277L10.0836 33.7633ZM36.1245 0.705856C35.8808 0.705856 35.6624 0.806688 35.6624 1.01676C35.6624 1.22684 35.78 1.35288 35.9985 1.35288H38.7379C39.3681 1.35288 39.9731 1.82345 39.9731 3.12592V33.1499C39.9731 33.7801 39.5362 34.7128 38.7631 34.7128H36.0489C35.7296 34.7128 35.7128 34.9733 35.7128 35.0826C35.7128 35.1918 35.6876 35.3683 36.0489 35.3683H49.25C49.4433 35.3683 49.7122 35.3431 49.7122 35.133C49.7122 34.9229 49.6618 34.7128 49.3257 34.7128H46.7795C46.4182 34.7128 45.4183 34.4775 45.4183 33.2759V2.80661C45.4183 1.9495 45.9308 1.36969 46.8468 1.36969H49.3509C49.5693 1.36969 49.6954 1.23524 49.6954 1.05878C49.6954 0.882318 49.5693 0.722659 49.2836 0.722659H36.1329V0.697451L36.1245 0.705856ZM56.7539 18.0581C56.7539 8.47023 60.7285 0.705856 68.2072 0.705856C75.6859 0.705856 79.6605 8.47023 79.6605 18.0581C79.6605 27.6459 75.896 35.4103 68.2072 35.4103C60.7537 35.4355 56.7539 27.6459 56.7539 18.0581ZM68.2072 36.1413C78.837 36.1413 85.5342 28.0408 85.5342 18.0833C85.5342 8.12571 78.9042 0 68.2072 0C57.5102 0 50.8802 8.1005 50.8802 18.0581C50.8802 28.0156 57.7959 36.1413 68.2072 36.1413ZM119.516 35.175C115.34 35.6456 113.037 28.2761 110.928 24.7721C109.348 22.1839 106.004 19.5454 102.702 19.0244C108.138 18.6883 114.23 16.806 114.23 10.1676C114.23 4.78131 111.147 0.705856 99.8361 0.705856H86.8031C86.635 0.705856 86.4669 0.806688 86.4669 1.01676C86.4669 1.22684 86.635 1.35288 86.8031 1.35288H89.7861C90.4164 1.35288 91.0214 1.82345 91.0214 3.12592V33.1499C91.0214 33.7801 90.5844 34.7128 89.8113 34.7128H86.8787C86.6938 34.7128 86.551 34.8473 86.5426 35.0321C86.5426 35.133 86.6434 35.3683 86.8787 35.3683H100.71C100.903 35.3683 101.071 35.259 101.071 35.0573C101.071 34.8557 100.954 34.7212 100.685 34.7212H97.895C97.5337 34.7212 96.5337 34.4607 96.5337 33.2843V19.0916H97.9623C104.802 19.0916 105.315 27.0913 108.71 31.6625C111.626 35.5867 115.432 36.0825 117.592 36.0825C118.516 36.0825 119.146 36.0573 119.726 35.8976C120.087 35.7632 120.163 35.091 119.508 35.1666M97.9118 1.36129H99.9286C103.374 1.36129 108.953 2.82341 108.953 9.83152C108.953 16.2598 104.004 18.4278 99.416 18.4278H96.4833V2.82341C96.4833 1.93269 96.9959 1.36129 97.9118 1.36129Z" fill="#010101"/>
</svg>
