<svg width="217" height="100" viewBox="0 0 217 100" fill="none" xmlns="http://www.w3.org/2000/svg">
<path d="M6.37 98.4597H0V97.5197H1.83V81.6197H0.139999V80.6797H11.42C13.81 80.6797 17.05 80.7297 17.08 80.7297V80.7497L17.73 86.2797H16.89L16.82 86.0497C15.81 82.6097 15.09 81.6297 11.43 81.6297H4.8V89.3897H8.7C12 89.3897 12.96 89.0897 12.96 86.9697V86.6297H13.8V92.9997H12.96V92.6597C12.96 91.1497 12.03 90.3397 8.7 90.3397H4.8V97.5397H6.37V98.4797V98.4597Z" fill="#010101"/>
<path d="M28.3704 98.7793C21.9204 98.7793 18.4404 94.8793 18.4404 91.1993C18.4404 86.3993 23.4904 83.5293 28.3704 83.5293C34.8204 83.5293 38.3004 87.4793 38.3004 91.1993C38.3004 96.1193 33.1904 98.7793 28.3704 98.7793ZM28.3704 84.3893C23.9604 84.3893 21.4304 86.8693 21.4304 91.1993C21.4304 95.5293 23.8904 97.9293 28.3704 97.9293C32.8504 97.9293 35.3304 95.5393 35.3304 91.1993C35.3304 86.8593 32.8004 84.3893 28.3704 84.3893Z" fill="#010101"/>
<path d="M48.65 98.7794C45.02 98.7794 40.7 97.4894 40.7 91.3494V84.7094H39.21V83.8594H45.08V84.7094H43.45V91.3494C43.45 97.0694 46.7 97.9294 48.64 97.9294C51.68 97.9294 54.92 96.1994 54.92 91.3494V84.7094H53.45V83.8594H57.03V84.7094H55.68V91.3494C55.68 96.8294 51.89 98.7794 48.64 98.7794" fill="#010101"/>
<path d="M68.0498 91.9794H62.6298V97.6094H63.9798V98.4594H58.2998V97.6094H59.9898V84.7094H58.2998V83.8594H67.9098C69.5598 83.8594 74.5698 83.8594 74.5698 87.9294C74.5698 89.7794 73.5398 91.0494 71.5698 91.6194C71.5698 91.6194 70.4598 91.9794 68.0398 91.9794M62.6298 91.1194H67.8998C70.4198 91.1194 71.5898 90.0994 71.5898 87.9294C71.5898 85.7594 70.4198 84.7194 67.9198 84.7194H62.6298V91.1294V91.1194Z" fill="#010101"/>
<path d="M103.29 82.3596L103.68 86.6996L102.89 86.6796L102.66 85.9496C101.55 82.6896 99.2702 81.2896 95.6602 81.2896C92.0502 81.2896 89.9602 82.2996 89.9602 83.9896C89.9602 85.8296 92.9102 86.5796 96.0402 87.3696C99.9002 88.3396 104.27 89.4496 104.27 93.0996C104.27 96.7496 101.33 98.8696 95.5302 98.8696C95.5302 98.8696 91.2602 98.7196 87.9502 97.4696L86.9902 92.3096H87.7202L88.0102 93.0896C89.1902 96.0296 92.1502 97.9296 95.5302 97.9296C98.0302 97.9296 102.23 97.4796 102.23 94.4396C102.23 92.2696 99.1002 91.5096 95.7902 90.7096C91.9202 89.7696 87.9102 88.7996 87.9102 85.3296C87.9102 82.1596 90.7302 80.3496 95.6602 80.3496C97.1602 80.3496 98.0502 80.5296 99.4902 80.9296C99.4902 80.9296 101.96 81.6496 103.29 82.3596Z" fill="#010101"/>
<path d="M121.79 98.5804H121.72C121.72 98.5804 119.19 98.4604 117.8 98.4604H106.88V97.6104H108.51V84.7104H106.88V83.8604H117.45C118.78 83.8604 120.16 83.8604 120.47 83.7504L121.27 83.6504L121.75 87.7504L121.11 87.7804L121.04 87.5704C120.17 84.8604 118.83 84.7104 117.45 84.7104H111.14V90.4304H114.68C117.2 90.4304 118.04 90.1004 118.04 88.2904V87.9704H118.8V93.5804H118.04V93.2604C118.04 91.9004 117.22 91.2804 114.68 91.2804H111.14V97.6004H117.79C120.22 97.6004 120.78 96.8404 121.61 94.9104L121.68 94.7104H122.47L121.78 98.5704L121.79 98.5804Z" fill="#010101"/>
<path d="M138.02 98.4594V97.6094H139.53L137.33 93.6594H128.12L125.9 97.6094H127.42V98.4594H123.72V97.6094H125.01L132.21 84.7094H130.93V83.8594H134.85L134.94 84.0094L142.46 97.6094H143.89V98.4594H138.03H138.02ZM128.6 92.7994H136.86L132.74 85.3594L128.6 92.7994Z" fill="#010101"/>
<path d="M171.44 97.9291C166.97 97.9291 164.5 95.5391 164.5 91.1991C164.5 86.8591 167.03 84.3891 171.44 84.3891C175.85 84.3891 178.4 86.8691 178.4 91.1991C178.4 95.5291 175.93 97.9291 171.44 97.9291ZM171.44 83.5391C166.56 83.5391 161.51 86.4091 161.51 91.2091C161.51 94.8891 164.99 98.7891 171.44 98.7891C176.25 98.7891 181.37 96.1291 181.37 91.2091C181.37 87.4891 177.89 83.5391 171.44 83.5391Z" fill="#010101"/>
<path d="M182.6 83.8594V84.7094H183.74L184.38 85.3194V97.6094H182.65V98.4594H186.7V97.6094H185.14V86.0294L198.95 99.0194L199.11 99.1694V84.7094H200.42V83.8594H196.75V84.7094H198.35V94.8494L186.74 83.8894L186.71 83.8594H182.6Z" fill="#010101"/>
<path d="M76.2898 97.9606C74.0698 97.8806 73.8198 97.0506 73.2698 95.9406L71.2498 91.5605H68.2598L71.9898 98.8006H76.2898V97.9606Z" fill="#010101"/>
<path d="M158.59 85.369L158.91 88.909L158.26 88.889L158.07 88.289C157.17 85.619 155.3 84.479 152.35 84.479C149.4 84.479 147.69 85.309 147.69 86.689C147.69 88.199 150.1 88.809 152.66 89.449C155.81 90.249 159.39 91.149 159.39 94.139C159.39 97.129 156.99 98.849 152.25 98.849C152.25 98.849 148.76 98.729 146.05 97.709L145.26 93.489H145.86L146.1 94.129C147.07 96.529 149.48 98.079 152.25 98.079C154.29 98.079 157.72 97.709 157.72 95.229C157.72 93.459 155.16 92.839 152.46 92.179C149.3 91.409 146.02 90.619 146.02 87.779C146.02 85.189 148.33 83.709 152.35 83.709C153.58 83.709 154.31 83.859 155.48 84.179C155.48 84.179 157.49 84.769 158.59 85.349" fill="#010101"/>
<path d="M215.29 85.369L215.61 88.909L214.96 88.889L214.77 88.289C213.87 85.619 212 84.479 209.05 84.479C206.1 84.479 204.39 85.309 204.39 86.689C204.39 88.199 206.8 88.809 209.36 89.449C212.52 90.249 216.09 91.149 216.09 94.139C216.09 97.129 213.68 98.849 208.94 98.849C208.94 98.849 205.45 98.729 202.75 97.709L201.96 93.489H202.56L202.8 94.129C203.77 96.529 206.18 98.079 208.95 98.079C210.99 98.079 214.42 97.709 214.42 95.229C214.42 93.459 211.86 92.839 209.16 92.179C206 91.409 202.72 90.619 202.72 87.779C202.72 85.189 205.03 83.709 209.05 83.709C210.28 83.709 211.01 83.859 212.18 84.179C212.18 84.179 214.19 84.769 215.29 85.349" fill="#010101"/>
<path d="M131.259 41.6094C130.009 42.1194 129.219 43.0294 129.529 44.5794C131.029 44.0794 131.429 42.9394 131.259 41.6094Z" fill="#010101"/>
<path d="M126.239 42.5195C126.479 43.8395 127.199 44.8095 128.779 44.8295C128.609 43.2595 127.579 42.6295 126.239 42.5195Z" fill="#010101"/>
<path d="M128.769 48.8803C128.699 47.3203 127.659 46.6903 126.239 46.5703C126.399 47.8903 127.099 48.8503 128.769 48.8803Z" fill="#010101"/>
<path d="M124.21 28.0996C122.87 28.2196 121.84 28.8496 121.67 30.4096C123.25 30.3896 123.97 29.4196 124.21 28.0996Z" fill="#010101"/>
<path d="M118.13 26.9395C118.37 28.2695 119.09 29.2295 120.67 29.2495C120.5 27.6895 119.47 27.0495 118.13 26.9395Z" fill="#010101"/>
<path d="M117.77 22.1108C119.35 22.0808 120.07 21.1208 120.31 19.8008C118.97 19.9208 117.94 20.5508 117.77 22.1108Z" fill="#010101"/>
<path d="M118.999 16.2891C117.759 16.8191 116.979 17.7391 117.309 19.2891C118.799 18.7691 119.179 17.6291 118.999 16.2891Z" fill="#010101"/>
<path d="M114.569 17.4199C114.619 18.7599 115.189 19.8099 116.739 20.0599C116.789 18.4899 115.869 17.7199 114.569 17.4199Z" fill="#010101"/>
<path d="M113.989 13.6401C115.559 13.6201 116.289 12.6501 116.529 11.3301C115.189 11.4501 114.169 12.0801 113.989 13.6401Z" fill="#010101"/>
<path d="M115.31 8.15039C114.14 8.80039 113.47 9.80039 113.96 11.2904C115.38 10.6204 115.64 9.45039 115.31 8.15039Z" fill="#010101"/>
<path d="M113.539 12.4193C113.589 10.8493 112.669 10.0793 111.369 9.7793C111.419 11.1193 111.989 12.1693 113.539 12.4193Z" fill="#010101"/>
<path d="M112.679 14.6909C112.509 13.1309 111.489 12.5009 110.149 12.3809C110.389 13.7009 111.109 14.6609 112.679 14.6909Z" fill="#010101"/>
<path d="M108.489 17.7694C108.939 17.4794 113.809 14.6394 113.809 14.6394C113.819 14.6394 113.839 14.6194 113.839 14.5794L113.619 12.8594H113.539C113.539 12.8594 113.609 13.5794 113.589 13.8694C113.569 14.1994 113.519 14.3194 113.269 14.4794L107.869 17.2594C107.869 17.6794 107.889 18.0994 107.889 18.5294C107.959 18.2894 108.129 17.9994 108.479 17.7694H108.489Z" fill="#010101"/>
<path d="M107.29 2.41914C107.12 0.859144 106.09 0.229141 104.76 0.119141C105 1.43914 105.72 2.39914 107.29 2.41914Z" fill="#010101"/>
<path d="M107.25 4.96992C107.08 3.40992 106.06 2.77992 104.72 2.66992C104.96 3.98992 105.68 4.94992 107.25 4.96992Z" fill="#010101"/>
<path d="M107.21 7.51093C107.04 5.95093 106.02 5.32094 104.68 5.21094C104.92 6.53094 105.64 7.49093 107.21 7.51093Z" fill="#010101"/>
<path d="M107.179 10.0598C107.009 8.49977 105.989 7.87977 104.649 7.75977C104.889 9.07977 105.609 10.0398 107.179 10.0598Z" fill="#010101"/>
<path d="M107.139 12.6108C106.969 11.0508 105.949 10.4208 104.609 10.3008C104.849 11.6208 105.569 12.5808 107.139 12.6108Z" fill="#010101"/>
<path d="M107.099 15.1498C106.929 13.5898 105.899 12.9598 104.569 12.8398C104.809 14.1598 105.529 15.1198 107.099 15.1498Z" fill="#010101"/>
<path d="M103.709 9.33984C102.429 9.75984 101.579 10.5998 101.759 12.1598C103.279 11.7798 103.769 10.6798 103.709 9.33984Z" fill="#010101"/>
<path d="M101.81 14.0405C103.38 14.0105 104.1 13.0605 104.34 11.7305C103.01 11.8505 101.98 12.4805 101.81 14.0405Z" fill="#010101"/>
<path d="M101.19 12.4598C101.41 10.9098 100.58 10.0398 99.3099 9.58984C99.2099 10.9298 99.6699 12.0398 101.19 12.4598Z" fill="#010101"/>
<path d="M100.859 14.2202C100.689 12.6602 99.6591 12.0302 98.3291 11.9102C98.5691 13.2302 99.2891 14.1902 100.859 14.2202Z" fill="#010101"/>
<path d="M104.6 21.3809C103.26 21.5009 102.23 22.1309 102.06 23.7009C103.64 23.6709 104.36 22.7109 104.6 21.3809Z" fill="#010101"/>
<path d="M100.199 22.7299C101.779 22.7099 102.499 21.7399 102.739 20.4199C101.399 20.5399 100.369 21.1699 100.199 22.7299Z" fill="#010101"/>
<path d="M106.47 22.3398C105.13 22.4598 104.1 23.0898 103.93 24.6498C105.51 24.6198 106.23 23.6598 106.47 22.3398Z" fill="#010101"/>
<path d="M103.13 19.7202C104.7 19.7002 105.42 18.7302 105.67 17.4102C104.33 17.5302 103.31 18.1502 103.13 19.7202Z" fill="#010101"/>
<path d="M101.35 18.6791C102.92 18.6591 103.65 17.6891 103.89 16.3691C102.55 16.4891 101.53 17.1191 101.35 18.6791Z" fill="#010101"/>
<path d="M99.54 17.6303C101.11 17.6003 101.83 16.6403 102.07 15.3203C100.73 15.4403 99.71 16.0703 99.54 17.6303Z" fill="#010101"/>
<path d="M100.869 19.4199C99.5291 19.5299 98.4991 20.1699 98.3291 21.7299C99.9091 21.6999 100.629 20.7399 100.869 19.4199Z" fill="#010101"/>
<path d="M97.8596 19.2697C98.0496 17.6997 97.1996 16.8497 95.9196 16.4297C95.8496 17.7697 96.3296 18.8797 97.8596 19.2697Z" fill="#010101"/>
<path d="M97.3691 21.6498C97.1991 20.0798 96.1691 19.4498 94.8291 19.3398C95.0691 20.6698 95.7891 21.6298 97.3691 21.6498Z" fill="#010101"/>
<path d="M98.7099 29.6191C97.3699 29.7391 96.3399 30.3691 96.1699 31.9291C97.7499 31.8991 98.4699 30.9391 98.7099 29.6191Z" fill="#010101"/>
<path d="M94.3594 30.8998C95.9394 30.8798 96.6594 29.9098 96.8994 28.5898C95.5594 28.7098 94.5294 29.3398 94.3594 30.8998Z" fill="#010101"/>
<path d="M100.569 30.5898C99.2293 30.7098 98.1993 31.3398 98.0293 32.8998C99.6093 32.8698 100.329 31.9098 100.569 30.5898Z" fill="#010101"/>
<path d="M102.43 31.5508C101.09 31.6708 100.06 32.3008 99.8896 33.8608C101.47 33.8308 102.19 32.8708 102.43 31.5508Z" fill="#010101"/>
<path d="M104.3 32.5098C102.96 32.6298 101.93 33.2598 101.76 34.8198C103.34 34.7898 104.06 33.8298 104.3 32.5098Z" fill="#010101"/>
<path d="M106.17 33.4609C104.83 33.5809 103.8 34.2109 103.63 35.7709C105.21 35.7509 105.93 34.7809 106.17 33.4609Z" fill="#010101"/>
<path d="M103.5 29.6694C105.08 29.6394 105.8 28.6794 106.04 27.3594C104.7 27.4794 103.67 28.1094 103.5 29.6694Z" fill="#010101"/>
<path d="M101.689 28.6205C103.269 28.5905 103.989 27.6305 104.229 26.3105C102.889 26.4305 101.859 27.0605 101.689 28.6205Z" fill="#010101"/>
<path d="M99.8994 27.56C101.479 27.53 102.199 26.57 102.439 25.25C101.099 25.37 100.069 26 99.8994 27.56Z" fill="#010101"/>
<path d="M98.1094 26.5092C99.6894 26.4892 100.409 25.5192 100.649 24.1992C99.3094 24.3192 98.2794 24.9492 98.1094 26.5092Z" fill="#010101"/>
<path d="M96.3193 25.4506C97.8993 25.4206 98.6193 24.4606 98.8593 23.1406C97.5193 23.2606 96.4893 23.8806 96.3193 25.4506Z" fill="#010101"/>
<path d="M96.8398 26.2305C95.4998 26.3505 94.4698 26.9805 94.2998 28.5405C95.8798 28.5105 96.5998 27.5505 96.8398 26.2305Z" fill="#010101"/>
<path d="M93.9891 27.2495C94.3691 25.7195 93.6291 24.7695 92.4091 24.1895C92.1691 25.5195 92.5191 26.6695 93.9891 27.2495Z" fill="#010101"/>
<path d="M93.5693 29.2807C93.3993 27.7107 92.3693 27.0807 91.0293 26.9707C91.2693 28.3007 91.9993 29.2607 93.5693 29.2807Z" fill="#010101"/>
<path d="M93.2197 31.5893C93.0497 30.0193 92.0197 29.3893 90.6797 29.2793C90.9197 30.5993 91.6397 31.5693 93.2197 31.5893Z" fill="#010101"/>
<path d="M97.6094 38.0405C99.1894 38.0105 99.9094 37.0505 100.149 35.7305C98.8094 35.8505 97.7794 36.4805 97.6094 38.0405Z" fill="#010101"/>
<path d="M97.6094 41.6596C99.1894 41.6296 99.9094 40.6696 100.149 39.3496C98.8094 39.4696 97.7794 40.0996 97.6094 41.6596Z" fill="#010101"/>
<path d="M95.8291 36.9899C97.4091 36.9599 98.1291 35.9999 98.3691 34.6699C97.0291 34.7899 95.9991 35.4199 95.8291 36.9899Z" fill="#010101"/>
<path d="M94.0596 35.9409C95.6396 35.9109 96.3596 34.9509 96.5996 33.6309C95.2596 33.7509 94.2296 34.3809 94.0596 35.9409Z" fill="#010101"/>
<path d="M92.2695 34.8998C93.8495 34.8698 94.5695 33.9098 94.8095 32.5898C93.4695 32.7098 92.4395 33.3398 92.2695 34.8998Z" fill="#010101"/>
<path d="M129.12 44.77C129.12 44.77 129.36 47.37 129.29 48.41C129.21 49.59 129.05 50.01 128.15 50.59L108.64 60.63C108.61 58.72 108.57 56.53 108.53 54.15V53.52C108.51 52.21 108.87 51.51 110.41 50.53C111.75 49.68 126.15 41.27 126.15 41.27C126.18 41.25 126.24 41.21 126.23 41.1L125.56 36H125.34C125.34 36 125.54 38.14 125.48 39C125.42 39.98 125.29 40.32 124.54 40.8L108.43 49.09C108.39 46.62 108.34 44.03 108.29 41.37V40.65C108.3 39.83 108.6 39.33 109.64 38.67C110.64 38.03 121.4 31.75 121.4 31.75C121.42 31.74 121.47 31.71 121.46 31.62L120.96 27.81H120.8C120.8 27.81 120.95 29.41 120.9 30.05C120.85 30.78 120.75 31.04 120.2 31.4L108.22 37.57C108.17 34.59 108.11 31.57 108.06 28.62C108.14 28.2 108.38 27.65 109.04 27.24C109.76 26.79 117.46 22.29 117.46 22.29C117.48 22.29 117.51 22.26 117.5 22.2L117.15 19.47H117.03C117.03 19.47 117.13 20.62 117.1 21.08C117.07 21.6 117 21.79 116.6 22.04L108.02 26.46C107.97 23.71 107.92 21.04 107.88 18.51C107.88 18.08 107.86 17.66 107.86 17.24C107.68 7.4 107.55 0.0799942 107.55 0.0799942C107.55 0.0299942 107.52 0 107.47 0C107.42 0 107.39 0.0399942 107.39 0.0799942C107.39 0.0799942 107.26 7.37999 107.09 17.22C107.09 17.42 107.09 17.62 107.08 17.82C107.08 17.62 107.08 17.42 107.09 17.22L101.73 14.46C101.48 14.3 101.43 14.18 101.41 13.85C101.39 13.56 101.46 12.84 101.46 12.84H101.39L101.17 14.56C101.17 14.56 101.19 14.61 101.2 14.62C101.2 14.62 106.07 17.46 106.52 17.75C106.83 17.95 107 18.2 107.08 18.42C107.04 20.97 106.99 23.67 106.94 26.44L98.3896 22.04C97.9896 21.78 97.9196 21.6 97.8896 21.08C97.8596 20.62 97.9596 19.47 97.9596 19.47H97.8396L97.4796 22.19C97.4796 22.25 97.5096 22.27 97.5296 22.28C97.5296 22.28 105.23 26.78 105.95 27.23C106.55 27.61 106.81 28.1 106.91 28.5C106.86 31.49 106.8 34.54 106.75 37.56L94.7696 31.39C94.2096 31.03 94.1196 30.77 94.0696 30.04C94.0296 29.4 94.1696 27.8 94.1696 27.8H93.9996L93.5096 31.61C93.5096 31.7 93.5496 31.72 93.5696 31.74C93.5696 31.74 104.33 38.02 105.33 38.66C106.4 39.34 106.68 39.84 106.69 40.71V41.48H106.68C106.63 44.09 106.59 46.64 106.55 49.06L90.4496 40.78C89.7096 40.3 89.5796 39.95 89.5096 38.98C89.4496 38.12 89.6496 35.98 89.6496 35.98H89.4296L88.7696 41.08C88.7696 41.19 88.8196 41.23 88.8496 41.25C88.8496 41.25 103.25 49.66 104.59 50.51C106.14 51.49 106.49 52.19 106.47 53.5V53.51C106.42 56.13 106.38 58.53 106.35 60.6L86.8496 50.57C85.9496 49.98 85.7896 49.57 85.7096 48.39C85.6396 47.35 85.8796 44.75 85.8796 44.75H85.6096L84.8096 50.92C84.8096 51.06 84.8696 51.11 84.9096 51.13C84.9096 51.13 102.35 61.32 103.97 62.35C105.87 63.55 106.25 63.63 106.25 65.83C106.25 65.93 106.21 68.47 106.21 68.57C106.21 70.48 104.69 70.53 104.69 70.53V70.91H110.28V70.53C110.28 70.53 108.77 70.48 108.77 68.57C108.77 68.48 108.74 66.03 108.74 65.83C108.74 63.63 109.12 63.55 111.02 62.35C112.64 61.32 130.09 51.13 130.09 51.13C130.13 51.11 130.19 51.06 130.19 50.92L129.39 44.75H129.12V44.77Z" fill="#010101"/>
<path d="M101.279 40.2202C102.859 40.1902 103.579 39.2302 103.819 37.9102C102.479 38.0302 101.449 38.6602 101.279 40.2202Z" fill="#010101"/>
<path d="M105.6 39.0703C104.26 39.1903 103.23 39.8203 103.06 41.3803C104.64 41.3503 105.36 40.3903 105.6 39.0703Z" fill="#010101"/>
<path d="M115.089 33.8292C116.319 32.8492 116.309 31.6392 115.689 30.4492C114.699 31.3592 114.269 32.4892 115.089 33.8292Z" fill="#010101"/>
<path d="M112.54 32.1191C111.55 33.0291 111.12 34.1591 111.94 35.4991C113.17 34.5191 113.16 33.3091 112.54 32.1191Z" fill="#010101"/>
<path d="M109.189 27.4609C109.429 28.7909 110.149 29.7509 111.729 29.7709C111.559 28.2009 110.529 27.5709 109.189 27.4609Z" fill="#010101"/>
<path d="M118.25 37.8393C118.08 36.2693 117.05 35.6393 115.71 35.5293C115.95 36.8593 116.67 37.8193 118.25 37.8393Z" fill="#010101"/>
<path d="M115.06 39.5502C114.89 37.9802 113.86 37.3502 112.52 37.2402C112.76 38.5702 113.48 39.5302 115.06 39.5502Z" fill="#010101"/>
<path d="M123.989 52.2809C123.819 50.7109 122.789 50.0809 121.439 49.9609C121.679 51.2909 122.399 52.2609 123.989 52.2809Z" fill="#010101"/>
<path d="M120.34 53.9704C120.17 52.4004 119.14 51.7704 117.79 51.6504C118.03 52.9804 118.75 53.9504 120.34 53.9704Z" fill="#010101"/>
<path d="M116.1 47.7207C116.34 49.0507 117.06 50.0107 118.64 50.0307C118.47 48.4707 117.44 47.8307 116.1 47.7207Z" fill="#010101"/>
<path d="M113.69 57.3493C113.52 55.7793 112.49 55.1493 111.14 55.0293C111.38 56.3593 112.1 57.3293 113.69 57.3493Z" fill="#010101"/>
<path d="M127.749 53.4102C127.499 54.9502 128.389 55.7802 129.749 56.1902C129.859 54.8602 129.379 53.7802 127.749 53.4102Z" fill="#010101"/>
<path d="M124.25 55.9492C124.32 57.5192 125.37 58.1592 126.79 58.2792C126.63 56.9492 125.93 55.9792 124.25 55.9492Z" fill="#010101"/>
<path d="M118.9 61.11C120.37 60.5 120.69 59.33 120.42 58C119.21 58.6 118.48 59.57 118.9 61.11Z" fill="#010101"/>
<path d="M125.159 37.2592C124.989 35.6892 123.959 35.0592 122.619 34.9492C122.859 36.2792 123.579 37.2392 125.159 37.2592Z" fill="#010101"/>
<path d="M125.06 39.5795C124.89 38.0095 123.86 37.3795 122.52 37.2695C122.76 38.5895 123.48 39.5595 125.06 39.5795Z" fill="#010101"/>
<path d="M126.439 41.1303C128.019 41.1003 128.739 40.1403 128.979 38.8203C127.639 38.9403 126.609 39.5703 126.439 41.1303Z" fill="#010101"/>
<path d="M128.6 34.9492C127.26 35.0692 126.23 35.6992 126.06 37.2592C127.64 37.2292 128.36 36.2692 128.6 34.9492Z" fill="#010101"/>
</svg>
