<svg width="110" height="124" viewBox="0 0 110 124" fill="none" xmlns="http://www.w3.org/2000/svg">
<path d="M58.9097 0C59.017 0.165723 59.2997 0.0974849 59.4752 0.107233C70.9491 0.224214 84.0314 1.9107 94.9887 5.2934C101.315 7.25283 108.091 9.27075 109.299 16.7575C109.397 17.3912 109.397 18.0151 109.533 18.6195V23.8349C109.368 23.9421 109.436 24.2248 109.426 24.4003C109.251 41.3723 105.507 59.7774 98.6053 75.2676C91.1965 91.8887 79.6641 106.063 66.1723 118.112C63.6475 120.374 61.0349 122.703 57.6814 123.639C57.1745 123.776 56.6481 123.854 56.1509 124H53.4896C50.7893 123.552 48.5179 122.275 46.383 120.617C41.8013 117.049 36.7516 111.912 32.7742 107.632C10.4796 83.622 1.67673 57.4085 0.204716 24.8195C0.185219 24.3906 0.0974843 23.7569 0 23.3377V18.834C0.321698 17.3717 0.428932 15.9484 0.945599 14.5154C2.99277 8.86132 9.31949 6.94088 14.5447 5.30314C25.9211 1.74497 38.1553 0.438678 50.0582 0.11698L50.3019 0.00975051H58.8902L58.9097 0ZM53.8796 3.20723C39.7833 3.53868 24.7903 4.67925 11.5421 9.74843C3.49969 12.8289 3.14875 15.3733 3.39246 23.6789C4.31856 55.683 13.755 82.8811 35.8547 106.19C39.2764 109.797 43.1855 113.657 46.9484 116.884C51.9494 121.163 55.6245 122.46 61.2591 118.102C64.1154 115.889 67.2154 112.838 69.8085 110.294C93.7116 86.7708 104.562 60.2355 106.16 26.662C106.463 20.3742 107.701 14.1157 101.013 10.9377C91.0601 6.20975 75.6868 4.12358 64.6906 3.48994L53.8796 3.21698V3.20723Z" fill="black"/>
<path d="M32.325 91.8682C32.5102 91.2248 32.5199 90.5521 32.325 89.9282L31.8668 90.016L31.6913 91.8389L31.4573 91.9267C31.1649 91.9072 30.7067 91.0103 30.6385 90.7374C30.3753 89.7138 31.1357 88.3392 31.7693 87.5594C31.935 87.3547 32.2957 87.1597 32.3737 87.0427C32.5102 86.8282 32.5297 86.2726 32.6272 85.9704C33.1048 84.5763 34.2649 83.5625 35.386 82.6852C35.2592 81.6811 35.0838 80.5697 35.2202 79.5559C35.3372 78.6883 36.0001 78.0546 36.2926 77.2553C37.1992 74.7792 35.6589 72.2251 36.4973 69.5833C36.6728 69.0374 37.0334 68.5987 37.2089 68.0528C37.7938 66.2688 37.2089 65.0405 37.3454 63.276C37.6476 59.5814 39.4998 58.0899 41.1083 55.1751C42.5218 52.6015 40.3869 49.794 42.6583 47.1131C44.6275 44.7833 47.396 43.8572 49.8916 42.3754C51.0907 41.6638 51.6756 40.6499 52.7382 39.8018C53.4595 39.2267 54.8926 38.1836 55.8089 38.1543C56.9885 38.1251 59.5036 39.4119 60.7904 39.8213C62.2234 40.2892 63.9586 40.7669 65.4501 40.9911C67.4875 41.2933 68.1797 41.0789 67.468 38.8757C67.0391 37.5499 66.3177 37.0625 64.9822 36.7603C60.4004 35.7172 55.5067 36.7603 50.8957 36.5361C49.375 36.4581 46.197 36.0389 45.5146 34.4499C44.0816 31.1452 50.2816 29.2053 52.6407 29.0591C54.4929 28.9421 60.6734 29.6732 61.9504 31.0087C62.5256 31.6131 62.2234 32.2273 61.4338 32.3345C59.7668 32.5392 59.4061 31.6326 58.2753 31.6229C57.9243 31.6229 57.7586 31.7984 57.3004 31.6716C56.8423 31.5449 56.696 31.1062 56.2866 31.0087C55.8479 31.9836 56.9202 32.2565 57.6806 32.2955C58.1778 32.3248 58.6652 31.9641 58.9479 32.6855C59.2306 33.4069 58.6945 33.4946 58.0706 33.5628C56.1501 33.7481 53.713 33.7091 51.9485 32.8317C51.3441 32.5295 50.3206 31.5352 49.7844 31.5059C49.3067 31.4864 47.9809 32.1981 47.6397 32.5392C46.8111 33.3581 48.1466 33.5921 48.79 33.7383C53.0111 34.6839 56.891 34.294 61.1316 34.177C65.3721 34.06 69.9539 34.7716 70.1879 39.9676C70.2366 40.9716 69.7979 41.7028 69.5152 42.5801C70.763 44.5006 72.3617 46.3138 73.59 48.2342C75.296 50.8955 74.2529 52.3383 74.4869 55.1069C74.5746 56.0914 74.9646 57.1638 75.0816 58.1874C75.1985 59.2109 75.218 60.3223 75.1985 61.3946H73.3561C73.5608 59.7471 72.4592 58.0899 72.43 56.4326C72.4105 55.2921 72.9174 54.0638 72.9564 52.9622C73.0539 49.7257 69.8077 46.5185 68.1504 43.9547C67.6922 43.3892 65.3526 44.3543 65.1869 44.7735C65.1089 44.9685 65.3039 44.9197 65.4111 44.949C65.9278 45.1147 66.2885 45.1732 66.6004 45.6996C66.9124 46.226 67.507 48.3707 67.5363 48.9653C67.6435 51.0223 64.9822 50.0572 64.0561 49.1701C62.4866 47.6688 60.7416 44.8613 59.2014 43.0773C58.9284 42.7653 58.0023 41.5858 57.7781 41.4396C57.6514 41.3616 57.5734 41.3128 57.4174 41.3421C57.3492 41.6053 57.2224 41.8685 57.4174 42.1122C59.3671 44.5786 61.4338 46.9864 62.9643 49.755C63.6856 51.071 65.6353 54.8631 65.6061 56.2182C65.5963 56.7641 65.3624 56.8713 64.9432 56.5691C63.9391 55.8477 63.9683 54.015 62.9448 53.1962C62.8375 54.249 62.2526 54.5024 61.2485 54.4245C60.6831 54.3855 59.5328 53.7713 59.7668 54.9801C59.874 55.5163 61.0633 55.1848 61.5605 55.2336C62.2624 55.3116 62.9545 55.799 62.7985 56.5691L62.2429 56.6471L62.0577 56.2474H60.5954L60.4882 57.0663C62.1551 57.4465 64.4363 56.6179 64.8457 58.9185C67.624 58.8795 69.9344 58.5773 72.196 60.449C72.4592 60.6635 73.2099 61.5603 73.3756 61.6285C73.5218 61.687 73.7655 61.5603 74.0092 61.5896C75.413 61.7748 76.4853 63.5197 77.5187 64.3289C78.6105 65.1867 80.9599 65.7229 82.2759 65.3037C82.6463 65.1867 83.0655 64.5531 83.4067 64.982C83.8941 65.6059 82.3636 66.688 81.8957 66.9707C79.6536 68.277 77.1872 67.9943 75.0816 66.5613C74.4479 66.1323 73.668 65.1867 73.0539 64.904C72.7224 64.748 72.079 64.7383 71.8938 64.5336C71.5624 64.1924 71.8256 62.7886 71.7378 62.2914C70.1099 62.0575 68.6573 60.527 66.9416 61.2094C67.1756 61.726 68.9693 62.2817 68.8718 62.8276C68.7743 63.3735 67.0781 62.9348 66.6882 62.7984C66.4347 62.7106 66.0253 62.5059 65.8303 62.3207C65.3916 61.9015 65.4111 61.4043 64.4948 61.5603C64.6507 62.6424 63.4322 62.2622 62.7985 62.5741C62.6036 63.3248 62.8863 63.549 63.5004 63.8317C64.5143 64.2899 67.3218 64.7091 68.4234 64.6311C68.9985 64.5921 71.0554 63.6465 69.9929 65.0795C67.3316 68.6572 58.2948 66.3175 58.6652 61.4141C58.8504 59.0062 61.0536 59.4254 62.857 59.1135C62.8863 59.0842 62.779 58.587 62.7303 58.5285C62.3696 58.1289 60.6051 58.4213 60.0982 58.5578C59.6108 58.6845 58.8114 59.133 58.4118 59.133C57.7001 59.133 56.7838 58.2069 55.8674 58.704C55.6237 58.8795 56.1209 61.0534 56.3353 61.4141C56.8033 62.2037 58.3338 62.9836 58.9577 64.0072C59.835 65.4304 59.0454 66.1128 58.441 67.2437C57.4759 69.0764 56.2476 71.2113 56.7253 73.3462C57.8951 73.2389 57.8951 70.4314 59.2014 70.7043C60.4102 70.9578 59.4841 73.0147 59.2014 73.7264C58.8797 74.516 58.2753 75.4226 58.168 76.2804C58.0413 77.3235 58.2265 78.2496 58.6652 79.1855C59.0259 79.4584 58.9869 77.9474 59.8935 78.1034C61.2388 78.3276 61.346 79.9458 59.6888 79.7509C60.2055 80.9499 62.2819 80.3748 63.2665 80.0628C65.3624 79.3902 64.758 76.6216 65.2551 74.8962C65.996 72.3616 68.7353 70.5873 70.7727 69.1641C71.4649 68.3062 71.2017 65.6352 72.079 65.255C72.7809 64.9528 73.9117 66.1421 74.2822 66.6782C76.4756 69.8855 75.2765 76.4462 76.3099 80.404C76.5341 81.2619 76.924 81.6518 76.8363 82.6072C76.7193 83.8745 76.1929 84.7323 74.7989 84.3034C75.0231 83.7575 74.8086 83.2701 74.1847 83.2798L74.0775 84.5081C72.6055 84.1669 71.7183 83.5723 71.9426 81.9053C72.0303 81.2814 72.6444 80.4138 72.6347 79.8484C72.6347 79.5462 72.3812 79.3414 72.3422 79.0392C72.1765 77.8207 72.9661 76.2707 72.3325 75.0619C72.1375 74.6817 71.6599 74.2333 71.4064 73.8433C70.997 73.2194 70.607 72.4688 70.1879 71.8936C70.1196 71.7962 70.1099 71.7182 69.9636 71.7377C69.6322 71.7669 67.819 73.3852 67.546 73.7264C65.8985 75.754 66.4347 78.2009 65.7036 80.3748C64.9724 82.5487 62.2526 82.2855 60.4297 82.1685C56.8617 81.9248 57.086 80.0921 56.3938 77.304C56.3646 77.1773 56.4718 77.1286 56.2476 77.1578C54.1517 77.3918 55.6334 79.6144 55.224 80.5307C55.0485 80.9207 54.1907 80.9402 54.1419 81.1157C54.0737 81.8663 54.9413 83.2798 54.4051 83.9135C54.1712 84.1864 52.397 84.4594 51.9388 84.5179C51.5391 84.5666 49.8819 84.8688 49.8624 84.2839C49.8234 83.933 50.3303 83.582 50.3498 83.3383C50.3693 83.1238 50.1451 82.6462 49.8721 82.8119C49.7844 82.8606 49.6089 83.5333 49.297 83.7185C48.9753 83.9037 48.7121 83.8842 48.5756 83.5138C48.0199 82.032 49.3847 81.1644 50.1548 80.1896C50.925 79.2147 51.6561 78.2301 52.0753 77.0993C52.1143 76.9823 52.397 76.3682 52.1533 76.3584C50.574 76.7776 50.5935 78.3959 49.6869 79.5169C49.2287 80.0823 48.6438 80.3748 48.1564 80.8524C46.7039 82.2757 46.2165 84.8688 45.3976 86.682C44.5787 88.4952 43.3992 88.7389 41.4787 88.7194C41.1278 88.4952 41.9077 86.7698 40.8646 87.1207C41.0303 87.6666 39.8702 88.076 39.6168 87.7738C39.1489 87.2182 39.49 85.2002 39.7435 84.5179C40.4454 82.6657 42.6193 81.8273 44.0133 80.6087C45.1246 79.6339 44.8419 79.4097 44.9394 78.0644C44.9589 77.8304 45.1344 77.5282 45.1246 77.3333C45.1246 77.187 44.9492 77.0603 44.9199 76.8361C44.7347 75.2471 44.7737 73.6191 44.6177 72.0204C44.5787 71.8059 44.3155 71.5037 44.0816 71.5719C43.8671 71.6304 42.9312 73.1122 42.7363 73.4144C42.1806 74.3112 40.5624 76.9628 40.2992 77.8304C40.1334 78.4056 40.2602 79.0003 40.2017 79.5754C40.0165 81.5446 38.9734 82.4999 37.4721 83.5918C37.5209 83.894 37.3649 84.2547 37.3649 84.5081C37.3551 85.5024 37.7548 87.3936 37.1992 88.2223C37.0529 88.4367 36.7897 88.583 36.663 88.8072C36.1658 89.6455 36.78 91.2345 36.0001 91.6245C35.8734 91.683 34.9668 91.9072 34.8498 91.9072H32.3445L32.325 91.8682ZM53.6155 31.6424C53.4985 31.7399 53.2548 32.1591 53.4888 32.276C53.8982 32.315 55.3312 33.0267 55.5945 32.6367L55.6432 31.7594C55.1753 31.6229 54.0055 31.3304 53.6253 31.6326L53.6155 31.6424ZM60.3029 48.5267C59.8448 48.0685 58.0511 47.1814 57.4369 47.3764C57.2322 47.4446 57.2322 47.6981 57.2809 47.8638L57.8756 48.0782C57.5636 49.2968 55.302 47.854 55.1168 49.0531C54.9608 50.1157 55.6042 50.0864 56.4816 50.0084C56.9105 49.9694 57.3199 49.7062 57.7489 49.8914C58.4117 50.1839 59.6693 53.3131 60.8976 52.2701C61.8919 51.4317 61.0731 49.2968 60.2932 48.5169L60.3029 48.5267ZM45.924 53.9175V55.604C45.924 55.6723 45.3196 56.2182 45.2319 56.6471C45.1051 57.2613 45.2514 58.0314 45.8558 58.3336C46.0215 58.4116 46.7526 58.6163 46.8988 58.6163H49.1507C49.1507 58.6163 49.4139 58.4993 49.4042 58.4603C49.0923 57.6414 48.3026 57.4075 47.7762 56.7153C47.1718 55.9355 46.7916 54.8631 46.5382 53.9175H45.9338H45.924ZM55.3312 74.5745C54.7756 72.1568 52.358 70.7433 52.6797 68.0918C52.8356 66.8147 54.2687 65.8301 55.0778 64.9625C56.3938 63.549 55.3897 63.1493 54.8048 61.8625C54.4051 60.9949 53.9665 58.587 52.6504 58.743C52.436 58.7723 51.5099 59.1427 51.3539 59.2889C50.9445 59.6691 50.7787 60.7414 50.3303 61.2289C49.6382 61.9697 48.2539 61.9502 47.396 61.5018C46.7721 61.1801 46.3237 60.4198 45.5243 60.9267C44.608 61.5018 44.7542 63.7927 43.1652 63.4905C42.4048 63.3443 42.0929 62.4962 41.7029 62.5254C41.4105 62.5547 40.7573 63.549 40.6794 63.8609C40.5234 64.4459 40.6306 65.0113 40.4552 65.6839C39.88 67.9163 37.8328 71.7864 38.4275 74.0481C38.6127 74.7402 39.0026 74.8377 39.4803 74.321C40.2504 73.4924 41.6444 71.3087 42.2878 70.2754C42.5023 69.9245 42.4146 69.5638 42.863 69.3201C43.1457 69.1641 43.8963 69.0764 44.2375 69.0569C45.3196 68.9789 47.8347 68.9399 48.7608 69.4468C49.0338 69.593 49.3847 69.9245 49.4139 70.2364C49.5407 71.4745 47.357 70.8798 46.8501 71.26C46.6844 71.3867 46.7331 72.498 46.7624 72.7808C46.8306 73.5021 47.1328 74.2723 47.2693 74.9936L55.341 74.5842L55.3312 74.5745ZM73.0441 68.4719C72.7322 68.7449 71.8646 70.4021 71.8938 70.8311C71.9231 71.3087 73.0636 73.0147 73.4926 73.2292C73.8728 73.4339 74.1067 73.3267 74.1457 72.888C73.9215 71.7669 73.9995 70.5289 73.824 69.4175C73.7753 69.1348 73.6778 68.4135 73.3658 68.3452C73.2489 68.3452 73.1416 68.3842 73.0539 68.4622L73.0441 68.4719ZM48.3514 77.3528C47.3473 77.5185 46.6064 79.7314 48.1467 79.205C49.1995 78.8443 49.4237 77.1773 48.3514 77.3528ZM37.3356 81.3301C38.3202 81.4959 39.4218 79.1465 38.3885 78.893C37.9888 78.7955 37.5209 79.3707 37.3844 79.7021C37.1602 80.2773 37.2284 80.7452 37.3356 81.3399V81.3301Z" fill="black"/>
<path d="M35.1818 7.7793V20.6667L33.2419 20.9689V14.5252L30.7853 22.0997L30.5708 21.9535L27.929 14.7299V21.6903L25.8818 22.0997V9.21232L28.0167 8.91986L30.5318 15.7535L33.0274 8.14973L35.1818 7.7793Z" fill="black"/>
<path d="M88.8662 10.7422L91.2936 11.2784L94.5885 19.9447V12.1752L96.6357 12.7894V25.9887L94.2766 25.3063L90.9134 16.2695V24.2438L88.8662 23.6881V10.7422Z" fill="black"/>
<path d="M37.2295 20.5596V7.41875C37.2977 7.31151 37.3757 7.29202 37.4927 7.27253C38.6918 7.02882 41.0899 6.68762 42.2012 7.05806C44.882 7.96466 44.8528 10.9867 43.488 13.0338C44.687 14.0672 44.9112 16.3093 44.3458 17.7033C43.1663 20.5986 39.7933 20.121 37.2392 20.5694L37.2295 20.5596ZM39.3742 12.5854C40.8754 12.3904 42.3084 12.293 42.3474 10.392C42.3864 8.49108 40.6902 8.84202 39.3742 9.00775V12.5854ZM39.2767 18.2103C40.6707 18.1615 42.3767 18.1908 42.5521 16.4263C42.8153 13.8235 41.2751 14.3206 39.3742 14.5254L39.2767 18.2103Z" fill="black"/>
<path d="M63.4044 20.1498H61.2598L59.2613 14.525H57.7796V20.0524H55.7324L55.8299 6.55078H59.661C59.9047 6.55078 60.7139 6.76525 60.9966 6.85299C64.2428 7.91557 64.2233 12.702 61.3768 14.2715L63.3947 20.1596L63.4044 20.1498ZM57.7796 12.4778H60.2849C60.2849 12.4778 60.7821 12.1951 60.8503 12.1269C61.6205 11.4152 61.6887 9.63129 60.7821 9.01714C60.5481 8.86116 59.7195 8.58821 59.4661 8.58821H57.9356L57.7796 8.74418V12.4778Z" fill="black"/>
<path d="M74.5566 7.7793L76.5941 8.0815L76.6428 13.9208L80.1815 14.6324V8.69565L81.946 8.91986L82.1214 9.05634V22.4019L80.0743 22.0997L80.0255 16.6699L76.5941 16.0655V21.4856L74.5566 21.2809V7.7793Z" fill="black"/>
<path d="M49.4733 6.47291C54.9422 5.67353 54.9422 15.266 53.0217 18.405C51.4425 20.9688 48.3815 20.9688 46.8607 18.3465C45.2425 15.5389 45.301 7.08706 49.4733 6.47291ZM49.678 8.51032C49.4245 8.56881 48.9956 8.99775 48.8494 9.21221C47.6698 10.8597 47.6406 15.227 48.4984 17.0207C49.1906 18.4635 50.4286 18.7949 51.3352 17.3229C52.3978 15.5974 52.4563 11.3179 51.4717 9.54365C51.0818 8.83202 50.5846 8.30561 49.6877 8.51032H49.678Z" fill="black"/>
<path d="M72.4019 11.2499H70.3548C70.1793 10.4505 70.0818 9.41715 69.068 9.30992C68.4343 9.24168 67.7812 9.74859 67.4887 10.275C66.7673 11.5813 66.7771 16.1533 67.4107 17.5181C68.1126 19.0388 70.0526 18.9706 70.4132 17.1866C70.4425 17.0307 70.5692 15.9778 70.5497 15.9194C70.4522 15.5977 69.3312 15.8121 69.0192 15.7536V13.8624L69.1752 13.7065H72.4507C72.5481 13.7747 72.5871 13.8429 72.6066 13.9599C72.7236 14.6131 72.5969 16.4068 72.4897 17.1184C72.1485 19.4678 70.579 21.1055 68.0834 20.5304C64.7299 19.7602 64.7494 15.042 64.9444 12.3222C65.1393 9.60237 66.4554 6.53162 69.8283 7.42847C71.6805 7.92564 72.3044 9.47564 72.4019 11.2401V11.2499Z" fill="black"/>
<path d="M21.5824 10.332L24.3412 22.4006L22.294 22.9172L21.6799 19.8562L19.3988 20.2754L19.2428 20.4314L18.4922 23.9213L16.2598 24.4478L19.2818 10.9462C19.467 10.605 21.1535 10.5075 21.5824 10.332ZM21.173 17.7993L20.4613 15.0405L19.8472 18.1113L21.173 17.7993Z" fill="black"/>
<path d="M11.1517 13.4043V24.0398L15.246 22.5093V24.7612L9.11426 27.0131V13.8137L11.1517 13.4043Z" fill="black"/>
<path d="M86.5179 9.82545V23.327L84.4707 22.9176V9.41602L86.5179 9.82545Z" fill="black"/>
<path d="M98.8877 13.6113L100.818 14.128C101.052 18.5148 100.876 22.9211 100.925 27.3176L98.8779 26.8107V13.6113H98.8877Z" fill="black"/>
<path d="M60.6835 70.7562C60.1669 70.2493 60.2741 68.9527 60.664 68.3971C61.1027 67.7732 61.3952 69.1672 61.5901 69.4889C61.8728 69.9471 62.7404 70.454 62.7014 70.9317C62.6235 71.7115 61.0345 71.0974 60.6933 70.7464L60.6835 70.7562Z" fill="black"/>
</svg>
