<svg width="251" height="94" viewBox="0 0 251 94" fill="none" xmlns="http://www.w3.org/2000/svg">
<path d="M186.92 40.54L147.19 58.35C146.71 57.3 146.06 56.17 145.34 55.13L182.09 28.7L186.93 40.55L186.92 40.54ZM133.41 64.47L146.14 58.83C145.9 58.35 145.66 57.78 145.33 57.3C145.09 56.82 144.69 56.33 144.44 55.85L133.08 63.99L133.4 64.47H133.41ZM179.75 28.53L144.69 54.16C143.88 53.19 143.08 52.31 142.19 51.42L172.57 17.89L179.74 28.53H179.75ZM132.44 63.02L143.64 54.8C143 53.91 142.19 53.03 141.38 52.22L132.03 62.62L132.43 63.02H132.44ZM141.3 50.53C140.9 50.13 140.41 49.72 139.93 49.4L138.32 48.35L161.05 9.18L170.4 18.05C170.24 18.13 141.31 50.53 141.31 50.53M140.5 51.42L139.21 50.37L137.76 49.4L130.75 61.49L131.23 61.89L140.5 51.41V51.42ZM137.19 47.79C136.14 47.23 135.01 46.66 133.89 46.34L147.91 3.3L158.79 10.07C158.71 9.99 137.19 47.79 137.19 47.79ZM136.71 48.76C135.66 48.2 134.61 47.71 133.49 47.39L129.14 60.69L129.7 61.01C129.7 60.93 136.63 48.76 136.71 48.76ZM71.1098 30.14L106.57 55.2C105.93 56.25 105.28 57.3 104.8 58.42L63.2998 40.37L71.1198 30.13L71.1098 30.14ZM118.98 63.99L107.62 55.93C106.98 56.9 106.41 57.86 105.93 58.91L118.66 64.47L118.98 63.99ZM80.2198 19.5L109.72 51.41C108.83 52.3 108.11 53.18 107.3 54.15L70.5498 27.88L80.2198 19.5ZM110.6 52.3C109.71 53.03 108.99 53.99 108.26 54.88L119.62 63.02L120.02 62.62L110.59 52.3H110.6ZM91.4998 11.04L113.66 48.43C113.18 48.67 112.69 49.07 112.21 49.4C111.73 49.72 111.24 50.21 110.76 50.61L80.2198 17.16L91.4998 11.03V11.04ZM114.23 49.4C113.75 49.72 113.34 50.04 112.86 50.29L111.41 51.42L120.84 61.74L121.32 61.42L114.23 49.41V49.4ZM104.31 5.16L118.09 46.34C116.88 46.74 115.75 47.23 114.71 47.87L91.9798 8.78L104.31 5.15V5.16ZM118.42 47.39L116.89 48.03C116.33 48.19 115.84 48.51 115.28 48.76L122.37 60.85L122.93 60.53L118.42 47.39ZM117.93 1.85L122.85 45.13C121.64 45.29 120.43 45.53 119.3 45.94L105.12 2.98L117.93 1.85ZM123.01 46.26C121.88 46.42 120.75 46.66 119.63 46.99L123.98 60.29L124.54 60.13C124.62 60.13 123.01 46.27 123.01 46.27M145.9 4.51L132.68 45.93C131.47 45.53 130.26 45.29 129.13 45.12L133.8 0.150002L145.89 4.5L145.9 4.51ZM128.09 60.28L132.36 46.98C131.23 46.58 130.1 46.42 128.98 46.25L127.53 60.11L128.09 60.27V60.28ZM127.85 44.97C126.64 44.89 125.35 44.89 124.14 44.97L119.3 0L132.03 1.69L127.84 44.97H127.85ZM127.68 46.1C126.55 46.02 125.34 46.02 124.3 46.1L125.75 59.96H126.39L127.68 46.1Z" fill="#241F20"/>
<path d="M242.39 78.6016H239.36V78.6716L240 79.8716V93.1316H250.18V90.9516H242.39V78.6016Z" fill="#241F20"/>
<path d="M226.05 87.6116L228.4 81.8616H228.46L230.89 87.6116H226.05ZM226.75 78.6016V78.6616L227.12 79.5716L221.29 93.1316H223.8L225.21 89.6816H231.75L233.2 93.1316H235.73L229.38 78.6016H226.74H226.75Z" fill="#241F20"/>
<path d="M220.61 78.6016H207.6V78.6716L208.72 80.7416H213.1V93.1316H215.48V80.7416H220.61V78.6016Z" fill="#241F20"/>
<path d="M194.1 78.6016H191.07V78.6716L191.72 79.8716V93.1316H194.1V82.1716L203.88 93.4216H204.21V78.6016H201.83V87.5516L194.1 78.6016Z" fill="#241F20"/>
<path d="M186.74 78.6016H175.65V78.6716L176.3 79.8716V93.1316H186.95V90.9516H178.68V86.3516H185.1V84.2716H178.68V80.7816H186.74V78.6016Z" fill="#241F20"/>
<path d="M170.14 78.6016H167.11V78.6716L167.75 79.8716V93.1316H170.14V78.6016Z" fill="#241F20"/>
<path d="M152.95 84.8518V80.6818H157.16C158.8 80.6818 159.61 81.6818 159.61 82.7818C159.61 83.8818 158.8 84.8618 157.16 84.8618H152.95V84.8518ZM157.25 78.6018H149.92V78.6618L150.56 79.8618V93.1218H152.95V86.9118H155.54L160.29 93.1218H163.11L158.31 86.8318C160.59 86.4418 162.03 84.8418 162.03 82.6418C162.03 80.1718 160.39 78.5918 157.23 78.5918" fill="#241F20"/>
<path d="M138.51 93.5709C142.77 93.5709 146.23 90.0809 146.23 85.8309C146.23 81.5809 142.76 78.1309 138.51 78.1309C134.26 78.1309 130.79 81.5609 130.79 85.8309C130.79 90.1009 134.26 93.5709 138.51 93.5709ZM138.51 91.1609C135.58 91.1609 133.2 88.7509 133.2 85.8309C133.2 82.9109 135.59 80.5409 138.51 80.5409C141.43 80.5409 143.82 82.8909 143.82 85.8309C143.82 88.7709 141.43 91.1609 138.51 91.1609Z" fill="#241F20"/>
<path d="M111.86 78.6016H108.83V78.6716L109.48 79.8716V93.1316H111.86V82.1716L121.64 93.4216H121.97V78.6016H119.59V87.5516L111.86 78.6016Z" fill="#241F20"/>
<path d="M104.16 78.6016H101.13V78.6716L101.77 79.8716V93.1316H104.16V78.6016Z" fill="#241F20"/>
<path d="M87.4304 84.8518V80.6818H91.6404C93.2804 80.6818 94.0904 81.6818 94.0904 82.7818C94.0904 83.8818 93.2804 84.8618 91.6404 84.8618H87.4304V84.8518ZM91.7304 78.6018H84.4004V78.6618L85.0404 79.8618V93.1218H87.4304V86.9118H90.0204L94.7704 93.1218H97.5904L92.7904 86.8318C95.0704 86.4418 96.5104 84.8418 96.5104 82.6418C96.5104 80.1718 94.8704 78.5918 91.7104 78.5918" fill="#241F20"/>
<path d="M72.2795 87.6116L74.6295 81.8616H74.6895L77.1195 87.6116H72.2795ZM72.9795 78.6016V78.6616L73.3495 79.5716L67.5195 93.1316H70.0295L71.4395 89.6816H77.9795L79.4295 93.1316H81.9595L75.6095 78.6016H72.9695H72.9795Z" fill="#241F20"/>
<path d="M59.0902 90.8718H55.2102V80.8918H59.0902C60.4202 80.8518 61.7102 81.3718 62.6402 82.3018C63.5702 83.2318 64.0902 84.5618 64.0702 85.8918C64.0902 87.2218 63.5702 88.5318 62.6402 89.4618C61.7102 90.3918 60.4202 90.8918 59.0902 90.8718ZM59.0902 78.6018H52.1602V78.6618L52.8002 79.8618V93.1218H59.1902C63.3402 93.0818 66.4802 89.9418 66.4802 85.8818C66.4802 81.8218 63.3002 78.5918 59.0902 78.5918" fill="#241F20"/>
<path d="M38.4099 78.6016H35.3799V78.6716L36.0199 79.8716V93.1316H38.4099V82.1716L48.1899 93.4216H48.5199V78.6016H46.1299V87.5516L38.4099 78.6016Z" fill="#241F20"/>
<path d="M23.3604 87.6116L25.7104 81.8616H25.7704L28.2004 87.6116H23.3604ZM24.0704 78.6016V78.6616L24.4403 79.5716L18.6104 93.1316H21.1203L22.5303 89.6816H29.0704L30.5204 93.1316H33.0504L26.7004 78.6016H24.0604H24.0704Z" fill="#241F20"/>
<path d="M3.03 78.6016H0V78.6716L0.65 79.8716V93.1316H3.03V83.3416L8.02 93.1316H8.35L13.31 83.2116V93.1316H15.7V79.8716L16.34 78.6716V78.6016H13.31L8.22 88.7516L3.03 78.6016Z" fill="#241F20"/>
</svg>
