<svg width="158" height="100" viewBox="0 0 158 100" fill="none" xmlns="http://www.w3.org/2000/svg">
<path d="M0.00999451 78.4629H10.85C12.69 78.4629 14.18 78.7329 15.33 79.2829C16.44 79.7929 17.33 80.5529 17.98 81.5829C18.63 82.6129 18.96 83.8529 18.96 85.3229C18.96 88.5429 17.51 90.6929 14.62 91.7729L19.78 98.9829H15.09L10.34 92.3329H3.71999V98.9829H0V78.4729L0.00999451 78.4629ZM3.73 88.7829H10.73C11.84 88.7829 12.67 88.6729 13.22 88.4629C14.59 88.0129 15.27 86.9829 15.27 85.3529C15.27 83.9229 14.65 82.9629 13.42 82.4529C12.83 82.2029 11.93 82.0729 10.69 82.0729H3.71999V88.7829H3.73Z" fill="#010101"/>
<path d="M42.9297 98.9846L40.9997 94.6746H29.3397L27.4397 98.9846H23.4297L32.8097 78.4746H37.6997L47.0497 98.9846H42.9497H42.9297ZM35.1597 81.4846L30.8797 91.1246H39.4397L35.1597 81.4846Z" fill="#010101"/>
<path d="M52.1602 78.4631H68.3602V82.1231H55.9102V87.0731H66.9902V90.7031H55.9102V98.9631H52.1602V78.4531V78.4631Z" fill="#010101"/>
<path d="M74.2197 78.4631H90.4197V82.1231H77.9697V87.0731H89.0497V90.7031H77.9697V98.9631H74.2197V78.4531V78.4631Z" fill="#010101"/>
<path d="M96.29 78.4629H100.16V95.2829H112.26V98.9729H96.29V78.4629Z" fill="#010101"/>
<path d="M117.11 78.4631H133.93V82.0631H120.8V86.7831H132.32V90.3531H120.8V95.3631H134.34V98.9631H117.11V78.4531V78.4631Z" fill="#010101"/>
<path d="M157.45 81.4837L154.7 83.8837C153.31 82.3637 151.25 81.5938 148.52 81.5938C146.84 81.5938 145.63 81.8337 144.89 82.3237C144.15 82.8137 143.78 83.3737 143.78 84.0237C143.78 84.8637 144.18 85.4737 144.97 85.8537C145.76 86.2337 146.95 86.4937 148.53 86.6337L150.82 86.8438C153.03 87.0438 154.76 87.6337 156.02 88.6337C157.28 89.6337 157.91 91.0437 157.91 92.8837C157.91 94.7237 157.15 96.2837 155.64 97.5137C154.13 98.7437 151.9 99.3637 148.97 99.3637C144.67 99.3637 141.47 98.0937 139.36 95.5537L142.23 93.1537C143.13 94.1337 144.12 94.8237 145.2 95.2337C146.28 95.6437 147.61 95.8537 149.17 95.8537C150.83 95.8537 152.08 95.5837 152.91 95.0437C153.74 94.5037 154.16 93.8237 154.16 93.0037C154.16 91.4637 152.74 90.5537 149.91 90.2737L147.48 90.0437C145.12 89.8137 143.28 89.2437 141.99 88.3637C140.69 87.4737 140.04 86.0937 140.04 84.2137C140.04 82.3337 140.79 80.8937 142.28 79.7737C143.77 78.6537 145.91 78.0938 148.68 78.0938C152.53 78.0938 155.46 79.2237 157.47 81.4937L157.45 81.4837Z" fill="#010101"/>
<path d="M116.53 49.5739C116.53 49.5739 116.49 49.6539 116.48 49.6839C115.81 49.2839 115.07 48.8939 114.43 48.4639C115 47.9239 115.4 47.4239 115.37 46.9039C115.32 46.2339 114.89 45.4939 113.96 45.5539C113.03 45.6139 111.92 47.3039 113.38 48.5239C112.92 48.9239 112.49 49.2839 112.3 49.4639C111.98 49.7639 111.72 50.0239 111.49 50.2739C110.79 49.8239 109.97 49.3939 109.36 49.0339C109.67 48.7539 109.92 48.4839 110.06 48.2739C110.79 47.1139 110.03 46.1739 108.98 46.1839C108.34 46.1839 107.59 46.9839 107.59 47.7839C107.59 48.4239 107.79 48.7239 108.29 49.1039C107.71 49.6039 107.07 50.1039 106.59 50.5339C106.49 50.6239 106.4 50.7139 106.31 50.8039C105.91 50.5139 105.41 50.1939 104.75 49.8439C104.64 49.7839 104.55 49.7239 104.45 49.6739C104.8 49.3939 105.09 49.0939 105.29 48.7839C105.76 48.0639 105.31 46.5439 103.89 46.8239C102.77 47.0439 102.34 48.7639 103.3 49.6539C103.31 49.6739 103.34 49.6839 103.36 49.7039C103.16 49.8339 102.95 49.9739 102.73 50.1139C102.43 50.2939 102.18 50.4539 101.94 50.6039C101.85 50.3339 101.76 50.0639 101.65 49.7639C101.32 48.8539 100.9 47.9839 100.41 47.1639C102.45 46.5439 104.48 45.8639 106.43 45.1839C111.49 43.4339 115.39 42.9339 117.08 44.1239C118.15 44.8739 117.89 46.7339 116.55 49.5839M117.79 52.0439C117.64 52.9139 116.51 52.7739 116.52 51.4539C116.52 51.2039 116.59 50.9039 116.69 50.5839C117.55 51.2139 117.86 51.6739 117.79 52.0439ZM113.88 48.0739C113.67 47.8939 113.49 47.7139 113.34 47.5239C112.95 47.0139 113.4 45.8639 113.98 45.8839C114.81 45.9139 114.83 46.8139 114.71 47.1339C114.64 47.3339 114.29 47.6939 113.88 48.0739ZM112.5 52.2839C112.48 53.3639 111.09 53.1439 111.06 52.1839C111.05 51.8339 111.22 51.5139 111.58 51.1139C112.11 51.5039 112.51 51.9139 112.51 52.2839M108.76 48.6739C108.76 48.6739 108.72 48.6439 108.7 48.6339C108.02 48.0939 108.08 47.4739 108.27 47.0739C108.57 46.4239 109.59 46.1839 109.7 47.3539C109.73 47.6739 109.32 48.1539 108.76 48.6839M107.19 52.8939C107.13 53.5639 106.07 53.8739 105.82 52.8939C105.73 52.5339 106.04 52.0639 106.43 51.6339C106.9 52.0439 107.23 52.4639 107.19 52.8939ZM103.88 49.2839C102.94 48.4839 103.24 47.7939 103.57 47.3939C103.93 46.9739 104.45 47.1639 104.6 47.2939C105.18 47.7539 104.85 48.4739 103.88 49.2839ZM100.78 53.6539C100.49 53.5339 100.24 53.1839 100.38 52.6339C100.47 52.2939 100.94 51.9339 101.55 51.5439C102.07 53.5639 101.2 53.8239 100.77 53.6539M92.4904 40.7639C88.3204 42.2939 86.5204 41.4839 86.3904 40.6539C86.2604 39.7739 87.7504 39.4239 88.7904 39.5539C89.5904 39.6639 90.9604 40.0339 92.5004 40.7639M91.1904 32.8739C89.0804 34.6039 87.6604 35.2439 86.5604 34.8939C85.5304 34.5639 86.4704 33.2639 87.1804 32.9439C88.1904 32.4839 89.3404 32.3539 91.1904 32.8739ZM88.8804 25.7139C88.4004 26.6939 87.9504 27.5139 87.5504 28.0639C86.5604 29.4439 84.3404 29.5239 85.0204 27.7939C85.3704 26.9139 86.8604 26.0939 88.8804 25.7139ZM96.3404 47.7339C92.5704 48.6339 85.0104 50.4939 82.3704 46.5939C82.2604 45.5239 81.7204 44.4339 80.4404 43.4739C80.1004 43.2239 79.7704 42.9939 79.4404 42.7839C80.8504 41.9039 82.2104 40.9539 82.3404 39.1439C82.5204 36.6239 80.9004 35.5539 79.5504 34.8739C80.9204 34.1839 82.2104 33.4339 82.3204 31.5239C82.4904 28.5339 80.2404 26.5139 79.7404 25.9139C79.6404 25.7939 79.5304 25.6739 79.4304 25.5539C82.2004 22.6539 85.4504 21.0339 90.0304 20.6039C90.4504 20.5639 90.8404 20.5439 91.2204 20.5439C90.5104 22.1539 89.8104 23.7639 89.1604 25.1439C87.3604 25.3939 85.8604 25.9239 85.1404 26.6639C83.7704 28.0639 84.4004 29.7639 86.0004 29.6739C87.3004 29.6039 88.2304 28.7639 89.7004 25.5739C90.8604 25.4239 92.1404 25.4139 93.4604 25.5939C95.0304 25.8139 96.4004 26.2839 97.5704 26.8439C96.3804 27.9639 95.4704 28.8539 95.1004 29.2239C93.7904 30.5339 92.6704 31.5939 91.6804 32.4439C90.7804 32.2039 89.8804 32.0539 88.9804 32.0339C87.4304 32.0039 84.9204 33.1439 85.8304 35.0939C86.5004 36.5239 89.0304 35.2639 90.3804 34.2639C90.8504 33.9139 91.3504 33.5139 91.8604 33.0739C92.5504 33.3039 93.3304 33.6139 94.2304 34.0239C95.7704 34.7239 97.6904 36.0039 99.3404 37.3439C98.1004 38.0639 96.7904 38.7839 95.3904 39.4839C94.6504 39.8539 93.9604 40.1639 93.3204 40.4339C90.8504 39.0539 88.5504 38.4939 87.4204 39.0039C84.8004 40.1939 85.7004 42.2739 88.6004 42.3839C89.8404 42.4339 91.5204 41.9339 93.3404 41.1839C94.8904 42.0239 96.5404 43.2139 97.9504 44.8239C98.4504 45.4039 98.9304 46.0839 99.3604 46.8039C98.0704 47.2239 97.0104 47.5639 96.3404 47.7239M79.2704 51.4439C79.2704 49.3439 79.2704 46.4339 79.2804 43.3139C80.5404 44.1239 81.6404 45.0039 81.7004 46.5739C81.7804 48.7339 80.4404 50.3739 79.2604 51.4539M81.6204 38.6639C81.6704 40.5739 80.6604 41.3639 79.3004 42.2439C79.3004 39.9439 79.3004 37.5739 79.3104 35.3639C80.5304 36.0239 81.5804 36.8439 81.6204 38.6639ZM79.3204 26.5039C79.5804 26.8039 79.8304 27.1039 80.0804 27.4239C83.0304 31.3039 81.6104 33.1839 79.3004 34.3939C79.3004 30.9139 79.3104 27.9539 79.3204 26.5039ZM86.0304 12.2939C85.2004 12.3139 84.4904 12.1239 84.4404 11.2839C84.3704 10.1139 85.7404 10.2339 85.9104 11.1739C85.9504 11.4039 85.9904 11.8039 86.0304 12.2939ZM88.6104 9.2339C87.9704 9.2739 87.4504 9.23391 87.2204 9.00391C86.3604 8.14391 87.1004 7.2539 87.4704 7.2739C88.2504 7.3239 88.4804 7.7439 88.6104 9.2339ZM90.7204 5.86391C90.5904 5.87391 90.4704 5.89391 90.3504 5.90391C89.2004 5.99391 88.7704 5.1439 88.9704 4.4239C89.2004 3.5739 90.5204 3.8939 90.6704 5.2539C90.6904 5.4239 90.7004 5.63391 90.7204 5.86391ZM82.4504 9.3939C84.8204 3.8739 89.2404 0.2239 90.9704 1.1239C92.0604 1.6939 92.3504 3.8439 92.9704 5.5739C92.4404 5.6339 91.9004 5.7139 91.3904 5.7839C91.1004 4.0139 90.6604 3.4239 89.4404 3.6039C88.0904 3.7939 88.0504 6.7939 90.7804 6.5039C90.8404 7.2639 90.9304 8.1539 91.0904 8.9439C90.4704 9.0039 89.8304 9.1039 89.2404 9.1739C89.2304 8.9739 89.2204 8.7939 89.2104 8.6739C89.1204 7.6439 88.5204 6.4939 87.1504 7.0739C86.1104 7.5139 86.1204 10.1239 88.6804 9.9439C88.6804 10.1539 88.7104 10.3839 88.7204 10.6239C88.7504 11.1439 88.7804 11.5939 88.8404 11.9839C88.5304 12.0039 88.2104 12.0339 87.8704 12.0739C87.5304 12.1139 87.1204 12.1839 86.7104 12.2339C86.5404 10.4639 86.2004 10.0039 84.9904 10.1639C83.5304 10.3639 83.9104 12.5339 85.2904 12.8639C85.4804 12.9039 85.7704 12.9039 86.1104 12.8839C86.1704 13.4439 86.2504 14.0439 86.3504 14.6139C85.7204 14.7439 85.0204 15.0039 84.2904 15.4639C81.6704 17.1139 80.0404 20.5839 79.2904 23.2239C79.3404 20.4739 79.8404 15.4839 82.4604 9.3939M79.8604 57.7939C79.4704 58.4239 79.1404 59.3639 78.9504 60.7939C78.7704 59.3639 78.4304 58.4239 78.0404 57.7839C78.5304 57.2739 78.8204 56.7039 78.9504 56.3839C79.0804 56.7039 79.3604 57.2739 79.8604 57.7839M83.1004 56.8839C84.5604 57.0339 84.1904 58.1839 83.0804 58.3139C82.5704 58.3739 81.5904 58.2539 80.7404 57.7039C81.3904 57.0339 82.2304 56.7939 83.0904 56.8839M74.8204 58.3139C73.7104 58.1839 73.3404 57.0339 74.8004 56.8839C75.6704 56.7939 76.5104 57.0239 77.1504 57.7039C76.3104 58.2539 75.3304 58.3739 74.8204 58.3139ZM67.1804 5.86391C67.2004 5.63391 67.2204 5.4139 67.2404 5.2539C67.3904 3.8839 68.7004 3.5739 68.9404 4.4239C69.1404 5.1439 68.7004 5.99391 67.5604 5.90391C67.4504 5.90391 67.3204 5.88391 67.1904 5.86391M69.2904 9.2339C69.4204 7.7439 69.6504 7.3339 70.4304 7.2739C70.8104 7.2539 71.5404 8.14391 70.6804 9.00391C70.4404 9.23391 69.9304 9.2739 69.2904 9.2339ZM71.8704 12.2939C71.9204 11.8039 71.9504 11.4039 71.9904 11.1739C72.1604 10.2439 73.5304 10.1239 73.4604 11.2839C73.4104 12.1239 72.7004 12.3139 71.8704 12.2939ZM73.6204 15.4639C72.8904 15.0039 72.1904 14.7439 71.5604 14.6139C71.6704 14.0439 71.7504 13.4439 71.8104 12.8839C72.1504 12.9039 72.4404 12.9139 72.6304 12.8639C74.0104 12.5339 74.3904 10.3639 72.9304 10.1639C71.7204 10.0039 71.3704 10.4639 71.2104 12.2339C70.8004 12.1839 70.3904 12.1139 70.0504 12.0739C69.7104 12.0339 69.3804 12.0039 69.0804 11.9839C69.1304 11.5939 69.1704 11.1439 69.2004 10.6239C69.2104 10.3739 69.2304 10.1539 69.2404 9.9439C71.8004 10.1139 71.8004 7.5039 70.7704 7.0739C69.4004 6.4839 68.7904 7.6339 68.7004 8.6739C68.7004 8.7939 68.6804 8.9739 68.6704 9.1739C68.0904 9.1039 67.4404 9.0039 66.8204 8.9439C66.9804 8.1539 67.0704 7.2639 67.1304 6.5039C69.8604 6.7939 69.8304 3.7939 68.4704 3.6039C67.2504 3.4239 66.8104 4.0039 66.5204 5.7839C66.0004 5.7139 65.4604 5.6339 64.9404 5.5739C65.5504 3.8439 65.8504 1.6939 66.9304 1.1239C68.6604 0.2239 73.0804 3.8739 75.4504 9.3939C78.0704 15.4839 78.5704 20.4739 78.6204 23.2239C77.8704 20.5839 76.2404 17.1139 73.6204 15.4639ZM76.1904 46.5639C76.2504 45.0039 77.3504 44.1139 78.6104 43.3039C78.6104 46.4239 78.6204 49.3439 78.6304 51.4339C77.4504 50.3539 76.1204 48.7239 76.2004 46.5539M78.6104 42.2439C77.2504 41.3739 76.2404 40.5739 76.2904 38.6639C76.3304 36.8439 77.3904 36.0239 78.6004 35.3639C78.6004 37.5739 78.6004 39.9439 78.6104 42.2439ZM77.8204 27.4339C78.0704 27.1139 78.3304 26.8139 78.5804 26.5139C78.5804 27.9639 78.5804 30.9239 78.6004 34.4039C76.3004 33.1939 74.8704 31.3139 77.8204 27.4339ZM69.0204 25.7139C71.0304 26.1039 72.5304 26.9139 72.8804 27.7939C73.5604 29.5239 71.3404 29.4439 70.3504 28.0639C69.9504 27.5139 69.5004 26.6839 69.0204 25.7139ZM66.7104 32.8739C68.5604 32.3539 69.7104 32.4839 70.7204 32.9439C71.4304 33.2639 72.3704 34.5639 71.3404 34.8939C70.2304 35.2439 68.8104 34.6039 66.7104 32.8739ZM65.4104 40.7639C66.9504 40.0339 68.3104 39.6539 69.1104 39.5539C70.1404 39.4239 71.6404 39.7739 71.5104 40.6539C71.3804 41.4839 69.5804 42.2939 65.4104 40.7639ZM75.5304 46.5939C72.8904 50.4939 65.3204 48.6339 61.5604 47.7339C60.8904 47.5739 59.8304 47.2339 58.5404 46.8139C58.9704 46.1039 59.4504 45.4139 59.9504 44.8339C61.3604 43.2239 63.0104 42.0339 64.5604 41.1939C66.3804 41.9439 68.0604 42.4339 69.3004 42.3939C72.2004 42.2939 73.1104 40.2039 70.4804 39.0139C69.3504 38.5039 67.0504 39.0539 64.5804 40.4439C63.9404 40.1839 63.2504 39.8639 62.5004 39.4939C61.1004 38.7939 59.8004 38.0739 58.5604 37.3539C60.2104 36.0239 62.1304 34.7439 63.6704 34.0339C64.5704 33.6239 65.3404 33.3139 66.0304 33.0839C66.5504 33.5139 67.0404 33.9139 67.5104 34.2739C68.8604 35.2739 71.3904 36.5339 72.0504 35.1039C72.9604 33.1439 70.4504 32.0039 68.9104 32.0439C68.0104 32.0639 67.1104 32.2139 66.2104 32.4539C65.2204 31.6039 64.1004 30.5439 62.7904 29.2339C62.4204 28.8639 61.5104 27.9639 60.3204 26.8539C61.4904 26.2939 62.8704 25.8139 64.4304 25.6039C65.7504 25.4239 67.0304 25.4339 68.1904 25.5839C69.6704 28.7739 70.5904 29.6139 71.8904 29.6839C73.4904 29.7739 74.1204 28.0739 72.7504 26.6739C72.0304 25.9339 70.5404 25.4039 68.7404 25.1539C68.0904 23.7739 67.3804 22.1639 66.6704 20.5539C67.0504 20.5539 67.4404 20.5839 67.8604 20.6139C72.4404 21.0439 75.6904 22.6639 78.4604 25.5639C78.3604 25.6839 78.2504 25.7939 78.1504 25.9239C77.6504 26.5239 75.4104 28.5339 75.5704 31.5339C75.6804 33.4439 76.9804 34.1939 78.3404 34.8839C76.9904 35.5639 75.3704 36.6439 75.5504 39.1539C75.6704 40.9639 77.0404 41.9039 78.4504 42.7939C78.1304 43.0039 77.7904 43.2239 77.4504 43.4839C76.1804 44.4439 75.6304 45.5339 75.5304 46.6039M56.2704 49.7639C56.1604 50.0539 56.0704 50.3339 55.9804 50.6039C55.7404 50.4539 55.4904 50.3039 55.1904 50.1139C54.9604 49.9739 54.7604 49.8339 54.5604 49.7039C54.5804 49.6839 54.6004 49.6739 54.6204 49.6539C55.5804 48.7539 55.1504 47.0439 54.0304 46.8239C52.6204 46.5439 52.1604 48.0639 52.6304 48.7839C52.8304 49.0939 53.1304 49.3939 53.4704 49.6739C53.3804 49.7339 53.2804 49.7939 53.1804 49.8439C52.5204 50.1939 52.0104 50.5239 51.6104 50.8039C51.5204 50.7139 51.4204 50.6239 51.3304 50.5339C50.8504 50.1039 50.2104 49.5939 49.6304 49.1039C50.1304 48.7239 50.3304 48.4239 50.3304 47.7839C50.3304 46.9939 49.5704 46.1939 48.9404 46.1839C47.8804 46.1739 47.1304 47.1139 47.8604 48.2739C47.9904 48.4839 48.2504 48.7539 48.5604 49.0339C47.9504 49.3939 47.1304 49.8239 46.4304 50.2739C46.2104 50.0339 45.9404 49.7639 45.6204 49.4639C45.4304 49.2839 44.9904 48.9139 44.5404 48.5239C46.0004 47.3039 44.8904 45.6239 43.9604 45.5539C43.0204 45.4939 42.5904 46.2339 42.5404 46.9039C42.5104 47.4139 42.9004 47.9139 43.4804 48.4639C42.8404 48.8939 42.0904 49.2839 41.4304 49.6839C41.4104 49.6539 41.4004 49.6139 41.3804 49.5739C40.0304 46.7239 39.7804 44.8639 40.8504 44.1139C42.5404 42.9339 46.4404 43.4339 51.5004 45.1739C53.4504 45.8539 55.4704 46.5239 57.5204 47.1539C57.0304 47.9739 56.6004 48.8439 56.2804 49.7539M57.5104 52.6439C57.6504 53.1939 57.4004 53.5439 57.1104 53.6639C56.6904 53.8339 55.8104 53.5739 56.3304 51.5539C56.9504 51.9539 57.4204 52.3139 57.5004 52.6439M54.0104 49.2839C53.0404 48.4739 52.7104 47.7639 53.2904 47.2939C53.4404 47.1639 53.9604 46.9739 54.3204 47.3939C54.6504 47.7939 54.9504 48.4739 54.0104 49.2839ZM52.0704 52.9039C51.8204 53.8839 50.7604 53.5639 50.7004 52.9039C50.6604 52.4739 50.9804 52.0539 51.4604 51.6439C51.8504 52.0739 52.1604 52.5439 52.0704 52.9039ZM49.2004 48.6339C49.2004 48.6339 49.1604 48.6639 49.1404 48.6739C48.5804 48.1539 48.1704 47.6639 48.2004 47.3439C48.3104 46.1739 49.3304 46.4139 49.6304 47.0639C49.8104 47.4639 49.8804 48.0839 49.2004 48.6239M46.8404 52.1839C46.8104 53.1439 45.4204 53.3639 45.4004 52.2839C45.4004 51.9139 45.7904 51.5039 46.3204 51.1139C46.6704 51.5139 46.8504 51.8339 46.8404 52.1839ZM44.0204 48.0739C43.6104 47.6939 43.2604 47.3339 43.1904 47.1339C43.0704 46.8139 43.1004 45.9239 43.9304 45.8839C44.5104 45.8539 44.9604 47.0139 44.5704 47.5239C44.4204 47.7139 44.2404 47.8939 44.0304 48.0739M40.1104 52.0439C40.0404 51.6739 40.3504 51.2139 41.2104 50.5839C41.3104 50.8939 41.3804 51.1939 41.3804 51.4539C41.3804 52.7839 40.2504 52.9139 40.1104 52.0439ZM56.2304 38.6239C55.7304 39.1039 55.3404 39.5339 55.0304 39.9339C54.6604 39.5539 54.2704 39.1639 53.9004 38.7939C54.4604 38.3939 55.1504 37.6639 54.3204 36.4339C53.6804 35.4939 51.6904 35.5739 52.0504 37.3739C52.1104 37.6539 52.4804 38.0939 52.9604 38.6039C52.6204 38.7839 52.3004 38.9039 52.1504 38.9839C51.9204 39.1039 51.3604 39.3639 50.8104 39.6439C50.5304 39.2139 50.2204 38.8439 49.9804 38.5239C49.7404 38.2139 49.4404 37.8639 49.1504 37.5139C49.9204 37.1239 50.2904 36.7339 50.1304 35.7139C49.8904 34.2339 48.1004 34.0839 47.5804 35.3339C47.3104 35.9839 47.4804 36.4039 48.1304 37.2739C47.8104 37.4339 47.5304 37.5539 47.4104 37.6239C46.9804 37.8439 46.4904 38.0839 46.0404 38.3339C45.6004 37.7239 45.0004 37.0439 44.4704 36.4339C45.0404 36.0839 45.4204 35.6839 45.4904 35.1739C45.5904 34.3939 44.8104 33.2839 43.8104 33.4939C42.5304 33.7639 42.5004 34.8439 43.1404 35.7739C43.1904 35.8439 43.3404 36.0239 43.5404 36.2539C43.1304 36.4439 42.7504 36.5739 42.5704 36.6539C42.3404 36.7539 42.0704 36.8639 41.7904 36.9739C41.6204 35.7539 41.2404 34.4439 41.0904 33.6439C40.2404 29.2939 46.5804 30.7039 52.3504 34.3239C52.9504 34.6939 54.9504 36.0339 57.4404 37.5239C56.9804 37.9239 56.5604 38.2939 56.2104 38.6239M55.8804 42.1139C55.9704 42.6939 55.8404 42.9739 55.4404 43.0439C55.0604 43.1139 54.2604 42.7139 55.0704 41.0239C55.0904 40.9839 55.1204 40.9239 55.1504 40.8839C55.5404 41.3439 55.8304 41.7739 55.8804 42.1139ZM53.4404 38.3139C53.0304 37.8839 52.7304 37.5039 52.6504 37.2539C52.3204 36.0739 53.7704 35.8139 54.1204 36.8439C54.3404 37.4939 53.9504 37.9739 53.4404 38.3239M50.6204 42.2139C50.2404 42.5339 48.9304 41.9939 49.9904 40.8239C50.1004 40.7039 50.2904 40.5739 50.5504 40.4439C51.1904 41.5239 50.9304 41.9539 50.6204 42.2239M48.1604 35.4039C48.4904 34.3339 49.6404 34.7439 49.7104 35.8039C49.7404 36.2239 49.2504 36.6339 48.7204 36.9539C48.3104 36.3939 48.0304 35.8439 48.1604 35.4039ZM45.0804 40.8239C44.6904 40.2839 44.8904 39.8439 45.8904 39.2039C46.0904 39.5139 46.2204 39.7739 46.2404 39.9539C46.3604 41.0339 45.3804 41.2339 45.0804 40.8239ZM43.3104 34.7739C43.1104 33.9139 44.3404 33.3139 44.8704 34.5439C45.1304 35.1439 44.6704 35.6239 44.1004 35.9739C43.6804 35.4739 43.3704 35.0439 43.3104 34.7739ZM41.1104 39.3639C40.1804 40.4439 39.2604 38.9339 40.9104 38.0939C41.0804 38.0139 41.2504 37.9339 41.4204 37.8439C41.4804 38.4739 41.4204 38.9939 41.1104 39.3539M56.4904 28.8639C56.2304 28.5339 55.9304 28.1339 55.6504 27.6839C55.9804 27.5239 56.2904 27.3339 56.5504 27.0639C57.1604 26.4439 56.7904 24.4939 55.4504 24.5139C54.1904 24.5339 54.0404 25.7139 54.3404 26.5139C54.4404 26.7639 54.5704 27.0439 54.7304 27.3339C54.2004 27.5539 53.6704 27.7139 53.3704 27.8339C53.1704 27.9139 52.9004 28.0139 52.6104 28.1339C52.3204 27.4839 51.9404 26.7939 51.6004 26.1739C52.1304 25.9539 52.5304 25.6839 52.6804 25.3439C53.2004 24.1539 52.3904 22.6439 51.2804 22.9939C49.8004 23.4539 50.2304 24.7539 50.6304 25.6339C50.6404 25.6639 50.6604 25.7039 50.6804 25.7439C50.3904 25.8339 50.0904 25.9139 49.8004 26.0039C49.4904 26.0939 48.9904 26.2339 48.4904 26.4039C48.2804 25.8239 48.0104 25.1639 47.7404 24.4239C48.3004 24.2139 48.7504 23.9639 48.9104 23.7039C49.4404 22.8039 48.9104 20.6239 47.3604 21.4039C46.4504 21.8639 46.5204 22.9739 46.8504 24.0739C46.3504 24.2139 45.8104 24.3239 45.2904 24.4439C45.3004 23.7439 45.2604 22.8939 45.1504 21.8639C44.5404 16.2739 51.9404 20.1939 55.4904 23.2539C56.6904 24.2939 57.9704 25.4939 59.2704 26.7439C58.1004 27.4339 57.1504 28.1939 56.4804 28.8439M56.5504 31.8739C55.9204 31.9139 55.5904 31.0839 56.1304 30.1139C56.1804 30.0239 56.2704 29.8939 56.3904 29.7539C56.4304 29.8039 56.4704 29.8539 56.5004 29.8939C57.1204 30.6939 57.3204 31.8239 56.5504 31.8739ZM54.8204 25.7839C54.6704 25.0139 56.0904 24.2239 56.3204 25.7539C56.4004 26.3139 55.9104 26.7439 55.3004 27.0739C55.0904 26.6639 54.9104 26.2239 54.8204 25.7939M52.4904 30.2839C52.0704 31.2539 50.7604 30.4839 51.5204 29.6139C51.7404 29.3639 52.0004 29.1739 52.2704 29.0039C52.4904 29.5639 52.5904 30.0339 52.4904 30.2739M50.8404 24.5739C50.5304 23.3539 52.1504 22.6639 52.4104 24.0539C52.5504 24.8639 52.0204 25.2639 51.2804 25.5539C51.0704 25.1539 50.9104 24.8039 50.8404 24.5639M47.8204 28.9139C47.1404 29.2339 46.5004 28.0639 47.7004 27.4139C47.8204 27.3539 47.9604 27.2939 48.1204 27.2239C48.3804 28.1039 48.2704 28.6939 47.8204 28.9039M47.3604 23.3539C46.6504 21.1539 48.8904 21.2239 48.7104 22.7439C48.6404 23.2939 48.1804 23.6339 47.5404 23.8739C47.4804 23.7039 47.4204 23.5339 47.3604 23.3539ZM44.1204 26.9639C42.9804 27.3739 42.5604 25.7339 44.5504 25.2939C44.6104 25.2739 44.6804 25.2639 44.7504 25.2539C44.6904 26.1339 44.5104 26.8239 44.1204 26.9639ZM55.8604 13.0039C55.8704 12.8139 55.8804 12.6239 55.9004 12.4439C56.0504 10.7139 57.1604 10.8839 57.5104 11.4139C57.7804 11.8139 57.4304 12.9439 56.3104 13.0139C56.1804 13.0139 56.0204 13.0139 55.8604 13.0139M62.1704 20.8839C62.0804 20.3939 61.9704 19.9039 61.8804 19.4239C62.0504 19.4239 62.2104 19.4039 62.3404 19.3939C63.4404 19.2639 64.4304 17.6239 63.0504 16.6139C62.3004 16.0639 61.0704 16.5139 61.1004 18.0939C61.1004 18.3439 61.1404 18.5539 61.1604 18.7839C60.4904 18.7439 59.7004 18.6939 58.9504 18.7039C58.9204 18.0339 58.8304 17.2539 58.7404 16.5539C59.3704 16.5039 59.7904 16.3739 60.0604 16.1039C60.7804 15.3739 60.6404 13.6839 59.5604 13.4839C58.5804 13.3039 58.0504 13.9839 57.9304 14.6939C57.9004 14.8839 57.9404 15.3739 58.0104 15.9539C57.3304 15.9639 56.5504 15.9639 55.8104 15.9939C55.8104 15.3839 55.7904 14.5439 55.8104 13.6539C55.9004 13.6539 55.9704 13.6639 56.0604 13.6639C58.0204 13.7039 58.2604 12.0939 57.9604 11.4639C57.7204 10.9639 57.1004 10.5339 56.3004 10.7039C55.7404 10.8239 55.2504 11.2039 55.1404 12.9339C54.5804 12.8739 53.9504 12.7939 53.3504 12.7339C53.4504 12.4239 53.5404 12.0839 53.6404 11.6939C54.1604 9.6039 54.8004 6.87391 57.8704 8.43391C60.6804 9.86391 63.7704 15.7839 65.7704 20.1039C64.3104 20.2139 63.0504 20.5139 62.1504 20.8739M61.6904 17.8339C61.7104 17.0539 62.5404 16.6039 62.9704 16.9339C63.7004 17.4939 63.0504 18.8639 61.9904 18.8339C61.9204 18.8339 61.8404 18.8339 61.7704 18.8239C61.7204 18.4639 61.6804 18.1339 61.6904 17.8339ZM60.8604 23.6539C60.2804 23.4039 60.6804 22.4039 61.2104 22.0239C61.3404 21.9339 61.5004 21.8139 61.7004 21.6939C61.7104 21.7639 61.7304 21.8339 61.7304 21.9039C61.9004 23.2339 61.5104 23.9339 60.8504 23.6539M58.6004 15.1539C58.5304 14.0639 59.2004 13.7739 59.6804 13.8539C60.1604 13.9339 60.4104 15.1339 59.6604 15.7139C59.5004 15.8439 59.1404 15.8939 58.6804 15.9239C58.6404 15.6339 58.6104 15.3539 58.6004 15.1439M56.7304 20.3639C56.6304 20.0139 56.8104 19.5339 57.7804 19.3639C57.9504 19.3339 58.1604 19.3239 58.3804 19.3139C58.3304 20.6539 57.0204 21.3639 56.7304 20.3639ZM54.1204 18.0339C53.6304 17.9939 53.2904 16.9039 55.1904 16.6239C55.1504 17.6039 54.9304 18.0939 54.1204 18.0339ZM51.5404 14.7639C50.5104 15.0139 50.6604 13.6939 51.2604 13.4339C51.7204 13.2339 52.1304 13.2239 52.6304 13.2839C52.3504 14.0739 52.0204 14.6539 51.5404 14.7639ZM69.2304 16.5139C68.5804 16.0339 69.5704 14.9539 70.8604 15.0239C70.4304 16.6439 69.6704 16.8539 69.2304 16.5139ZM67.6704 13.7539C66.7204 14.1339 66.2604 13.2439 67.0204 12.7539C67.2904 12.5839 67.7504 12.5239 68.2904 12.5339C68.1504 13.1639 67.9504 13.6439 67.6704 13.7539ZM64.2704 10.2139C64.3304 9.6439 64.9304 9.4539 65.9904 9.5139C65.4104 11.4539 64.1904 10.9139 64.2704 10.2139ZM62.3604 6.4839C62.6204 6.0739 63.3604 6.0139 64.2604 6.0939C63.4504 8.0839 61.9004 7.1939 62.3604 6.4839ZM95.5404 6.4839C96.0004 7.1939 94.4504 8.0739 93.6404 6.0939C94.5404 6.0239 95.2704 6.0839 95.5404 6.4839ZM93.6304 10.2139C93.7004 10.9139 92.4804 11.4539 91.9004 9.5139C92.9604 9.4539 93.5604 9.6339 93.6304 10.2139ZM90.8904 12.7539C91.6504 13.2439 91.1904 14.1339 90.2404 13.7539C89.9604 13.6439 89.7704 13.1639 89.6204 12.5339C90.1604 12.5339 90.6204 12.5839 90.8904 12.7539ZM88.6704 16.5139C88.2304 16.8439 87.4604 16.6339 87.0404 15.0239C88.3304 14.9539 89.3204 16.0339 88.6704 16.5139ZM102.03 13.0039C101.87 13.0039 101.71 13.0039 101.58 13.0039C100.46 12.9439 100.11 11.8039 100.38 11.4039C100.74 10.8739 101.84 10.7039 101.99 12.4339C102.01 12.6239 102.02 12.8039 102.03 12.9939M100.01 8.4439C103.08 6.8839 103.72 9.6139 104.25 11.7039C104.35 12.0939 104.45 12.4339 104.54 12.7439C103.94 12.8039 103.31 12.8839 102.74 12.9439C102.63 11.2139 102.14 10.8239 101.58 10.7139C100.78 10.5439 100.15 10.9739 99.9204 11.4739C99.6204 12.1039 99.8504 13.7039 101.81 13.6739C101.9 13.6739 101.98 13.6739 102.06 13.6639C102.09 14.5639 102.06 15.3939 102.06 16.0039C101.32 15.9739 100.53 15.9739 99.8604 15.9639C99.9304 15.3839 99.9804 14.8939 99.9404 14.7039C99.8204 13.9839 99.2904 13.3039 98.3104 13.4939C97.2304 13.6939 97.0904 15.3839 97.8104 16.1139C98.0804 16.3839 98.5004 16.5139 99.1304 16.5639C99.0404 17.2639 98.9504 18.0439 98.9204 18.7139C98.1804 18.7139 97.3904 18.7539 96.7204 18.7939C96.7404 18.5739 96.7704 18.3539 96.7804 18.1039C96.8104 16.5239 95.5804 16.0739 94.8304 16.6239C93.4604 17.6339 94.4504 19.2739 95.5504 19.4039C95.6904 19.4239 95.8404 19.4339 96.0104 19.4339C95.9204 19.9139 95.8104 20.4139 95.7204 20.8939C94.8104 20.5239 93.5604 20.2339 92.1004 20.1239C94.0904 15.8039 97.1904 9.8839 100 8.4539M100.12 19.3639C101.09 19.5339 101.27 20.0139 101.17 20.3639C100.88 21.3639 99.5704 20.6639 99.5204 19.3139C99.7404 19.3139 99.9504 19.3339 100.12 19.3639ZM99.3004 15.1539C99.2804 15.3639 99.2504 15.6339 99.2204 15.9339C98.7604 15.9039 98.3904 15.8439 98.2404 15.7239C97.4904 15.1439 97.7404 13.9439 98.2304 13.8639C98.7104 13.7839 99.3804 14.0739 99.3104 15.1639M95.9104 18.8339C94.8404 18.8639 94.2004 17.4939 94.9304 16.9339C95.3604 16.6039 96.1904 17.0539 96.2104 17.8339C96.2104 18.1339 96.1804 18.4639 96.1304 18.8239C96.0604 18.8239 95.9804 18.8339 95.9104 18.8339ZM96.6904 22.0239C97.2204 22.4039 97.6204 23.4039 97.0404 23.6539C96.3804 23.9339 95.9904 23.2339 96.1604 21.9039C96.1604 21.8339 96.1904 21.7639 96.2004 21.6939C96.4004 21.8139 96.5604 21.9239 96.6904 22.0239ZM106.64 13.4439C107.24 13.7039 107.39 15.0239 106.36 14.7739C105.88 14.6639 105.55 14.0839 105.27 13.2939C105.77 13.2339 106.18 13.2539 106.64 13.4439ZM103.78 18.0339C102.97 18.0939 102.74 17.6139 102.71 16.6239C104.61 16.9039 104.28 17.9939 103.78 18.0339ZM102.4 23.2739C105.96 20.2039 113.36 16.2839 112.75 21.8839C112.64 22.9139 112.6 23.7639 112.61 24.4639C112.09 24.3439 111.55 24.2339 111.05 24.0939C111.38 22.9939 111.44 21.8939 110.54 21.4239C109 20.6439 108.46 22.8239 108.99 23.7239C109.15 23.9839 109.59 24.2339 110.16 24.4439C109.89 25.1839 109.62 25.8439 109.4 26.4239C108.89 26.2439 108.4 26.1139 108.09 26.0239C107.8 25.9339 107.5 25.8539 107.21 25.7639C107.23 25.7239 107.25 25.6939 107.26 25.6539C107.66 24.7739 108.09 23.4739 106.61 23.0139C105.5 22.6639 104.69 24.1739 105.21 25.3639C105.36 25.7039 105.76 25.9639 106.29 26.1939C105.95 26.8139 105.58 27.5039 105.29 28.1539C105 28.0339 104.74 27.9339 104.53 27.8539C104.24 27.7339 103.71 27.5739 103.18 27.3539C103.34 27.0739 103.47 26.7939 103.57 26.5339C103.87 25.7339 103.72 24.5539 102.46 24.5339C101.12 24.5139 100.75 26.4639 101.36 27.0839C101.62 27.3539 101.94 27.5339 102.26 27.7039C101.98 28.1539 101.68 28.5539 101.42 28.8839C100.75 28.2239 99.8104 27.4639 98.6304 26.7739C99.9304 25.5239 101.21 24.3239 102.41 23.2839M110.53 23.3539C110.47 23.5339 110.41 23.7039 110.35 23.8739C109.71 23.6239 109.25 23.2939 109.18 22.7439C109 21.2239 111.24 21.1539 110.53 23.3539ZM110.2 27.4139C111.4 28.0639 110.76 29.2239 110.08 28.9139C109.63 28.7039 109.52 28.1139 109.77 27.2339C109.93 27.2939 110.08 27.3539 110.19 27.4239M107.06 24.5739C107 24.8139 106.83 25.1639 106.63 25.5639C105.89 25.2739 105.36 24.8639 105.5 24.0639C105.75 22.6739 107.38 23.3639 107.06 24.5839M106.38 29.6139C107.14 30.4839 105.84 31.2539 105.41 30.2839C105.31 30.0339 105.41 29.5639 105.63 29.0139C105.9 29.1839 106.16 29.3639 106.38 29.6239M103.08 25.7839C103 26.2239 102.82 26.6539 102.61 27.0639C101.99 26.7339 101.5 26.3139 101.59 25.7439C101.82 24.2139 103.23 25.0039 103.09 25.7739M101.35 31.8739C100.59 31.8239 100.78 30.6939 101.4 29.8939C101.43 29.8539 101.47 29.8039 101.51 29.7539C101.63 29.8939 101.71 30.0239 101.76 30.1139C102.31 31.0939 101.98 31.9239 101.34 31.8739M113.35 25.3039C115.35 25.7439 114.93 27.3839 113.78 26.9739C113.39 26.8339 113.21 26.1439 113.15 25.2639C113.22 25.2739 113.28 25.2939 113.35 25.3039ZM105.53 34.3239C111.3 30.7039 117.64 29.2939 116.79 33.6439C116.64 34.4439 116.26 35.7539 116.09 36.9739C115.81 36.8539 115.54 36.7539 115.31 36.6539C115.14 36.5839 114.75 36.4439 114.35 36.2539C114.55 36.0239 114.69 35.8439 114.75 35.7739C115.4 34.8439 115.37 33.7639 114.08 33.4939C113.08 33.2839 112.3 34.3939 112.4 35.1739C112.46 35.6839 112.85 36.0739 113.42 36.4339C112.89 37.0439 112.29 37.7239 111.84 38.3339C111.39 38.0839 110.9 37.8439 110.47 37.6239C110.36 37.5639 110.08 37.4439 109.76 37.2739C110.42 36.4039 110.58 35.9839 110.31 35.3339C109.79 34.0839 108 34.2339 107.76 35.7139C107.6 36.7339 107.97 37.1339 108.74 37.5139C108.45 37.8639 108.16 38.2039 107.91 38.5239C107.68 38.8339 107.36 39.2039 107.09 39.6439C106.54 39.3639 105.98 39.1039 105.75 38.9839C105.61 38.9039 105.29 38.7739 104.94 38.6039C105.43 38.0939 105.79 37.6539 105.85 37.3739C106.22 35.5739 104.22 35.4939 103.59 36.4339C102.76 37.6639 103.44 38.3939 104.01 38.7939C103.64 39.1639 103.25 39.5539 102.88 39.9339C102.58 39.5439 102.19 39.1039 101.68 38.6239C101.33 38.2939 100.91 37.9139 100.45 37.5239C102.95 36.0339 104.95 34.7039 105.55 34.3239M116.99 38.1039C118.64 38.9439 117.72 40.4539 116.79 39.3739C116.48 39.0139 116.42 38.4939 116.49 37.8639C116.66 37.9439 116.83 38.0239 116.99 38.1139M113.8 35.9639C113.22 35.6139 112.77 35.1339 113.03 34.5339C113.56 33.3039 114.79 33.9039 114.59 34.7639C114.53 35.0339 114.21 35.4639 113.8 35.9539M112.82 40.8239C112.52 41.2339 111.55 41.0339 111.66 39.9539C111.68 39.7739 111.82 39.5139 112.01 39.2039C113.01 39.8439 113.21 40.2839 112.82 40.8239ZM109.18 36.9539C108.65 36.6339 108.16 36.2139 108.19 35.8039C108.26 34.7439 109.41 34.3339 109.74 35.4039C109.88 35.8439 109.59 36.3939 109.18 36.9539ZM107.9 40.8239C108.97 41.9939 107.65 42.5339 107.27 42.2139C106.96 41.9439 106.71 41.5239 107.34 40.4339C107.59 40.5739 107.79 40.7039 107.9 40.8139M103.78 36.8339C104.13 35.8039 105.58 36.0639 105.25 37.2439C105.18 37.5039 104.87 37.8739 104.46 38.3039C103.96 37.9539 103.57 37.4739 103.78 36.8239M102.45 43.0439C102.05 42.9739 101.92 42.6939 102.01 42.1139C102.06 41.7739 102.35 41.3439 102.74 40.8839C102.77 40.9239 102.8 40.9739 102.82 41.0239C103.62 42.7139 102.82 43.1139 102.45 43.0439ZM115.23 42.6939C112.16 42.4839 104.81 45.0039 100.02 46.5939C98.4204 44.1739 96.2204 42.2239 94.0704 40.8839C96.0104 40.0239 98.0804 38.9039 99.9204 37.8339C101 38.7439 101.91 39.6539 102.45 40.3939C102.07 40.8239 101.76 41.2339 101.61 41.5839C101.1 42.8239 102.36 44.1039 103.48 42.8439C103.85 42.4339 104.01 41.6339 103.2 40.3939C103.6 39.9539 104.05 39.5139 104.47 39.0939C104.79 39.2839 105.91 39.7239 106.81 40.1539C106.69 40.4039 106.59 40.6539 106.53 40.9239C106.27 42.1139 107.13 42.8039 107.94 42.6039C108.86 42.3839 109.02 41.1739 108.32 40.4439C108.18 40.2939 107.94 40.1339 107.67 39.9639C107.75 39.8539 107.82 39.7439 107.92 39.6139C108.5 38.8539 108.98 38.2739 109.35 37.8039C109.72 37.9739 110.15 38.1539 110.62 38.4039C110.96 38.5739 111.24 38.7239 111.5 38.8739C111.42 39.0139 111.35 39.1439 111.3 39.2639C110.62 40.9639 111.92 41.3839 112.46 41.3239C113.06 41.2639 113.93 40.3139 113.16 39.2939C113 39.0739 112.72 38.8639 112.4 38.6539C112.87 38.0139 113.48 37.2939 113.96 36.7239C114.56 37.0339 115.29 37.3139 116.03 37.6439C115.98 38.4939 116.08 39.2439 116.49 39.6639C117.77 40.9239 118.9 39.1339 117.84 38.0039C117.54 37.6839 117.08 37.4139 116.6 37.2039C116.87 35.7539 117.52 33.8839 117.51 31.9639C117.48 29.3139 113.41 28.9839 106.92 32.7839C104.66 34.1039 102.41 35.5739 99.8904 37.0539C97.9204 35.4439 95.2404 33.6039 92.3804 32.6739C94.2004 31.0839 96.2204 29.1039 98.2104 27.1839C99.5104 27.8939 100.49 28.6839 101.1 29.3039C100.25 30.4339 99.9204 31.7239 101 32.1039C102.12 32.4939 103.16 31.3939 102.41 30.0639C102.3 29.8739 102.12 29.6239 101.86 29.3339C102.16 28.9339 102.51 28.4539 102.83 27.9539C103.56 28.2239 104.35 28.4139 105.07 28.7239C104.9 29.1839 104.81 29.5939 104.84 29.9239C105 31.3839 107.15 31.5239 107.05 29.7539C107.02 29.1639 106.48 28.7439 105.88 28.4239C106.19 27.7339 106.59 26.9839 106.89 26.4139C107.64 26.6639 108.5 26.8539 109.21 27.0639C109.02 27.7139 108.96 28.2439 109.18 28.6339C109.88 29.8339 111.98 29.3039 111.13 27.5139C110.97 27.1739 110.52 26.8939 110 26.6639C110.02 26.6139 110.04 26.5639 110.06 26.5139C110.24 26.1139 110.58 25.4339 110.86 24.6939C111.45 24.8739 112.08 25.0339 112.64 25.1539C112.82 27.4339 113.72 27.6539 114.5 27.3539C115.16 27.1139 115.75 25.6739 114.02 24.8939C113.76 24.7739 113.46 24.6839 113.13 24.5939C113.11 23.2239 113.3 21.6339 113.37 20.9339C113.8 16.7439 109.48 18.0939 106.78 19.4839C104.43 20.6939 100.69 23.9739 98.0304 26.4339C97.9304 26.3839 97.8304 26.3239 97.7204 26.2739C95.5004 25.1639 92.5004 24.8339 89.9504 25.0539C90.0404 24.8439 90.1404 24.6239 90.2404 24.3939C90.5504 23.6839 91.1404 22.2739 91.9204 20.5539C93.6304 20.6139 94.8404 21.0039 95.6604 21.4039C95.6004 21.7539 95.5604 22.0939 95.5604 22.3939C95.5504 23.4339 96.1404 24.4039 97.2604 23.8939C97.6004 23.7339 98.6404 22.8839 96.8104 21.4639C96.6704 21.3539 96.5104 21.2539 96.3104 21.1539C96.4304 20.6139 96.5704 20.0439 96.6704 19.4239C97.3904 19.4039 98.2304 19.3339 98.9604 19.3139C98.9604 19.3939 98.9604 19.4839 98.9704 19.5639C99.1204 20.9139 100.17 21.6939 101.1 21.0339C101.6 20.6839 101.82 19.5339 100.79 19.0039C100.49 18.8539 100.06 18.7739 99.5604 18.7439C99.6104 18.1439 99.7104 17.3339 99.8104 16.5939C100.27 16.5939 100.8 16.5939 101.44 16.5739C101.68 16.5739 101.9 16.5739 102.1 16.5739C102.1 16.6539 102.1 16.7339 102.1 16.7939C102.23 18.2439 103.25 18.6839 104.1 18.2439C104.93 17.8139 104.74 16.2439 102.86 16.0639C102.81 16.0639 102.76 16.0639 102.71 16.0439C102.71 15.6039 102.74 15.0839 102.76 14.4939C102.77 14.1839 102.77 13.8939 102.77 13.6339C103.61 13.5739 104.23 13.4539 104.75 13.3639C105.4 15.0939 106.04 15.2639 106.54 15.2039C107.58 15.0939 108.17 13.2739 106.44 12.7739C106.1 12.6739 105.62 12.6739 105.09 12.7039C104.43 10.4539 104.04 7.1339 102.49 6.8739C99.5704 6.3739 96.3804 10.9339 94.4404 13.9339C93.5504 15.3239 92.4904 17.6639 91.4204 20.0839C87.8404 19.9639 83.2404 20.9439 79.5104 24.4739C80.1304 21.9239 82.2904 16.1439 86.4304 15.1239C86.5404 15.5739 86.6704 15.9739 86.8404 16.2739C87.6104 17.6139 89.5104 17.0139 89.2504 15.6739C89.1204 15.0039 88.2104 14.4539 86.9104 14.5439C86.8304 14.1339 86.7704 13.6539 86.7404 13.0939C86.7404 12.9939 86.7304 12.9239 86.7204 12.8339C87.4004 12.7539 88.1804 12.6339 88.9004 12.5739C89.1604 13.8439 89.6104 14.2339 90.2804 14.3139C91.7404 14.4639 91.9104 12.5139 90.7304 12.0939C90.5204 12.0139 90.0704 11.9839 89.4904 11.9839C89.3704 11.2939 89.3104 10.5239 89.2604 9.8739C90.0004 9.7339 90.6504 9.6339 91.2104 9.5739C91.3104 9.9239 91.4304 10.2439 91.5804 10.4839C92.3004 11.6039 93.9804 11.5439 93.8904 10.1539C93.8204 9.09391 92.7004 8.9039 92.4004 8.8939C92.1904 8.8939 91.9704 8.8939 91.7404 8.8939C91.7004 8.6839 91.6704 8.4639 91.6404 8.2139C91.5704 7.5239 91.5104 6.92391 91.4404 6.40391C92.0204 6.30391 92.6004 6.1939 93.1504 6.1339C93.3104 6.5139 93.5004 6.8639 93.7204 7.1439C94.6704 8.3439 96.1304 7.61391 95.9704 6.54391C95.8704 5.93391 95.5604 5.69391 94.8004 5.54391C94.4304 5.47391 93.9504 5.4839 93.4304 5.5239C92.9604 3.7939 92.4704 1.4539 91.7704 0.593901C91.0104 -0.346099 88.8304 -0.6561 85.2404 3.4439C81.8604 7.3039 80.0804 13.1739 79.4504 16.5039C79.1704 17.9939 79.0104 19.2439 78.9204 20.3739C78.8304 19.2539 78.6704 18.0039 78.3804 16.5039C77.7504 13.1739 75.9704 7.2939 72.5904 3.4439C69.0004 -0.6461 66.8204 -0.336099 66.0704 0.593901C65.3704 1.4539 64.8804 3.8039 64.4104 5.5239C63.8904 5.4839 63.4104 5.47391 63.0404 5.54391C62.2904 5.69391 61.9704 5.93391 61.8804 6.54391C61.7104 7.61391 63.1804 8.3439 64.1304 7.1439C64.3504 6.8639 64.5404 6.5139 64.7004 6.1339C65.2404 6.2039 65.8304 6.30391 66.4104 6.40391C66.3404 6.92391 66.2804 7.5239 66.2204 8.2139C66.2004 8.4639 66.1704 8.6839 66.1204 8.8939C65.8904 8.8839 65.6704 8.8739 65.4604 8.8939C65.1604 8.9039 64.0404 9.09391 63.9704 10.1539C63.8904 11.5539 65.5704 11.6139 66.2804 10.4839C66.4304 10.2539 66.5404 9.9239 66.6504 9.5739C67.2104 9.6339 67.8604 9.7439 68.6004 9.8739C68.5504 10.5239 68.4904 11.2939 68.3704 11.9839C67.7904 11.9839 67.3404 12.0139 67.1304 12.0939C65.9504 12.5139 66.1204 14.4639 67.5804 14.3139C68.2504 14.2439 68.7004 13.8439 68.9604 12.5739C69.6804 12.6339 70.4604 12.7539 71.1404 12.8339C71.1404 12.9239 71.1304 12.9939 71.1204 13.0939C71.0904 13.6539 71.0204 14.1339 70.9504 14.5439C69.6504 14.4539 68.7404 15.0039 68.6104 15.6739C68.3604 17.0139 70.2604 17.6239 71.0204 16.2739C71.1904 15.9739 71.3204 15.5739 71.4304 15.1239C75.5704 16.1439 77.7304 21.9239 78.3604 24.4739C74.6304 20.9539 70.0304 19.9639 66.4504 20.0839C65.3904 17.6639 64.3304 15.3239 63.4304 13.9339C61.4904 10.9339 58.3004 6.3739 55.3904 6.8739C53.8304 7.1439 53.4404 10.4539 52.7904 12.7039C52.2504 12.6739 51.7704 12.6739 51.4404 12.7739C49.7104 13.2739 50.2904 15.0839 51.3404 15.2039C51.8404 15.2539 52.4804 15.0939 53.1304 13.3639C53.6504 13.4539 54.2804 13.5739 55.1204 13.6339C55.1204 13.9039 55.1204 14.1839 55.1304 14.4939C55.1504 15.0839 55.1804 15.6039 55.1804 16.0439C55.1304 16.0439 55.0804 16.0539 55.0304 16.0639C53.1504 16.2439 52.9704 17.8139 53.8004 18.2439C54.6504 18.6839 55.6704 18.2439 55.8004 16.7939C55.8004 16.7339 55.8004 16.6539 55.8004 16.5739C56.0004 16.5739 56.2204 16.5639 56.4604 16.5739C57.1004 16.5939 57.6304 16.6039 58.0804 16.5939C58.1804 17.3439 58.2904 18.1439 58.3304 18.7439C57.8404 18.7739 57.4004 18.8539 57.1004 19.0039C56.0704 19.5339 56.2904 20.6839 56.7804 21.0339C57.7104 21.7039 58.7604 20.9139 58.9104 19.5639C58.9104 19.4939 58.9104 19.3939 58.9204 19.3139C59.6504 19.3339 60.4804 19.3939 61.2004 19.4239C61.3104 20.0439 61.4504 20.6139 61.5604 21.1539C61.3704 21.2539 61.2004 21.3639 61.0604 21.4639C59.2304 22.8839 60.2704 23.7339 60.6104 23.8939C61.7304 24.4139 62.3204 23.4339 62.3104 22.3939C62.3104 22.0939 62.2604 21.7539 62.2104 21.4039C63.0304 21.0039 64.2304 20.6239 65.9504 20.5539C66.7304 22.2739 67.3204 23.6939 67.6304 24.3939C67.7304 24.6239 67.8204 24.8439 67.9204 25.0539C65.3604 24.8239 62.3704 25.1539 60.1404 26.2739C60.0304 26.3239 59.9404 26.3839 59.8304 26.4339C57.1804 23.9739 53.4304 20.6939 51.0904 19.4839C48.3904 18.0839 44.0704 16.7339 44.5004 20.9339C44.5704 21.6439 44.7504 23.2239 44.7404 24.5939C44.4104 24.6739 44.1104 24.7739 43.8504 24.8939C42.1204 25.6739 42.7204 27.1139 43.3704 27.3539C44.1604 27.6439 45.0504 27.4339 45.2304 25.1539C45.7904 25.0239 46.4204 24.8739 47.0104 24.6939C47.2904 25.4339 47.6304 26.1139 47.8104 26.5139C47.8304 26.5639 47.8504 26.6139 47.8704 26.6639C47.3504 26.8939 46.9104 27.1739 46.7404 27.5139C45.8904 29.3039 47.9904 29.8239 48.6904 28.6339C48.9104 28.2539 48.8504 27.7239 48.6604 27.0639C49.3604 26.8639 50.2304 26.6639 50.9704 26.4139C51.2704 26.9839 51.6604 27.7339 51.9804 28.4239C51.3804 28.7439 50.8404 29.1639 50.8104 29.7539C50.7104 31.5139 52.8704 31.3839 53.0204 29.9239C53.0604 29.5939 52.9604 29.1739 52.7904 28.7239C53.5104 28.4139 54.3004 28.2239 55.0304 27.9539C55.3504 28.4539 55.7004 28.9439 56.0004 29.3339C55.7404 29.6239 55.5604 29.8739 55.4504 30.0639C54.7004 31.3939 55.7504 32.5039 56.8604 32.1039C57.9504 31.7239 57.6104 30.4339 56.7604 29.3039C57.3804 28.6939 58.3504 27.8939 59.6504 27.1839C61.6404 29.1039 63.6604 31.0839 65.4804 32.6739C62.6204 33.6139 59.9304 35.4439 57.9704 37.0539C55.4504 35.5739 53.2004 34.1039 50.9404 32.7839C44.4504 28.9939 40.3804 29.3239 40.3604 31.9639C40.3404 33.8739 40.9904 35.7439 41.2704 37.2039C40.8004 37.4239 40.3404 37.6839 40.0304 38.0039C38.9604 39.1339 40.0904 40.9339 41.3704 39.6639C41.7904 39.2439 41.8904 38.4939 41.8304 37.6439C42.5704 37.3139 43.2904 37.0339 43.9004 36.7239C44.3904 37.2939 44.9904 38.0139 45.4604 38.6539C45.1404 38.8639 44.8704 39.0739 44.7004 39.2939C43.9304 40.3139 44.8004 41.2639 45.4004 41.3239C45.9404 41.3839 47.2404 40.9639 46.5704 39.2639C46.5204 39.1439 46.4504 39.0139 46.3704 38.8739C46.6304 38.7239 46.9104 38.5739 47.2504 38.4039C47.7204 38.1539 48.1504 37.9739 48.5204 37.8039C48.8904 38.2739 49.3704 38.8539 49.9504 39.6139C50.0504 39.7439 50.1204 39.8539 50.2004 39.9639C49.9304 40.1339 49.6904 40.2939 49.5504 40.4439C48.8504 41.1739 49.0104 42.3839 49.9304 42.6039C50.7404 42.8039 51.6104 42.1139 51.3404 40.9239C51.2804 40.6539 51.1804 40.4039 51.0604 40.1539C51.9604 39.7239 53.0704 39.2839 53.3904 39.0939C53.8104 39.5139 54.2604 39.9539 54.6604 40.3939C53.8604 41.6439 54.0204 42.4339 54.3804 42.8439C55.5004 44.1039 56.7704 42.8239 56.2504 41.5839C56.1104 41.2339 55.7904 40.8239 55.4104 40.3939C55.9504 39.6539 56.8604 38.7439 57.9404 37.8339C59.7804 38.9039 61.8404 40.0239 63.7904 40.8839C61.6304 42.2239 59.4404 44.1739 57.8304 46.5939C53.0404 45.0039 45.6904 42.4839 42.6204 42.6939C39.3004 42.9239 38.9804 44.4239 39.2404 45.8039C39.4704 47.0139 40.4004 48.6239 40.9404 49.9639C40.2604 50.4139 39.7404 50.8839 39.6604 51.4639C39.4504 52.8739 41.0304 53.4039 41.6804 52.3239C41.9704 51.8439 41.8704 51.0539 41.6104 50.2739C42.1904 49.8839 42.9404 49.4439 43.9204 48.9139C44.2504 49.2039 44.6104 49.5039 44.9704 49.8339C45.3104 50.1439 45.6004 50.4139 45.8504 50.6539C45.4304 50.9639 45.1004 51.2939 45.0004 51.5939C44.6104 52.7139 45.4804 53.3339 45.9904 53.3339C46.4504 53.3339 47.2204 53.0039 47.2604 52.1639C47.2804 51.6539 47.1204 51.2239 46.7904 50.7639C47.6504 50.2139 48.6304 49.7539 48.8804 49.5839C48.9304 49.5539 48.9704 49.5239 49.0204 49.4939C49.4804 49.8939 49.9704 50.2839 50.2904 50.5739C50.4504 50.7139 50.7404 50.9539 51.0404 51.2439C50.2504 51.9639 50.2204 52.4739 50.2904 52.8739C50.5204 54.0739 51.8904 54.1439 52.4104 53.0939C52.7204 52.4739 52.4404 51.8239 51.9604 51.2439C52.6204 50.7839 53.4004 50.3839 53.9504 50.0739C54.5304 50.4839 55.1704 50.8639 55.7604 51.2139C55.4204 52.4139 55.3704 53.2839 56.0904 53.7839C57.4204 54.7139 58.7904 52.9539 57.4704 51.7539C57.1004 51.4139 56.7904 51.1739 56.4904 50.9639C56.7604 50.1539 57.2104 49.1239 57.9304 47.8239C58.0104 47.6739 58.1004 47.5339 58.1804 47.3839C60.7404 48.1439 63.3404 48.8139 65.9104 49.2539C70.0704 49.9639 73.8304 49.8339 75.5404 47.7239C75.7404 48.9239 76.3904 50.0239 77.0504 50.7339C77.7304 51.4839 78.2904 52.0139 78.6104 52.3039C78.6104 53.7839 78.6104 54.6939 78.6104 54.6939C78.6104 55.9039 78.2104 56.7339 77.6504 57.2839C77.0904 56.6639 76.5104 56.5139 76.1604 56.4039C75.2104 56.1039 73.3504 56.1239 73.1804 57.4539C72.9904 58.9539 75.1104 59.1839 76.7204 58.6339C77.0304 58.5339 77.2904 58.3839 77.5204 58.2139C77.6804 58.4639 77.8204 58.7339 77.9404 59.0639C78.3104 60.1239 78.5804 62.0739 78.6204 63.3039C78.6304 63.6639 78.6504 64.0039 78.6304 72.7439C78.6304 73.1539 78.7904 73.3139 78.9204 73.3539C79.0504 73.3239 79.2104 73.1639 79.2104 72.7439C79.1904 64.0139 79.2104 63.6639 79.2204 63.3039C79.2604 62.0739 79.5304 60.1239 79.9004 59.0639C80.0104 58.7339 80.1604 58.4539 80.3204 58.2139C80.5504 58.3839 80.8104 58.5339 81.1204 58.6339C82.7404 59.1839 84.8504 58.9439 84.6604 57.4539C84.5004 56.1239 82.6304 56.1139 81.6804 56.4039C81.3404 56.5139 80.7504 56.6639 80.1904 57.2839C79.6304 56.7239 79.2304 55.8939 79.2304 54.6939C79.2304 54.6939 79.2304 53.7839 79.2304 52.3039C79.5404 52.0139 80.1004 51.4739 80.7804 50.7339C81.4404 50.0139 82.0904 48.9239 82.2904 47.7239C83.9904 49.8339 87.7604 49.9739 91.9204 49.2539C94.4904 48.8139 97.0904 48.1439 99.6504 47.3839C99.7304 47.5239 99.8204 47.6739 99.9004 47.8239C100.62 49.1339 101.07 50.1539 101.34 50.9639C101.04 51.1739 100.73 51.4239 100.36 51.7539C99.0504 52.9539 100.41 54.7139 101.74 53.7839C102.46 53.2839 102.42 52.4139 102.07 51.2139C102.65 50.8639 103.3 50.4839 103.88 50.0739C104.42 50.3839 105.2 50.7939 105.86 51.2439C105.39 51.8239 105.11 52.4739 105.41 53.0939C105.93 54.1439 107.3 54.0739 107.53 52.8739C107.6 52.4739 107.57 51.9739 106.78 51.2439C107.08 50.9539 107.37 50.7139 107.53 50.5739C107.84 50.2839 108.33 49.8939 108.8 49.4939C108.85 49.5239 108.89 49.5539 108.94 49.5839C109.2 49.7439 110.17 50.2139 111.04 50.7639C110.71 51.2339 110.55 51.6539 110.57 52.1639C110.6 52.9939 111.38 53.3339 111.83 53.3339C112.34 53.3339 113.21 52.7139 112.82 51.5939C112.72 51.2939 112.39 50.9739 111.97 50.6539C112.22 50.4139 112.51 50.1439 112.85 49.8339C113.21 49.5039 113.56 49.2039 113.89 48.9139C114.87 49.4439 115.62 49.8839 116.2 50.2739C115.93 51.0539 115.84 51.8439 116.13 52.3239C116.78 53.3939 118.36 52.8739 118.15 51.4639C118.06 50.8939 117.55 50.4139 116.87 49.9639C117.41 48.6239 118.35 47.0139 118.57 45.8039C118.83 44.4239 118.51 42.9239 115.19 42.6939" fill="#010101"/>
</svg>
