<svg width="66" height="118" viewBox="0 0 66 118" fill="none" xmlns="http://www.w3.org/2000/svg">
<path d="M60.308 0.00865922H5.69203C2.54686 0.00865922 0 2.73573 0 6.10345V111.905C0 115.273 2.54686 118 5.69203 118H60.308C63.4531 118 66 115.273 66 111.905V6.09479C66 2.72707 63.4531 0 60.308 0V0.00865922ZM1.71408 21.0114H64.2859V96.9799H1.71408V21.0114ZM64.294 111.905C64.294 114.26 62.5153 116.165 60.3161 116.165H5.70011C3.50092 116.165 1.72216 114.26 1.72216 111.905V98.8326H64.294V111.905ZM64.294 19.1674H1.72216V6.10345C1.72216 3.74865 3.50092 1.84402 5.70011 1.84402H60.3161C62.5153 1.84402 64.294 3.74865 64.294 6.10345V19.1761V19.1674Z" fill="black"/>
<path d="M54.9564 104.071V106.425H58.1905V108.174H54.9564V110.849H59.3629V112.598H52.9998V102.33H59.3629V104.079H54.9564V104.071ZM44.955 103.975C46.1597 103.975 46.9439 104.573 47.3644 105.793L47.3806 105.845L48.9653 105.127L49.0057 105.109L48.9895 105.066C48.4155 103.214 47.0167 102.235 44.955 102.235C42.1656 102.235 40.2089 104.408 40.2089 107.516C40.2089 110.624 42.1575 112.771 44.955 112.771C46.7256 112.771 48.1406 111.854 48.9572 110.191L48.9814 110.139L47.4129 109.421L47.3725 109.404L47.3482 109.447C46.8469 110.546 46.0869 111.057 44.9469 111.057C43.2409 111.057 42.2141 109.733 42.2141 107.516C42.2141 105.3 43.2328 103.975 44.9469 103.975M33.9105 106.495L32.0105 102.356L31.9943 102.322H29.7708L32.9241 108.754V112.598H34.905V108.676L38.0016 102.408L38.0421 102.33H35.8186L33.9024 106.495H33.9105ZM27.3614 107.516C27.3614 110.607 25.3644 112.771 22.5103 112.771C19.6562 112.771 17.6591 110.616 17.6591 107.516C17.6591 104.417 19.6562 102.235 22.5103 102.235C25.3644 102.235 27.3614 104.408 27.3614 107.516ZM25.3482 107.516C25.3482 105.335 24.2567 103.975 22.5103 103.975C20.7639 103.975 19.6724 105.335 19.6724 107.516C19.6724 109.698 20.7639 111.057 22.5103 111.057C24.2567 111.057 25.3482 109.698 25.3482 107.516ZM14.5786 112.425L14.6837 112.598H12.7109L12.6786 112.563C12.5007 112.356 12.3229 111.992 12.2177 111.603L11.5709 109.282C11.385 108.616 11.1747 108.321 10.439 108.321H9.04023V112.598H7.12402V102.33H11.2475C12.9778 102.33 14.1905 103.465 14.1905 105.092C14.1905 106.477 13.3416 107.144 12.6382 107.464L12.5088 107.525L12.6382 107.585C13.0263 107.776 13.3012 108.2 13.4871 108.901L14.1744 111.464C14.2795 111.854 14.4008 112.139 14.5867 112.425M12.2582 105.326C12.2582 104.503 11.8054 104.071 10.9484 104.071H9.04023V106.581H10.9484C11.8054 106.581 12.2582 106.148 12.2582 105.326ZM32.9241 35.5994H20.6345V36.3786C22.3971 36.9413 23.246 38.3698 23.2946 40.8631C23.2946 41.0449 23.2946 46.8973 23.2946 53.8751C25.801 53.399 27.6929 52.6025 28.5257 52.161V38.7594H34.7918C34.3148 37.3222 33.3607 36.0323 32.9322 35.5994M32.059 66.9911C31.8407 66.134 31.3151 64.9479 30.9836 64.3332C30.3934 64.3679 29.6091 64.3938 28.9785 64.4025H28.5176V60.0305C27.3129 60.4115 24.5397 60.8357 23.2865 61.0088C23.2865 72.5318 23.2865 84.9465 23.2865 85.1802V85.1975C23.1894 87.5523 22.3405 88.9808 20.6911 89.5522V90.3487H31.1292V89.5522C29.4313 88.9635 28.5338 87.4657 28.5338 85.1802L28.5015 67.0776H28.9542C29.9406 67.0776 31.0807 67.043 32.0428 66.9911M44.5184 40.4735C44.7771 40.6034 45.1571 40.8718 45.3512 41.0189C47.9142 42.9755 49.3291 46.1181 49.3291 49.8754C49.3291 53.1133 48.2052 59.641 39.2549 62.8269C39.8289 63.909 40.2332 65.0432 40.4676 65.6492C40.6779 65.6145 41.0094 65.5366 41.1387 65.502L41.4136 65.4241L41.5996 65.6578C44.8175 69.8047 47.3159 76.2458 48.1163 82.4704C48.1163 82.4964 48.4074 85.4572 48.4155 86.5308V86.7039C48.4155 86.7732 48.4155 86.8424 48.4155 86.903V86.9896C48.375 87.8553 48.1406 89.0414 46.6448 89.5522V90.34H57.4063V89.5608C56.4522 89.2578 54.5603 88.2016 53.7436 84.6781L53.6224 84.1413C53.016 81.4922 52.6845 80.0291 52.256 78.6093C51.2291 75.2502 48.9733 68.9476 45.3673 64.5151L44.9873 64.0476L45.5048 63.7705C45.6261 63.7099 45.7231 63.658 45.8282 63.6147C45.9171 63.5714 46.0061 63.5368 46.1031 63.4762C51.6415 60.4548 54.6896 55.598 54.6896 49.8062C54.7462 45.5381 52.3934 41.1488 49.0138 38.6815C47.5503 37.6253 45.5937 36.5344 43.4349 36.1448C44.0979 37.7638 44.4294 39.426 44.5265 40.4735M36.9263 30.8725C40.306 33.3399 42.6588 37.7291 42.6022 41.9972C42.6022 47.789 39.554 52.6458 34.0156 55.6672C33.9186 55.7192 33.8297 55.7624 33.7407 55.8057C33.6356 55.849 33.5386 55.901 33.4173 55.9616L32.8918 56.2386L33.2718 56.7061C36.8778 61.1387 39.1336 67.4412 40.1604 70.8003C40.5889 72.2201 40.9204 73.6746 41.5268 76.3324L41.6481 76.8605C42.4647 80.384 44.3567 81.4316 45.3107 81.7432V82.5224H34.5492V81.7346C36.0369 81.2238 36.2714 80.0464 36.3118 79.172V79.0768C36.3118 79.0075 36.3118 78.9469 36.3199 78.8776V78.6958C36.3118 77.6223 36.0208 74.6615 36.0208 74.6355C35.2122 68.4109 32.7139 61.9698 29.504 57.8229L29.3181 57.5892L29.0432 57.6671C25.3806 58.6973 21.1681 59.2341 16.8668 59.2341H16.414L16.4463 77.3366C16.4463 79.6222 17.3438 81.1286 19.0417 81.7086V82.5051H8.60363V81.7086C10.2449 81.1372 11.0939 79.7174 11.199 77.3539V77.328C11.199 76.8951 11.1909 33.5303 11.199 33.0195C11.1505 30.5262 10.3096 29.0977 8.53894 28.535V27.7559H25.8737C30.9513 27.7559 34.2663 28.9333 36.9182 30.8379M37.2497 42.0665C37.2497 38.3092 35.8348 35.1666 33.2718 33.2187C31.307 31.7382 28.8734 31.0197 25.615 30.9591H16.4383V56.6022H16.8991C35.2688 56.2559 37.2578 46.3259 37.2578 42.0751M18.1685 10.5017C18.1685 7.39371 20.1656 5.2207 23.0196 5.2207C25.8737 5.2207 27.8708 7.39371 27.8708 10.5017C27.8708 13.6097 25.8737 15.7827 23.0196 15.7827C20.1656 15.7827 18.1685 13.6097 18.1685 10.5017ZM20.1817 10.5017C20.1817 12.6834 21.2732 14.0426 23.0196 14.0426C24.7661 14.0426 25.8576 12.692 25.8576 10.5017C25.8576 8.31139 24.7661 6.96084 23.0196 6.96084C21.2732 6.96084 20.1817 8.32005 20.1817 10.5017ZM38.4948 13.8954H34.0884V5.37654H32.1317V15.6442H38.4948V13.8954ZM48.6742 13.8954H44.2677V5.37654H42.3111V15.6442H48.6742V13.8954ZM9.41215 15.6355H7.49594V5.36788H11.6194C13.3578 5.36788 14.5625 6.50199 14.5625 8.12958C14.5625 9.51476 13.7135 10.1814 13.0101 10.5017L12.8807 10.5623L13.0101 10.6229C13.4063 10.8134 13.6731 11.2376 13.859 11.9388L14.5463 14.5014C14.6514 14.891 14.7727 15.1767 14.9586 15.4624L15.0638 15.6269H13.091L13.0586 15.5922C12.8807 15.3845 12.7029 15.0209 12.5978 14.6313L11.9509 12.3111C11.765 11.6445 11.5547 11.3501 10.819 11.3501H9.42024V15.6269L9.41215 15.6355ZM9.41215 9.61865H11.3203C12.1773 9.61865 12.6301 9.18578 12.6301 8.36333C12.6301 7.54088 12.1773 7.10801 11.3203 7.10801H9.41215V9.61865ZM55.3688 14.0426C54.3339 14.1205 53.3232 13.5404 52.547 12.441L52.4823 12.3544L51.9245 14.4668L51.9406 14.4841C52.5551 15.2806 53.8326 15.7914 55.199 15.7914C57.1961 15.7914 58.5867 14.5014 58.5867 12.6574C58.5867 11.5406 58.2876 10.2939 56.0884 9.60134C54.3339 9.04727 54.0105 8.60574 54.0105 7.95644C54.0105 7.23787 54.7058 6.90889 55.3445 6.90889C56.0965 6.90889 56.7918 7.19459 57.5195 7.80926L57.5761 7.8612L58.0935 6.07779L58.0612 6.05182C57.2607 5.48909 56.3956 5.2207 55.3284 5.2207C53.3879 5.2207 52.1347 6.33751 52.1347 8.06898C52.1347 9.47147 53.0322 10.4844 54.8109 11.0558C55.385 11.2376 55.7731 11.4107 56.0237 11.5925C56.3714 11.8436 56.5735 12.2591 56.5735 12.7007C56.5735 13.4192 56.056 13.982 55.3526 14.0339" fill="black"/>
</svg>
